<?xml version="1.0" standalone="no"?>
 <!DOCTYPE svg PUBLIC "-//W3C//DTD SVG 1.1//EN" 
 "http://www.w3.org/Graphics/SVG/1.1/DTD/svg11.dtd"> 
<svg
  xmlns:svg="http://www.w3.org/2000/svg"
  xmlns="http://www.w3.org/2000/svg"
  xmlns:xlink="http://www.w3.org/1999/xlink"
  version="1.1"
  width="297.0022mm" height="210.0072mm" viewBox="0.0000 0.0000 297.0022 210.0072">
<title>SVG Image created as ComponentTester-F_Paste.svg date 2025/10/19 18:28:21 </title>
  <desc>Image generated by PCBNEW </desc>
<g style="fill:#000000; fill-opacity:1.0000;stroke:#000000; stroke-opacity:1.0000;
stroke-linecap:round; stroke-linejoin:round;"
 transform="translate(0 0) scale(1 1)">
<path style="fill:#000000; fill-opacity:1.0000; stroke:none;fill-rule:evenodd;"
d="M 124.5750,104.1750
124.5940,104.0793
124.6482,103.9982
124.7293,103.9440
124.8250,103.9250
125.3500,103.9250
125.4457,103.9440
125.5268,103.9982
125.5810,104.0793
125.6000,104.1750
125.6000,105.0750
125.5810,105.1707
125.5268,105.2518
125.4457,105.3060
125.3500,105.3250
124.8250,105.3250
124.7293,105.3060
124.6482,105.2518
124.5940,105.1707
124.5750,105.0750
Z" /> 
<path style="fill:#000000; fill-opacity:1.0000; stroke:none;fill-rule:evenodd;"
d="M 126.4000,104.1750
126.4190,104.0793
126.4732,103.9982
126.5543,103.9440
126.6500,103.9250
127.1750,103.9250
127.2707,103.9440
127.3518,103.9982
127.4060,104.0793
127.4250,104.1750
127.4250,105.0750
127.4060,105.1707
127.3518,105.2518
127.2707,105.3060
127.1750,105.3250
126.6500,105.3250
126.5543,105.3060
126.4732,105.2518
126.4190,105.1707
126.4000,105.0750
Z" /> 
<path style="fill:#000000; fill-opacity:1.0000; stroke:none;fill-rule:evenodd;"
d="M 123.4160,89.1418
123.5117,89.1608
123.5928,89.2150
123.6470,89.2961
123.6660,89.3918
123.6660,89.9168
123.6470,90.0125
123.5928,90.0936
123.5117,90.1478
123.4160,90.1668
122.5160,90.1668
122.4203,90.1478
122.3392,90.0936
122.2850,90.0125
122.2660,89.9168
122.2660,89.3918
122.2850,89.2961
122.3392,89.2150
122.4203,89.1608
122.5160,89.1418
Z" /> 
<path style="fill:#000000; fill-opacity:1.0000; stroke:none;fill-rule:evenodd;"
d="M 123.4160,90.9668
123.5117,90.9858
123.5928,91.0400
123.6470,91.1211
123.6660,91.2168
123.6660,91.7418
123.6470,91.8375
123.5928,91.9186
123.5117,91.9728
123.4160,91.9918
122.5160,91.9918
122.4203,91.9728
122.3392,91.9186
122.2850,91.8375
122.2660,91.7418
122.2660,91.2168
122.2850,91.1211
122.3392,91.0400
122.4203,90.9858
122.5160,90.9668
Z" /> 
<path style="fill:#000000; fill-opacity:1.0000; stroke:none;fill-rule:evenodd;"
d="M 106.9360,89.2490
107.0317,89.2680
107.1128,89.3222
107.1670,89.4033
107.1860,89.4990
107.1860,90.0240
107.1670,90.1196
107.1128,90.2007
107.0317,90.2549
106.9360,90.2740
106.0360,90.2740
105.9403,90.2549
105.8592,90.2007
105.8050,90.1196
105.7860,90.0240
105.7860,89.4990
105.8050,89.4033
105.8592,89.3222
105.9403,89.2680
106.0360,89.2490
Z" /> 
<path style="fill:#000000; fill-opacity:1.0000; stroke:none;fill-rule:evenodd;"
d="M 106.9360,91.0740
107.0317,91.0930
107.1128,91.1472
107.1670,91.2283
107.1860,91.3240
107.1860,91.8490
107.1670,91.9446
107.1128,92.0257
107.0317,92.0799
106.9360,92.0990
106.0360,92.0990
105.9403,92.0799
105.8592,92.0257
105.8050,91.9446
105.7860,91.8490
105.7860,91.3240
105.8050,91.2283
105.8592,91.1472
105.9403,91.0930
106.0360,91.0740
Z" /> 
<path style="fill:#000000; fill-opacity:1.0000; stroke:none;fill-rule:evenodd;"
d="M 121.1300,89.1418
121.2257,89.1608
121.3068,89.2150
121.3610,89.2961
121.3800,89.3918
121.3800,89.9168
121.3610,90.0125
121.3068,90.0936
121.2257,90.1478
121.1300,90.1668
120.2300,90.1668
120.1343,90.1478
120.0532,90.0936
119.9990,90.0125
119.9800,89.9168
119.9800,89.3918
119.9990,89.2961
120.0532,89.2150
120.1343,89.1608
120.2300,89.1418
Z" /> 
<path style="fill:#000000; fill-opacity:1.0000; stroke:none;fill-rule:evenodd;"
d="M 121.1300,90.9668
121.2257,90.9858
121.3068,91.0400
121.3610,91.1211
121.3800,91.2168
121.3800,91.7418
121.3610,91.8375
121.3068,91.9186
121.2257,91.9728
121.1300,91.9918
120.2300,91.9918
120.1343,91.9728
120.0532,91.9186
119.9990,91.8375
119.9800,91.7418
119.9800,91.2168
119.9990,91.1211
120.0532,91.0400
120.1343,90.9858
120.2300,90.9668
Z" /> 
<path style="fill:#000000; fill-opacity:1.0000; stroke:none;fill-rule:evenodd;"
d="M 119.3770,108.3907
119.4727,108.4097
119.5538,108.4639
119.6080,108.5450
119.6270,108.6407
119.6270,109.1407
119.6080,109.2363
119.5538,109.3174
119.4727,109.3716
119.3770,109.3907
118.4270,109.3907
118.3313,109.3716
118.2502,109.3174
118.1960,109.2363
118.1770,109.1407
118.1770,108.6407
118.1960,108.5450
118.2502,108.4639
118.3313,108.4097
118.4270,108.3907
Z" /> 
<path style="fill:#000000; fill-opacity:1.0000; stroke:none;fill-rule:evenodd;"
d="M 119.3770,110.2907
119.4727,110.3097
119.5538,110.3639
119.6080,110.4450
119.6270,110.5407
119.6270,111.0407
119.6080,111.1363
119.5538,111.2174
119.4727,111.2716
119.3770,111.2907
118.4270,111.2907
118.3313,111.2716
118.2502,111.2174
118.1960,111.1363
118.1770,111.0407
118.1770,110.5407
118.1960,110.4450
118.2502,110.3639
118.3313,110.3097
118.4270,110.2907
Z" /> 
<path style="fill:#000000; fill-opacity:1.0000; stroke:none;fill-rule:evenodd;"
d="M 121.4331,97.6509
121.4857,97.6613
121.5303,97.6911
121.5601,97.7358
121.5706,97.7884
121.5706,98.9884
121.5601,99.0410
121.5303,99.0856
121.4857,99.1154
121.4331,99.1259
121.1581,99.1259
121.1055,99.1154
121.0609,99.0856
121.0311,99.0410
121.0206,98.9884
121.0206,97.7884
121.0311,97.7358
121.0609,97.6911
121.1055,97.6613
121.1581,97.6509
Z" /> 
<path style="fill:#000000; fill-opacity:1.0000; stroke:none;fill-rule:evenodd;"
d="M 120.6331,97.6509
120.6857,97.6613
120.7303,97.6911
120.7601,97.7358
120.7706,97.7884
120.7706,98.9884
120.7601,99.0410
120.7303,99.0856
120.6857,99.1154
120.6331,99.1259
120.3581,99.1259
120.3055,99.1154
120.2609,99.0856
120.2311,99.0410
120.2206,98.9884
120.2206,97.7884
120.2311,97.7358
120.2609,97.6911
120.3055,97.6613
120.3581,97.6509
Z" /> 
<path style="fill:#000000; fill-opacity:1.0000; stroke:none;fill-rule:evenodd;"
d="M 119.8331,97.6509
119.8857,97.6613
119.9303,97.6911
119.9601,97.7358
119.9706,97.7884
119.9706,98.9884
119.9601,99.0410
119.9303,99.0856
119.8857,99.1154
119.8331,99.1259
119.5581,99.1259
119.5055,99.1154
119.4609,99.0856
119.4311,99.0410
119.4206,98.9884
119.4206,97.7884
119.4311,97.7358
119.4609,97.6911
119.5055,97.6613
119.5581,97.6509
Z" /> 
<path style="fill:#000000; fill-opacity:1.0000; stroke:none;fill-rule:evenodd;"
d="M 119.0331,97.6509
119.0857,97.6613
119.1303,97.6911
119.1601,97.7358
119.1706,97.7884
119.1706,98.9884
119.1601,99.0410
119.1303,99.0856
119.0857,99.1154
119.0331,99.1259
118.7581,99.1259
118.7055,99.1154
118.6609,99.0856
118.6311,99.0410
118.6206,98.9884
118.6206,97.7884
118.6311,97.7358
118.6609,97.6911
118.7055,97.6613
118.7581,97.6509
Z" /> 
<path style="fill:#000000; fill-opacity:1.0000; stroke:none;fill-rule:evenodd;"
d="M 118.2331,97.6509
118.2857,97.6613
118.3303,97.6911
118.3601,97.7358
118.3706,97.7884
118.3706,98.9884
118.3601,99.0410
118.3303,99.0856
118.2857,99.1154
118.2331,99.1259
117.9581,99.1259
117.9055,99.1154
117.8609,99.0856
117.8311,99.0410
117.8206,98.9884
117.8206,97.7884
117.8311,97.7358
117.8609,97.6911
117.9055,97.6613
117.9581,97.6509
Z" /> 
<path style="fill:#000000; fill-opacity:1.0000; stroke:none;fill-rule:evenodd;"
d="M 117.4331,97.6509
117.4857,97.6613
117.5303,97.6911
117.5601,97.7358
117.5706,97.7884
117.5706,98.9884
117.5601,99.0410
117.5303,99.0856
117.4857,99.1154
117.4331,99.1259
117.1581,99.1259
117.1055,99.1154
117.0609,99.0856
117.0311,99.0410
117.0206,98.9884
117.0206,97.7884
117.0311,97.7358
117.0609,97.6911
117.1055,97.6613
117.1581,97.6509
Z" /> 
<path style="fill:#000000; fill-opacity:1.0000; stroke:none;fill-rule:evenodd;"
d="M 116.6331,97.6509
116.6857,97.6613
116.7303,97.6911
116.7601,97.7358
116.7706,97.7884
116.7706,98.9884
116.7601,99.0410
116.7303,99.0856
116.6857,99.1154
116.6331,99.1259
116.3581,99.1259
116.3055,99.1154
116.2609,99.0856
116.2311,99.0410
116.2206,98.9884
116.2206,97.7884
116.2311,97.7358
116.2609,97.6911
116.3055,97.6613
116.3581,97.6509
Z" /> 
<path style="fill:#000000; fill-opacity:1.0000; stroke:none;fill-rule:evenodd;"
d="M 115.8331,97.6509
115.8857,97.6613
115.9303,97.6911
115.9601,97.7358
115.9706,97.7884
115.9706,98.9884
115.9601,99.0410
115.9303,99.0856
115.8857,99.1154
115.8331,99.1259
115.5581,99.1259
115.5055,99.1154
115.4609,99.0856
115.4311,99.0410
115.4206,98.9884
115.4206,97.7884
115.4311,97.7358
115.4609,97.6911
115.5055,97.6613
115.5581,97.6509
Z" /> 
<path style="fill:#000000; fill-opacity:1.0000; stroke:none;fill-rule:evenodd;"
d="M 114.9331,99.4759
114.9857,99.4863
115.0303,99.5161
115.0601,99.5608
115.0706,99.6134
115.0706,99.8884
115.0601,99.9410
115.0303,99.9856
114.9857,100.0154
114.9331,100.0259
113.7331,100.0259
113.6805,100.0154
113.6359,99.9856
113.6061,99.9410
113.5956,99.8884
113.5956,99.6134
113.6061,99.5608
113.6359,99.5161
113.6805,99.4863
113.7331,99.4759
Z" /> 
<path style="fill:#000000; fill-opacity:1.0000; stroke:none;fill-rule:evenodd;"
d="M 114.9331,100.2759
114.9857,100.2863
115.0303,100.3161
115.0601,100.3607
115.0706,100.4134
115.0706,100.6884
115.0601,100.7410
115.0303,100.7856
114.9857,100.8154
114.9331,100.8259
113.7331,100.8259
113.6805,100.8154
113.6359,100.7856
113.6061,100.7410
113.5956,100.6884
113.5956,100.4134
113.6061,100.3607
113.6359,100.3161
113.6805,100.2863
113.7331,100.2759
Z" /> 
<path style="fill:#000000; fill-opacity:1.0000; stroke:none;fill-rule:evenodd;"
d="M 114.9331,101.0759
114.9857,101.0863
115.0303,101.1161
115.0601,101.1608
115.0706,101.2134
115.0706,101.4884
115.0601,101.5410
115.0303,101.5856
114.9857,101.6154
114.9331,101.6259
113.7331,101.6259
113.6805,101.6154
113.6359,101.5856
113.6061,101.5410
113.5956,101.4884
113.5956,101.2134
113.6061,101.1608
113.6359,101.1161
113.6805,101.0863
113.7331,101.0759
Z" /> 
<path style="fill:#000000; fill-opacity:1.0000; stroke:none;fill-rule:evenodd;"
d="M 114.9331,101.8759
114.9857,101.8863
115.0303,101.9161
115.0601,101.9608
115.0706,102.0134
115.0706,102.2884
115.0601,102.3410
115.0303,102.3856
114.9857,102.4154
114.9331,102.4259
113.7331,102.4259
113.6805,102.4154
113.6359,102.3856
113.6061,102.3410
113.5956,102.2884
113.5956,102.0134
113.6061,101.9608
113.6359,101.9161
113.6805,101.8863
113.7331,101.8759
Z" /> 
<path style="fill:#000000; fill-opacity:1.0000; stroke:none;fill-rule:evenodd;"
d="M 114.9331,102.6759
114.9857,102.6863
115.0303,102.7161
115.0601,102.7608
115.0706,102.8134
115.0706,103.0884
115.0601,103.1410
115.0303,103.1856
114.9857,103.2154
114.9331,103.2259
113.7331,103.2259
113.6805,103.2154
113.6359,103.1856
113.6061,103.1410
113.5956,103.0884
113.5956,102.8134
113.6061,102.7608
113.6359,102.7161
113.6805,102.6863
113.7331,102.6759
Z" /> 
<path style="fill:#000000; fill-opacity:1.0000; stroke:none;fill-rule:evenodd;"
d="M 114.9331,103.4759
114.9857,103.4863
115.0303,103.5161
115.0601,103.5608
115.0706,103.6134
115.0706,103.8884
115.0601,103.9410
115.0303,103.9856
114.9857,104.0154
114.9331,104.0259
113.7331,104.0259
113.6805,104.0154
113.6359,103.9856
113.6061,103.9410
113.5956,103.8884
113.5956,103.6134
113.6061,103.5608
113.6359,103.5161
113.6805,103.4863
113.7331,103.4759
Z" /> 
<path style="fill:#000000; fill-opacity:1.0000; stroke:none;fill-rule:evenodd;"
d="M 114.9331,104.2759
114.9857,104.2863
115.0303,104.3161
115.0601,104.3608
115.0706,104.4134
115.0706,104.6884
115.0601,104.7410
115.0303,104.7856
114.9857,104.8154
114.9331,104.8259
113.7331,104.8259
113.6805,104.8154
113.6359,104.7856
113.6061,104.7410
113.5956,104.6884
113.5956,104.4134
113.6061,104.3608
113.6359,104.3161
113.6805,104.2863
113.7331,104.2759
Z" /> 
<path style="fill:#000000; fill-opacity:1.0000; stroke:none;fill-rule:evenodd;"
d="M 114.9331,105.0759
114.9857,105.0863
115.0303,105.1161
115.0601,105.1608
115.0706,105.2134
115.0706,105.4884
115.0601,105.5410
115.0303,105.5856
114.9857,105.6154
114.9331,105.6259
113.7331,105.6259
113.6805,105.6154
113.6359,105.5856
113.6061,105.5410
113.5956,105.4884
113.5956,105.2134
113.6061,105.1608
113.6359,105.1161
113.6805,105.0863
113.7331,105.0759
Z" /> 
<path style="fill:#000000; fill-opacity:1.0000; stroke:none;fill-rule:evenodd;"
d="M 115.8331,105.9759
115.8857,105.9863
115.9303,106.0161
115.9601,106.0608
115.9706,106.1134
115.9706,107.3134
115.9601,107.3660
115.9303,107.4106
115.8857,107.4404
115.8331,107.4509
115.5581,107.4509
115.5055,107.4404
115.4609,107.4106
115.4311,107.3660
115.4206,107.3134
115.4206,106.1134
115.4311,106.0608
115.4609,106.0161
115.5055,105.9863
115.5581,105.9759
Z" /> 
<path style="fill:#000000; fill-opacity:1.0000; stroke:none;fill-rule:evenodd;"
d="M 116.6331,105.9759
116.6857,105.9863
116.7303,106.0161
116.7601,106.0608
116.7706,106.1134
116.7706,107.3134
116.7601,107.3660
116.7303,107.4106
116.6857,107.4404
116.6331,107.4509
116.3581,107.4509
116.3055,107.4404
116.2609,107.4106
116.2311,107.3660
116.2206,107.3134
116.2206,106.1134
116.2311,106.0608
116.2609,106.0161
116.3055,105.9863
116.3581,105.9759
Z" /> 
<path style="fill:#000000; fill-opacity:1.0000; stroke:none;fill-rule:evenodd;"
d="M 117.4331,105.9759
117.4857,105.9863
117.5303,106.0161
117.5601,106.0608
117.5706,106.1134
117.5706,107.3134
117.5601,107.3660
117.5303,107.4106
117.4857,107.4404
117.4331,107.4509
117.1581,107.4509
117.1055,107.4404
117.0609,107.4106
117.0311,107.3660
117.0206,107.3134
117.0206,106.1134
117.0311,106.0608
117.0609,106.0161
117.1055,105.9863
117.1581,105.9759
Z" /> 
<path style="fill:#000000; fill-opacity:1.0000; stroke:none;fill-rule:evenodd;"
d="M 118.2331,105.9759
118.2857,105.9863
118.3303,106.0161
118.3601,106.0608
118.3706,106.1134
118.3706,107.3134
118.3601,107.3660
118.3303,107.4106
118.2857,107.4404
118.2331,107.4509
117.9581,107.4509
117.9055,107.4404
117.8609,107.4106
117.8311,107.3660
117.8206,107.3134
117.8206,106.1134
117.8311,106.0608
117.8609,106.0161
117.9055,105.9863
117.9581,105.9759
Z" /> 
<path style="fill:#000000; fill-opacity:1.0000; stroke:none;fill-rule:evenodd;"
d="M 119.0331,105.9759
119.0857,105.9863
119.1303,106.0161
119.1601,106.0608
119.1706,106.1134
119.1706,107.3134
119.1601,107.3660
119.1303,107.4106
119.0857,107.4404
119.0331,107.4509
118.7581,107.4509
118.7055,107.4404
118.6609,107.4106
118.6311,107.3660
118.6206,107.3134
118.6206,106.1134
118.6311,106.0608
118.6609,106.0161
118.7055,105.9863
118.7581,105.9759
Z" /> 
<path style="fill:#000000; fill-opacity:1.0000; stroke:none;fill-rule:evenodd;"
d="M 119.8331,105.9759
119.8857,105.9863
119.9303,106.0161
119.9601,106.0608
119.9706,106.1134
119.9706,107.3134
119.9601,107.3660
119.9303,107.4106
119.8857,107.4404
119.8331,107.4509
119.5581,107.4509
119.5055,107.4404
119.4609,107.4106
119.4311,107.3660
119.4206,107.3134
119.4206,106.1134
119.4311,106.0608
119.4609,106.0161
119.5055,105.9863
119.5581,105.9759
Z" /> 
<path style="fill:#000000; fill-opacity:1.0000; stroke:none;fill-rule:evenodd;"
d="M 120.6331,105.9759
120.6857,105.9863
120.7303,106.0161
120.7601,106.0608
120.7706,106.1134
120.7706,107.3134
120.7601,107.3660
120.7303,107.4106
120.6857,107.4404
120.6331,107.4509
120.3581,107.4509
120.3055,107.4404
120.2609,107.4106
120.2311,107.3660
120.2206,107.3134
120.2206,106.1134
120.2311,106.0608
120.2609,106.0161
120.3055,105.9863
120.3581,105.9759
Z" /> 
<path style="fill:#000000; fill-opacity:1.0000; stroke:none;fill-rule:evenodd;"
d="M 121.4331,105.9759
121.4857,105.9863
121.5303,106.0161
121.5601,106.0608
121.5706,106.1134
121.5706,107.3134
121.5601,107.3660
121.5303,107.4106
121.4857,107.4404
121.4331,107.4509
121.1581,107.4509
121.1055,107.4404
121.0609,107.4106
121.0311,107.3660
121.0206,107.3134
121.0206,106.1134
121.0311,106.0608
121.0609,106.0161
121.1055,105.9863
121.1581,105.9759
Z" /> 
<path style="fill:#000000; fill-opacity:1.0000; stroke:none;fill-rule:evenodd;"
d="M 123.2581,105.0759
123.3107,105.0863
123.3553,105.1161
123.3851,105.1608
123.3956,105.2134
123.3956,105.4884
123.3851,105.5410
123.3553,105.5856
123.3107,105.6154
123.2581,105.6259
122.0581,105.6259
122.0055,105.6154
121.9609,105.5856
121.9311,105.5410
121.9206,105.4884
121.9206,105.2134
121.9311,105.1608
121.9609,105.1161
122.0055,105.0863
122.0581,105.0759
Z" /> 
<path style="fill:#000000; fill-opacity:1.0000; stroke:none;fill-rule:evenodd;"
d="M 123.2581,104.2759
123.3107,104.2863
123.3553,104.3161
123.3851,104.3608
123.3956,104.4134
123.3956,104.6884
123.3851,104.7410
123.3553,104.7856
123.3107,104.8154
123.2581,104.8259
122.0581,104.8259
122.0055,104.8154
121.9609,104.7856
121.9311,104.7410
121.9206,104.6884
121.9206,104.4134
121.9311,104.3608
121.9609,104.3161
122.0055,104.2863
122.0581,104.2759
Z" /> 
<path style="fill:#000000; fill-opacity:1.0000; stroke:none;fill-rule:evenodd;"
d="M 123.2581,103.4759
123.3107,103.4863
123.3553,103.5161
123.3851,103.5608
123.3956,103.6134
123.3956,103.8884
123.3851,103.9410
123.3553,103.9856
123.3107,104.0154
123.2581,104.0259
122.0581,104.0259
122.0055,104.0154
121.9609,103.9856
121.9311,103.9410
121.9206,103.8884
121.9206,103.6134
121.9311,103.5608
121.9609,103.5161
122.0055,103.4863
122.0581,103.4759
Z" /> 
<path style="fill:#000000; fill-opacity:1.0000; stroke:none;fill-rule:evenodd;"
d="M 123.2581,102.6759
123.3107,102.6863
123.3553,102.7161
123.3851,102.7608
123.3956,102.8134
123.3956,103.0884
123.3851,103.1410
123.3553,103.1856
123.3107,103.2154
123.2581,103.2259
122.0581,103.2259
122.0055,103.2154
121.9609,103.1856
121.9311,103.1410
121.9206,103.0884
121.9206,102.8134
121.9311,102.7608
121.9609,102.7161
122.0055,102.6863
122.0581,102.6759
Z" /> 
<path style="fill:#000000; fill-opacity:1.0000; stroke:none;fill-rule:evenodd;"
d="M 123.2581,101.8759
123.3107,101.8863
123.3553,101.9161
123.3851,101.9608
123.3956,102.0134
123.3956,102.2884
123.3851,102.3410
123.3553,102.3856
123.3107,102.4154
123.2581,102.4259
122.0581,102.4259
122.0055,102.4154
121.9609,102.3856
121.9311,102.3410
121.9206,102.2884
121.9206,102.0134
121.9311,101.9608
121.9609,101.9161
122.0055,101.8863
122.0581,101.8759
Z" /> 
<path style="fill:#000000; fill-opacity:1.0000; stroke:none;fill-rule:evenodd;"
d="M 123.2581,101.0759
123.3107,101.0863
123.3553,101.1161
123.3851,101.1608
123.3956,101.2134
123.3956,101.4884
123.3851,101.5410
123.3553,101.5856
123.3107,101.6154
123.2581,101.6259
122.0581,101.6259
122.0055,101.6154
121.9609,101.5856
121.9311,101.5410
121.9206,101.4884
121.9206,101.2134
121.9311,101.1608
121.9609,101.1161
122.0055,101.0863
122.0581,101.0759
Z" /> 
<path style="fill:#000000; fill-opacity:1.0000; stroke:none;fill-rule:evenodd;"
d="M 123.2581,100.2759
123.3107,100.2863
123.3553,100.3161
123.3851,100.3607
123.3956,100.4134
123.3956,100.6884
123.3851,100.7410
123.3553,100.7856
123.3107,100.8154
123.2581,100.8259
122.0581,100.8259
122.0055,100.8154
121.9609,100.7856
121.9311,100.7410
121.9206,100.6884
121.9206,100.4134
121.9311,100.3607
121.9609,100.3161
122.0055,100.2863
122.0581,100.2759
Z" /> 
<path style="fill:#000000; fill-opacity:1.0000; stroke:none;fill-rule:evenodd;"
d="M 123.2581,99.4759
123.3107,99.4863
123.3553,99.5161
123.3851,99.5608
123.3956,99.6134
123.3956,99.8884
123.3851,99.9410
123.3553,99.9856
123.3107,100.0154
123.2581,100.0259
122.0581,100.0259
122.0055,100.0154
121.9609,99.9856
121.9311,99.9410
121.9206,99.8884
121.9206,99.6134
121.9311,99.5608
121.9609,99.5161
122.0055,99.4863
122.0581,99.4759
Z" /> 
<path style="fill:#000000; fill-opacity:1.0000; stroke:none;fill-rule:evenodd;"
d="M 109.2220,89.2490
109.3177,89.2680
109.3988,89.3222
109.4530,89.4033
109.4720,89.4990
109.4720,90.0240
109.4530,90.1196
109.3988,90.2007
109.3177,90.2549
109.2220,90.2740
108.3220,90.2740
108.2263,90.2549
108.1452,90.2007
108.0910,90.1196
108.0720,90.0240
108.0720,89.4990
108.0910,89.4033
108.1452,89.3222
108.2263,89.2680
108.3220,89.2490
Z" /> 
<path style="fill:#000000; fill-opacity:1.0000; stroke:none;fill-rule:evenodd;"
d="M 109.2220,91.0740
109.3177,91.0930
109.3988,91.1472
109.4530,91.2283
109.4720,91.3240
109.4720,91.8490
109.4530,91.9446
109.3988,92.0257
109.3177,92.0799
109.2220,92.0990
108.3220,92.0990
108.2263,92.0799
108.1452,92.0257
108.0910,91.9446
108.0720,91.8490
108.0720,91.3240
108.0910,91.2283
108.1452,91.1472
108.2263,91.0930
108.3220,91.0740
Z" /> 
<path style="fill:#000000; fill-opacity:1.0000; stroke:none;fill-rule:evenodd;"
d="M 111.8844,89.3316
111.9801,89.3507
112.0612,89.4049
112.1154,89.4860
112.1344,89.5816
112.1344,90.1066
112.1154,90.2023
112.0612,90.2834
111.9801,90.3376
111.8844,90.3566
110.9844,90.3566
110.8887,90.3376
110.8076,90.2834
110.7534,90.2023
110.7344,90.1066
110.7344,89.5816
110.7534,89.4860
110.8076,89.4049
110.8887,89.3507
110.9844,89.3316
Z" /> 
<path style="fill:#000000; fill-opacity:1.0000; stroke:none;fill-rule:evenodd;"
d="M 111.8844,91.1566
111.9801,91.1757
112.0612,91.2299
112.1154,91.3110
112.1344,91.4066
112.1344,91.9316
112.1154,92.0273
112.0612,92.1084
111.9801,92.1626
111.8844,92.1816
110.9844,92.1816
110.8887,92.1626
110.8076,92.1084
110.7534,92.0273
110.7344,91.9316
110.7344,91.4066
110.7534,91.3110
110.8076,91.2299
110.8887,91.1757
110.9844,91.1566
Z" /> 
<path style="fill:#000000; fill-opacity:1.0000; stroke:none;fill-rule:evenodd;"
d="M 114.1704,89.3316
114.2661,89.3507
114.3472,89.4049
114.4014,89.4860
114.4204,89.5816
114.4204,90.1066
114.4014,90.2023
114.3472,90.2834
114.2661,90.3376
114.1704,90.3566
113.2704,90.3566
113.1747,90.3376
113.0936,90.2834
113.0394,90.2023
113.0204,90.1066
113.0204,89.5816
113.0394,89.4860
113.0936,89.4049
113.1747,89.3507
113.2704,89.3316
Z" /> 
<path style="fill:#000000; fill-opacity:1.0000; stroke:none;fill-rule:evenodd;"
d="M 114.1704,91.1566
114.2661,91.1757
114.3472,91.2299
114.4014,91.3110
114.4204,91.4066
114.4204,91.9316
114.4014,92.0273
114.3472,92.1084
114.2661,92.1626
114.1704,92.1816
113.2704,92.1816
113.1747,92.1626
113.0936,92.1084
113.0394,92.0273
113.0204,91.9316
113.0204,91.4066
113.0394,91.3110
113.0936,91.2299
113.1747,91.1757
113.2704,91.1566
Z" /> 
<path style="fill:#000000; fill-opacity:1.0000; stroke:none;fill-rule:evenodd;"
d="M 117.2942,108.3907
117.3899,108.4097
117.4710,108.4639
117.5252,108.5450
117.5442,108.6407
117.5442,109.1407
117.5252,109.2363
117.4710,109.3174
117.3899,109.3716
117.2942,109.3907
116.3442,109.3907
116.2485,109.3716
116.1674,109.3174
116.1132,109.2363
116.0942,109.1407
116.0942,108.6407
116.1132,108.5450
116.1674,108.4639
116.2485,108.4097
116.3442,108.3907
Z" /> 
<path style="fill:#000000; fill-opacity:1.0000; stroke:none;fill-rule:evenodd;"
d="M 117.2942,110.2907
117.3899,110.3097
117.4710,110.3639
117.5252,110.4450
117.5442,110.5407
117.5442,111.0407
117.5252,111.1363
117.4710,111.2174
117.3899,111.2716
117.2942,111.2907
116.3442,111.2907
116.2485,111.2716
116.1674,111.2174
116.1132,111.1363
116.0942,111.0407
116.0942,110.5407
116.1132,110.4450
116.1674,110.3639
116.2485,110.3097
116.3442,110.2907
Z" /> 
<path style="fill:#000000; fill-opacity:1.0000; stroke:none;fill-rule:evenodd;"
d="M 116.8170,95.2941
116.8360,95.1984
116.8902,95.1173
116.9713,95.0631
117.0670,95.0441
117.5670,95.0441
117.6627,95.0631
117.7438,95.1173
117.7980,95.1984
117.8170,95.2941
117.8170,96.2441
117.7980,96.3397
117.7438,96.4208
117.6627,96.4750
117.5670,96.4941
117.0670,96.4941
116.9713,96.4750
116.8902,96.4208
116.8360,96.3397
116.8170,96.2441
Z" /> 
<path style="fill:#000000; fill-opacity:1.0000; stroke:none;fill-rule:evenodd;"
d="M 118.7170,95.2941
118.7360,95.1984
118.7902,95.1173
118.8713,95.0631
118.9670,95.0441
119.4670,95.0441
119.5627,95.0631
119.6438,95.1173
119.6980,95.1984
119.7170,95.2941
119.7170,96.2441
119.6980,96.3397
119.6438,96.4208
119.5627,96.4750
119.4670,96.4941
118.9670,96.4941
118.8713,96.4750
118.7902,96.4208
118.7360,96.3397
118.7170,96.2441
Z" /> 
<path style="fill:#000000; fill-opacity:1.0000; stroke:none;fill-rule:evenodd;"
d="M 127.4250,103.1000
127.4060,103.1957
127.3518,103.2768
127.2707,103.3310
127.1750,103.3500
126.6750,103.3500
126.5793,103.3310
126.4982,103.2768
126.4440,103.1957
126.4250,103.1000
126.4250,102.1500
126.4440,102.0543
126.4982,101.9732
126.5793,101.9190
126.6750,101.9000
127.1750,101.9000
127.2707,101.9190
127.3518,101.9732
127.4060,102.0543
127.4250,102.1500
Z" /> 
<path style="fill:#000000; fill-opacity:1.0000; stroke:none;fill-rule:evenodd;"
d="M 125.5250,103.1000
125.5060,103.1957
125.4518,103.2768
125.3707,103.3310
125.2750,103.3500
124.7750,103.3500
124.6793,103.3310
124.5982,103.2768
124.5440,103.1957
124.5250,103.1000
124.5250,102.1500
124.5440,102.0543
124.5982,101.9732
124.6793,101.9190
124.7750,101.9000
125.2750,101.9000
125.3707,101.9190
125.4518,101.9732
125.5060,102.0543
125.5250,102.1500
Z" /> 
</g> 
</svg>
