<?xml version="1.0" encoding="UTF-8" standalone="no"?>
<svg
   version="1.1"
   width="297.0022mm"
   height="210.0072mm"
   viewBox="0.0000 0.0000 297.0022 210.0072"
   id="svg70"
   sodipodi:docname="stencil.svg"
   inkscape:version="1.4.2 (ebf0e940d0, 2025-05-08)"
   xmlns:inkscape="http://www.inkscape.org/namespaces/inkscape"
   xmlns:sodipodi="http://sodipodi.sourceforge.net/DTD/sodipodi-0.dtd"
   xmlns="http://www.w3.org/2000/svg"
   xmlns:svg="http://www.w3.org/2000/svg"
   xmlns:rdf="http://www.w3.org/1999/02/22-rdf-syntax-ns#"
   xmlns:cc="http://creativecommons.org/ns#"
   xmlns:dc="http://purl.org/dc/elements/1.1/">
  <defs
     id="defs70" />
  <sodipodi:namedview
     id="namedview70"
     pagecolor="#ffffff"
     bordercolor="#000000"
     borderopacity="0.25"
     inkscape:showpageshadow="2"
     inkscape:pageopacity="0.0"
     inkscape:pagecheckerboard="0"
     inkscape:deskcolor="#d1d1d1"
     inkscape:document-units="mm"
     inkscape:zoom="5.8440934"
     inkscape:cx="410.92772"
     inkscape:cy="379.87072"
     inkscape:window-width="1920"
     inkscape:window-height="1022"
     inkscape:window-x="0"
     inkscape:window-y="0"
     inkscape:window-maximized="1"
     inkscape:current-layer="svg70" />
  <title
     id="title1">SVG Image created as ComponentTester-Edge_Cuts.svg date 2025/10/19 18:28:22 </title>
  <desc
     id="desc1">Image generated by PCBNEW </desc>
  <path
     d="m 118.42791,110.34159 -0.0765,0.016 -0.0641,0.0429 -0.045,0.0641 -0.0155,0.0801 v 0.49041 l 0.0155,0.0822 0.045,0.0646 0.0641,0.0429 0.0806,0.0155 h 0.94103 l 0.0801,-0.0155 0.0646,-0.0429 0.0429,-0.0646 0.0155,-0.0822 v -0.49041 l -0.0155,-0.0801 -0.0429,-0.0641 -0.0646,-0.0429 -0.0801,-0.016 z"
     style="baseline-shift:baseline;display:inline;overflow:visible;fill-rule:evenodd;enable-background:accumulate;stop-color:#000000;stop-opacity:1;stroke:#000000;stroke-opacity:1;stroke-width:0.2;stroke-dasharray:none;fill:none"
     id="path352" />
  <path
     d="m 118.42171,110.2403 -0.10904,0.0212 -0.0977,0.0667 -0.0667,0.0977 -0.0212,0.10955 v 0.50953 l 0.0212,0.11162 0.0667,0.0977 0.0977,0.0641 0.10904,0.0238 h 0.96118 l 0.10956,-0.0238 0.0977,-0.0641 0.0661,-0.0977 0.0217,-0.11162 v -0.50953 l -0.0217,-0.10955 -0.0661,-0.0977 -0.0977,-0.0667 -0.10956,-0.0212 z m 0.006,0.10129 h 0.94517 l 0.0801,0.016 0.0646,0.0429 0.0429,0.0641 0.0155,0.0801 v 0.49041 l -0.0155,0.0822 -0.0429,0.0646 -0.0646,0.0429 -0.0801,0.0155 h -0.94103 l -0.0806,-0.0155 -0.0641,-0.0429 -0.045,-0.0646 -0.0155,-0.0822 v -0.49041 l 0.0155,-0.0801 0.045,-0.0641 0.0641,-0.0429 z"
     style="baseline-shift:baseline;display:inline;overflow:visible;fill-rule:evenodd;enable-background:accumulate;stop-color:#000000;stop-opacity:1;stroke:#000000;stroke-opacity:1;stroke-width:0.2;stroke-dasharray:none;fill:none"
     id="path351" />
  <path
     d="m 116.3438,110.34159 -0.076,0.016 -0.0646,0.0429 -0.0429,0.0641 -0.0155,0.0801 v 0.49041 l 0.0155,0.0822 0.0429,0.0646 0.0646,0.0429 0.0816,0.0155 h 0.93947 l 0.0822,-0.0155 0.0646,-0.0429 0.0429,-0.0646 0.0155,-0.0822 v -0.49041 l -0.0155,-0.0801 -0.0429,-0.0641 -0.0646,-0.0429 -0.0822,-0.016 z"
     style="baseline-shift:baseline;display:inline;overflow:visible;fill-rule:evenodd;enable-background:accumulate;stop-color:#000000;stop-opacity:1;stroke:#000000;stroke-opacity:1;stroke-width:0.2;stroke-dasharray:none;fill:none"
     id="path350" />
  <path
     d="m 116.33967,110.2403 -0.11111,0.0212 -0.0977,0.0667 -0.0646,0.0977 -0.0212,0.10955 v 0.50953 l 0.0212,0.11162 0.0646,0.0977 0.0977,0.0641 0.11111,0.0238 h 0.95911 l 0.11162,-0.0238 0.0977,-0.0641 0.0641,-0.0977 0.0217,-0.11162 v -0.50953 l -0.0217,-0.10955 -0.0641,-0.0977 -0.0997,-0.0667 -0.10956,-0.0212 z m 0.004,0.10129 h 0.94516 l 0.0822,0.016 0.0646,0.0429 0.0429,0.0641 0.0155,0.0801 v 0.49041 l -0.0155,0.0822 -0.0429,0.0646 -0.0646,0.0429 -0.0822,0.0155 h -0.93947 l -0.0816,-0.0155 -0.0646,-0.0429 -0.0429,-0.0646 -0.0155,-0.0822 v -0.49041 l 0.0155,-0.0801 0.0429,-0.0641 0.0646,-0.0429 z"
     style="baseline-shift:baseline;display:inline;overflow:visible;fill-rule:evenodd;enable-background:accumulate;stop-color:#000000;stop-opacity:1;stroke:#000000;stroke-opacity:1;stroke-width:0.2;stroke-dasharray:none;fill:none"
     id="path349" />
  <path
     d="m 118.42791,108.44144 -0.0765,0.0155 -0.0641,0.0429 -0.045,0.0646 -0.0155,0.0822 v 0.48834 l 0.0155,0.0816 0.045,0.0646 0.0641,0.0429 0.0806,0.0155 h 0.94103 l 0.0801,-0.0155 0.0646,-0.0429 0.0429,-0.0646 0.0155,-0.0816 v -0.48834 l -0.0155,-0.0822 -0.0429,-0.0646 -0.0646,-0.0429 -0.0801,-0.0155 z"
     style="baseline-shift:baseline;display:inline;overflow:visible;fill-rule:evenodd;enable-background:accumulate;stop-color:#000000;stop-opacity:1;stroke:#000000;stroke-opacity:1;stroke-width:0.2;stroke-dasharray:none;fill:none"
     id="path348" />
  <path
     d="m 118.42171,108.33964 -0.10904,0.0238 -0.0977,0.0641 -0.0667,0.0977 -0.0212,0.11162 v 0.50746 l 0.0212,0.11162 0.0667,0.0977 0.0977,0.0646 0.10904,0.0232 h 0.96118 l 0.10956,-0.0232 0.0977,-0.0646 0.0661,-0.0977 0.0217,-0.11162 v -0.50746 l -0.0217,-0.11162 -0.0661,-0.0977 -0.0977,-0.0641 -0.10956,-0.0238 z m 0.006,0.1018 h 0.94517 l 0.0801,0.0155 0.0646,0.0429 0.0429,0.0646 0.0155,0.0822 v 0.48834 l -0.0155,0.0816 -0.0429,0.0646 -0.0646,0.0429 -0.0801,0.0155 h -0.94103 l -0.0806,-0.0155 -0.0641,-0.0429 -0.045,-0.0646 -0.0155,-0.0816 v -0.48834 l 0.0155,-0.0822 0.045,-0.0646 0.0641,-0.0429 z"
     style="baseline-shift:baseline;display:inline;overflow:visible;fill-rule:evenodd;enable-background:accumulate;stop-color:#000000;stop-opacity:1;stroke:#000000;stroke-opacity:1;stroke-width:0.2;stroke-dasharray:none;fill:none"
     id="path347" />
  <path
     d="m 116.3438,108.44144 -0.076,0.0155 -0.0646,0.0429 -0.0429,0.0646 -0.0155,0.0822 v 0.48834 l 0.0155,0.0816 0.0429,0.0646 0.0646,0.0429 0.0816,0.0155 h 0.93947 l 0.0822,-0.0155 0.0646,-0.0429 0.0429,-0.0646 0.0155,-0.0816 v -0.48834 l -0.0155,-0.0822 -0.0429,-0.0646 -0.0646,-0.0429 -0.0822,-0.0155 z"
     style="baseline-shift:baseline;display:inline;overflow:visible;fill-rule:evenodd;enable-background:accumulate;stop-color:#000000;stop-opacity:1;stroke:#000000;stroke-opacity:1;stroke-width:0.2;stroke-dasharray:none;fill:none"
     id="path346" />
  <path
     d="m 116.33967,108.33964 -0.11111,0.0238 -0.0977,0.0641 -0.0646,0.0977 -0.0212,0.11162 v 0.50746 l 0.0212,0.11162 0.0646,0.0977 0.0977,0.0646 0.11111,0.0232 h 0.95911 l 0.11162,-0.0232 0.0977,-0.0646 0.0641,-0.0977 0.0217,-0.11162 v -0.50746 l -0.0217,-0.11162 -0.0661,-0.0977 -0.0977,-0.0641 -0.10956,-0.0238 z m 0.004,0.1018 h 0.94516 l 0.0822,0.0155 0.0646,0.0429 0.0429,0.0646 0.0155,0.0822 v 0.48834 l -0.0155,0.0816 -0.0429,0.0646 -0.0646,0.0429 -0.0822,0.0155 h -0.93947 l -0.0816,-0.0155 -0.0646,-0.0429 -0.0429,-0.0646 -0.0155,-0.0816 v -0.48834 l 0.0155,-0.0822 0.0429,-0.0646 0.0646,-0.0429 z"
     style="baseline-shift:baseline;display:inline;overflow:visible;fill-rule:evenodd;enable-background:accumulate;stop-color:#000000;stop-opacity:1;stroke:#000000;stroke-opacity:1;stroke-width:0.2;stroke-dasharray:none;fill:none"
     id="path345" />
  <path
     d="m 121.1678,106.02557 -0.0429,0.008 -0.0274,0.0196 -0.0191,0.0274 -0.008,0.0388 v 1.1896 l 0.008,0.0372 0.0191,0.0295 0.0274,0.0176 0.0372,0.008 h 0.26562 l 0.0393,-0.008 0.0269,-0.0176 0.0196,-0.0295 0.006,-0.0372 v -1.1896 l -0.006,-0.0388 -0.0196,-0.0274 -0.0269,-0.0196 -0.0393,-0.008 z"
     style="baseline-shift:baseline;display:inline;overflow:visible;fill-rule:evenodd;enable-background:accumulate;stop-color:#000000;stop-opacity:1;stroke:#000000;stroke-opacity:1;stroke-width:0.2;stroke-dasharray:none;fill:none"
     id="path344" />
  <path
     d="m 121.15229,105.92583 -0.0661,0.0134 -0.0605,0.0413 -0.0413,0.0605 -0.0134,0.0682 v 1.20922 l 0.0134,0.0661 0.0413,0.0625 0.0605,0.0413 0.0661,0.0114 h 0.28526 l 0.0682,-0.0114 0.061,-0.0413 0.0408,-0.0625 0.0134,-0.0661 v -1.20922 l -0.0134,-0.0682 -0.0408,-0.0605 -0.061,-0.0413 -0.0682,-0.0134 z m 0.0155,0.0997 h 0.25993 l 0.0393,0.008 0.0269,0.0196 0.0196,0.0274 0.006,0.0388 v 1.1896 l -0.006,0.0372 -0.0196,0.0295 -0.0269,0.0176 -0.0393,0.008 h -0.26562 l -0.0372,-0.008 -0.0274,-0.0176 -0.0191,-0.0295 -0.008,-0.0372 v -1.1896 l 0.008,-0.0388 0.0191,-0.0274 0.0274,-0.0196 z"
     style="baseline-shift:baseline;display:inline;overflow:visible;fill-rule:evenodd;enable-background:accumulate;stop-color:#000000;stop-opacity:1;stroke:#000000;stroke-opacity:1;stroke-width:0.2;stroke-dasharray:none;fill:none"
     id="path343" />
  <path
     d="m 120.36733,106.02557 -0.0429,0.008 -0.0274,0.0196 -0.0196,0.0274 -0.006,0.0388 v 1.1896 l 0.006,0.0372 0.0196,0.0295 0.0274,0.0176 0.0388,0.008 h 0.26561 l 0.0372,-0.008 0.0274,-0.0176 0.0196,-0.0295 0.008,-0.0372 v -1.1896 l -0.008,-0.0388 -0.0196,-0.0274 -0.0274,-0.0196 -0.0372,-0.008 z"
     style="baseline-shift:baseline;display:inline;overflow:visible;fill-rule:evenodd;enable-background:accumulate;stop-color:#000000;stop-opacity:1;stroke:#000000;stroke-opacity:1;stroke-width:0.2;stroke-dasharray:none;fill:none"
     id="path342" />
  <path
     d="m 120.35338,105.92583 -0.0682,0.0134 -0.0605,0.0413 -0.0413,0.0605 -0.0134,0.0682 v 1.20922 l 0.0134,0.0661 0.0413,0.0625 0.0605,0.0413 0.0682,0.0114 h 0.28525 l 0.0667,-0.0114 0.0605,-0.0413 0.0408,-0.0625 0.014,-0.0661 v -1.20922 l -0.014,-0.0682 -0.0408,-0.0605 -0.0605,-0.0413 -0.0667,-0.0134 z m 0.0139,0.0997 h 0.26148 l 0.0372,0.008 0.0274,0.0196 0.0196,0.0274 0.008,0.0388 v 1.1896 l -0.008,0.0372 -0.0196,0.0295 -0.0274,0.0176 -0.0372,0.008 h -0.26561 l -0.0388,-0.008 -0.0274,-0.0176 -0.0196,-0.0295 -0.006,-0.0372 v -1.1896 l 0.006,-0.0388 0.0196,-0.0274 0.0274,-0.0196 z"
     style="baseline-shift:baseline;display:inline;overflow:visible;fill-rule:evenodd;enable-background:accumulate;stop-color:#000000;stop-opacity:1;stroke:#000000;stroke-opacity:1;stroke-width:0.2;stroke-dasharray:none;fill:none"
     id="path341" />
  <path
     d="m 119.56841,106.02557 -0.0429,0.008 -0.0294,0.0196 -0.0176,0.0274 -0.008,0.0388 v 1.1896 l 0.008,0.0372 0.0176,0.0295 0.0294,0.0176 0.0372,0.008 h 0.26561 l 0.0367,-0.008 0.0295,-0.0176 0.0176,-0.0295 0.008,-0.0372 v -1.1896 l -0.008,-0.0388 -0.0176,-0.0274 -0.0295,-0.0196 -0.0367,-0.008 z"
     style="baseline-shift:baseline;display:inline;overflow:visible;fill-rule:evenodd;enable-background:accumulate;stop-color:#000000;stop-opacity:1;stroke:#000000;stroke-opacity:1;stroke-width:0.2;stroke-dasharray:none;fill:none"
     id="path340" />
  <path
     d="m 119.55291,105.92583 -0.0667,0.0134 -0.0605,0.0413 -0.0408,0.0605 -0.014,0.0682 v 1.20922 l 0.014,0.0661 0.0408,0.0625 0.0605,0.0413 0.0667,0.0114 h 0.28474 l 0.0667,-0.0114 0.0625,-0.0413 0.0408,-0.0625 0.0119,-0.0661 v -1.20922 l -0.0119,-0.0682 -0.0408,-0.0605 -0.0625,-0.0413 -0.0667,-0.0134 z m 0.0155,0.0997 h 0.25993 l 0.0367,0.008 0.0295,0.0196 0.0176,0.0274 0.008,0.0388 v 1.1896 l -0.008,0.0372 -0.0176,0.0295 -0.0295,0.0176 -0.0367,0.008 h -0.26561 l -0.0372,-0.008 -0.0294,-0.0176 -0.0176,-0.0295 -0.008,-0.0372 v -1.1896 l 0.008,-0.0388 0.0176,-0.0274 0.0294,-0.0196 z"
     style="baseline-shift:baseline;display:inline;overflow:visible;fill-rule:evenodd;enable-background:accumulate;stop-color:#000000;stop-opacity:1;stroke:#000000;stroke-opacity:1;stroke-width:0.2;stroke-dasharray:none;fill:none"
     id="path339" />
  <path
     d="m 118.76743,106.02557 -0.0429,0.008 -0.0274,0.0196 -0.0191,0.0274 -0.008,0.0388 v 1.1896 l 0.008,0.0372 0.0191,0.0295 0.0274,0.0176 0.0393,0.008 h 0.26355 l 0.0393,-0.008 0.0274,-0.0176 0.0191,-0.0295 0.008,-0.0372 v -1.1896 l -0.008,-0.0388 -0.0191,-0.0274 -0.0274,-0.0196 -0.0393,-0.008 z"
     style="baseline-shift:baseline;display:inline;overflow:visible;fill-rule:evenodd;enable-background:accumulate;stop-color:#000000;stop-opacity:1;stroke:#000000;stroke-opacity:1;stroke-width:0.2;stroke-dasharray:none;fill:none"
     id="path338" />
  <path
     d="m 118.75399,105.92583 -0.0687,0.0134 -0.0605,0.0413 -0.0408,0.0605 -0.014,0.0682 v 1.20922 l 0.014,0.0661 0.0408,0.0625 0.0605,0.0413 0.0687,0.0114 h 0.28319 l 0.0682,-0.0114 0.0605,-0.0413 0.0413,-0.0625 0.0134,-0.0661 v -1.20922 l -0.0134,-0.0682 -0.0413,-0.0605 -0.0605,-0.0413 -0.0682,-0.0134 z m 0.0134,0.0997 h 0.25993 l 0.0393,0.008 0.0274,0.0196 0.0191,0.0274 0.008,0.0388 v 1.1896 l -0.008,0.0372 -0.0191,0.0295 -0.0274,0.0176 -0.0393,0.008 h -0.26355 l -0.0393,-0.008 -0.0274,-0.0176 -0.0191,-0.0295 -0.008,-0.0372 v -1.1896 l 0.008,-0.0388 0.0191,-0.0274 0.0274,-0.0196 z"
     style="baseline-shift:baseline;display:inline;overflow:visible;fill-rule:evenodd;enable-background:accumulate;stop-color:#000000;stop-opacity:1;stroke:#000000;stroke-opacity:1;stroke-width:0.2;stroke-dasharray:none;fill:none"
     id="path337" />
  <path
     d="m 117.96696,106.02557 -0.0413,0.008 -0.0289,0.0196 -0.0176,0.0274 -0.008,0.0388 v 1.1896 l 0.008,0.0372 0.0176,0.0295 0.0289,0.0176 0.0372,0.008 h 0.26561 l 0.0372,-0.008 0.0295,-0.0176 0.0176,-0.0295 0.008,-0.0372 v -1.1896 l -0.008,-0.0388 -0.0176,-0.0274 -0.0295,-0.0196 -0.0372,-0.008 z"
     style="baseline-shift:baseline;display:inline;overflow:visible;fill-rule:evenodd;enable-background:accumulate;stop-color:#000000;stop-opacity:1;stroke:#000000;stroke-opacity:1;stroke-width:0.2;stroke-dasharray:none;fill:none"
     id="path336" />
  <path
     d="m 117.95301,105.92583 -0.0662,0.0134 -0.0625,0.0413 -0.0413,0.0605 -0.0114,0.0682 v 1.20922 l 0.0114,0.0661 0.0413,0.0625 0.0625,0.0413 0.0662,0.0114 h 0.28525 l 0.0667,-0.0114 0.0605,-0.0413 0.0429,-0.0625 0.0114,-0.0661 v -1.20922 l -0.0114,-0.0682 -0.0429,-0.0605 -0.0605,-0.0413 -0.0667,-0.0134 z m 0.0139,0.0997 h 0.26148 l 0.0372,0.008 0.0295,0.0196 0.0176,0.0274 0.008,0.0388 v 1.1896 l -0.008,0.0372 -0.0176,0.0295 -0.0295,0.0176 -0.0372,0.008 h -0.26561 l -0.0372,-0.008 -0.0289,-0.0176 -0.0176,-0.0295 -0.008,-0.0372 v -1.1896 l 0.008,-0.0388 0.0176,-0.0274 0.0289,-0.0196 z"
     style="baseline-shift:baseline;display:inline;overflow:visible;fill-rule:evenodd;enable-background:accumulate;stop-color:#000000;stop-opacity:1;stroke:#000000;stroke-opacity:1;stroke-width:0.2;stroke-dasharray:none;fill:none"
     id="path335" />
  <path
     d="m 117.16804,106.02557 -0.0429,0.008 -0.0274,0.0196 -0.0196,0.0274 -0.008,0.0388 v 1.1896 l 0.008,0.0372 0.0196,0.0295 0.0274,0.0176 0.0372,0.008 h 0.26561 l 0.0388,-0.008 0.0274,-0.0176 0.0196,-0.0295 0.008,-0.0372 v -1.1896 l -0.008,-0.0388 -0.0196,-0.0274 -0.0274,-0.0196 -0.0388,-0.008 z"
     style="baseline-shift:baseline;display:inline;overflow:visible;fill-rule:evenodd;enable-background:accumulate;stop-color:#000000;stop-opacity:1;stroke:#000000;stroke-opacity:1;stroke-width:0.2;stroke-dasharray:none;fill:none"
     id="path334" />
  <path
     d="m 117.15409,105.92583 -0.0682,0.0134 -0.0605,0.0413 -0.0408,0.0605 -0.0139,0.0682 v 1.20922 l 0.0139,0.0661 0.0408,0.0625 0.0605,0.0413 0.0682,0.0114 h 0.28319 l 0.0687,-0.0114 0.0605,-0.0413 0.0408,-0.0625 0.0139,-0.0661 v -1.20922 l -0.0139,-0.0682 -0.0408,-0.0605 -0.0605,-0.0413 -0.0687,-0.0134 z m 0.014,0.0997 h 0.25993 l 0.0388,0.008 0.0274,0.0196 0.0196,0.0274 0.008,0.0388 v 1.1896 l -0.008,0.0372 -0.0196,0.0295 -0.0274,0.0176 -0.0388,0.008 h -0.26561 l -0.0372,-0.008 -0.0274,-0.0176 -0.0196,-0.0295 -0.008,-0.0372 v -1.1896 l 0.008,-0.0388 0.0196,-0.0274 0.0274,-0.0196 z"
     style="baseline-shift:baseline;display:inline;overflow:visible;fill-rule:evenodd;enable-background:accumulate;stop-color:#000000;stop-opacity:1;stroke:#000000;stroke-opacity:1;stroke-width:0.2;stroke-dasharray:none;fill:none"
     id="path333" />
  <path
     d="m 116.36706,106.02557 -0.0429,0.008 -0.0274,0.0196 -0.0191,0.0274 -0.006,0.0388 v 1.1896 l 0.006,0.0372 0.0191,0.0295 0.0274,0.0176 0.0393,0.008 h 0.26562 l 0.0372,-0.008 0.0269,-0.0176 0.0196,-0.0295 0.008,-0.0372 v -1.1896 l -0.008,-0.0388 -0.0196,-0.0274 -0.0269,-0.0196 -0.0372,-0.008 z"
     style="baseline-shift:baseline;display:inline;overflow:visible;fill-rule:evenodd;enable-background:accumulate;stop-color:#000000;stop-opacity:1;stroke:#000000;stroke-opacity:1;stroke-width:0.2;stroke-dasharray:none;fill:none"
     id="path332" />
  <path
     d="m 116.35362,105.92583 -0.0687,0.0134 -0.0605,0.0413 -0.0408,0.0605 -0.014,0.0682 v 1.20922 l 0.014,0.0661 0.0408,0.0625 0.0605,0.0413 0.0687,0.0114 h 0.28526 l 0.0661,-0.0114 0.0605,-0.0413 0.0413,-0.0625 0.0134,-0.0661 v -1.20922 l -0.0134,-0.0682 -0.0413,-0.0605 -0.0605,-0.0413 -0.0661,-0.0134 z m 0.0134,0.0997 h 0.262 l 0.0372,0.008 0.0269,0.0196 0.0196,0.0274 0.008,0.0388 v 1.1896 l -0.008,0.0372 -0.0196,0.0295 -0.0269,0.0176 -0.0372,0.008 h -0.26562 l -0.0393,-0.008 -0.0274,-0.0176 -0.0191,-0.0295 -0.006,-0.0372 v -1.1896 l 0.006,-0.0388 0.0191,-0.0274 0.0274,-0.0196 z"
     style="baseline-shift:baseline;display:inline;overflow:visible;fill-rule:evenodd;enable-background:accumulate;stop-color:#000000;stop-opacity:1;stroke:#000000;stroke-opacity:1;stroke-width:0.2;stroke-dasharray:none;fill:none"
     id="path331" />
  <path
     d="m 115.56814,106.02557 -0.0429,0.008 -0.0289,0.0196 -0.0181,0.0274 -0.008,0.0388 v 1.1896 l 0.008,0.0372 0.0181,0.0295 0.0289,0.0176 0.0372,0.008 h 0.26561 l 0.0393,-0.008 0.0274,-0.0176 0.0176,-0.0295 0.008,-0.0372 v -1.1896 l -0.008,-0.0388 -0.0176,-0.0274 -0.0274,-0.0196 -0.0393,-0.008 z"
     style="baseline-shift:baseline;display:inline;overflow:visible;fill-rule:evenodd;enable-background:accumulate;stop-color:#000000;stop-opacity:1;stroke:#000000;stroke-opacity:1;stroke-width:0.2;stroke-dasharray:none;fill:none"
     id="path330" />
  <path
     d="m 115.55264,105.92583 -0.0661,0.0134 -0.0625,0.0413 -0.0393,0.0605 -0.0134,0.0667 v 1.21077 l 0.0134,0.0661 0.0393,0.0625 0.0625,0.0413 0.0661,0.0114 h 0.28525 l 0.0682,-0.0114 0.061,-0.0434 0.0408,-0.0605 0.0134,-0.0661 v -1.21077 l -0.0134,-0.0667 -0.0408,-0.0605 -0.061,-0.0413 -0.0682,-0.0134 z m 0.0155,0.0997 h 0.25993 l 0.0393,0.008 0.0274,0.0196 0.0176,0.0274 0.008,0.0388 v 1.1896 l -0.008,0.0372 -0.0176,0.0295 -0.0274,0.0176 -0.0393,0.008 h -0.26561 l -0.0372,-0.008 -0.0289,-0.0176 -0.0181,-0.0295 -0.008,-0.0372 v -1.1896 l 0.008,-0.0388 0.0181,-0.0274 0.0289,-0.0196 z"
     style="baseline-shift:baseline;display:inline;overflow:visible;fill-rule:evenodd;enable-background:accumulate;stop-color:#000000;stop-opacity:1;stroke:#000000;stroke-opacity:1;stroke-width:0.2;stroke-dasharray:none;fill:none"
     id="path329" />
  <path
     d="m 122.06852,105.12485 -0.0429,0.008 -0.0274,0.0191 -0.0196,0.0274 -0.008,0.0393 v 0.26562 l 0.008,0.0372 0.0196,0.0274 0.0274,0.0191 0.0367,0.008 h 1.19166 l 0.0372,-0.008 0.0269,-0.0191 0.0196,-0.0274 0.008,-0.0372 v -0.26562 l -0.008,-0.0393 -0.0196,-0.0274 -0.0269,-0.0191 -0.0372,-0.008 z"
     style="baseline-shift:baseline;display:inline;overflow:visible;fill-rule:evenodd;enable-background:accumulate;stop-color:#000000;stop-opacity:1;stroke:#000000;stroke-opacity:1;stroke-width:0.2;stroke-dasharray:none;fill:none"
     id="path328" />
  <path
     d="m 122.0525,105.02563 -0.0661,0.0134 -0.0605,0.0408 -0.0408,0.0625 -0.014,0.0667 v 0.28526 l 0.014,0.0661 0.0408,0.0605 0.0605,0.0413 0.0661,0.0134 h 1.21129 l 0.0661,-0.0134 0.061,-0.0413 0.0408,-0.0605 0.0134,-0.0661 v -0.28526 l -0.0134,-0.0667 -0.0408,-0.0625 -0.061,-0.0408 -0.0661,-0.0134 z m 0.016,0.0992 h 1.18546 l 0.0372,0.008 0.0269,0.0191 0.0196,0.0274 0.008,0.0393 v 0.26562 l -0.008,0.0372 -0.0196,0.0274 -0.0269,0.0191 -0.0372,0.008 h -1.19166 l -0.0367,-0.008 -0.0274,-0.0191 -0.0196,-0.0274 -0.008,-0.0372 v -0.26562 l 0.008,-0.0393 0.0196,-0.0274 0.0274,-0.0191 z"
     style="baseline-shift:baseline;display:inline;overflow:visible;fill-rule:evenodd;enable-background:accumulate;stop-color:#000000;stop-opacity:1;stroke:#000000;stroke-opacity:1;stroke-width:0.2;stroke-dasharray:none;fill:none"
     id="path327" />
  <path
     d="m 113.74241,105.12485 -0.0434,0.008 -0.0269,0.0191 -0.0196,0.0274 -0.006,0.0393 v 0.26562 l 0.006,0.0372 0.0196,0.0274 0.0269,0.0191 0.0393,0.008 h 1.18959 l 0.0388,-0.008 0.0274,-0.0191 0.0196,-0.0274 0.006,-0.0372 v -0.26562 l -0.006,-0.0393 -0.0196,-0.0274 -0.0274,-0.0191 -0.0388,-0.008 z"
     style="baseline-shift:baseline;display:inline;overflow:visible;fill-rule:evenodd;enable-background:accumulate;stop-color:#000000;stop-opacity:1;stroke:#000000;stroke-opacity:1;stroke-width:0.2;stroke-dasharray:none;fill:none"
     id="path326" />
  <path
     d="m 113.72846,105.02563 -0.0682,0.0134 -0.061,0.0408 -0.0408,0.0625 -0.0134,0.0667 v 0.28526 l 0.0134,0.0661 0.0408,0.0605 0.061,0.0413 0.0682,0.0134 h 1.20923 l 0.0682,-0.0134 0.0605,-0.0413 0.0413,-0.0605 0.0134,-0.0661 v -0.28526 l -0.0134,-0.0667 -0.0413,-0.0625 -0.0605,-0.0408 -0.0682,-0.0134 z m 0.014,0.0992 h 1.18546 l 0.0388,0.008 0.0274,0.0191 0.0196,0.0274 0.006,0.0393 v 0.26562 l -0.006,0.0372 -0.0196,0.0274 -0.0274,0.0191 -0.0388,0.008 h -1.18959 l -0.0393,-0.008 -0.0269,-0.0191 -0.0196,-0.0274 -0.006,-0.0372 v -0.26562 l 0.006,-0.0393 0.0196,-0.0274 0.0269,-0.0191 z"
     style="baseline-shift:baseline;display:inline;overflow:visible;fill-rule:evenodd;enable-background:accumulate;stop-color:#000000;stop-opacity:1;stroke:#000000;stroke-opacity:1;stroke-width:0.2;stroke-dasharray:none;fill:none"
     id="path325" />
  <path
     d="m 122.0587,104.32593 -0.0331,0.008 -0.0274,0.0176 -0.0196,0.0295 -0.008,0.0367 v 0.26561 l 0.008,0.0372 0.0196,0.0295 0.0274,0.0176 0.0372,0.008 h 1.19115 l 0.0372,-0.008 0.0274,-0.0176 0.0196,-0.0295 0.008,-0.0372 v -0.26561 l -0.008,-0.0367 -0.0196,-0.0295 -0.0274,-0.0176 -0.0372,-0.008 h -1.19321 z"
     style="baseline-shift:baseline;display:inline;overflow:visible;fill-rule:evenodd;enable-background:accumulate;stop-color:#000000;stop-opacity:1;stroke:#000000;stroke-opacity:1;stroke-width:0.2;stroke-dasharray:none;fill:none"
     id="path324" />
  <path
     d="m 122.0525,104.22671 -0.0661,0.0114 -0.0605,0.0413 -0.0408,0.0625 -0.014,0.0662 v 0.28525 l 0.014,0.0662 0.0408,0.0625 0.0605,0.0413 0.0661,0.0114 h 1.21129 l 0.0661,-0.0114 0.061,-0.0413 0.0408,-0.0625 0.0134,-0.0662 v -0.28525 l -0.0134,-0.0662 -0.0408,-0.0625 -0.061,-0.0413 -0.0661,-0.0114 z m 0.006,0.0992 h 0.002 1.19321 l 0.0372,0.008 0.0274,0.0176 0.0196,0.0295 0.008,0.0367 v 0.26561 l -0.008,0.0372 -0.0196,0.0295 -0.0274,0.0176 -0.0372,0.008 h -1.19115 l -0.0372,-0.008 -0.0274,-0.0176 -0.0196,-0.0295 -0.008,-0.0372 v -0.26561 l 0.008,-0.0367 0.0196,-0.0295 0.0274,-0.0176 z"
     style="baseline-shift:baseline;display:inline;overflow:visible;fill-rule:evenodd;enable-background:accumulate;stop-color:#000000;stop-opacity:1;stroke:#000000;stroke-opacity:1;stroke-width:0.2;stroke-dasharray:none;fill:none"
     id="path323" />
  <path
     d="m 113.73259,104.32593 -0.0331,0.008 -0.0274,0.0176 -0.0196,0.0295 -0.006,0.0367 v 0.26561 l 0.006,0.0372 0.0196,0.0295 0.0274,0.0176 0.0388,0.008 h 1.18959 l 0.0393,-0.008 0.0269,-0.0176 0.0196,-0.0295 0.006,-0.0372 v -0.26561 l -0.006,-0.0367 -0.0196,-0.0295 -0.0269,-0.0176 -0.0393,-0.008 h -1.19321 z"
     style="baseline-shift:baseline;display:inline;overflow:visible;fill-rule:evenodd;enable-background:accumulate;stop-color:#000000;stop-opacity:1;stroke:#000000;stroke-opacity:1;stroke-width:0.2;stroke-dasharray:none;fill:none"
     id="path322" />
  <path
     d="m 113.72846,104.22671 -0.0682,0.0114 -0.061,0.0413 -0.0408,0.0625 -0.0134,0.0662 v 0.28525 l 0.0134,0.0662 0.0408,0.0625 0.061,0.0413 0.0682,0.0114 h 1.20923 l 0.0682,-0.0114 0.0605,-0.0413 0.0413,-0.0625 0.0134,-0.0662 v -0.28525 l -0.0134,-0.0662 -0.0413,-0.0625 -0.0605,-0.0413 -0.0682,-0.0114 z m 0.004,0.0992 h 0.002 1.19321 l 0.0393,0.008 0.0269,0.0176 0.0196,0.0295 0.006,0.0367 v 0.26561 l -0.006,0.0372 -0.0196,0.0295 -0.0269,0.0176 -0.0393,0.008 h -1.18959 l -0.0388,-0.008 -0.0274,-0.0176 -0.0196,-0.0295 -0.006,-0.0372 v -0.26561 l 0.006,-0.0367 0.0196,-0.0295 0.0274,-0.0176 z"
     style="baseline-shift:baseline;display:inline;overflow:visible;fill-rule:evenodd;enable-background:accumulate;stop-color:#000000;stop-opacity:1;stroke:#000000;stroke-opacity:1;stroke-width:0.2;stroke-dasharray:none;fill:none"
     id="path321" />
  <path
     d=""
     style="baseline-shift:baseline;display:inline;overflow:visible;fill-rule:evenodd;enable-background:accumulate;stop-color:#000000;stop-opacity:1;stroke:#000000;stroke-opacity:1;stroke-width:0.1;stroke-dasharray:none"
     id="path320" />
  <path
     d=""
     style="baseline-shift:baseline;display:inline;overflow:visible;fill-rule:evenodd;enable-background:accumulate;stop-color:#000000;stop-opacity:1;stroke:#000000;stroke-opacity:1;stroke-width:0.1;stroke-dasharray:none"
     id="path319" />
  <path
     d="m 126.65997,103.97453 -0.0858,0.0155 -0.0646,0.045 -0.0429,0.0646 -0.0176,0.0801 v 0.89038 l 0.0176,0.0801 0.0429,0.0667 0.0646,0.0429 0.0801,0.0155 h 0.51574 l 0.0816,-0.0155 0.0646,-0.0429 0.0429,-0.0646 0.016,-0.0822 v -0.89038 l -0.016,-0.0801 -0.0429,-0.0646 -0.0646,-0.045 -0.0816,-0.0155 z"
     style="baseline-shift:baseline;display:inline;overflow:visible;fill-rule:evenodd;enable-background:accumulate;stop-color:#000000;stop-opacity:1;stroke:#000000;stroke-opacity:1;stroke-width:0.2;stroke-dasharray:none;fill:none"
     id="path318" />
  <path
     d="m 126.64447,103.8748 -0.10956,0.0217 -0.0977,0.0661 -0.0661,0.0982 -0.0217,0.10904 v 0.91002 l 0.0217,0.10955 0.0661,0.0977 0.0977,0.0667 0.10956,0.0212 h 0.53536 l 0.11111,-0.0212 0.0977,-0.0667 0.0646,-0.0977 0.0217,-0.10955 v -0.91002 l -0.0217,-0.10904 -0.0646,-0.0982 -0.0977,-0.0661 -0.11111,-0.0217 z m 0.0155,0.0997 h 0.51005 l 0.0816,0.0155 0.0646,0.045 0.0429,0.0646 0.016,0.0801 v 0.89038 l -0.016,0.0822 -0.0429,0.0646 -0.0646,0.0429 -0.0816,0.0155 h -0.51574 l -0.0801,-0.0155 -0.0646,-0.0429 -0.0429,-0.0667 -0.0176,-0.0801 v -0.89038 l 0.0176,-0.0801 0.0429,-0.0646 0.0646,-0.045 z"
     style="baseline-shift:baseline;display:inline;overflow:visible;fill-rule:evenodd;enable-background:accumulate;stop-color:#000000;stop-opacity:1;stroke:#000000;stroke-opacity:1;stroke-width:0.2;stroke-dasharray:none;fill:none"
     id="path317" />
  <path
     d=""
     style="baseline-shift:baseline;display:inline;overflow:visible;fill-rule:evenodd;enable-background:accumulate;stop-color:#000000;stop-opacity:1;stroke:#000000;stroke-opacity:1;stroke-width:0.1;stroke-dasharray:none"
     id="path316" />
  <path
     d=""
     style="baseline-shift:baseline;display:inline;overflow:visible;fill-rule:evenodd;enable-background:accumulate;stop-color:#000000;stop-opacity:1;stroke:#000000;stroke-opacity:1;stroke-width:0.1;stroke-dasharray:none"
     id="path315" />
  <path
     d="m 124.83424,103.97453 -0.0863,0.0155 -0.0641,0.045 -0.0434,0.0646 -0.0155,0.0801 v 0.89038 l 0.0155,0.0801 0.0434,0.0667 0.0641,0.0429 0.0822,0.0155 h 0.51573 l 0.0801,-0.0155 0.0641,-0.0429 0.0434,-0.0667 0.0176,-0.0801 v -0.89038 l -0.0176,-0.0801 -0.0434,-0.0646 -0.0641,-0.045 -0.0801,-0.0155 z"
     style="baseline-shift:baseline;display:inline;overflow:visible;fill-rule:evenodd;enable-background:accumulate;stop-color:#000000;stop-opacity:1;stroke:#000000;stroke-opacity:1;stroke-width:0.2;stroke-dasharray:none;fill:none"
     id="path314" />
  <path
     d="m 124.82029,103.8748 -0.11111,0.0217 -0.0977,0.0661 -0.0646,0.0982 -0.0217,0.10904 v 0.91002 l 0.0217,0.10955 0.0646,0.0977 0.0977,0.0667 0.11111,0.0212 h 0.53537 l 0.10903,-0.0212 0.0977,-0.0667 0.0667,-0.0977 0.0212,-0.10955 v -0.91002 l -0.0212,-0.10904 -0.0667,-0.0982 -0.0977,-0.0661 -0.10903,-0.0217 z m 0.0139,0.0997 h 0.5116 l 0.0801,0.0155 0.0641,0.045 0.0434,0.0646 0.0176,0.0801 v 0.89038 l -0.0176,0.0801 -0.0434,0.0667 -0.0641,0.0429 -0.0801,0.0155 h -0.51573 l -0.0822,-0.0155 -0.0641,-0.0429 -0.0434,-0.0667 -0.0155,-0.0801 v -0.89038 l 0.0155,-0.0801 0.0434,-0.0646 0.0641,-0.045 z"
     style="baseline-shift:baseline;display:inline;overflow:visible;fill-rule:evenodd;enable-background:accumulate;stop-color:#000000;stop-opacity:1;stroke:#000000;stroke-opacity:1;stroke-width:0.2;stroke-dasharray:none;fill:none"
     id="path313" />
  <path
     d="m 122.06852,103.52546 -0.0429,0.008 -0.0274,0.0196 -0.0196,0.0274 -0.008,0.0372 v 0.26561 l 0.008,0.0388 0.0196,0.0274 0.0274,0.0196 0.0367,0.006 h 1.19166 l 0.0372,-0.006 0.0269,-0.0196 0.0196,-0.0274 0.008,-0.0388 v -0.26561 l -0.008,-0.0372 -0.0196,-0.0274 -0.0269,-0.0196 -0.0372,-0.008 z"
     style="baseline-shift:baseline;display:inline;overflow:visible;fill-rule:evenodd;enable-background:accumulate;stop-color:#000000;stop-opacity:1;stroke:#000000;stroke-opacity:1;stroke-width:0.2;stroke-dasharray:none;fill:none"
     id="path312" />
  <path
     d="m 122.0525,103.42573 -0.0661,0.0139 -0.0605,0.0408 -0.0408,0.0605 -0.014,0.0687 v 0.28318 l 0.014,0.0682 0.0408,0.0605 0.0605,0.0408 0.0661,0.0139 h 1.21129 l 0.0661,-0.0139 0.061,-0.0408 0.0408,-0.0605 0.0134,-0.0682 v -0.28318 l -0.0134,-0.0687 -0.0408,-0.0605 -0.061,-0.0408 -0.0661,-0.0139 z m 0.016,0.0997 h 1.18546 l 0.0372,0.008 0.0269,0.0196 0.0196,0.0274 0.008,0.0372 v 0.26561 l -0.008,0.0388 -0.0196,0.0274 -0.0269,0.0196 -0.0372,0.006 h -1.19166 l -0.0367,-0.006 -0.0274,-0.0196 -0.0196,-0.0274 -0.008,-0.0388 v -0.26561 l 0.008,-0.0372 0.0196,-0.0274 0.0274,-0.0196 z"
     style="baseline-shift:baseline;display:inline;overflow:visible;fill-rule:evenodd;enable-background:accumulate;stop-color:#000000;stop-opacity:1;stroke:#000000;stroke-opacity:1;stroke-width:0.2;stroke-dasharray:none;fill:none"
     id="path311" />
  <path
     d="m 113.74241,103.52546 -0.0434,0.008 -0.0269,0.0196 -0.0196,0.0274 -0.006,0.0372 v 0.26561 l 0.006,0.0388 0.0196,0.0274 0.0269,0.0196 0.0393,0.006 h 1.18959 l 0.0388,-0.006 0.0274,-0.0196 0.0196,-0.0274 0.006,-0.0388 v -0.26561 l -0.006,-0.0372 -0.0196,-0.0274 -0.0274,-0.0196 -0.0388,-0.008 z"
     style="baseline-shift:baseline;display:inline;overflow:visible;fill-rule:evenodd;enable-background:accumulate;stop-color:#000000;stop-opacity:1;stroke:#000000;stroke-opacity:1;stroke-width:0.2;stroke-dasharray:none;fill:none"
     id="path310" />
  <path
     d="m 113.72846,103.42573 -0.0682,0.0139 -0.061,0.0408 -0.0408,0.0605 -0.0134,0.0687 v 0.28318 l 0.0134,0.0682 0.0408,0.0605 0.061,0.0408 0.0682,0.0139 h 1.20923 l 0.0682,-0.0139 0.0605,-0.0408 0.0413,-0.0605 0.0134,-0.0682 v -0.28318 l -0.0134,-0.0687 -0.0413,-0.0605 -0.0605,-0.0408 -0.0682,-0.0139 z m 0.014,0.0997 h 1.18546 l 0.0388,0.008 0.0274,0.0196 0.0196,0.0274 0.006,0.0372 v 0.26561 l -0.006,0.0388 -0.0196,0.0274 -0.0274,0.0196 -0.0388,0.006 h -1.18959 l -0.0393,-0.006 -0.0269,-0.0196 -0.0196,-0.0274 -0.006,-0.0388 v -0.26561 l 0.006,-0.0372 0.0196,-0.0274 0.0269,-0.0196 z"
     style="baseline-shift:baseline;display:inline;overflow:visible;fill-rule:evenodd;enable-background:accumulate;stop-color:#000000;stop-opacity:1;stroke:#000000;stroke-opacity:1;stroke-width:0.2;stroke-dasharray:none;fill:none"
     id="path309" />
  <path
     d="m 122.0587,102.72655 -0.0331,0.006 -0.0274,0.0191 -0.0196,0.0274 -0.008,0.0393 v 0.26562 l 0.008,0.0372 0.0196,0.0274 0.0274,0.0191 0.0372,0.008 h 1.19115 l 0.0372,-0.008 0.0274,-0.0191 0.0196,-0.0274 0.008,-0.0372 v -0.26562 l -0.008,-0.0393 -0.0196,-0.0274 -0.0274,-0.0191 -0.0372,-0.006 z"
     style="baseline-shift:baseline;display:inline;overflow:visible;fill-rule:evenodd;enable-background:accumulate;stop-color:#000000;stop-opacity:1;stroke:#000000;stroke-opacity:1;stroke-width:0.2;stroke-dasharray:none;fill:none"
     id="path308" />
  <path
     d="m 122.0525,102.62474 -0.0661,0.014 -0.0605,0.0408 -0.0408,0.0605 -0.014,0.0687 v 0.28526 l 0.014,0.0661 0.0408,0.0605 0.0605,0.0413 0.0661,0.0134 h 1.21129 l 0.0661,-0.0134 0.061,-0.0413 0.0408,-0.0605 0.0134,-0.0661 v -0.28526 l -0.0134,-0.0687 -0.0408,-0.0605 -0.061,-0.0408 -0.0661,-0.014 z m 0.006,0.10181 h 1.19528 l 0.0372,0.006 0.0274,0.0191 0.0196,0.0274 0.008,0.0393 v 0.26562 l -0.008,0.0372 -0.0196,0.0274 -0.0274,0.0191 -0.0372,0.008 h -1.19115 l -0.0372,-0.008 -0.0274,-0.0191 -0.0196,-0.0274 -0.008,-0.0372 v -0.26562 l 0.008,-0.0393 0.0196,-0.0274 0.0274,-0.0191 z"
     style="baseline-shift:baseline;display:inline;overflow:visible;fill-rule:evenodd;enable-background:accumulate;stop-color:#000000;stop-opacity:1;stroke:#000000;stroke-opacity:1;stroke-width:0.2;stroke-dasharray:none;fill:none"
     id="path307" />
  <path
     d="m 113.73259,102.72655 -0.0331,0.006 -0.0274,0.0191 -0.0196,0.0274 -0.006,0.0393 v 0.26562 l 0.006,0.0372 0.0196,0.0274 0.0274,0.0191 0.0388,0.008 h 1.18959 l 0.0393,-0.008 0.0269,-0.0191 0.0196,-0.0274 0.006,-0.0372 v -0.26562 l -0.006,-0.0393 -0.0196,-0.0274 -0.0269,-0.0191 -0.0393,-0.006 z"
     style="baseline-shift:baseline;display:inline;overflow:visible;fill-rule:evenodd;enable-background:accumulate;stop-color:#000000;stop-opacity:1;stroke:#000000;stroke-opacity:1;stroke-width:0.2;stroke-dasharray:none;fill:none"
     id="path306" />
  <path
     d="m 113.72846,102.62474 -0.0682,0.014 -0.061,0.0408 -0.0408,0.0605 -0.0134,0.0687 v 0.28526 l 0.0134,0.0661 0.0408,0.0605 0.061,0.0413 0.0682,0.0134 h 1.20923 l 0.0682,-0.0134 0.0605,-0.0413 0.0413,-0.0605 0.0134,-0.0661 v -0.28526 l -0.0134,-0.0687 -0.0413,-0.0605 -0.0605,-0.0408 -0.0682,-0.014 z m 0.004,0.10181 h 1.19528 l 0.0393,0.006 0.0269,0.0191 0.0196,0.0274 0.006,0.0393 v 0.26562 l -0.006,0.0372 -0.0196,0.0274 -0.0269,0.0191 -0.0393,0.008 h -1.18959 l -0.0388,-0.008 -0.0274,-0.0191 -0.0196,-0.0274 -0.006,-0.0372 v -0.26562 l 0.006,-0.0393 0.0196,-0.0274 0.0274,-0.0191 z"
     style="baseline-shift:baseline;display:inline;overflow:visible;fill-rule:evenodd;enable-background:accumulate;stop-color:#000000;stop-opacity:1;stroke:#000000;stroke-opacity:1;stroke-width:0.2;stroke-dasharray:none;fill:none"
     id="path305" />
  <path
     d="m 126.67599,101.9514 -0.0765,0.0155 -0.0641,0.0429 -0.045,0.0646 -0.0155,0.0801 v 0.94103 l 0.0155,0.0801 0.045,0.0646 0.0641,0.0429 0.0801,0.0155 h 0.49041 l 0.0822,-0.0155 0.0646,-0.0429 0.0429,-0.0646 0.0155,-0.0801 v -0.94103 l -0.0155,-0.0801 -0.0429,-0.0646 -0.0646,-0.0429 -0.0822,-0.0155 z"
     style="baseline-shift:baseline;display:inline;overflow:visible;fill-rule:evenodd;enable-background:accumulate;stop-color:#000000;stop-opacity:1;stroke:#000000;stroke-opacity:1;stroke-width:0.2;stroke-dasharray:none;fill:none"
     id="path304" />
  <path
     d="m 126.66979,101.8496 -0.10904,0.0217 -0.0977,0.0661 -0.0667,0.0977 -0.0217,0.10955 v 0.96066 l 0.0217,0.10956 0.0667,0.0977 0.0977,0.0667 0.10904,0.0212 h 0.51004 l 0.11111,-0.0212 0.0977,-0.0667 0.0646,-0.0977 0.0217,-0.10956 v -0.96066 l -0.0217,-0.10955 -0.0646,-0.0977 -0.0977,-0.0661 -0.11111,-0.0217 z m 0.006,0.1018 h 0.49403 l 0.0822,0.0155 0.0646,0.0429 0.0429,0.0646 0.0155,0.0801 v 0.94103 l -0.0155,0.0801 -0.0429,0.0646 -0.0646,0.0429 -0.0822,0.0155 h -0.49041 l -0.0801,-0.0155 -0.0641,-0.0429 -0.045,-0.0646 -0.0155,-0.0801 v -0.94103 l 0.0155,-0.0801 0.045,-0.0646 0.0641,-0.0429 z"
     style="baseline-shift:baseline;display:inline;overflow:visible;fill-rule:evenodd;enable-background:accumulate;stop-color:#000000;stop-opacity:1;stroke:#000000;stroke-opacity:1;stroke-width:0.2;stroke-dasharray:none;fill:none"
     id="path303" />
  <path
     d="m 124.77533,101.9514 -0.076,0.0155 -0.0646,0.0429 -0.0429,0.0646 -0.0155,0.0801 v 0.94103 l 0.0155,0.0801 0.0429,0.0646 0.0646,0.0429 0.0801,0.0155 h 0.49041 l 0.0816,-0.0155 0.0646,-0.0429 0.0429,-0.0646 0.0155,-0.0801 v -0.94103 l -0.0155,-0.0801 -0.0429,-0.0646 -0.0646,-0.0429 -0.0816,-0.0155 z"
     style="baseline-shift:baseline;display:inline;overflow:visible;fill-rule:evenodd;enable-background:accumulate;stop-color:#000000;stop-opacity:1;stroke:#000000;stroke-opacity:1;stroke-width:0.2;stroke-dasharray:none;fill:none"
     id="path302" />
  <path
     d="m 124.76965,101.8496 -0.10956,0.0217 -0.0977,0.0661 -0.0661,0.0977 -0.0217,0.10955 v 0.96066 l 0.0217,0.10956 0.0661,0.0977 0.0977,0.0667 0.10956,0.0212 h 0.50952 l 0.11163,-0.0212 0.0977,-0.0667 0.0641,-0.0977 0.0217,-0.10956 v -0.96066 l -0.0217,-0.10955 -0.0641,-0.0977 -0.0977,-0.0661 -0.11163,-0.0217 z m 0.006,0.1018 h 0.49454 l 0.0816,0.0155 0.0646,0.0429 0.0429,0.0646 0.0155,0.0801 v 0.94103 l -0.0155,0.0801 -0.0429,0.0646 -0.0646,0.0429 -0.0816,0.0155 h -0.49041 l -0.0801,-0.0155 -0.0646,-0.0429 -0.0429,-0.0646 -0.0155,-0.0801 v -0.94103 l 0.0155,-0.0801 0.0429,-0.0646 0.0646,-0.0429 z"
     style="baseline-shift:baseline;display:inline;overflow:visible;fill-rule:evenodd;enable-background:accumulate;stop-color:#000000;stop-opacity:1;stroke:#000000;stroke-opacity:1;stroke-width:0.2;stroke-dasharray:none;fill:none"
     id="path301" />
  <path
     d="m 122.06852,101.92556 -0.0429,0.008 -0.0274,0.0196 -0.0196,0.0269 -0.008,0.0372 v 0.26561 l 0.008,0.0393 0.0196,0.0274 0.0274,0.0191 0.0367,0.006 h 1.19166 l 0.0372,-0.006 0.0269,-0.0191 0.0196,-0.0274 0.008,-0.0393 v -0.26561 l -0.008,-0.0372 -0.0196,-0.0269 -0.0269,-0.0196 -0.0372,-0.008 z"
     style="baseline-shift:baseline;display:inline;overflow:visible;fill-rule:evenodd;enable-background:accumulate;stop-color:#000000;stop-opacity:1;stroke:#000000;stroke-opacity:1;stroke-width:0.2;stroke-dasharray:none;fill:none"
     id="path300" />
  <path
     d="m 122.0525,101.82634 -0.0661,0.0134 -0.0605,0.0413 -0.0408,0.0605 -0.014,0.0661 v 0.28525 l 0.014,0.0682 0.0408,0.061 0.0605,0.0408 0.0661,0.014 h 1.21129 l 0.0661,-0.014 0.061,-0.0408 0.0408,-0.061 0.0134,-0.0682 v -0.28525 l -0.0134,-0.0661 -0.0408,-0.0605 -0.061,-0.0413 -0.0661,-0.0134 z m 0.016,0.0992 h 1.18546 l 0.0372,0.008 0.0269,0.0196 0.0196,0.0269 0.008,0.0372 v 0.26561 l -0.008,0.0393 -0.0196,0.0274 -0.0269,0.0191 -0.0372,0.006 h -1.19166 l -0.0367,-0.006 -0.0274,-0.0191 -0.0196,-0.0274 -0.008,-0.0393 v -0.26561 l 0.008,-0.0372 0.0196,-0.0269 0.0274,-0.0196 z"
     style="baseline-shift:baseline;display:inline;overflow:visible;fill-rule:evenodd;enable-background:accumulate;stop-color:#000000;stop-opacity:1;stroke:#000000;stroke-opacity:1;stroke-width:0.2;stroke-dasharray:none;fill:none"
     id="path299" />
  <path
     d="m 113.74241,101.92556 -0.0434,0.008 -0.0269,0.0196 -0.0196,0.0269 -0.006,0.0372 v 0.26561 l 0.006,0.0393 0.0196,0.0274 0.0269,0.0191 0.0393,0.006 h 1.18959 l 0.0388,-0.006 0.0274,-0.0191 0.0196,-0.0274 0.006,-0.0393 v -0.26561 l -0.006,-0.0372 -0.0196,-0.0269 -0.0274,-0.0196 -0.0388,-0.008 z"
     style="baseline-shift:baseline;display:inline;overflow:visible;fill-rule:evenodd;enable-background:accumulate;stop-color:#000000;stop-opacity:1;stroke:#000000;stroke-opacity:1;stroke-width:0.2;stroke-dasharray:none;fill:none"
     id="path298" />
  <path
     d="m 113.72846,101.82634 -0.0682,0.0134 -0.061,0.0413 -0.0408,0.0605 -0.0134,0.0661 v 0.28525 l 0.0134,0.0682 0.0408,0.061 0.061,0.0408 0.0682,0.014 h 1.20923 l 0.0682,-0.014 0.0605,-0.0408 0.0413,-0.061 0.0134,-0.0682 v -0.28525 l -0.0134,-0.0661 -0.0413,-0.0605 -0.0605,-0.0413 -0.0682,-0.0134 z m 0.014,0.0992 h 1.18546 l 0.0388,0.008 0.0274,0.0196 0.0196,0.0269 0.006,0.0372 v 0.26561 l -0.006,0.0393 -0.0196,0.0274 -0.0274,0.0191 -0.0388,0.006 h -1.18959 l -0.0393,-0.006 -0.0269,-0.0191 -0.0196,-0.0274 -0.006,-0.0393 v -0.26561 l 0.006,-0.0372 0.0196,-0.0269 0.0269,-0.0196 z"
     style="baseline-shift:baseline;display:inline;overflow:visible;fill-rule:evenodd;enable-background:accumulate;stop-color:#000000;stop-opacity:1;stroke:#000000;stroke-opacity:1;stroke-width:0.2;stroke-dasharray:none;fill:none"
     id="path297" />
  <path
     d="m 122.0587,101.12716 -0.0331,0.006 -0.0274,0.0196 -0.0196,0.0274 -0.008,0.0388 v 0.26561 l 0.008,0.0372 0.0196,0.0274 0.0274,0.0196 0.0372,0.008 h 1.19115 l 0.0372,-0.008 0.0274,-0.0196 0.0196,-0.0274 0.008,-0.0372 v -0.26561 l -0.008,-0.0388 -0.0196,-0.0274 -0.0274,-0.0196 -0.0372,-0.006 z"
     style="baseline-shift:baseline;display:inline;overflow:visible;fill-rule:evenodd;enable-background:accumulate;stop-color:#000000;stop-opacity:1;stroke:#000000;stroke-opacity:1;stroke-width:0.2;stroke-dasharray:none;fill:none"
     id="path296" />
  <path
     d="m 122.0525,101.02536 -0.0661,0.0139 -0.0605,0.0408 -0.0408,0.0605 -0.014,0.0682 v 0.28319 l 0.014,0.0687 0.0408,0.0605 0.0605,0.0408 0.0661,0.014 h 1.21129 l 0.0661,-0.014 0.061,-0.0408 0.0408,-0.0605 0.0134,-0.0687 v -0.28319 l -0.0134,-0.0682 -0.0408,-0.0605 -0.061,-0.0408 -0.0661,-0.0139 z m 0.006,0.1018 h 1.19528 l 0.0372,0.006 0.0274,0.0196 0.0196,0.0274 0.008,0.0388 v 0.26561 l -0.008,0.0372 -0.0196,0.0274 -0.0274,0.0196 -0.0372,0.008 h -1.19115 l -0.0372,-0.008 -0.0274,-0.0196 -0.0196,-0.0274 -0.008,-0.0372 v -0.26561 l 0.008,-0.0388 0.0196,-0.0274 0.0274,-0.0196 z"
     style="baseline-shift:baseline;display:inline;overflow:visible;fill-rule:evenodd;enable-background:accumulate;stop-color:#000000;stop-opacity:1;stroke:#000000;stroke-opacity:1;stroke-width:0.2;stroke-dasharray:none;fill:none"
     id="path295" />
  <path
     d="m 113.73259,101.12716 -0.0331,0.006 -0.0274,0.0196 -0.0196,0.0274 -0.006,0.0388 v 0.26561 l 0.006,0.0372 0.0196,0.0274 0.0274,0.0196 0.0388,0.008 h 1.18959 l 0.0393,-0.008 0.0269,-0.0196 0.0196,-0.0274 0.006,-0.0372 v -0.26561 l -0.006,-0.0388 -0.0196,-0.0274 -0.0269,-0.0196 -0.0393,-0.006 z"
     style="baseline-shift:baseline;display:inline;overflow:visible;fill-rule:evenodd;enable-background:accumulate;stop-color:#000000;stop-opacity:1;stroke:#000000;stroke-opacity:1;stroke-width:0.2;stroke-dasharray:none;fill:none"
     id="path294" />
  <path
     d="m 113.72846,101.02536 -0.0682,0.0139 -0.061,0.0408 -0.0408,0.0605 -0.0134,0.0682 v 0.28319 l 0.0134,0.0687 0.0408,0.0605 0.061,0.0408 0.0682,0.014 h 1.20923 l 0.0682,-0.014 0.0605,-0.0408 0.0413,-0.0605 0.0134,-0.0687 v -0.28319 l -0.0134,-0.0682 -0.0413,-0.0605 -0.0605,-0.0408 -0.0682,-0.0139 z m 0.004,0.1018 h 1.19528 l 0.0393,0.006 0.0269,0.0196 0.0196,0.0274 0.006,0.0388 v 0.26561 l -0.006,0.0372 -0.0196,0.0274 -0.0269,0.0196 -0.0393,0.008 h -1.18959 l -0.0388,-0.008 -0.0274,-0.0196 -0.0196,-0.0274 -0.006,-0.0372 v -0.26561 l 0.006,-0.0388 0.0196,-0.0274 0.0274,-0.0196 z"
     style="baseline-shift:baseline;display:inline;overflow:visible;fill-rule:evenodd;enable-background:accumulate;stop-color:#000000;stop-opacity:1;stroke:#000000;stroke-opacity:1;stroke-width:0.2;stroke-dasharray:none;fill:none"
     id="path293" />
  <path
     d="m 122.0587,100.32618 -0.0331,0.008 -0.0274,0.0181 -0.0196,0.0289 -0.008,0.0372 v 0.26562 l 0.008,0.0372 0.0196,0.0289 0.0274,0.0181 0.0372,0.008 h 1.19115 l 0.0372,-0.008 0.0274,-0.0181 0.0196,-0.0289 0.008,-0.0372 v -0.26562 l -0.008,-0.0372 -0.0196,-0.0289 -0.0274,-0.0181 -0.0372,-0.008 h -1.19321 z"
     style="baseline-shift:baseline;display:inline;overflow:visible;fill-rule:evenodd;enable-background:accumulate;stop-color:#000000;stop-opacity:1;stroke:#000000;stroke-opacity:1;stroke-width:0.2;stroke-dasharray:none;fill:none"
     id="path292" />
  <path
     d="m 122.0525,100.22644 -0.0661,0.0119 -0.0605,0.0429 -0.0408,0.0605 -0.014,0.0667 v 0.28526 l 0.014,0.0661 0.0408,0.0625 0.0605,0.0408 0.0661,0.0119 h 1.21129 l 0.0661,-0.0119 0.061,-0.0408 0.0408,-0.0625 0.0134,-0.0661 v -0.28526 l -0.0134,-0.0667 -0.0408,-0.0605 -0.061,-0.0429 -0.0661,-0.0119 z m 0.006,0.0997 h 0.002 1.19321 l 0.0372,0.008 0.0274,0.0181 0.0196,0.0289 0.008,0.0372 v 0.26562 l -0.008,0.0372 -0.0196,0.0289 -0.0274,0.0181 -0.0372,0.008 h -1.19115 l -0.0372,-0.008 -0.0274,-0.0181 -0.0196,-0.0289 -0.008,-0.0372 v -0.26562 l 0.008,-0.0372 0.0196,-0.0289 0.0274,-0.0181 z"
     style="baseline-shift:baseline;display:inline;overflow:visible;fill-rule:evenodd;enable-background:accumulate;stop-color:#000000;stop-opacity:1;stroke:#000000;stroke-opacity:1;stroke-width:0.2;stroke-dasharray:none;fill:none"
     id="path291" />
  <path
     d="m 113.73259,100.32618 -0.0331,0.008 -0.0274,0.0181 -0.0196,0.0289 -0.006,0.0372 v 0.26562 l 0.006,0.0372 0.0196,0.0289 0.0274,0.0181 0.0388,0.008 h 1.18959 l 0.0393,-0.008 0.0269,-0.0181 0.0196,-0.0289 0.006,-0.0372 v -0.26562 l -0.006,-0.0372 -0.0196,-0.0289 -0.0269,-0.0181 -0.0393,-0.008 h -1.19321 z"
     style="baseline-shift:baseline;display:inline;overflow:visible;fill-rule:evenodd;enable-background:accumulate;stop-color:#000000;stop-opacity:1;stroke:#000000;stroke-opacity:1;stroke-width:0.2;stroke-dasharray:none;fill:none"
     id="path290" />
  <path
     d="m 113.72846,100.22644 -0.0682,0.0119 -0.061,0.0429 -0.0408,0.0605 -0.0134,0.0667 v 0.28526 l 0.0134,0.0661 0.0408,0.0625 0.061,0.0408 0.0682,0.0119 h 1.20923 l 0.0682,-0.0119 0.0605,-0.0408 0.0413,-0.0625 0.0134,-0.0661 v -0.28526 l -0.0134,-0.0667 -0.0413,-0.0605 -0.0605,-0.0429 -0.0682,-0.0119 z m 0.004,0.0997 h 0.002 1.19321 l 0.0393,0.008 0.0269,0.0181 0.0196,0.0289 0.006,0.0372 v 0.26562 l -0.006,0.0372 -0.0196,0.0289 -0.0269,0.0181 -0.0393,0.008 h -1.18959 l -0.0388,-0.008 -0.0274,-0.0181 -0.0196,-0.0289 -0.006,-0.0372 v -0.26562 l 0.006,-0.0372 0.0196,-0.0289 0.0274,-0.0181 z"
     style="baseline-shift:baseline;display:inline;overflow:visible;fill-rule:evenodd;enable-background:accumulate;stop-color:#000000;stop-opacity:1;stroke:#000000;stroke-opacity:1;stroke-width:0.2;stroke-dasharray:none;fill:none"
     id="path289" />
  <path
     d="m 122.06852,99.525191 -0.0429,0.0078 -0.0274,0.01964 -0.0196,0.02739 -0.008,0.03927 v 0.26355 l 0.008,0.03927 0.0196,0.02687 0.0274,0.01964 0.0367,0.0078 h 1.19166 l 0.0372,-0.0078 0.0269,-0.01964 0.0196,-0.02687 0.008,-0.03927 v -0.26355 l -0.008,-0.03927 -0.0196,-0.02739 -0.0269,-0.01964 -0.0372,-0.0078 z"
     style="baseline-shift:baseline;display:inline;overflow:visible;fill-rule:evenodd;enable-background:accumulate;stop-color:#000000;stop-opacity:1;stroke:#000000;stroke-opacity:1;stroke-width:0.2;stroke-dasharray:none;fill:none"
     id="path288" />
  <path
     d="m 122.0525,99.425972 -0.0661,0.01344 -0.0605,0.04082 -0.0408,0.06098 -0.014,0.06821 v 0.283187 l 0.014,0.06821 0.0408,0.06046 0.0605,0.0413 0.0661,0.0134 h 1.21129 l 0.0661,-0.0134 0.061,-0.0413 0.0408,-0.06046 0.0134,-0.06821 v -0.283187 l -0.0134,-0.06821 -0.0408,-0.06098 -0.061,-0.04082 -0.0661,-0.01344 z m 0.016,0.09922 h 1.18546 l 0.0372,0.0078 0.0269,0.01964 0.0196,0.02739 0.008,0.03927 v 0.26355 l -0.008,0.03927 -0.0196,0.02687 -0.0269,0.01964 -0.0372,0.0078 h -1.19166 l -0.0367,-0.0078 -0.0274,-0.01964 -0.0196,-0.02687 -0.008,-0.03927 v -0.26355 l 0.008,-0.03927 0.0196,-0.02739 0.0274,-0.01964 z"
     style="baseline-shift:baseline;display:inline;overflow:visible;fill-rule:evenodd;enable-background:accumulate;stop-color:#000000;stop-opacity:1;stroke:#000000;stroke-opacity:1;stroke-width:0.2;stroke-dasharray:none;fill:none"
     id="path287" />
  <path
     d="m 113.74241,99.525191 -0.0434,0.0078 -0.0269,0.01964 -0.0196,0.02739 -0.006,0.03927 v 0.26355 l 0.006,0.03927 0.0196,0.02687 0.0269,0.01964 0.0393,0.0078 h 1.18959 l 0.0388,-0.0078 0.0274,-0.01964 0.0196,-0.02687 0.006,-0.03927 v -0.26355 l -0.006,-0.03927 -0.0196,-0.02739 -0.0274,-0.01964 -0.0388,-0.0078 z"
     style="baseline-shift:baseline;display:inline;overflow:visible;fill-rule:evenodd;enable-background:accumulate;stop-color:#000000;stop-opacity:1;stroke:#000000;stroke-opacity:1;stroke-width:0.2;stroke-dasharray:none;fill:none"
     id="path286" />
  <path
     d="m 113.72846,99.425972 -0.0682,0.01344 -0.061,0.04082 -0.0408,0.06098 -0.0134,0.06821 v 0.283187 l 0.0134,0.06821 0.0408,0.06046 0.061,0.0413 0.0682,0.0134 h 1.20923 l 0.0682,-0.0134 0.0605,-0.0413 0.0413,-0.06046 0.0134,-0.06821 v -0.283187 l -0.0134,-0.06821 -0.0413,-0.06098 -0.0605,-0.04082 -0.0682,-0.01344 z m 0.014,0.09922 h 1.18546 l 0.0388,0.0078 0.0274,0.01964 0.0196,0.02739 0.006,0.03927 v 0.26355 l -0.006,0.03927 -0.0196,0.02687 -0.0274,0.01964 -0.0388,0.0078 h -1.18959 l -0.0393,-0.0078 -0.0269,-0.01964 -0.0196,-0.02687 -0.006,-0.03927 v -0.26355 l 0.006,-0.03927 0.0196,-0.02739 0.0269,-0.01964 z"
     style="baseline-shift:baseline;display:inline;overflow:visible;fill-rule:evenodd;enable-background:accumulate;stop-color:#000000;stop-opacity:1;stroke:#000000;stroke-opacity:1;stroke-width:0.2;stroke-dasharray:none;fill:none"
     id="path285" />
  <path
     d="m 121.1585,97.701013 -0.0331,0.0078 -0.0274,0.01757 -0.0196,0.02945 -0.008,0.03721 v 1.191142 l 0.008,0.03721 0.0196,0.02739 0.0274,0.01964 0.0367,0.0078 h 0.26562 l 0.0393,-0.0078 0.0274,-0.01964 0.0196,-0.02739 0.006,-0.03721 v -1.191142 l -0.006,-0.03721 -0.0196,-0.02945 -0.0274,-0.01757 -0.0393,-0.0078 h -0.26717 z"
     style="baseline-shift:baseline;display:inline;overflow:visible;fill-rule:evenodd;enable-background:accumulate;stop-color:#000000;stop-opacity:1;stroke:#000000;stroke-opacity:1;stroke-width:0.2;stroke-dasharray:none;fill:none"
     id="path284" />
  <path
     d="m 121.15229,97.601794 -0.0661,0.01137 -0.0605,0.04134 -0.0413,0.06253 -0.0134,0.06615 v 1.209228 l 0.0134,0.06821 0.0413,0.06046 0.0605,0.04082 0.0661,0.01395 h 0.28526 l 0.0682,-0.01395 0.061,-0.04082 0.0408,-0.06046 0.0134,-0.06821 v -1.209228 l -0.0134,-0.06615 -0.0408,-0.06253 -0.061,-0.04134 -0.0682,-0.01137 z m 0.006,0.09922 h 0.002 0.26717 l 0.0393,0.0078 0.0274,0.01757 0.0196,0.02945 0.006,0.03721 v 1.191142 l -0.006,0.03721 -0.0196,0.02739 -0.0274,0.01964 -0.0393,0.0078 h -0.26562 l -0.0367,-0.0078 -0.0274,-0.01964 -0.0196,-0.02739 -0.008,-0.03721 v -1.191142 l 0.008,-0.03721 0.0196,-0.02945 0.0274,-0.01757 z"
     style="baseline-shift:baseline;display:inline;overflow:visible;fill-rule:evenodd;enable-background:accumulate;stop-color:#000000;stop-opacity:1;stroke:#000000;stroke-opacity:1;stroke-width:0.2;stroke-dasharray:none;fill:none"
     id="path283" />
  <path
     d="m 120.35751,97.701013 -0.0331,0.0078 -0.0274,0.01757 -0.0196,0.02945 -0.006,0.03721 v 1.191142 l 0.006,0.03721 0.0196,0.02739 0.0274,0.01964 0.0388,0.0078 h 0.26561 l 0.0372,-0.0078 0.0274,-0.01964 0.0196,-0.02739 0.008,-0.03721 v -1.191142 l -0.008,-0.03721 -0.0196,-0.02945 -0.0274,-0.01757 -0.0372,-0.0078 h -0.26923 z"
     style="baseline-shift:baseline;display:inline;overflow:visible;fill-rule:evenodd;enable-background:accumulate;stop-color:#000000;stop-opacity:1;stroke:#000000;stroke-opacity:1;stroke-width:0.2;stroke-dasharray:none;fill:none"
     id="path282" />
  <path
     d="m 120.35338,97.601794 -0.0682,0.01137 -0.0605,0.04134 -0.0413,0.06253 -0.0134,0.06615 v 1.209228 l 0.0134,0.06821 0.0413,0.06046 0.0605,0.04082 0.0682,0.01395 h 0.28525 l 0.0667,-0.01395 0.0605,-0.04082 0.0408,-0.06046 0.014,-0.06821 v -1.209228 l -0.014,-0.06615 -0.0408,-0.06253 -0.0605,-0.04134 -0.0667,-0.01137 z m 0.004,0.09922 h 0.002 0.26923 l 0.0372,0.0078 0.0274,0.01757 0.0196,0.02945 0.008,0.03721 v 1.191142 l -0.008,0.03721 -0.0196,0.02739 -0.0274,0.01964 -0.0372,0.0078 h -0.26561 l -0.0388,-0.0078 -0.0274,-0.01964 -0.0196,-0.02739 -0.006,-0.03721 v -1.191142 l 0.006,-0.03721 0.0196,-0.02945 0.0274,-0.01757 z"
     style="baseline-shift:baseline;display:inline;overflow:visible;fill-rule:evenodd;enable-background:accumulate;stop-color:#000000;stop-opacity:1;stroke:#000000;stroke-opacity:1;stroke-width:0.2;stroke-dasharray:none;fill:none"
     id="path281" />
  <path
     d="m 119.55859,97.701013 -0.0331,0.0078 -0.0294,0.01757 -0.0176,0.02945 -0.008,0.03721 v 1.191142 l 0.008,0.03721 0.0176,0.02739 0.0294,0.01964 0.0372,0.0078 h 0.26561 l 0.0372,-0.0078 0.0289,-0.01964 0.0176,-0.02739 0.008,-0.03721 v -1.191142 l -0.008,-0.03721 -0.0176,-0.02945 -0.0289,-0.01757 -0.0372,-0.0078 h -0.26768 z"
     style="baseline-shift:baseline;display:inline;overflow:visible;fill-rule:evenodd;enable-background:accumulate;stop-color:#000000;stop-opacity:1;stroke:#000000;stroke-opacity:1;stroke-width:0.2;stroke-dasharray:none;fill:none"
     id="path280" />
  <path
     d="m 119.55291,97.601794 -0.0667,0.01137 -0.0605,0.04134 -0.0408,0.06253 -0.014,0.06615 v 1.209228 l 0.014,0.06821 0.0408,0.06046 0.0605,0.04082 0.0667,0.01395 h 0.28474 l 0.0667,-0.01395 0.0625,-0.04082 0.0408,-0.06046 0.0119,-0.06821 v -1.209228 l -0.0119,-0.06615 -0.0408,-0.06253 -0.0625,-0.04134 -0.0667,-0.01137 z m 0.006,0.09922 h 0.002 0.26768 l 0.0372,0.0078 0.0289,0.01757 0.0176,0.02945 0.008,0.03721 v 1.191142 l -0.008,0.03721 -0.0176,0.02739 -0.0289,0.01964 -0.0372,0.0078 h -0.26561 l -0.0372,-0.0078 -0.0294,-0.01964 -0.0176,-0.02739 -0.008,-0.03721 v -1.191142 l 0.008,-0.03721 0.0176,-0.02945 0.0294,-0.01757 z"
     style="baseline-shift:baseline;display:inline;overflow:visible;fill-rule:evenodd;enable-background:accumulate;stop-color:#000000;stop-opacity:1;stroke:#000000;stroke-opacity:1;stroke-width:0.2;stroke-dasharray:none;fill:none"
     id="path279" />
  <path
     d="m 118.75813,97.701013 -0.0336,0.0078 -0.0269,0.01757 -0.0196,0.02945 -0.008,0.03721 v 1.191142 l 0.008,0.03721 0.0196,0.02739 0.0269,0.01964 0.0393,0.0078 h 0.26355 l 0.0393,-0.0078 0.0274,-0.01964 0.0191,-0.02739 0.008,-0.03721 v -1.191142 l -0.008,-0.03721 -0.0191,-0.02945 -0.0274,-0.01757 -0.0393,-0.0078 h -0.26768 z"
     style="baseline-shift:baseline;display:inline;overflow:visible;fill-rule:evenodd;enable-background:accumulate;stop-color:#000000;stop-opacity:1;stroke:#000000;stroke-opacity:1;stroke-width:0.2;stroke-dasharray:none;fill:none"
     id="path278" />
  <path
     d="m 118.75399,97.601794 -0.0687,0.01137 -0.0605,0.04134 -0.0408,0.06253 -0.014,0.06615 v 1.209228 l 0.014,0.06821 0.0408,0.06046 0.0605,0.04082 0.0687,0.01395 h 0.28319 l 0.0682,-0.01395 0.0605,-0.04082 0.0413,-0.06046 0.0134,-0.06821 v -1.209228 l -0.0134,-0.06615 -0.0413,-0.06253 -0.0605,-0.04134 -0.0682,-0.01137 z m 0.004,0.09922 h 0.002 0.26768 l 0.0393,0.0078 0.0274,0.01757 0.0191,0.02945 0.008,0.03721 v 1.191142 l -0.008,0.03721 -0.0191,0.02739 -0.0274,0.01964 -0.0393,0.0078 h -0.26355 l -0.0393,-0.0078 -0.0269,-0.01964 -0.0196,-0.02739 -0.008,-0.03721 v -1.191142 l 0.008,-0.03721 0.0196,-0.02945 0.0269,-0.01757 z"
     style="baseline-shift:baseline;display:inline;overflow:visible;fill-rule:evenodd;enable-background:accumulate;stop-color:#000000;stop-opacity:1;stroke:#000000;stroke-opacity:1;stroke-width:0.2;stroke-dasharray:none;fill:none"
     id="path277" />
  <path
     d="m 117.95921,97.701013 -0.0331,0.0078 -0.0295,0.01757 -0.0176,0.02945 -0.008,0.03721 v 1.191142 l 0.008,0.03721 0.0176,0.02739 0.0295,0.01964 0.0367,0.0078 h 0.26613 l 0.0367,-0.0078 0.0295,-0.01964 0.0176,-0.02739 0.008,-0.03721 v -1.191142 l -0.008,-0.03721 -0.0176,-0.02945 -0.0295,-0.01757 -0.0367,-0.0078 h -0.26768 z"
     style="baseline-shift:baseline;display:inline;overflow:visible;fill-rule:evenodd;enable-background:accumulate;stop-color:#000000;stop-opacity:1;stroke:#000000;stroke-opacity:1;stroke-width:0.2;stroke-dasharray:none;fill:none"
     id="path276" />
  <path
     d="m 117.95301,97.601794 -0.0662,0.01137 -0.0625,0.04134 -0.0413,0.06253 -0.0114,0.06615 v 1.209228 l 0.0114,0.06821 0.0413,0.06046 0.0625,0.04082 0.0662,0.01395 h 0.28525 l 0.0667,-0.01395 0.0605,-0.04082 0.0429,-0.06046 0.0114,-0.06821 v -1.209228 l -0.0114,-0.06615 -0.0429,-0.06253 -0.0605,-0.04134 -0.0667,-0.01137 z m 0.006,0.09922 h 0.002 0.26768 l 0.0367,0.0078 0.0295,0.01757 0.0176,0.02945 0.008,0.03721 v 1.191142 l -0.008,0.03721 -0.0176,0.02739 -0.0295,0.01964 -0.0367,0.0078 h -0.26613 l -0.0367,-0.0078 -0.0295,-0.01964 -0.0176,-0.02739 -0.008,-0.03721 v -1.191142 l 0.008,-0.03721 0.0176,-0.02945 0.0295,-0.01757 z"
     style="baseline-shift:baseline;display:inline;overflow:visible;fill-rule:evenodd;enable-background:accumulate;stop-color:#000000;stop-opacity:1;stroke:#000000;stroke-opacity:1;stroke-width:0.2;stroke-dasharray:none;fill:none"
     id="path275" />
  <path
     d="m 117.15822,97.701013 -0.0331,0.0078 -0.0274,0.01757 -0.0196,0.02945 -0.008,0.03721 v 1.191142 l 0.008,0.03721 0.0196,0.02739 0.0274,0.01964 0.0372,0.0078 h 0.26561 l 0.0388,-0.0078 0.0274,-0.01964 0.0196,-0.02739 0.008,-0.03721 v -1.191142 l -0.008,-0.03721 -0.0196,-0.02945 -0.0274,-0.01757 -0.0388,-0.0078 h -0.26768 z"
     style="baseline-shift:baseline;display:inline;overflow:visible;fill-rule:evenodd;enable-background:accumulate;stop-color:#000000;stop-opacity:1;stroke:#000000;stroke-opacity:1;stroke-width:0.2;stroke-dasharray:none;fill:none"
     id="path274" />
  <path
     d="m 117.15409,97.601794 -0.0682,0.01137 -0.0605,0.04134 -0.0408,0.06253 -0.0139,0.06615 v 1.209228 l 0.0139,0.06821 0.0408,0.06046 0.0605,0.04082 0.0682,0.01395 h 0.28319 l 0.0687,-0.01395 0.0605,-0.04082 0.0408,-0.06046 0.0139,-0.06821 v -1.209228 l -0.0139,-0.06615 -0.0408,-0.06253 -0.0605,-0.04134 -0.0687,-0.01137 z m 0.004,0.09922 h 0.002 0.26768 l 0.0388,0.0078 0.0274,0.01757 0.0196,0.02945 0.008,0.03721 v 1.191142 l -0.008,0.03721 -0.0196,0.02739 -0.0274,0.01964 -0.0388,0.0078 h -0.26561 l -0.0372,-0.0078 -0.0274,-0.01964 -0.0196,-0.02739 -0.008,-0.03721 v -1.191142 l 0.008,-0.03721 0.0196,-0.02945 0.0274,-0.01757 z"
     style="baseline-shift:baseline;display:inline;overflow:visible;fill-rule:evenodd;enable-background:accumulate;stop-color:#000000;stop-opacity:1;stroke:#000000;stroke-opacity:1;stroke-width:0.2;stroke-dasharray:none;fill:none"
     id="path273" />
  <path
     d="m 116.35776,97.701013 -0.0336,0.0078 -0.0274,0.01757 -0.0191,0.02945 -0.006,0.03721 v 1.191142 l 0.006,0.03721 0.0191,0.02739 0.0274,0.01964 0.0393,0.0078 h 0.26562 l 0.0372,-0.0078 0.0274,-0.01964 0.0191,-0.02739 0.008,-0.03721 v -1.191142 l -0.008,-0.03721 -0.0191,-0.02945 -0.0274,-0.01757 -0.0372,-0.0078 h -0.26975 z"
     style="baseline-shift:baseline;display:inline;overflow:visible;fill-rule:evenodd;enable-background:accumulate;stop-color:#000000;stop-opacity:1;stroke:#000000;stroke-opacity:1;stroke-width:0.2;stroke-dasharray:none;fill:none"
     id="path272" />
  <path
     d="m 116.35362,97.601794 -0.0687,0.01137 -0.0605,0.04134 -0.0408,0.06253 -0.014,0.06615 v 1.209228 l 0.014,0.06821 0.0408,0.06046 0.0605,0.04082 0.0687,0.01395 h 0.28526 l 0.0661,-0.01395 0.0605,-0.04082 0.0413,-0.06046 0.0134,-0.06821 v -1.209228 l -0.0134,-0.06615 -0.0413,-0.06253 -0.0605,-0.04134 -0.0661,-0.01137 z m 0.004,0.09922 h 0.002 0.26975 l 0.0372,0.0078 0.0274,0.01757 0.0191,0.02945 0.008,0.03721 v 1.191142 l -0.008,0.03721 -0.0191,0.02739 -0.0274,0.01964 -0.0372,0.0078 h -0.26562 l -0.0393,-0.0078 -0.0274,-0.01964 -0.0191,-0.02739 -0.006,-0.03721 v -1.191142 l 0.006,-0.03721 0.0191,-0.02945 0.0274,-0.01757 z"
     style="baseline-shift:baseline;display:inline;overflow:visible;fill-rule:evenodd;enable-background:accumulate;stop-color:#000000;stop-opacity:1;stroke:#000000;stroke-opacity:1;stroke-width:0.2;stroke-dasharray:none;fill:none"
     id="path271" />
  <path
     d="m 115.55884,97.701013 -0.0331,0.0078 -0.0295,0.01757 -0.0176,0.02945 -0.008,0.03721 v 1.189592 l 0.008,0.03876 0.0176,0.02739 0.0295,0.01964 0.0367,0.0078 h 0.26561 l 0.0393,-0.0078 0.0274,-0.01964 0.0176,-0.02739 0.008,-0.03876 v -1.189592 l -0.008,-0.03721 -0.0176,-0.02945 -0.0274,-0.01757 -0.0393,-0.0078 h -0.26717 z"
     style="baseline-shift:baseline;display:inline;overflow:visible;fill-rule:evenodd;enable-background:accumulate;stop-color:#000000;stop-opacity:1;stroke:#000000;stroke-opacity:1;stroke-width:0.2;stroke-dasharray:none;fill:none"
     id="path270" />
  <path
     d="m 115.55264,97.601794 -0.0661,0.01137 -0.0625,0.04134 -0.0393,0.06253 -0.0134,0.06615 v 1.210779 l 0.0134,0.06666 0.0393,0.06046 0.0625,0.04082 0.0661,0.01395 h 0.28525 l 0.0682,-0.01395 0.061,-0.04082 0.0408,-0.06046 0.0134,-0.06666 v -1.210779 l -0.0134,-0.06615 -0.0408,-0.06098 -0.061,-0.04289 -0.0682,-0.01137 z m 0.006,0.09922 h 0.002 0.26717 l 0.0393,0.0078 0.0274,0.01757 0.0176,0.02945 0.008,0.03721 v 1.189592 l -0.008,0.03876 -0.0176,0.02739 -0.0274,0.01964 -0.0393,0.0078 h -0.26561 l -0.0367,-0.0078 -0.0295,-0.01964 -0.0176,-0.02739 -0.008,-0.03876 v -1.189592 l 0.008,-0.03721 0.0176,-0.02945 0.0295,-0.01757 z"
     style="baseline-shift:baseline;display:inline;overflow:visible;fill-rule:evenodd;enable-background:accumulate;stop-color:#000000;stop-opacity:1;stroke:#000000;stroke-opacity:1;stroke-width:0.2;stroke-dasharray:none;fill:none"
     id="path269" />
  <path
     d="m 118.97672,95.093937 -0.0858,0.0155 -0.0646,0.04289 -0.0429,0.06666 -0.016,0.0801 v 0.941027 l 0.016,0.0801 0.0429,0.0646 0.0646,0.04289 0.0816,0.0155 h 0.49041 l 0.0801,-0.0155 0.0646,-0.04289 0.0429,-0.0646 0.0176,-0.0801 v -0.941027 l -0.0176,-0.0801 -0.0429,-0.06666 -0.0646,-0.04289 -0.0801,-0.0155 z"
     style="baseline-shift:baseline;display:inline;overflow:visible;fill-rule:evenodd;enable-background:accumulate;stop-color:#000000;stop-opacity:1;stroke:#000000;stroke-opacity:1;stroke-width:0.2;stroke-dasharray:none;fill:none"
     id="path268" />
  <path
     d="m 118.96276,94.994202 -0.1111,0.02119 -0.0977,0.06666 -0.0646,0.09767 -0.0233,0.109554 v 0.960665 l 0.0233,0.109554 0.0646,0.09767 0.0977,0.06408 0.1111,0.0217 h 0.51005 l 0.10904,-0.0217 0.0977,-0.06408 0.0667,-0.09767 0.0217,-0.109554 v -0.960665 l -0.0217,-0.109554 -0.0667,-0.09767 -0.0977,-0.06666 -0.10904,-0.02119 z m 0.014,0.09973 h 0.48627 l 0.0801,0.0155 0.0646,0.04289 0.0429,0.06666 0.0176,0.0801 v 0.941027 l -0.0176,0.0801 -0.0429,0.0646 -0.0646,0.04289 -0.0801,0.0155 h -0.49041 l -0.0816,-0.0155 -0.0646,-0.04289 -0.0429,-0.0646 -0.016,-0.0801 v -0.941027 l 0.016,-0.0801 0.0429,-0.06666 0.0646,-0.04289 z"
     style="baseline-shift:baseline;display:inline;overflow:visible;fill-rule:evenodd;enable-background:accumulate;stop-color:#000000;stop-opacity:1;stroke:#000000;stroke-opacity:1;stroke-width:0.2;stroke-dasharray:none;fill:none"
     id="path267" />
  <path
     d="m 117.07606,95.093937 -0.0858,0.0155 -0.0646,0.04289 -0.0429,0.06459 -0.0155,0.08217 v 0.941027 l 0.0155,0.0801 0.0429,0.0646 0.0646,0.04289 0.0822,0.0155 h 0.48989 l 0.0801,-0.0155 0.0646,-0.04289 0.0429,-0.0646 0.0176,-0.0801 v -0.941027 l -0.0176,-0.0801 -0.0429,-0.06666 -0.0646,-0.04289 -0.0801,-0.0155 z"
     style="baseline-shift:baseline;display:inline;overflow:visible;fill-rule:evenodd;enable-background:accumulate;stop-color:#000000;stop-opacity:1;stroke:#000000;stroke-opacity:1;stroke-width:0.2;stroke-dasharray:none;fill:none"
     id="path266" />
  <path
     d="m 117.06262,94.994202 -0.11162,0.02119 -0.0977,0.06666 -0.0646,0.09767 -0.0212,0.109554 v 0.960665 l 0.0212,0.109554 0.0646,0.09767 0.0977,0.06408 0.11162,0.0217 h 0.50953 l 0.10956,-0.0217 0.0977,-0.06408 0.0661,-0.09767 0.0217,-0.109554 v -0.960665 l -0.0217,-0.109554 -0.0661,-0.09767 -0.0977,-0.06666 -0.10956,-0.02119 z m 0.0134,0.09973 h 0.48627 l 0.0801,0.0155 0.0646,0.04289 0.0429,0.06666 0.0176,0.0801 v 0.941027 l -0.0176,0.0801 -0.0429,0.0646 -0.0646,0.04289 -0.0801,0.0155 h -0.48989 l -0.0822,-0.0155 -0.0646,-0.04289 -0.0429,-0.0646 -0.0155,-0.0801 v -0.941027 l 0.0155,-0.08217 0.0429,-0.06459 0.0646,-0.04289 z"
     style="baseline-shift:baseline;display:inline;overflow:visible;fill-rule:evenodd;enable-background:accumulate;stop-color:#000000;stop-opacity:1;stroke:#000000;stroke-opacity:1;stroke-width:0.2;stroke-dasharray:none;fill:none"
     id="path265" />
  <path
     d="m 113.27164,91.206836 -0.078,0.01602 -0.0646,0.04289 -0.0429,0.06408 -0.0155,0.08217 v 0.515731 l 0.0155,0.0801 0.0429,0.06459 0.0646,0.04289 0.0822,0.0155 h 0.89039 l 0.0801,-0.0155 0.0646,-0.04289 0.0429,-0.06459 0.0176,-0.0801 v -0.515731 l -0.0176,-0.08217 -0.0429,-0.06408 -0.0646,-0.04289 -0.0801,-0.01602 z"
     style="baseline-shift:baseline;display:inline;overflow:visible;fill-rule:evenodd;enable-background:accumulate;stop-color:#000000;stop-opacity:1;stroke:#000000;stroke-opacity:1;stroke-width:0.2;stroke-dasharray:none;fill:none"
     id="path264" />
  <path
     d="m 113.26544,91.107617 -0.11111,0.02119 -0.0977,0.06459 -0.0646,0.09767 -0.0217,0.111104 v 0.535368 l 0.0217,0.109554 0.0646,0.09767 0.0977,0.06615 0.11111,0.01964 h 0.91054 l 0.10903,-0.01964 0.0977,-0.06615 0.0667,-0.09767 0.0212,-0.109554 v -0.535368 l -0.0212,-0.111104 -0.0667,-0.09767 -0.0977,-0.06459 -0.10903,-0.02119 z m 0.006,0.09922 h 0.89452 l 0.0801,0.01602 0.0646,0.04289 0.0429,0.06408 0.0176,0.08217 v 0.515731 l -0.0176,0.0801 -0.0429,0.06459 -0.0646,0.04289 -0.0801,0.0155 h -0.89039 l -0.0822,-0.0155 -0.0646,-0.04289 -0.0429,-0.06459 -0.0155,-0.0801 v -0.515731 l 0.0155,-0.08217 0.0429,-0.06408 0.0646,-0.04289 z"
     style="baseline-shift:baseline;display:inline;overflow:visible;fill-rule:evenodd;enable-background:accumulate;stop-color:#000000;stop-opacity:1;stroke:#000000;stroke-opacity:1;stroke-width:0.2;stroke-dasharray:none;fill:none"
     id="path263" />
  <path
     d="m 110.98444,91.206836 -0.076,0.01602 -0.0646,0.04289 -0.0429,0.06408 -0.0155,0.08217 v 0.515731 l 0.0155,0.0801 0.0429,0.06459 0.0646,0.04289 0.0816,0.0155 h 0.88884 l 0.0822,-0.0155 0.0646,-0.04289 0.0429,-0.06459 0.0155,-0.0801 v -0.515731 l -0.0155,-0.08217 -0.0429,-0.06408 -0.0646,-0.04289 -0.0822,-0.01602 z"
     style="baseline-shift:baseline;display:inline;overflow:visible;fill-rule:evenodd;enable-background:accumulate;stop-color:#000000;stop-opacity:1;stroke:#000000;stroke-opacity:1;stroke-width:0.2;stroke-dasharray:none;fill:none"
     id="path262" />
  <path
     d="m 110.97876,91.107617 -0.10956,0.02119 -0.0977,0.06459 -0.0646,0.09767 -0.0233,0.111104 v 0.535368 l 0.0233,0.109554 0.0646,0.09767 0.0977,0.06615 0.11111,0.01964 h 0.90847 l 0.1111,-0.01964 0.0977,-0.06615 0.0646,-0.09767 0.0217,-0.109554 v -0.535368 l -0.0217,-0.111104 -0.0646,-0.09767 -0.0977,-0.06459 -0.1111,-0.02119 z m 0.006,0.09922 h 0.89452 l 0.0822,0.01602 0.0646,0.04289 0.0429,0.06408 0.0155,0.08217 v 0.515731 l -0.0155,0.0801 -0.0429,0.06459 -0.0646,0.04289 -0.0822,0.0155 h -0.88884 l -0.0816,-0.0155 -0.0646,-0.04289 -0.0429,-0.06459 -0.0155,-0.0801 v -0.515731 l 0.0155,-0.08217 0.0429,-0.06408 0.0646,-0.04289 z"
     style="baseline-shift:baseline;display:inline;overflow:visible;fill-rule:evenodd;enable-background:accumulate;stop-color:#000000;stop-opacity:1;stroke:#000000;stroke-opacity:1;stroke-width:0.2;stroke-dasharray:none;fill:none"
     id="path261" />
  <path
     d="m 108.32259,91.125187 -0.0765,0.0155 -0.0641,0.04289 -0.0434,0.06459 -0.0176,0.0801 v 0.51573 l 0.0176,0.08165 0.0434,0.0646 0.0641,0.04289 0.0801,0.0155 h 0.89091 l 0.0816,-0.0155 0.0646,-0.04289 0.0429,-0.0646 0.016,-0.08165 v -0.51573 l -0.016,-0.0801 -0.0429,-0.06459 -0.0646,-0.04289 -0.0816,-0.0155 z"
     style="baseline-shift:baseline;display:inline;overflow:visible;fill-rule:evenodd;enable-background:accumulate;stop-color:#000000;stop-opacity:1;stroke:#000000;stroke-opacity:1;stroke-width:0.2;stroke-dasharray:none;fill:none"
     id="path260" />
  <path
     d="m 108.31639,91.023385 -0.10956,0.02325 -0.0977,0.0646 -0.0641,0.09767 -0.0238,0.109554 v 0.534851 l 0.0238,0.111621 0.0641,0.09767 0.0977,0.0646 0.10956,0.02119 h 0.91002 l 0.11162,-0.02119 0.0977,-0.0646 0.0641,-0.09767 0.0217,-0.111621 v -0.534851 l -0.0217,-0.109554 -0.0641,-0.09767 -0.0977,-0.0646 -0.11162,-0.02325 z m 0.006,0.101802 h 0.89452 l 0.0816,0.0155 0.0646,0.04289 0.0429,0.06459 0.016,0.0801 v 0.51573 l -0.016,0.08165 -0.0429,0.0646 -0.0646,0.04289 -0.0816,0.0155 h -0.89091 l -0.0801,-0.0155 -0.0641,-0.04289 -0.0434,-0.0646 -0.0176,-0.08165 v -0.51573 l 0.0176,-0.0801 0.0434,-0.06459 0.0641,-0.04289 z"
     style="baseline-shift:baseline;display:inline;overflow:visible;fill-rule:evenodd;enable-background:accumulate;stop-color:#000000;stop-opacity:1;stroke:#000000;stroke-opacity:1;stroke-width:0.2;stroke-dasharray:none;fill:none"
     id="path259" />
  <path
     d="m 106.03539,91.125187 -0.0765,0.0155 -0.0641,0.04289 -0.0429,0.06459 -0.016,0.0801 v 0.51573 l 0.016,0.08165 0.0429,0.0646 0.0641,0.04289 0.0822,0.0155 h 0.8909 l 0.0801,-0.0155 0.0641,-0.04289 0.0434,-0.0646 0.0176,-0.08165 v -0.51573 l -0.0176,-0.0801 -0.0434,-0.06459 -0.0641,-0.04289 -0.0801,-0.0155 z"
     style="baseline-shift:baseline;display:inline;overflow:visible;fill-rule:evenodd;enable-background:accumulate;stop-color:#000000;stop-opacity:1;stroke:#000000;stroke-opacity:1;stroke-width:0.2;stroke-dasharray:none;fill:none"
     id="path258" />
  <path
     d="m 106.03125,91.023385 -0.1111,0.02325 -0.0982,0.0646 -0.0641,0.09767 -0.0217,0.109554 v 0.534851 l 0.0217,0.111621 0.0641,0.09767 0.0982,0.0646 0.1111,0.02119 h 0.91003 l 0.10955,-0.02119 0.0977,-0.0646 0.0661,-0.09767 0.0217,-0.111621 v -0.534851 l -0.0217,-0.109554 -0.0661,-0.09767 -0.0977,-0.0646 -0.10955,-0.02325 z m 0.004,0.101802 h 0.89658 l 0.0801,0.0155 0.0641,0.04289 0.0434,0.06459 0.0176,0.0801 v 0.51573 l -0.0176,0.08165 -0.0434,0.0646 -0.0641,0.04289 -0.0801,0.0155 h -0.8909 l -0.0822,-0.0155 -0.0641,-0.04289 -0.0429,-0.0646 -0.016,-0.08165 v -0.51573 l 0.016,-0.0801 0.0429,-0.06459 0.0641,-0.04289 z"
     style="baseline-shift:baseline;display:inline;overflow:visible;fill-rule:evenodd;enable-background:accumulate;stop-color:#000000;stop-opacity:1;stroke:#000000;stroke-opacity:1;stroke-width:0.2;stroke-dasharray:none;fill:none"
     id="path257" />
  <path
     d="m 122.51552,91.0177 -0.076,0.0155 -0.0646,0.04289 -0.0429,0.0646 -0.0155,0.0801 v 0.51573 l 0.0155,0.08165 0.0429,0.0646 0.0646,0.04289 0.0822,0.0155 h 0.89039 l 0.0801,-0.0155 0.0646,-0.04289 0.0429,-0.0646 0.0155,-0.08165 v -0.51573 l -0.0155,-0.0801 -0.0429,-0.0646 -0.0646,-0.04289 -0.0801,-0.0155 z"
     style="baseline-shift:baseline;display:inline;overflow:visible;fill-rule:evenodd;enable-background:accumulate;stop-color:#000000;stop-opacity:1;stroke:#000000;stroke-opacity:1;stroke-width:0.2;stroke-dasharray:none;fill:none"
     id="path256" />
  <path
     d="m 122.5119,90.917965 -0.11162,0.0217 -0.0977,0.06408 -0.0641,0.09767 -0.0217,0.109554 v 0.535368 l 0.0217,0.111104 0.0641,0.09767 0.0977,0.06459 0.11162,0.02119 h 0.91002 l 0.10956,-0.02119 0.0977,-0.06459 0.0661,-0.09767 0.0217,-0.111104 V 91.21097 l -0.0217,-0.109554 -0.0661,-0.09767 -0.0977,-0.06408 -0.10956,-0.0217 z m 0.004,0.09974 h 0.89659 l 0.0801,0.0155 0.0646,0.04289 0.0429,0.0646 0.0155,0.0801 v 0.51573 l -0.0155,0.08165 -0.0429,0.0646 -0.0646,0.04289 -0.0801,0.0155 h -0.89039 l -0.0822,-0.0155 -0.0646,-0.04289 -0.0429,-0.0646 -0.0155,-0.08165 v -0.51573 l 0.0155,-0.0801 0.0429,-0.0646 0.0646,-0.04289 z"
     style="baseline-shift:baseline;display:inline;overflow:visible;fill-rule:evenodd;enable-background:accumulate;stop-color:#000000;stop-opacity:1;stroke:#000000;stroke-opacity:1;stroke-width:0.2;stroke-dasharray:none;fill:none"
     id="path255" />
  <path
     d="m 120.23039,91.0177 -0.076,0.0155 -0.0646,0.04289 -0.0429,0.0646 -0.0176,0.0801 v 0.51573 l 0.0176,0.08165 0.0429,0.0646 0.0646,0.04289 0.0801,0.0155 h 0.89039 l 0.0822,-0.0155 0.0646,-0.04289 0.0429,-0.0646 0.0155,-0.08165 v -0.51573 l -0.0155,-0.0801 -0.0429,-0.0646 -0.0646,-0.04289 -0.0822,-0.0155 z"
     style="baseline-shift:baseline;display:inline;overflow:visible;fill-rule:evenodd;enable-background:accumulate;stop-color:#000000;stop-opacity:1;stroke:#000000;stroke-opacity:1;stroke-width:0.2;stroke-dasharray:none;fill:none"
     id="path254" />
  <path
     d="m 120.2247,90.917965 -0.10955,0.0217 -0.0977,0.06408 -0.0662,0.09767 -0.0217,0.109554 v 0.535368 l 0.0217,0.111104 0.0662,0.09767 0.0977,0.06459 0.10955,0.02119 h 0.91002 l 0.11163,-0.02119 0.0977,-0.06459 0.0641,-0.09767 0.0217,-0.111104 V 91.21097 l -0.0217,-0.109554 -0.0641,-0.09767 -0.0997,-0.06408 -0.10956,-0.0217 z m 0.006,0.09974 h 0.89452 l 0.0822,0.0155 0.0646,0.04289 0.0429,0.0646 0.0155,0.0801 v 0.51573 l -0.0155,0.08165 -0.0429,0.0646 -0.0646,0.04289 -0.0822,0.0155 h -0.89039 l -0.0801,-0.0155 -0.0646,-0.04289 -0.0429,-0.0646 -0.0176,-0.08165 v -0.51573 l 0.0176,-0.0801 0.0429,-0.0646 0.0646,-0.04289 z"
     style="baseline-shift:baseline;display:inline;overflow:visible;fill-rule:evenodd;enable-background:accumulate;stop-color:#000000;stop-opacity:1;stroke:#000000;stroke-opacity:1;stroke-width:0.2;stroke-dasharray:none;fill:none"
     id="path253" />
  <path
     d="m 113.28146,89.381108 -0.0878,0.01757 -0.0646,0.04289 -0.0429,0.06408 -0.0155,0.0801 v 0.515731 l 0.0155,0.08217 0.0429,0.06459 0.0646,0.04289 0.0816,0.0155 h 0.8909 l 0.0801,-0.0155 0.0646,-0.04289 0.0429,-0.06459 0.0176,-0.08217 v -0.515731 l -0.0176,-0.0801 -0.0429,-0.06408 -0.0646,-0.04289 -0.0801,-0.01757 z"
     style="baseline-shift:baseline;display:inline;overflow:visible;fill-rule:evenodd;enable-background:accumulate;stop-color:#000000;stop-opacity:1;stroke:#000000;stroke-opacity:1;stroke-width:0.2;stroke-dasharray:none;fill:none"
     id="path252" />
  <path
     d="m 113.26544,89.281372 -0.11111,0.02119 -0.0977,0.06666 -0.0646,0.09767 -0.0217,0.109038 v 0.535368 l 0.0217,0.109554 0.0646,0.09922 0.0977,0.0646 0.11111,0.0217 h 0.91054 l 0.10903,-0.0217 0.0977,-0.0646 0.0667,-0.09767 0.0212,-0.111104 v -0.535368 l -0.0212,-0.109038 -0.0667,-0.09767 -0.0977,-0.06666 -0.10903,-0.02119 z m 0.016,0.09974 h 0.8847 l 0.0801,0.01757 0.0646,0.04289 0.0429,0.06408 0.0176,0.0801 v 0.515731 l -0.0176,0.08217 -0.0429,0.06459 -0.0646,0.04289 -0.0801,0.0155 h -0.8909 l -0.0816,-0.0155 -0.0646,-0.04289 -0.0429,-0.06459 -0.0155,-0.08217 v -0.515731 l 0.0155,-0.0801 0.0429,-0.06408 0.0646,-0.04289 z"
     style="baseline-shift:baseline;display:inline;overflow:visible;fill-rule:evenodd;enable-background:accumulate;stop-color:#000000;stop-opacity:1;stroke:#000000;stroke-opacity:1;stroke-width:0.2;stroke-dasharray:none;fill:none"
     id="path251" />
  <path
     d="m 110.99426,89.381108 -0.0863,0.01757 -0.0641,0.04289 -0.0429,0.06408 -0.016,0.0801 v 0.515731 l 0.016,0.08217 0.0429,0.06459 0.0641,0.04289 0.0822,0.0155 h 0.88884 l 0.0822,-0.0155 0.0641,-0.04289 0.0434,-0.06459 0.0155,-0.08217 v -0.515731 l -0.0155,-0.0801 -0.0434,-0.06408 -0.0641,-0.04289 -0.0822,-0.01757 z"
     style="baseline-shift:baseline;display:inline;overflow:visible;fill-rule:evenodd;enable-background:accumulate;stop-color:#000000;stop-opacity:1;stroke:#000000;stroke-opacity:1;stroke-width:0.2;stroke-dasharray:none;fill:none"
     id="path250" />
  <path
     d="m 110.97876,89.281372 -0.10956,0.02119 -0.0977,0.06666 -0.0646,0.09767 -0.0233,0.109038 v 0.535368 l 0.0233,0.111621 0.0646,0.09715 0.0977,0.0646 0.10956,0.0217 h 0.91002 l 0.1111,-0.0217 0.0977,-0.0646 0.0646,-0.09922 0.0217,-0.109554 v -0.535368 l -0.0217,-0.109038 -0.0646,-0.09767 -0.0977,-0.06666 -0.1111,-0.02119 z m 0.0155,0.09974 h 0.8847 l 0.0822,0.01757 0.0641,0.04289 0.0434,0.06408 0.0155,0.0801 v 0.515731 l -0.0155,0.08217 -0.0434,0.06459 -0.0641,0.04289 -0.0822,0.0155 h -0.88884 l -0.0822,-0.0155 -0.0641,-0.04289 -0.0429,-0.06459 -0.016,-0.08217 v -0.515731 l 0.016,-0.0801 0.0429,-0.06408 0.0641,-0.04289 z"
     style="baseline-shift:baseline;display:inline;overflow:visible;fill-rule:evenodd;enable-background:accumulate;stop-color:#000000;stop-opacity:1;stroke:#000000;stroke-opacity:1;stroke-width:0.2;stroke-dasharray:none;fill:none"
     id="path249" />
  <path
     d="m 108.32259,89.298942 -0.0765,0.0155 -0.0641,0.04289 -0.0434,0.06666 -0.0176,0.0801 v 0.515215 l 0.0176,0.0801 0.0434,0.0646 0.0641,0.04289 0.0801,0.01757 h 0.89091 l 0.0816,-0.01757 0.0646,-0.04289 0.0429,-0.0646 0.016,-0.0801 v -0.515215 l -0.016,-0.08217 -0.0429,-0.0646 -0.0646,-0.04289 -0.0816,-0.0155 z"
     style="baseline-shift:baseline;display:inline;overflow:visible;fill-rule:evenodd;enable-background:accumulate;stop-color:#000000;stop-opacity:1;stroke:#000000;stroke-opacity:1;stroke-width:0.2;stroke-dasharray:none;fill:none"
     id="path248" />
  <path
     d="m 108.31639,89.199207 -0.10956,0.0217 -0.0977,0.06615 -0.0641,0.0956 -0.0238,0.111621 v 0.534851 l 0.0238,0.109554 0.0641,0.09767 0.0977,0.06615 0.10956,0.0217 h 0.91002 l 0.11162,-0.0217 0.0977,-0.06615 0.0641,-0.09767 0.0217,-0.109554 v -0.534851 l -0.0217,-0.109554 -0.0641,-0.09767 -0.0977,-0.06615 -0.11162,-0.0217 z m 0.006,0.09973 h 0.89452 l 0.0816,0.0155 0.0646,0.04289 0.0429,0.0646 0.016,0.08217 v 0.515215 l -0.016,0.0801 -0.0429,0.0646 -0.0646,0.04289 -0.0816,0.01757 h -0.89091 l -0.0801,-0.01757 -0.0641,-0.04289 -0.0434,-0.0646 -0.0176,-0.0801 v -0.515215 l 0.0176,-0.0801 0.0434,-0.06666 0.0641,-0.04289 z"
     style="baseline-shift:baseline;display:inline;overflow:visible;fill-rule:evenodd;enable-background:accumulate;stop-color:#000000;stop-opacity:1;stroke:#000000;stroke-opacity:1;stroke-width:0.2;stroke-dasharray:none;fill:none"
     id="path247" />
  <path
     d="m 106.03539,89.298942 -0.0765,0.0155 -0.0641,0.04289 -0.0429,0.06666 -0.016,0.0801 v 0.515215 l 0.016,0.0801 0.0429,0.0646 0.0641,0.04289 0.0822,0.01757 h 0.8909 l 0.0801,-0.01757 0.0641,-0.04289 0.0434,-0.0646 0.0176,-0.0801 v -0.515215 l -0.0176,-0.0801 -0.0434,-0.06666 -0.0641,-0.04289 -0.0801,-0.0155 z"
     style="baseline-shift:baseline;display:inline;overflow:visible;fill-rule:evenodd;enable-background:accumulate;stop-color:#000000;stop-opacity:1;stroke:#000000;stroke-opacity:1;stroke-width:0.2;stroke-dasharray:none;fill:none"
     id="path246" />
  <path
     d="m 106.03125,89.199207 -0.1111,0.0217 -0.0982,0.06615 -0.0641,0.0956 -0.0217,0.111621 v 0.534851 l 0.0217,0.109554 0.0641,0.09767 0.0982,0.06615 0.1111,0.0217 h 0.91003 l 0.10955,-0.0217 0.0977,-0.06615 0.0661,-0.09767 0.0217,-0.109554 v -0.534851 l -0.0217,-0.111621 -0.0661,-0.0956 -0.0977,-0.06615 -0.10955,-0.0217 z m 0.004,0.09973 h 0.89658 l 0.0801,0.0155 0.0641,0.04289 0.0434,0.06666 0.0176,0.0801 v 0.515215 l -0.0176,0.0801 -0.0434,0.0646 -0.0641,0.04289 -0.0801,0.01757 h -0.8909 l -0.0822,-0.01757 -0.0641,-0.04289 -0.0429,-0.0646 -0.016,-0.0801 v -0.515215 l 0.016,-0.0801 0.0429,-0.06666 0.0641,-0.04289 z"
     style="baseline-shift:baseline;display:inline;overflow:visible;fill-rule:evenodd;enable-background:accumulate;stop-color:#000000;stop-opacity:1;stroke:#000000;stroke-opacity:1;stroke-width:0.2;stroke-dasharray:none;fill:none"
     id="path245" />
  <path
     d="m 122.52534,89.191455 -0.0858,0.01757 -0.0646,0.04289 -0.0429,0.06459 -0.0155,0.0801 v 0.51573 l 0.0155,0.0801 0.0429,0.06615 0.0646,0.04289 0.0822,0.0155 h 0.89039 l 0.0801,-0.0155 0.0646,-0.04289 0.0429,-0.06615 0.0155,-0.0801 v -0.51573 l -0.0155,-0.0801 -0.0429,-0.06459 -0.0646,-0.04289 -0.0801,-0.01757 z"
     style="baseline-shift:baseline;display:inline;overflow:visible;fill-rule:evenodd;enable-background:accumulate;stop-color:#000000;stop-opacity:1;stroke:#000000;stroke-opacity:1;stroke-width:0.2;stroke-dasharray:none;fill:none"
     id="path244" />
  <path
     d="m 122.5119,89.09172 -0.11162,0.0217 -0.0977,0.06615 -0.0641,0.09767 -0.0217,0.109554 v 0.534851 l 0.0217,0.109554 0.0641,0.09767 0.0977,0.06666 0.11162,0.02119 h 0.91002 l 0.10956,-0.02119 0.0977,-0.06666 0.0661,-0.09767 0.0217,-0.109554 v -0.534851 l -0.0217,-0.109554 -0.0661,-0.09767 -0.0977,-0.06615 -0.10956,-0.0217 z m 0.0134,0.09974 h 0.88677 l 0.0801,0.01757 0.0646,0.04289 0.0429,0.06459 0.0155,0.0801 v 0.51573 l -0.0155,0.0801 -0.0429,0.06615 -0.0646,0.04289 -0.0801,0.0155 h -0.89039 l -0.0822,-0.0155 -0.0646,-0.04289 -0.0429,-0.06615 -0.0155,-0.0801 v -0.51573 l 0.0155,-0.0801 0.0429,-0.06459 0.0646,-0.04289 z"
     style="baseline-shift:baseline;display:inline;overflow:visible;fill-rule:evenodd;enable-background:accumulate;stop-color:#000000;stop-opacity:1;stroke:#000000;stroke-opacity:1;stroke-width:0.2;stroke-dasharray:none;fill:none"
     id="path243" />
  <path
     d="m 120.24021,89.191455 -0.0858,0.01757 -0.0646,0.04289 -0.0429,0.06459 -0.0176,0.0801 v 0.51573 l 0.0176,0.0801 0.0429,0.06615 0.0646,0.04289 0.0801,0.0155 h 0.89039 l 0.0822,-0.0155 0.0641,-0.04289 0.0434,-0.06615 0.0155,-0.0801 v -0.51573 l -0.0155,-0.0801 -0.0434,-0.06459 -0.0641,-0.04289 -0.0822,-0.01757 z"
     style="baseline-shift:baseline;display:inline;overflow:visible;fill-rule:evenodd;enable-background:accumulate;stop-color:#000000;stop-opacity:1;stroke:#000000;stroke-opacity:1;stroke-width:0.2;stroke-dasharray:none;fill:none"
     id="path242" />
  <path
     d="m 120.2247,89.09172 -0.10955,0.0217 -0.0977,0.06615 -0.0662,0.09767 -0.0217,0.109554 v 0.534851 l 0.0217,0.109554 0.0662,0.09767 0.0977,0.06666 0.10955,0.02119 h 0.91002 l 0.10956,-0.02119 0.0992,-0.06666 0.0646,-0.09767 0.0217,-0.109554 v -0.534851 l -0.0217,-0.109554 -0.0646,-0.09767 -0.0977,-0.06615 -0.11111,-0.0217 z m 0.0155,0.09974 h 0.8847 l 0.0822,0.01757 0.0641,0.04289 0.0434,0.06459 0.0155,0.0801 v 0.51573 l -0.0155,0.0801 -0.0434,0.06615 -0.0641,0.04289 -0.0822,0.0155 h -0.89039 l -0.0801,-0.0155 -0.0646,-0.04289 -0.0429,-0.06615 -0.0176,-0.0801 v -0.51573 l 0.0176,-0.0801 0.0429,-0.06459 0.0646,-0.04289 z"
     style="baseline-shift:baseline;display:inline;overflow:visible;fill-rule:evenodd;enable-background:accumulate;stop-color:#000000;stop-opacity:1;stroke:#000000;stroke-opacity:1;stroke-width:0.2;stroke-dasharray:none;fill:none"
     id="path241" />
  <metadata
     id="metadata131">
    <rdf:RDF>
      <cc:Work
         rdf:about="">
        <dc:title>SVG Image created as ComponentTester-Edge_Cuts.svg date 2025/10/19 18:28:22 </dc:title>
      </cc:Work>
    </rdf:RDF>
  </metadata>
  <path
     d="m 84.832031,82.767558 -0.05064,0.04909 v 51.95859 l 0.05064,0.0512 h 51.208759 l 0.0491,-0.0512 V 82.81665 l -0.0491,-0.04909 z m 0.04858,0.09974 H 135.99015 V 134.72666 H 84.880607 Z"
     style="baseline-shift:baseline;display:inline;overflow:visible;opacity:1;stroke-linejoin:bevel;enable-background:accumulate;stop-color:#000000;stop-opacity:1;stroke:#000000;stroke-opacity:1;stroke-width:0.1;stroke-dasharray:none"
     id="path240" />
</svg>
