<?xml version="1.0" encoding="UTF-8" standalone="no"?>
<svg
   version="1.1"
   width="297.0022mm"
   height="210.0072mm"
   viewBox="0.0000 0.0000 297.0022 210.0072"
   id="svg70"
   sodipodi:docname="stencil-cut.svg"
   inkscape:version="1.4.2 (ebf0e940d0, 2025-05-08)"
   xmlns:inkscape="http://www.inkscape.org/namespaces/inkscape"
   xmlns:sodipodi="http://sodipodi.sourceforge.net/DTD/sodipodi-0.dtd"
   xmlns="http://www.w3.org/2000/svg"
   xmlns:svg="http://www.w3.org/2000/svg"
   xmlns:rdf="http://www.w3.org/1999/02/22-rdf-syntax-ns#"
   xmlns:cc="http://creativecommons.org/ns#"
   xmlns:dc="http://purl.org/dc/elements/1.1/">
  <defs
     id="defs70" />
  <sodipodi:namedview
     id="namedview70"
     pagecolor="#ffffff"
     bordercolor="#000000"
     borderopacity="0.25"
     inkscape:showpageshadow="2"
     inkscape:pageopacity="0.0"
     inkscape:pagecheckerboard="0"
     inkscape:deskcolor="#d1d1d1"
     inkscape:document-units="mm"
     inkscape:zoom="1.0330995"
     inkscape:cx="452.52174"
     inkscape:cy="361.04943"
     inkscape:window-width="1920"
     inkscape:window-height="1022"
     inkscape:window-x="0"
     inkscape:window-y="0"
     inkscape:window-maximized="1"
     inkscape:current-layer="svg70" />
  <title
     id="title1">SVG Image created as ComponentTester-Edge_Cuts.svg date 2025/10/19 18:28:22 </title>
  <desc
     id="desc1">Image generated by PCBNEW </desc>
  <path
     d="m 41.083797,49.388282 -0.0765,0.016 -0.0641,0.0429 -0.045,0.0641 -0.0155,0.0801 v 0.49041 l 0.0155,0.0822 0.045,0.0646 0.0641,0.0429 0.0806,0.0155 h 0.94103 l 0.0801,-0.0155 0.0646,-0.0429 0.0429,-0.0646 0.0155,-0.0822 v -0.49041 l -0.0155,-0.0801 -0.0429,-0.0641 -0.0646,-0.0429 -0.0801,-0.016 z"
     style="baseline-shift:baseline;display:inline;overflow:visible;fill:none;fill-rule:evenodd;stroke:#000000;stroke-width:0.1;stroke-dasharray:none;stroke-opacity:1;enable-background:accumulate;stop-color:#000000;stop-opacity:1"
     id="path352" />
  <path
     d="m 41.077597,49.286992 -0.10904,0.0212 -0.0977,0.0667 -0.0667,0.0977 -0.0212,0.10955 v 0.50953 l 0.0212,0.11162 0.0667,0.0977 0.0977,0.0641 0.10904,0.0238 h 0.96118 l 0.10956,-0.0238 0.0977,-0.0641 0.0661,-0.0977 0.0217,-0.11162 v -0.50953 l -0.0217,-0.10955 -0.0661,-0.0977 -0.0977,-0.0667 -0.10956,-0.0212 z m 0.006,0.10129 h 0.94517 l 0.0801,0.016 0.0646,0.0429 0.0429,0.0641 0.0155,0.0801 v 0.49041 l -0.0155,0.0822 -0.0429,0.0646 -0.0646,0.0429 -0.0801,0.0155 h -0.94103 l -0.0806,-0.0155 -0.0641,-0.0429 -0.045,-0.0646 -0.0155,-0.0822 v -0.49041 l 0.0155,-0.0801 0.045,-0.0641 0.0641,-0.0429 z"
     style="baseline-shift:baseline;display:inline;overflow:visible;fill:none;fill-rule:evenodd;stroke:#000000;stroke-width:0.1;stroke-dasharray:none;stroke-opacity:1;enable-background:accumulate;stop-color:#000000;stop-opacity:1"
     id="path351" />
  <path
     d="m 38.999687,49.388282 -0.076,0.016 -0.0646,0.0429 -0.0429,0.0641 -0.0155,0.0801 v 0.49041 l 0.0155,0.0822 0.0429,0.0646 0.0646,0.0429 0.0816,0.0155 h 0.93947 l 0.0822,-0.0155 0.0646,-0.0429 0.0429,-0.0646 0.0155,-0.0822 v -0.49041 l -0.0155,-0.0801 -0.0429,-0.0641 -0.0646,-0.0429 -0.0822,-0.016 z"
     style="baseline-shift:baseline;display:inline;overflow:visible;fill:none;fill-rule:evenodd;stroke:#000000;stroke-width:0.1;stroke-dasharray:none;stroke-opacity:1;enable-background:accumulate;stop-color:#000000;stop-opacity:1"
     id="path350" />
  <path
     d="m 38.995557,49.286992 -0.11111,0.0212 -0.0977,0.0667 -0.0646,0.0977 -0.0212,0.10955 v 0.50953 l 0.0212,0.11162 0.0646,0.0977 0.0977,0.0641 0.11111,0.0238 h 0.95911 l 0.11162,-0.0238 0.0977,-0.0641 0.0641,-0.0977 0.0217,-0.11162 v -0.50953 l -0.0217,-0.10955 -0.0641,-0.0977 -0.0997,-0.0667 -0.10956,-0.0212 z m 0.004,0.10129 h 0.94516 l 0.0822,0.016 0.0646,0.0429 0.0429,0.0641 0.0155,0.0801 v 0.49041 l -0.0155,0.0822 -0.0429,0.0646 -0.0646,0.0429 -0.0822,0.0155 h -0.93947 l -0.0816,-0.0155 -0.0646,-0.0429 -0.0429,-0.0646 -0.0155,-0.0822 v -0.49041 l 0.0155,-0.0801 0.0429,-0.0641 0.0646,-0.0429 z"
     style="baseline-shift:baseline;display:inline;overflow:visible;fill:none;fill-rule:evenodd;stroke:#000000;stroke-width:0.1;stroke-dasharray:none;stroke-opacity:1;enable-background:accumulate;stop-color:#000000;stop-opacity:1"
     id="path349" />
  <path
     d="m 41.083797,47.488132 -0.0765,0.0155 -0.0641,0.0429 -0.045,0.0646 -0.0155,0.0822 v 0.48834 l 0.0155,0.0816 0.045,0.0646 0.0641,0.0429 0.0806,0.0155 h 0.94103 l 0.0801,-0.0155 0.0646,-0.0429 0.0429,-0.0646 0.0155,-0.0816 v -0.48834 l -0.0155,-0.0822 -0.0429,-0.0646 -0.0646,-0.0429 -0.0801,-0.0155 z"
     style="baseline-shift:baseline;display:inline;overflow:visible;fill:none;fill-rule:evenodd;stroke:#000000;stroke-width:0.1;stroke-dasharray:none;stroke-opacity:1;enable-background:accumulate;stop-color:#000000;stop-opacity:1"
     id="path348" />
  <path
     d="m 41.077597,47.386332 -0.10904,0.0238 -0.0977,0.0641 -0.0667,0.0977 -0.0212,0.11162 v 0.50746 l 0.0212,0.11162 0.0667,0.0977 0.0977,0.0646 0.10904,0.0232 h 0.96118 l 0.10956,-0.0232 0.0977,-0.0646 0.0661,-0.0977 0.0217,-0.11162 v -0.50746 l -0.0217,-0.11162 -0.0661,-0.0977 -0.0977,-0.0641 -0.10956,-0.0238 z m 0.006,0.1018 h 0.94517 l 0.0801,0.0155 0.0646,0.0429 0.0429,0.0646 0.0155,0.0822 v 0.48834 l -0.0155,0.0816 -0.0429,0.0646 -0.0646,0.0429 -0.0801,0.0155 h -0.94103 l -0.0806,-0.0155 -0.0641,-0.0429 -0.045,-0.0646 -0.0155,-0.0816 v -0.48834 l 0.0155,-0.0822 0.045,-0.0646 0.0641,-0.0429 z"
     style="baseline-shift:baseline;display:inline;overflow:visible;fill:none;fill-rule:evenodd;stroke:#000000;stroke-width:0.1;stroke-dasharray:none;stroke-opacity:1;enable-background:accumulate;stop-color:#000000;stop-opacity:1"
     id="path347" />
  <path
     d="m 38.999687,47.488132 -0.076,0.0155 -0.0646,0.0429 -0.0429,0.0646 -0.0155,0.0822 v 0.48834 l 0.0155,0.0816 0.0429,0.0646 0.0646,0.0429 0.0816,0.0155 h 0.93947 l 0.0822,-0.0155 0.0646,-0.0429 0.0429,-0.0646 0.0155,-0.0816 v -0.48834 l -0.0155,-0.0822 -0.0429,-0.0646 -0.0646,-0.0429 -0.0822,-0.0155 z"
     style="baseline-shift:baseline;display:inline;overflow:visible;fill:none;fill-rule:evenodd;stroke:#000000;stroke-width:0.1;stroke-dasharray:none;stroke-opacity:1;enable-background:accumulate;stop-color:#000000;stop-opacity:1"
     id="path346" />
  <path
     d="m 38.995557,47.386332 -0.11111,0.0238 -0.0977,0.0641 -0.0646,0.0977 -0.0212,0.11162 v 0.50746 l 0.0212,0.11162 0.0646,0.0977 0.0977,0.0646 0.11111,0.0232 h 0.95911 l 0.11162,-0.0232 0.0977,-0.0646 0.0641,-0.0977 0.0217,-0.11162 v -0.50746 l -0.0217,-0.11162 -0.0661,-0.0977 -0.0977,-0.0641 -0.10956,-0.0238 z m 0.004,0.1018 h 0.94516 l 0.0822,0.0155 0.0646,0.0429 0.0429,0.0646 0.0155,0.0822 v 0.48834 l -0.0155,0.0816 -0.0429,0.0646 -0.0646,0.0429 -0.0822,0.0155 h -0.93947 l -0.0816,-0.0155 -0.0646,-0.0429 -0.0429,-0.0646 -0.0155,-0.0816 v -0.48834 l 0.0155,-0.0822 0.0429,-0.0646 0.0646,-0.0429 z"
     style="baseline-shift:baseline;display:inline;overflow:visible;fill:none;fill-rule:evenodd;stroke:#000000;stroke-width:0.1;stroke-dasharray:none;stroke-opacity:1;enable-background:accumulate;stop-color:#000000;stop-opacity:1"
     id="path345" />
  <path
     d="m 43.823687,45.072262 -0.0429,0.008 -0.0274,0.0196 -0.0191,0.0274 -0.008,0.0388 v 1.1896 l 0.008,0.0372 0.0191,0.0295 0.0274,0.0176 0.0372,0.008 h 0.26562 l 0.0393,-0.008 0.0269,-0.0176 0.0196,-0.0295 0.006,-0.0372 v -1.1896 l -0.006,-0.0388 -0.0196,-0.0274 -0.0269,-0.0196 -0.0393,-0.008 z"
     style="baseline-shift:baseline;display:inline;overflow:visible;fill:none;fill-rule:evenodd;stroke:#000000;stroke-width:0.1;stroke-dasharray:none;stroke-opacity:1;enable-background:accumulate;stop-color:#000000;stop-opacity:1"
     id="path344" />
  <path
     d="m 43.808177,44.972522 -0.0661,0.0134 -0.0605,0.0413 -0.0413,0.0605 -0.0134,0.0682 v 1.20922 l 0.0134,0.0661 0.0413,0.0625 0.0605,0.0413 0.0661,0.0114 h 0.28526 l 0.0682,-0.0114 0.061,-0.0413 0.0408,-0.0625 0.0134,-0.0661 v -1.20922 l -0.0134,-0.0682 -0.0408,-0.0605 -0.061,-0.0413 -0.0682,-0.0134 z m 0.0155,0.0997 h 0.25993 l 0.0393,0.008 0.0269,0.0196 0.0196,0.0274 0.006,0.0388 v 1.1896 l -0.006,0.0372 -0.0196,0.0295 -0.0269,0.0176 -0.0393,0.008 h -0.26562 l -0.0372,-0.008 -0.0274,-0.0176 -0.0191,-0.0295 -0.008,-0.0372 v -1.1896 l 0.008,-0.0388 0.0191,-0.0274 0.0274,-0.0196 z"
     style="baseline-shift:baseline;display:inline;overflow:visible;fill:none;fill-rule:evenodd;stroke:#000000;stroke-width:0.1;stroke-dasharray:none;stroke-opacity:1;enable-background:accumulate;stop-color:#000000;stop-opacity:1"
     id="path343" />
  <path
     d="m 43.023217,45.072262 -0.0429,0.008 -0.0274,0.0196 -0.0196,0.0274 -0.006,0.0388 v 1.1896 l 0.006,0.0372 0.0196,0.0295 0.0274,0.0176 0.0388,0.008 h 0.26561 l 0.0372,-0.008 0.0274,-0.0176 0.0196,-0.0295 0.008,-0.0372 v -1.1896 l -0.008,-0.0388 -0.0196,-0.0274 -0.0274,-0.0196 -0.0372,-0.008 z"
     style="baseline-shift:baseline;display:inline;overflow:visible;fill:none;fill-rule:evenodd;stroke:#000000;stroke-width:0.1;stroke-dasharray:none;stroke-opacity:1;enable-background:accumulate;stop-color:#000000;stop-opacity:1"
     id="path342" />
  <path
     d="m 43.009267,44.972522 -0.0682,0.0134 -0.0605,0.0413 -0.0413,0.0605 -0.0134,0.0682 v 1.20922 l 0.0134,0.0661 0.0413,0.0625 0.0605,0.0413 0.0682,0.0114 h 0.28525 l 0.0667,-0.0114 0.0605,-0.0413 0.0408,-0.0625 0.014,-0.0661 v -1.20922 l -0.014,-0.0682 -0.0408,-0.0605 -0.0605,-0.0413 -0.0667,-0.0134 z m 0.0139,0.0997 h 0.26148 l 0.0372,0.008 0.0274,0.0196 0.0196,0.0274 0.008,0.0388 v 1.1896 l -0.008,0.0372 -0.0196,0.0295 -0.0274,0.0176 -0.0372,0.008 h -0.26561 l -0.0388,-0.008 -0.0274,-0.0176 -0.0196,-0.0295 -0.006,-0.0372 v -1.1896 l 0.006,-0.0388 0.0196,-0.0274 0.0274,-0.0196 z"
     style="baseline-shift:baseline;display:inline;overflow:visible;fill:none;fill-rule:evenodd;stroke:#000000;stroke-width:0.1;stroke-dasharray:none;stroke-opacity:1;enable-background:accumulate;stop-color:#000000;stop-opacity:1"
     id="path341" />
  <path
     d="m 42.224297,45.072262 -0.0429,0.008 -0.0294,0.0196 -0.0176,0.0274 -0.008,0.0388 v 1.1896 l 0.008,0.0372 0.0176,0.0295 0.0294,0.0176 0.0372,0.008 h 0.26561 l 0.0367,-0.008 0.0295,-0.0176 0.0176,-0.0295 0.008,-0.0372 v -1.1896 l -0.008,-0.0388 -0.0176,-0.0274 -0.0295,-0.0196 -0.0367,-0.008 z"
     style="baseline-shift:baseline;display:inline;overflow:visible;fill:none;fill-rule:evenodd;stroke:#000000;stroke-width:0.1;stroke-dasharray:none;stroke-opacity:1;enable-background:accumulate;stop-color:#000000;stop-opacity:1"
     id="path340" />
  <path
     d="m 42.208797,44.972522 -0.0667,0.0134 -0.0605,0.0413 -0.0408,0.0605 -0.014,0.0682 v 1.20922 l 0.014,0.0661 0.0408,0.0625 0.0605,0.0413 0.0667,0.0114 h 0.28474 l 0.0667,-0.0114 0.0625,-0.0413 0.0408,-0.0625 0.0119,-0.0661 v -1.20922 l -0.0119,-0.0682 -0.0408,-0.0605 -0.0625,-0.0413 -0.0667,-0.0134 z m 0.0155,0.0997 h 0.25993 l 0.0367,0.008 0.0295,0.0196 0.0176,0.0274 0.008,0.0388 v 1.1896 l -0.008,0.0372 -0.0176,0.0295 -0.0295,0.0176 -0.0367,0.008 h -0.26561 l -0.0372,-0.008 -0.0294,-0.0176 -0.0176,-0.0295 -0.008,-0.0372 v -1.1896 l 0.008,-0.0388 0.0176,-0.0274 0.0294,-0.0196 z"
     style="baseline-shift:baseline;display:inline;overflow:visible;fill:none;fill-rule:evenodd;stroke:#000000;stroke-width:0.1;stroke-dasharray:none;stroke-opacity:1;enable-background:accumulate;stop-color:#000000;stop-opacity:1"
     id="path339" />
  <path
     d="m 41.423317,45.072262 -0.0429,0.008 -0.0274,0.0196 -0.0191,0.0274 -0.008,0.0388 v 1.1896 l 0.008,0.0372 0.0191,0.0295 0.0274,0.0176 0.0393,0.008 h 0.26355 l 0.0393,-0.008 0.0274,-0.0176 0.0191,-0.0295 0.008,-0.0372 v -1.1896 l -0.008,-0.0388 -0.0191,-0.0274 -0.0274,-0.0196 -0.0393,-0.008 z"
     style="baseline-shift:baseline;display:inline;overflow:visible;fill:none;fill-rule:evenodd;stroke:#000000;stroke-width:0.1;stroke-dasharray:none;stroke-opacity:1;enable-background:accumulate;stop-color:#000000;stop-opacity:1"
     id="path338" />
  <path
     d="m 41.409877,44.972522 -0.0687,0.0134 -0.0605,0.0413 -0.0408,0.0605 -0.014,0.0682 v 1.20922 l 0.014,0.0661 0.0408,0.0625 0.0605,0.0413 0.0687,0.0114 h 0.28319 l 0.0682,-0.0114 0.0605,-0.0413 0.0413,-0.0625 0.0134,-0.0661 v -1.20922 l -0.0134,-0.0682 -0.0413,-0.0605 -0.0605,-0.0413 -0.0682,-0.0134 z m 0.0134,0.0997 h 0.25993 l 0.0393,0.008 0.0274,0.0196 0.0191,0.0274 0.008,0.0388 v 1.1896 l -0.008,0.0372 -0.0191,0.0295 -0.0274,0.0176 -0.0393,0.008 h -0.26355 l -0.0393,-0.008 -0.0274,-0.0176 -0.0191,-0.0295 -0.008,-0.0372 v -1.1896 l 0.008,-0.0388 0.0191,-0.0274 0.0274,-0.0196 z"
     style="baseline-shift:baseline;display:inline;overflow:visible;fill:none;fill-rule:evenodd;stroke:#000000;stroke-width:0.1;stroke-dasharray:none;stroke-opacity:1;enable-background:accumulate;stop-color:#000000;stop-opacity:1"
     id="path337" />
  <path
     d="m 40.622847,45.072262 -0.0413,0.008 -0.0289,0.0196 -0.0176,0.0274 -0.008,0.0388 v 1.1896 l 0.008,0.0372 0.0176,0.0295 0.0289,0.0176 0.0372,0.008 h 0.26561 l 0.0372,-0.008 0.0295,-0.0176 0.0176,-0.0295 0.008,-0.0372 v -1.1896 l -0.008,-0.0388 -0.0176,-0.0274 -0.0295,-0.0196 -0.0372,-0.008 z"
     style="baseline-shift:baseline;display:inline;overflow:visible;fill:none;fill-rule:evenodd;stroke:#000000;stroke-width:0.1;stroke-dasharray:none;stroke-opacity:1;enable-background:accumulate;stop-color:#000000;stop-opacity:1"
     id="path336" />
  <path
     d="m 40.608897,44.972522 -0.0662,0.0134 -0.0625,0.0413 -0.0413,0.0605 -0.0114,0.0682 v 1.20922 l 0.0114,0.0661 0.0413,0.0625 0.0625,0.0413 0.0662,0.0114 h 0.28525 l 0.0667,-0.0114 0.0605,-0.0413 0.0429,-0.0625 0.0114,-0.0661 v -1.20922 l -0.0114,-0.0682 -0.0429,-0.0605 -0.0605,-0.0413 -0.0667,-0.0134 z m 0.0139,0.0997 h 0.26148 l 0.0372,0.008 0.0295,0.0196 0.0176,0.0274 0.008,0.0388 v 1.1896 l -0.008,0.0372 -0.0176,0.0295 -0.0295,0.0176 -0.0372,0.008 h -0.26561 l -0.0372,-0.008 -0.0289,-0.0176 -0.0176,-0.0295 -0.008,-0.0372 v -1.1896 l 0.008,-0.0388 0.0176,-0.0274 0.0289,-0.0196 z"
     style="baseline-shift:baseline;display:inline;overflow:visible;fill:none;fill-rule:evenodd;stroke:#000000;stroke-width:0.1;stroke-dasharray:none;stroke-opacity:1;enable-background:accumulate;stop-color:#000000;stop-opacity:1"
     id="path335" />
  <path
     d="m 39.823927,45.072262 -0.0429,0.008 -0.0274,0.0196 -0.0196,0.0274 -0.008,0.0388 v 1.1896 l 0.008,0.0372 0.0196,0.0295 0.0274,0.0176 0.0372,0.008 h 0.26561 l 0.0388,-0.008 0.0274,-0.0176 0.0196,-0.0295 0.008,-0.0372 v -1.1896 l -0.008,-0.0388 -0.0196,-0.0274 -0.0274,-0.0196 -0.0388,-0.008 z"
     style="baseline-shift:baseline;display:inline;overflow:visible;fill:none;fill-rule:evenodd;stroke:#000000;stroke-width:0.1;stroke-dasharray:none;stroke-opacity:1;enable-background:accumulate;stop-color:#000000;stop-opacity:1"
     id="path334" />
  <path
     d="m 39.809977,44.972522 -0.0682,0.0134 -0.0605,0.0413 -0.0408,0.0605 -0.0139,0.0682 v 1.20922 l 0.0139,0.0661 0.0408,0.0625 0.0605,0.0413 0.0682,0.0114 h 0.28319 l 0.0687,-0.0114 0.0605,-0.0413 0.0408,-0.0625 0.0139,-0.0661 v -1.20922 l -0.0139,-0.0682 -0.0408,-0.0605 -0.0605,-0.0413 -0.0687,-0.0134 z m 0.014,0.0997 h 0.25993 l 0.0388,0.008 0.0274,0.0196 0.0196,0.0274 0.008,0.0388 v 1.1896 l -0.008,0.0372 -0.0196,0.0295 -0.0274,0.0176 -0.0388,0.008 h -0.26561 l -0.0372,-0.008 -0.0274,-0.0176 -0.0196,-0.0295 -0.008,-0.0372 v -1.1896 l 0.008,-0.0388 0.0196,-0.0274 0.0274,-0.0196 z"
     style="baseline-shift:baseline;display:inline;overflow:visible;fill:none;fill-rule:evenodd;stroke:#000000;stroke-width:0.1;stroke-dasharray:none;stroke-opacity:1;enable-background:accumulate;stop-color:#000000;stop-opacity:1"
     id="path333" />
  <path
     d="m 39.022947,45.072262 -0.0429,0.008 -0.0274,0.0196 -0.0191,0.0274 -0.006,0.0388 v 1.1896 l 0.006,0.0372 0.0191,0.0295 0.0274,0.0176 0.0393,0.008 h 0.26562 l 0.0372,-0.008 0.0269,-0.0176 0.0196,-0.0295 0.008,-0.0372 v -1.1896 l -0.008,-0.0388 -0.0196,-0.0274 -0.0269,-0.0196 -0.0372,-0.008 z"
     style="baseline-shift:baseline;display:inline;overflow:visible;fill:none;fill-rule:evenodd;stroke:#000000;stroke-width:0.1;stroke-dasharray:none;stroke-opacity:1;enable-background:accumulate;stop-color:#000000;stop-opacity:1"
     id="path332" />
  <path
     d="m 39.009507,44.972522 -0.0687,0.0134 -0.0605,0.0413 -0.0408,0.0605 -0.014,0.0682 v 1.20922 l 0.014,0.0661 0.0408,0.0625 0.0605,0.0413 0.0687,0.0114 h 0.28526 l 0.0661,-0.0114 0.0605,-0.0413 0.0413,-0.0625 0.0134,-0.0661 v -1.20922 l -0.0134,-0.0682 -0.0413,-0.0605 -0.0605,-0.0413 -0.0661,-0.0134 z m 0.0134,0.0997 h 0.262 l 0.0372,0.008 0.0269,0.0196 0.0196,0.0274 0.008,0.0388 v 1.1896 l -0.008,0.0372 -0.0196,0.0295 -0.0269,0.0176 -0.0372,0.008 h -0.26562 l -0.0393,-0.008 -0.0274,-0.0176 -0.0191,-0.0295 -0.006,-0.0372 v -1.1896 l 0.006,-0.0388 0.0191,-0.0274 0.0274,-0.0196 z"
     style="baseline-shift:baseline;display:inline;overflow:visible;fill:none;fill-rule:evenodd;stroke:#000000;stroke-width:0.1;stroke-dasharray:none;stroke-opacity:1;enable-background:accumulate;stop-color:#000000;stop-opacity:1"
     id="path331" />
  <path
     d="m 38.224027,45.072262 -0.0429,0.008 -0.0289,0.0196 -0.0181,0.0274 -0.008,0.0388 v 1.1896 l 0.008,0.0372 0.0181,0.0295 0.0289,0.0176 0.0372,0.008 h 0.26561 l 0.0393,-0.008 0.0274,-0.0176 0.0176,-0.0295 0.008,-0.0372 v -1.1896 l -0.008,-0.0388 -0.0176,-0.0274 -0.0274,-0.0196 -0.0393,-0.008 z"
     style="baseline-shift:baseline;display:inline;overflow:visible;fill:none;fill-rule:evenodd;stroke:#000000;stroke-width:0.1;stroke-dasharray:none;stroke-opacity:1;enable-background:accumulate;stop-color:#000000;stop-opacity:1"
     id="path330" />
  <path
     d="m 38.208527,44.972522 -0.0661,0.0134 -0.0625,0.0413 -0.0393,0.0605 -0.0134,0.0667 v 1.21077 l 0.0134,0.0661 0.0393,0.0625 0.0625,0.0413 0.0661,0.0114 h 0.28525 l 0.0682,-0.0114 0.061,-0.0434 0.0408,-0.0605 0.0134,-0.0661 v -1.21077 l -0.0134,-0.0667 -0.0408,-0.0605 -0.061,-0.0413 -0.0682,-0.0134 z m 0.0155,0.0997 h 0.25993 l 0.0393,0.008 0.0274,0.0196 0.0176,0.0274 0.008,0.0388 v 1.1896 l -0.008,0.0372 -0.0176,0.0295 -0.0274,0.0176 -0.0393,0.008 h -0.26561 l -0.0372,-0.008 -0.0289,-0.0176 -0.0181,-0.0295 -0.008,-0.0372 v -1.1896 l 0.008,-0.0388 0.0181,-0.0274 0.0289,-0.0196 z"
     style="baseline-shift:baseline;display:inline;overflow:visible;fill:none;fill-rule:evenodd;stroke:#000000;stroke-width:0.1;stroke-dasharray:none;stroke-opacity:1;enable-background:accumulate;stop-color:#000000;stop-opacity:1"
     id="path329" />
  <path
     d="m 44.724407,44.171542 -0.0429,0.008 -0.0274,0.0191 -0.0196,0.0274 -0.008,0.0393 v 0.26562 l 0.008,0.0372 0.0196,0.0274 0.0274,0.0191 0.0367,0.008 h 1.19166 l 0.0372,-0.008 0.0269,-0.0191 0.0196,-0.0274 0.008,-0.0372 v -0.26562 l -0.008,-0.0393 -0.0196,-0.0274 -0.0269,-0.0191 -0.0372,-0.008 z"
     style="baseline-shift:baseline;display:inline;overflow:visible;fill:none;fill-rule:evenodd;stroke:#000000;stroke-width:0.1;stroke-dasharray:none;stroke-opacity:1;enable-background:accumulate;stop-color:#000000;stop-opacity:1"
     id="path328" />
  <path
     d="m 44.708387,44.072322 -0.0661,0.0134 -0.0605,0.0408 -0.0408,0.0625 -0.014,0.0667 v 0.28526 l 0.014,0.0661 0.0408,0.0605 0.0605,0.0413 0.0661,0.0134 h 1.21129 l 0.0661,-0.0134 0.061,-0.0413 0.0408,-0.0605 0.0134,-0.0661 v -0.28526 l -0.0134,-0.0667 -0.0408,-0.0625 -0.061,-0.0408 -0.0661,-0.0134 z m 0.016,0.0992 h 1.18546 l 0.0372,0.008 0.0269,0.0191 0.0196,0.0274 0.008,0.0393 v 0.26562 l -0.008,0.0372 -0.0196,0.0274 -0.0269,0.0191 -0.0372,0.008 h -1.19166 l -0.0367,-0.008 -0.0274,-0.0191 -0.0196,-0.0274 -0.008,-0.0372 v -0.26562 l 0.008,-0.0393 0.0196,-0.0274 0.0274,-0.0191 z"
     style="baseline-shift:baseline;display:inline;overflow:visible;fill:none;fill-rule:evenodd;stroke:#000000;stroke-width:0.1;stroke-dasharray:none;stroke-opacity:1;enable-background:accumulate;stop-color:#000000;stop-opacity:1"
     id="path327" />
  <path
     d="m 36.398297,44.171542 -0.0434,0.008 -0.0269,0.0191 -0.0196,0.0274 -0.006,0.0393 v 0.26562 l 0.006,0.0372 0.0196,0.0274 0.0269,0.0191 0.0393,0.008 h 1.18959 l 0.0388,-0.008 0.0274,-0.0191 0.0196,-0.0274 0.006,-0.0372 v -0.26562 l -0.006,-0.0393 -0.0196,-0.0274 -0.0274,-0.0191 -0.0388,-0.008 z"
     style="baseline-shift:baseline;display:inline;overflow:visible;fill:none;fill-rule:evenodd;stroke:#000000;stroke-width:0.1;stroke-dasharray:none;stroke-opacity:1;enable-background:accumulate;stop-color:#000000;stop-opacity:1"
     id="path326" />
  <path
     d="m 36.384347,44.072322 -0.0682,0.0134 -0.061,0.0408 -0.0408,0.0625 -0.0134,0.0667 v 0.28526 l 0.0134,0.0661 0.0408,0.0605 0.061,0.0413 0.0682,0.0134 h 1.20923 l 0.0682,-0.0134 0.0605,-0.0413 0.0413,-0.0605 0.0134,-0.0661 v -0.28526 l -0.0134,-0.0667 -0.0413,-0.0625 -0.0605,-0.0408 -0.0682,-0.0134 z m 0.014,0.0992 h 1.18546 l 0.0388,0.008 0.0274,0.0191 0.0196,0.0274 0.006,0.0393 v 0.26562 l -0.006,0.0372 -0.0196,0.0274 -0.0274,0.0191 -0.0388,0.008 h -1.18959 l -0.0393,-0.008 -0.0269,-0.0191 -0.0196,-0.0274 -0.006,-0.0372 v -0.26562 l 0.006,-0.0393 0.0196,-0.0274 0.0269,-0.0191 z"
     style="baseline-shift:baseline;display:inline;overflow:visible;fill:none;fill-rule:evenodd;stroke:#000000;stroke-width:0.1;stroke-dasharray:none;stroke-opacity:1;enable-background:accumulate;stop-color:#000000;stop-opacity:1"
     id="path325" />
  <path
     d="m 44.714587,43.372622 -0.0331,0.008 -0.0274,0.0176 -0.0196,0.0295 -0.008,0.0367 v 0.26561 l 0.008,0.0372 0.0196,0.0295 0.0274,0.0176 0.0372,0.008 h 1.19115 l 0.0372,-0.008 0.0274,-0.0176 0.0196,-0.0295 0.008,-0.0372 v -0.26561 l -0.008,-0.0367 -0.0196,-0.0295 -0.0274,-0.0176 -0.0372,-0.008 h -1.19321 z"
     style="baseline-shift:baseline;display:inline;overflow:visible;fill:none;fill-rule:evenodd;stroke:#000000;stroke-width:0.1;stroke-dasharray:none;stroke-opacity:1;enable-background:accumulate;stop-color:#000000;stop-opacity:1"
     id="path324" />
  <path
     d="m 44.708387,43.273402 -0.0661,0.0114 -0.0605,0.0413 -0.0408,0.0625 -0.014,0.0662 v 0.28525 l 0.014,0.0662 0.0408,0.0625 0.0605,0.0413 0.0661,0.0114 h 1.21129 l 0.0661,-0.0114 0.061,-0.0413 0.0408,-0.0625 0.0134,-0.0662 v -0.28525 l -0.0134,-0.0662 -0.0408,-0.0625 -0.061,-0.0413 -0.0661,-0.0114 z m 0.006,0.0992 h 0.002 1.19321 l 0.0372,0.008 0.0274,0.0176 0.0196,0.0295 0.008,0.0367 v 0.26561 l -0.008,0.0372 -0.0196,0.0295 -0.0274,0.0176 -0.0372,0.008 h -1.19115 l -0.0372,-0.008 -0.0274,-0.0176 -0.0196,-0.0295 -0.008,-0.0372 v -0.26561 l 0.008,-0.0367 0.0196,-0.0295 0.0274,-0.0176 z"
     style="baseline-shift:baseline;display:inline;overflow:visible;fill:none;fill-rule:evenodd;stroke:#000000;stroke-width:0.1;stroke-dasharray:none;stroke-opacity:1;enable-background:accumulate;stop-color:#000000;stop-opacity:1"
     id="path323" />
  <path
     d="m 36.388477,43.372622 -0.0331,0.008 -0.0274,0.0176 -0.0196,0.0295 -0.006,0.0367 v 0.26561 l 0.006,0.0372 0.0196,0.0295 0.0274,0.0176 0.0388,0.008 h 1.18959 l 0.0393,-0.008 0.0269,-0.0176 0.0196,-0.0295 0.006,-0.0372 v -0.26561 l -0.006,-0.0367 -0.0196,-0.0295 -0.0269,-0.0176 -0.0393,-0.008 h -1.19321 z"
     style="baseline-shift:baseline;display:inline;overflow:visible;fill:none;fill-rule:evenodd;stroke:#000000;stroke-width:0.1;stroke-dasharray:none;stroke-opacity:1;enable-background:accumulate;stop-color:#000000;stop-opacity:1"
     id="path322" />
  <path
     d="m 36.384347,43.273402 -0.0682,0.0114 -0.061,0.0413 -0.0408,0.0625 -0.0134,0.0662 v 0.28525 l 0.0134,0.0662 0.0408,0.0625 0.061,0.0413 0.0682,0.0114 h 1.20923 l 0.0682,-0.0114 0.0605,-0.0413 0.0413,-0.0625 0.0134,-0.0662 v -0.28525 l -0.0134,-0.0662 -0.0413,-0.0625 -0.0605,-0.0413 -0.0682,-0.0114 z m 0.004,0.0992 h 0.002 1.19321 l 0.0393,0.008 0.0269,0.0176 0.0196,0.0295 0.006,0.0367 v 0.26561 l -0.006,0.0372 -0.0196,0.0295 -0.0269,0.0176 -0.0393,0.008 h -1.18959 l -0.0388,-0.008 -0.0274,-0.0176 -0.0196,-0.0295 -0.006,-0.0372 v -0.26561 l 0.006,-0.0367 0.0196,-0.0295 0.0274,-0.0176 z"
     style="baseline-shift:baseline;display:inline;overflow:visible;fill:none;fill-rule:evenodd;stroke:#000000;stroke-width:0.1;stroke-dasharray:none;stroke-opacity:1;enable-background:accumulate;stop-color:#000000;stop-opacity:1"
     id="path321" />
  <path
     d=""
     style="baseline-shift:baseline;display:inline;overflow:visible;fill-rule:evenodd;enable-background:accumulate;stop-color:#000000;stop-opacity:1;stroke:#000000;stroke-opacity:1;stroke-width:0.1;stroke-dasharray:none"
     id="path320" />
  <path
     d=""
     style="baseline-shift:baseline;display:inline;overflow:visible;fill-rule:evenodd;enable-background:accumulate;stop-color:#000000;stop-opacity:1;stroke:#000000;stroke-opacity:1;stroke-width:0.1;stroke-dasharray:none"
     id="path319" />
  <path
     d="m 49.315857,43.021222 -0.0858,0.0155 -0.0646,0.045 -0.0429,0.0646 -0.0176,0.0801 v 0.89038 l 0.0176,0.0801 0.0429,0.0667 0.0646,0.0429 0.0801,0.0155 h 0.51574 l 0.0816,-0.0155 0.0646,-0.0429 0.0429,-0.0646 0.016,-0.0822 v -0.89038 l -0.016,-0.0801 -0.0429,-0.0646 -0.0646,-0.045 -0.0816,-0.0155 z"
     style="baseline-shift:baseline;display:inline;overflow:visible;fill:none;fill-rule:evenodd;stroke:#000000;stroke-width:0.1;stroke-dasharray:none;stroke-opacity:1;enable-background:accumulate;stop-color:#000000;stop-opacity:1"
     id="path318" />
  <path
     d="m 49.300357,42.921492 -0.10956,0.0217 -0.0977,0.0661 -0.0661,0.0982 -0.0217,0.10904 v 0.91002 l 0.0217,0.10955 0.0661,0.0977 0.0977,0.0667 0.10956,0.0212 h 0.53536 l 0.11111,-0.0212 0.0977,-0.0667 0.0646,-0.0977 0.0217,-0.10955 v -0.91002 l -0.0217,-0.10904 -0.0646,-0.0982 -0.0977,-0.0661 -0.11111,-0.0217 z m 0.0155,0.0997 h 0.51005 l 0.0816,0.0155 0.0646,0.045 0.0429,0.0646 0.016,0.0801 v 0.89038 l -0.016,0.0822 -0.0429,0.0646 -0.0646,0.0429 -0.0816,0.0155 h -0.51574 l -0.0801,-0.0155 -0.0646,-0.0429 -0.0429,-0.0667 -0.0176,-0.0801 v -0.89038 l 0.0176,-0.0801 0.0429,-0.0646 0.0646,-0.045 z"
     style="baseline-shift:baseline;display:inline;overflow:visible;fill:none;fill-rule:evenodd;stroke:#000000;stroke-width:0.1;stroke-dasharray:none;stroke-opacity:1;enable-background:accumulate;stop-color:#000000;stop-opacity:1"
     id="path317" />
  <path
     d=""
     style="baseline-shift:baseline;display:inline;overflow:visible;fill-rule:evenodd;enable-background:accumulate;stop-color:#000000;stop-opacity:1;stroke:#000000;stroke-opacity:1;stroke-width:0.1;stroke-dasharray:none"
     id="path316" />
  <path
     d=""
     style="baseline-shift:baseline;display:inline;overflow:visible;fill-rule:evenodd;enable-background:accumulate;stop-color:#000000;stop-opacity:1;stroke:#000000;stroke-opacity:1;stroke-width:0.1;stroke-dasharray:none"
     id="path315" />
  <path
     d="m 47.490127,43.021222 -0.0863,0.0155 -0.0641,0.045 -0.0434,0.0646 -0.0155,0.0801 v 0.89038 l 0.0155,0.0801 0.0434,0.0667 0.0641,0.0429 0.0822,0.0155 h 0.51573 l 0.0801,-0.0155 0.0641,-0.0429 0.0434,-0.0667 0.0176,-0.0801 v -0.89038 l -0.0176,-0.0801 -0.0434,-0.0646 -0.0641,-0.045 -0.0801,-0.0155 z"
     style="baseline-shift:baseline;display:inline;overflow:visible;fill:none;fill-rule:evenodd;stroke:#000000;stroke-width:0.1;stroke-dasharray:none;stroke-opacity:1;enable-background:accumulate;stop-color:#000000;stop-opacity:1"
     id="path314" />
  <path
     d="m 47.476177,42.921492 -0.11111,0.0217 -0.0977,0.0661 -0.0646,0.0982 -0.0217,0.10904 v 0.91002 l 0.0217,0.10955 0.0646,0.0977 0.0977,0.0667 0.11111,0.0212 h 0.53537 l 0.10903,-0.0212 0.0977,-0.0667 0.0667,-0.0977 0.0212,-0.10955 v -0.91002 l -0.0212,-0.10904 -0.0667,-0.0982 -0.0977,-0.0661 -0.10903,-0.0217 z m 0.0139,0.0997 h 0.5116 l 0.0801,0.0155 0.0641,0.045 0.0434,0.0646 0.0176,0.0801 v 0.89038 l -0.0176,0.0801 -0.0434,0.0667 -0.0641,0.0429 -0.0801,0.0155 h -0.51573 l -0.0822,-0.0155 -0.0641,-0.0429 -0.0434,-0.0667 -0.0155,-0.0801 v -0.89038 l 0.0155,-0.0801 0.0434,-0.0646 0.0641,-0.045 z"
     style="baseline-shift:baseline;display:inline;overflow:visible;fill:none;fill-rule:evenodd;stroke:#000000;stroke-width:0.1;stroke-dasharray:none;stroke-opacity:1;enable-background:accumulate;stop-color:#000000;stop-opacity:1"
     id="path313" />
  <path
     d="m 44.724407,42.572152 -0.0429,0.008 -0.0274,0.0196 -0.0196,0.0274 -0.008,0.0372 v 0.26561 l 0.008,0.0388 0.0196,0.0274 0.0274,0.0196 0.0367,0.006 h 1.19166 l 0.0372,-0.006 0.0269,-0.0196 0.0196,-0.0274 0.008,-0.0388 v -0.26561 l -0.008,-0.0372 -0.0196,-0.0274 -0.0269,-0.0196 -0.0372,-0.008 z"
     style="baseline-shift:baseline;display:inline;overflow:visible;fill:none;fill-rule:evenodd;stroke:#000000;stroke-width:0.1;stroke-dasharray:none;stroke-opacity:1;enable-background:accumulate;stop-color:#000000;stop-opacity:1"
     id="path312" />
  <path
     d="m 44.708387,42.472422 -0.0661,0.0139 -0.0605,0.0408 -0.0408,0.0605 -0.014,0.0687 v 0.28318 l 0.014,0.0682 0.0408,0.0605 0.0605,0.0408 0.0661,0.0139 h 1.21129 l 0.0661,-0.0139 0.061,-0.0408 0.0408,-0.0605 0.0134,-0.0682 v -0.28318 l -0.0134,-0.0687 -0.0408,-0.0605 -0.061,-0.0408 -0.0661,-0.0139 z m 0.016,0.0997 h 1.18546 l 0.0372,0.008 0.0269,0.0196 0.0196,0.0274 0.008,0.0372 v 0.26561 l -0.008,0.0388 -0.0196,0.0274 -0.0269,0.0196 -0.0372,0.006 h -1.19166 l -0.0367,-0.006 -0.0274,-0.0196 -0.0196,-0.0274 -0.008,-0.0388 v -0.26561 l 0.008,-0.0372 0.0196,-0.0274 0.0274,-0.0196 z"
     style="baseline-shift:baseline;display:inline;overflow:visible;fill:none;fill-rule:evenodd;stroke:#000000;stroke-width:0.1;stroke-dasharray:none;stroke-opacity:1;enable-background:accumulate;stop-color:#000000;stop-opacity:1"
     id="path311" />
  <path
     d="m 36.398297,42.572152 -0.0434,0.008 -0.0269,0.0196 -0.0196,0.0274 -0.006,0.0372 v 0.26561 l 0.006,0.0388 0.0196,0.0274 0.0269,0.0196 0.0393,0.006 h 1.18959 l 0.0388,-0.006 0.0274,-0.0196 0.0196,-0.0274 0.006,-0.0388 v -0.26561 l -0.006,-0.0372 -0.0196,-0.0274 -0.0274,-0.0196 -0.0388,-0.008 z"
     style="baseline-shift:baseline;display:inline;overflow:visible;fill:none;fill-rule:evenodd;stroke:#000000;stroke-width:0.1;stroke-dasharray:none;stroke-opacity:1;enable-background:accumulate;stop-color:#000000;stop-opacity:1"
     id="path310" />
  <path
     d="m 36.384347,42.472422 -0.0682,0.0139 -0.061,0.0408 -0.0408,0.0605 -0.0134,0.0687 v 0.28318 l 0.0134,0.0682 0.0408,0.0605 0.061,0.0408 0.0682,0.0139 h 1.20923 l 0.0682,-0.0139 0.0605,-0.0408 0.0413,-0.0605 0.0134,-0.0682 v -0.28318 l -0.0134,-0.0687 -0.0413,-0.0605 -0.0605,-0.0408 -0.0682,-0.0139 z m 0.014,0.0997 h 1.18546 l 0.0388,0.008 0.0274,0.0196 0.0196,0.0274 0.006,0.0372 v 0.26561 l -0.006,0.0388 -0.0196,0.0274 -0.0274,0.0196 -0.0388,0.006 h -1.18959 l -0.0393,-0.006 -0.0269,-0.0196 -0.0196,-0.0274 -0.006,-0.0388 v -0.26561 l 0.006,-0.0372 0.0196,-0.0274 0.0269,-0.0196 z"
     style="baseline-shift:baseline;display:inline;overflow:visible;fill:none;fill-rule:evenodd;stroke:#000000;stroke-width:0.1;stroke-dasharray:none;stroke-opacity:1;enable-background:accumulate;stop-color:#000000;stop-opacity:1"
     id="path309" />
  <path
     d="m 44.714587,41.773242 -0.0331,0.006 -0.0274,0.0191 -0.0196,0.0274 -0.008,0.0393 v 0.26562 l 0.008,0.0372 0.0196,0.0274 0.0274,0.0191 0.0372,0.008 h 1.19115 l 0.0372,-0.008 0.0274,-0.0191 0.0196,-0.0274 0.008,-0.0372 v -0.26562 l -0.008,-0.0393 -0.0196,-0.0274 -0.0274,-0.0191 -0.0372,-0.006 z"
     style="baseline-shift:baseline;display:inline;overflow:visible;fill:none;fill-rule:evenodd;stroke:#000000;stroke-width:0.1;stroke-dasharray:none;stroke-opacity:1;enable-background:accumulate;stop-color:#000000;stop-opacity:1"
     id="path308" />
  <path
     d="m 44.708387,41.671432 -0.0661,0.014 -0.0605,0.0408 -0.0408,0.0605 -0.014,0.0687 v 0.28526 l 0.014,0.0661 0.0408,0.0605 0.0605,0.0413 0.0661,0.0134 h 1.21129 l 0.0661,-0.0134 0.061,-0.0413 0.0408,-0.0605 0.0134,-0.0661 v -0.28526 l -0.0134,-0.0687 -0.0408,-0.0605 -0.061,-0.0408 -0.0661,-0.014 z m 0.006,0.10181 h 1.19528 l 0.0372,0.006 0.0274,0.0191 0.0196,0.0274 0.008,0.0393 v 0.26562 l -0.008,0.0372 -0.0196,0.0274 -0.0274,0.0191 -0.0372,0.008 h -1.19115 l -0.0372,-0.008 -0.0274,-0.0191 -0.0196,-0.0274 -0.008,-0.0372 v -0.26562 l 0.008,-0.0393 0.0196,-0.0274 0.0274,-0.0191 z"
     style="baseline-shift:baseline;display:inline;overflow:visible;fill:none;fill-rule:evenodd;stroke:#000000;stroke-width:0.1;stroke-dasharray:none;stroke-opacity:1;enable-background:accumulate;stop-color:#000000;stop-opacity:1"
     id="path307" />
  <path
     d="m 36.388477,41.773242 -0.0331,0.006 -0.0274,0.0191 -0.0196,0.0274 -0.006,0.0393 v 0.26562 l 0.006,0.0372 0.0196,0.0274 0.0274,0.0191 0.0388,0.008 h 1.18959 l 0.0393,-0.008 0.0269,-0.0191 0.0196,-0.0274 0.006,-0.0372 v -0.26562 l -0.006,-0.0393 -0.0196,-0.0274 -0.0269,-0.0191 -0.0393,-0.006 z"
     style="baseline-shift:baseline;display:inline;overflow:visible;fill:none;fill-rule:evenodd;stroke:#000000;stroke-width:0.1;stroke-dasharray:none;stroke-opacity:1;enable-background:accumulate;stop-color:#000000;stop-opacity:1"
     id="path306" />
  <path
     d="m 36.384347,41.671432 -0.0682,0.014 -0.061,0.0408 -0.0408,0.0605 -0.0134,0.0687 v 0.28526 l 0.0134,0.0661 0.0408,0.0605 0.061,0.0413 0.0682,0.0134 h 1.20923 l 0.0682,-0.0134 0.0605,-0.0413 0.0413,-0.0605 0.0134,-0.0661 v -0.28526 l -0.0134,-0.0687 -0.0413,-0.0605 -0.0605,-0.0408 -0.0682,-0.014 z m 0.004,0.10181 h 1.19528 l 0.0393,0.006 0.0269,0.0191 0.0196,0.0274 0.006,0.0393 v 0.26562 l -0.006,0.0372 -0.0196,0.0274 -0.0269,0.0191 -0.0393,0.008 h -1.18959 l -0.0388,-0.008 -0.0274,-0.0191 -0.0196,-0.0274 -0.006,-0.0372 v -0.26562 l 0.006,-0.0393 0.0196,-0.0274 0.0274,-0.0191 z"
     style="baseline-shift:baseline;display:inline;overflow:visible;fill:none;fill-rule:evenodd;stroke:#000000;stroke-width:0.1;stroke-dasharray:none;stroke-opacity:1;enable-background:accumulate;stop-color:#000000;stop-opacity:1"
     id="path305" />
  <path
     d="m 49.331877,40.998092 -0.0765,0.0155 -0.0641,0.0429 -0.045,0.0646 -0.0155,0.0801 v 0.94103 l 0.0155,0.0801 0.045,0.0646 0.0641,0.0429 0.0801,0.0155 h 0.49041 l 0.0822,-0.0155 0.0646,-0.0429 0.0429,-0.0646 0.0155,-0.0801 v -0.94103 l -0.0155,-0.0801 -0.0429,-0.0646 -0.0646,-0.0429 -0.0822,-0.0155 z"
     style="baseline-shift:baseline;display:inline;overflow:visible;fill:none;fill-rule:evenodd;stroke:#000000;stroke-width:0.1;stroke-dasharray:none;stroke-opacity:1;enable-background:accumulate;stop-color:#000000;stop-opacity:1"
     id="path304" />
  <path
     d="m 49.325677,40.896292 -0.10904,0.0217 -0.0977,0.0661 -0.0667,0.0977 -0.0217,0.10955 v 0.96066 l 0.0217,0.10956 0.0667,0.0977 0.0977,0.0667 0.10904,0.0212 h 0.51004 l 0.11111,-0.0212 0.0977,-0.0667 0.0646,-0.0977 0.0217,-0.10956 v -0.96066 l -0.0217,-0.10955 -0.0646,-0.0977 -0.0977,-0.0661 -0.11111,-0.0217 z m 0.006,0.1018 h 0.49403 l 0.0822,0.0155 0.0646,0.0429 0.0429,0.0646 0.0155,0.0801 v 0.94103 l -0.0155,0.0801 -0.0429,0.0646 -0.0646,0.0429 -0.0822,0.0155 h -0.49041 l -0.0801,-0.0155 -0.0641,-0.0429 -0.045,-0.0646 -0.0155,-0.0801 v -0.94103 l 0.0155,-0.0801 0.045,-0.0646 0.0641,-0.0429 z"
     style="baseline-shift:baseline;display:inline;overflow:visible;fill:none;fill-rule:evenodd;stroke:#000000;stroke-width:0.1;stroke-dasharray:none;stroke-opacity:1;enable-background:accumulate;stop-color:#000000;stop-opacity:1"
     id="path303" />
  <path
     d="m 47.431217,40.998092 -0.076,0.0155 -0.0646,0.0429 -0.0429,0.0646 -0.0155,0.0801 v 0.94103 l 0.0155,0.0801 0.0429,0.0646 0.0646,0.0429 0.0801,0.0155 h 0.49041 l 0.0816,-0.0155 0.0646,-0.0429 0.0429,-0.0646 0.0155,-0.0801 v -0.94103 l -0.0155,-0.0801 -0.0429,-0.0646 -0.0646,-0.0429 -0.0816,-0.0155 z"
     style="baseline-shift:baseline;display:inline;overflow:visible;fill:none;fill-rule:evenodd;stroke:#000000;stroke-width:0.1;stroke-dasharray:none;stroke-opacity:1;enable-background:accumulate;stop-color:#000000;stop-opacity:1"
     id="path302" />
  <path
     d="m 47.425537,40.896292 -0.10956,0.0217 -0.0977,0.0661 -0.0661,0.0977 -0.0217,0.10955 v 0.96066 l 0.0217,0.10956 0.0661,0.0977 0.0977,0.0667 0.10956,0.0212 h 0.50952 l 0.11163,-0.0212 0.0977,-0.0667 0.0641,-0.0977 0.0217,-0.10956 v -0.96066 l -0.0217,-0.10955 -0.0641,-0.0977 -0.0977,-0.0661 -0.11163,-0.0217 z m 0.006,0.1018 h 0.49454 l 0.0816,0.0155 0.0646,0.0429 0.0429,0.0646 0.0155,0.0801 v 0.94103 l -0.0155,0.0801 -0.0429,0.0646 -0.0646,0.0429 -0.0816,0.0155 h -0.49041 l -0.0801,-0.0155 -0.0646,-0.0429 -0.0429,-0.0646 -0.0155,-0.0801 v -0.94103 l 0.0155,-0.0801 0.0429,-0.0646 0.0646,-0.0429 z"
     style="baseline-shift:baseline;display:inline;overflow:visible;fill:none;fill-rule:evenodd;stroke:#000000;stroke-width:0.1;stroke-dasharray:none;stroke-opacity:1;enable-background:accumulate;stop-color:#000000;stop-opacity:1"
     id="path301" />
  <path
     d="m 44.724407,40.972252 -0.0429,0.008 -0.0274,0.0196 -0.0196,0.0269 -0.008,0.0372 v 0.26561 l 0.008,0.0393 0.0196,0.0274 0.0274,0.0191 0.0367,0.006 h 1.19166 l 0.0372,-0.006 0.0269,-0.0191 0.0196,-0.0274 0.008,-0.0393 v -0.26561 l -0.008,-0.0372 -0.0196,-0.0269 -0.0269,-0.0196 -0.0372,-0.008 z"
     style="baseline-shift:baseline;display:inline;overflow:visible;fill:none;fill-rule:evenodd;stroke:#000000;stroke-width:0.1;stroke-dasharray:none;stroke-opacity:1;enable-background:accumulate;stop-color:#000000;stop-opacity:1"
     id="path300" />
  <path
     d="m 44.708387,40.873032 -0.0661,0.0134 -0.0605,0.0413 -0.0408,0.0605 -0.014,0.0661 v 0.28525 l 0.014,0.0682 0.0408,0.061 0.0605,0.0408 0.0661,0.014 h 1.21129 l 0.0661,-0.014 0.061,-0.0408 0.0408,-0.061 0.0134,-0.0682 v -0.28525 l -0.0134,-0.0661 -0.0408,-0.0605 -0.061,-0.0413 -0.0661,-0.0134 z m 0.016,0.0992 h 1.18546 l 0.0372,0.008 0.0269,0.0196 0.0196,0.0269 0.008,0.0372 v 0.26561 l -0.008,0.0393 -0.0196,0.0274 -0.0269,0.0191 -0.0372,0.006 h -1.19166 l -0.0367,-0.006 -0.0274,-0.0191 -0.0196,-0.0274 -0.008,-0.0393 v -0.26561 l 0.008,-0.0372 0.0196,-0.0269 0.0274,-0.0196 z"
     style="baseline-shift:baseline;display:inline;overflow:visible;fill:none;fill-rule:evenodd;stroke:#000000;stroke-width:0.1;stroke-dasharray:none;stroke-opacity:1;enable-background:accumulate;stop-color:#000000;stop-opacity:1"
     id="path299" />
  <path
     d="m 36.398297,40.972252 -0.0434,0.008 -0.0269,0.0196 -0.0196,0.0269 -0.006,0.0372 v 0.26561 l 0.006,0.0393 0.0196,0.0274 0.0269,0.0191 0.0393,0.006 h 1.18959 l 0.0388,-0.006 0.0274,-0.0191 0.0196,-0.0274 0.006,-0.0393 v -0.26561 l -0.006,-0.0372 -0.0196,-0.0269 -0.0274,-0.0196 -0.0388,-0.008 z"
     style="baseline-shift:baseline;display:inline;overflow:visible;fill:none;fill-rule:evenodd;stroke:#000000;stroke-width:0.1;stroke-dasharray:none;stroke-opacity:1;enable-background:accumulate;stop-color:#000000;stop-opacity:1"
     id="path298" />
  <path
     d="m 36.384347,40.873032 -0.0682,0.0134 -0.061,0.0413 -0.0408,0.0605 -0.0134,0.0661 v 0.28525 l 0.0134,0.0682 0.0408,0.061 0.061,0.0408 0.0682,0.014 h 1.20923 l 0.0682,-0.014 0.0605,-0.0408 0.0413,-0.061 0.0134,-0.0682 v -0.28525 l -0.0134,-0.0661 -0.0413,-0.0605 -0.0605,-0.0413 -0.0682,-0.0134 z m 0.014,0.0992 h 1.18546 l 0.0388,0.008 0.0274,0.0196 0.0196,0.0269 0.006,0.0372 v 0.26561 l -0.006,0.0393 -0.0196,0.0274 -0.0274,0.0191 -0.0388,0.006 h -1.18959 l -0.0393,-0.006 -0.0269,-0.0191 -0.0196,-0.0274 -0.006,-0.0393 v -0.26561 l 0.006,-0.0372 0.0196,-0.0269 0.0269,-0.0196 z"
     style="baseline-shift:baseline;display:inline;overflow:visible;fill:none;fill-rule:evenodd;stroke:#000000;stroke-width:0.1;stroke-dasharray:none;stroke-opacity:1;enable-background:accumulate;stop-color:#000000;stop-opacity:1"
     id="path297" />
  <path
     d="m 44.714587,40.173852 -0.0331,0.006 -0.0274,0.0196 -0.0196,0.0274 -0.008,0.0388 v 0.26561 l 0.008,0.0372 0.0196,0.0274 0.0274,0.0196 0.0372,0.008 h 1.19115 l 0.0372,-0.008 0.0274,-0.0196 0.0196,-0.0274 0.008,-0.0372 v -0.26561 l -0.008,-0.0388 -0.0196,-0.0274 -0.0274,-0.0196 -0.0372,-0.006 z"
     style="baseline-shift:baseline;display:inline;overflow:visible;fill:none;fill-rule:evenodd;stroke:#000000;stroke-width:0.1;stroke-dasharray:none;stroke-opacity:1;enable-background:accumulate;stop-color:#000000;stop-opacity:1"
     id="path296" />
  <path
     d="m 44.708387,40.072052 -0.0661,0.0139 -0.0605,0.0408 -0.0408,0.0605 -0.014,0.0682 v 0.28319 l 0.014,0.0687 0.0408,0.0605 0.0605,0.0408 0.0661,0.014 h 1.21129 l 0.0661,-0.014 0.061,-0.0408 0.0408,-0.0605 0.0134,-0.0687 v -0.28319 l -0.0134,-0.0682 -0.0408,-0.0605 -0.061,-0.0408 -0.0661,-0.0139 z m 0.006,0.1018 h 1.19528 l 0.0372,0.006 0.0274,0.0196 0.0196,0.0274 0.008,0.0388 v 0.26561 l -0.008,0.0372 -0.0196,0.0274 -0.0274,0.0196 -0.0372,0.008 h -1.19115 l -0.0372,-0.008 -0.0274,-0.0196 -0.0196,-0.0274 -0.008,-0.0372 v -0.26561 l 0.008,-0.0388 0.0196,-0.0274 0.0274,-0.0196 z"
     style="baseline-shift:baseline;display:inline;overflow:visible;fill:none;fill-rule:evenodd;stroke:#000000;stroke-width:0.1;stroke-dasharray:none;stroke-opacity:1;enable-background:accumulate;stop-color:#000000;stop-opacity:1"
     id="path295" />
  <path
     d="m 36.388477,40.173852 -0.0331,0.006 -0.0274,0.0196 -0.0196,0.0274 -0.006,0.0388 v 0.26561 l 0.006,0.0372 0.0196,0.0274 0.0274,0.0196 0.0388,0.008 h 1.18959 l 0.0393,-0.008 0.0269,-0.0196 0.0196,-0.0274 0.006,-0.0372 v -0.26561 l -0.006,-0.0388 -0.0196,-0.0274 -0.0269,-0.0196 -0.0393,-0.006 z"
     style="baseline-shift:baseline;display:inline;overflow:visible;fill:none;fill-rule:evenodd;stroke:#000000;stroke-width:0.1;stroke-dasharray:none;stroke-opacity:1;enable-background:accumulate;stop-color:#000000;stop-opacity:1"
     id="path294" />
  <path
     d="m 36.384347,40.072052 -0.0682,0.0139 -0.061,0.0408 -0.0408,0.0605 -0.0134,0.0682 v 0.28319 l 0.0134,0.0687 0.0408,0.0605 0.061,0.0408 0.0682,0.014 h 1.20923 l 0.0682,-0.014 0.0605,-0.0408 0.0413,-0.0605 0.0134,-0.0687 v -0.28319 l -0.0134,-0.0682 -0.0413,-0.0605 -0.0605,-0.0408 -0.0682,-0.0139 z m 0.004,0.1018 h 1.19528 l 0.0393,0.006 0.0269,0.0196 0.0196,0.0274 0.006,0.0388 v 0.26561 l -0.006,0.0372 -0.0196,0.0274 -0.0269,0.0196 -0.0393,0.008 h -1.18959 l -0.0388,-0.008 -0.0274,-0.0196 -0.0196,-0.0274 -0.006,-0.0372 v -0.26561 l 0.006,-0.0388 0.0196,-0.0274 0.0274,-0.0196 z"
     style="baseline-shift:baseline;display:inline;overflow:visible;fill:none;fill-rule:evenodd;stroke:#000000;stroke-width:0.1;stroke-dasharray:none;stroke-opacity:1;enable-background:accumulate;stop-color:#000000;stop-opacity:1"
     id="path293" />
  <path
     d="m 44.714587,39.372872 -0.0331,0.008 -0.0274,0.0181 -0.0196,0.0289 -0.008,0.0372 v 0.26562 l 0.008,0.0372 0.0196,0.0289 0.0274,0.0181 0.0372,0.008 h 1.19115 l 0.0372,-0.008 0.0274,-0.0181 0.0196,-0.0289 0.008,-0.0372 v -0.26562 l -0.008,-0.0372 -0.0196,-0.0289 -0.0274,-0.0181 -0.0372,-0.008 h -1.19321 z"
     style="baseline-shift:baseline;display:inline;overflow:visible;fill:none;fill-rule:evenodd;stroke:#000000;stroke-width:0.1;stroke-dasharray:none;stroke-opacity:1;enable-background:accumulate;stop-color:#000000;stop-opacity:1"
     id="path292" />
  <path
     d="m 44.708387,39.273132 -0.0661,0.0119 -0.0605,0.0429 -0.0408,0.0605 -0.014,0.0667 v 0.28526 l 0.014,0.0661 0.0408,0.0625 0.0605,0.0408 0.0661,0.0119 h 1.21129 l 0.0661,-0.0119 0.061,-0.0408 0.0408,-0.0625 0.0134,-0.0661 v -0.28526 l -0.0134,-0.0667 -0.0408,-0.0605 -0.061,-0.0429 -0.0661,-0.0119 z m 0.006,0.0997 h 0.002 1.19321 l 0.0372,0.008 0.0274,0.0181 0.0196,0.0289 0.008,0.0372 v 0.26562 l -0.008,0.0372 -0.0196,0.0289 -0.0274,0.0181 -0.0372,0.008 h -1.19115 l -0.0372,-0.008 -0.0274,-0.0181 -0.0196,-0.0289 -0.008,-0.0372 v -0.26562 l 0.008,-0.0372 0.0196,-0.0289 0.0274,-0.0181 z"
     style="baseline-shift:baseline;display:inline;overflow:visible;fill:none;fill-rule:evenodd;stroke:#000000;stroke-width:0.1;stroke-dasharray:none;stroke-opacity:1;enable-background:accumulate;stop-color:#000000;stop-opacity:1"
     id="path291" />
  <path
     d="m 36.388477,39.372872 -0.0331,0.008 -0.0274,0.0181 -0.0196,0.0289 -0.006,0.0372 v 0.26562 l 0.006,0.0372 0.0196,0.0289 0.0274,0.0181 0.0388,0.008 h 1.18959 l 0.0393,-0.008 0.0269,-0.0181 0.0196,-0.0289 0.006,-0.0372 v -0.26562 l -0.006,-0.0372 -0.0196,-0.0289 -0.0269,-0.0181 -0.0393,-0.008 h -1.19321 z"
     style="baseline-shift:baseline;display:inline;overflow:visible;fill:none;fill-rule:evenodd;stroke:#000000;stroke-width:0.1;stroke-dasharray:none;stroke-opacity:1;enable-background:accumulate;stop-color:#000000;stop-opacity:1"
     id="path290" />
  <path
     d="m 36.384347,39.273132 -0.0682,0.0119 -0.061,0.0429 -0.0408,0.0605 -0.0134,0.0667 v 0.28526 l 0.0134,0.0661 0.0408,0.0625 0.061,0.0408 0.0682,0.0119 h 1.20923 l 0.0682,-0.0119 0.0605,-0.0408 0.0413,-0.0625 0.0134,-0.0661 v -0.28526 l -0.0134,-0.0667 -0.0413,-0.0605 -0.0605,-0.0429 -0.0682,-0.0119 z m 0.004,0.0997 h 0.002 1.19321 l 0.0393,0.008 0.0269,0.0181 0.0196,0.0289 0.006,0.0372 v 0.26562 l -0.006,0.0372 -0.0196,0.0289 -0.0269,0.0181 -0.0393,0.008 h -1.18959 l -0.0388,-0.008 -0.0274,-0.0181 -0.0196,-0.0289 -0.006,-0.0372 v -0.26562 l 0.006,-0.0372 0.0196,-0.0289 0.0274,-0.0181 z"
     style="baseline-shift:baseline;display:inline;overflow:visible;fill:none;fill-rule:evenodd;stroke:#000000;stroke-width:0.1;stroke-dasharray:none;stroke-opacity:1;enable-background:accumulate;stop-color:#000000;stop-opacity:1"
     id="path289" />
  <path
     d="m 44.724407,38.571883 -0.0429,0.0078 -0.0274,0.01964 -0.0196,0.02739 -0.008,0.03927 v 0.26355 l 0.008,0.03927 0.0196,0.02687 0.0274,0.01964 0.0367,0.0078 h 1.19166 l 0.0372,-0.0078 0.0269,-0.01964 0.0196,-0.02687 0.008,-0.03927 v -0.26355 l -0.008,-0.03927 -0.0196,-0.02739 -0.0269,-0.01964 -0.0372,-0.0078 z"
     style="baseline-shift:baseline;display:inline;overflow:visible;fill:none;fill-rule:evenodd;stroke:#000000;stroke-width:0.1;stroke-dasharray:none;stroke-opacity:1;enable-background:accumulate;stop-color:#000000;stop-opacity:1"
     id="path288" />
  <path
     d="m 44.708387,38.472664 -0.0661,0.01344 -0.0605,0.04082 -0.0408,0.06098 -0.014,0.06821 v 0.283187 l 0.014,0.06821 0.0408,0.06046 0.0605,0.0413 0.0661,0.0134 h 1.21129 l 0.0661,-0.0134 0.061,-0.0413 0.0408,-0.06046 0.0134,-0.06821 v -0.283187 l -0.0134,-0.06821 -0.0408,-0.06098 -0.061,-0.04082 -0.0661,-0.01344 z m 0.016,0.09922 h 1.18546 l 0.0372,0.0078 0.0269,0.01964 0.0196,0.02739 0.008,0.03927 v 0.26355 l -0.008,0.03927 -0.0196,0.02687 -0.0269,0.01964 -0.0372,0.0078 h -1.19166 l -0.0367,-0.0078 -0.0274,-0.01964 -0.0196,-0.02687 -0.008,-0.03927 v -0.26355 l 0.008,-0.03927 0.0196,-0.02739 0.0274,-0.01964 z"
     style="baseline-shift:baseline;display:inline;overflow:visible;fill:none;fill-rule:evenodd;stroke:#000000;stroke-width:0.1;stroke-dasharray:none;stroke-opacity:1;enable-background:accumulate;stop-color:#000000;stop-opacity:1"
     id="path287" />
  <path
     d="m 36.398297,38.571883 -0.0434,0.0078 -0.0269,0.01964 -0.0196,0.02739 -0.006,0.03927 v 0.26355 l 0.006,0.03927 0.0196,0.02687 0.0269,0.01964 0.0393,0.0078 h 1.18959 l 0.0388,-0.0078 0.0274,-0.01964 0.0196,-0.02687 0.006,-0.03927 v -0.26355 l -0.006,-0.03927 -0.0196,-0.02739 -0.0274,-0.01964 -0.0388,-0.0078 z"
     style="baseline-shift:baseline;display:inline;overflow:visible;fill:none;fill-rule:evenodd;stroke:#000000;stroke-width:0.1;stroke-dasharray:none;stroke-opacity:1;enable-background:accumulate;stop-color:#000000;stop-opacity:1"
     id="path286" />
  <path
     d="m 36.384347,38.472664 -0.0682,0.01344 -0.061,0.04082 -0.0408,0.06098 -0.0134,0.06821 v 0.283187 l 0.0134,0.06821 0.0408,0.06046 0.061,0.0413 0.0682,0.0134 h 1.20923 l 0.0682,-0.0134 0.0605,-0.0413 0.0413,-0.06046 0.0134,-0.06821 v -0.283187 l -0.0134,-0.06821 -0.0413,-0.06098 -0.0605,-0.04082 -0.0682,-0.01344 z m 0.014,0.09922 h 1.18546 l 0.0388,0.0078 0.0274,0.01964 0.0196,0.02739 0.006,0.03927 v 0.26355 l -0.006,0.03927 -0.0196,0.02687 -0.0274,0.01964 -0.0388,0.0078 h -1.18959 l -0.0393,-0.0078 -0.0269,-0.01964 -0.0196,-0.02687 -0.006,-0.03927 v -0.26355 l 0.006,-0.03927 0.0196,-0.02739 0.0269,-0.01964 z"
     style="baseline-shift:baseline;display:inline;overflow:visible;fill:none;fill-rule:evenodd;stroke:#000000;stroke-width:0.1;stroke-dasharray:none;stroke-opacity:1;enable-background:accumulate;stop-color:#000000;stop-opacity:1"
     id="path285" />
  <path
     d="m 43.814387,36.747705 -0.0331,0.0078 -0.0274,0.01757 -0.0196,0.02945 -0.008,0.03721 v 1.191142 l 0.008,0.03721 0.0196,0.02739 0.0274,0.01964 0.0367,0.0078 h 0.26562 l 0.0393,-0.0078 0.0274,-0.01964 0.0196,-0.02739 0.006,-0.03721 v -1.191142 l -0.006,-0.03721 -0.0196,-0.02945 -0.0274,-0.01757 -0.0393,-0.0078 h -0.26717 z"
     style="baseline-shift:baseline;display:inline;overflow:visible;fill:none;fill-rule:evenodd;stroke:#000000;stroke-width:0.1;stroke-dasharray:none;stroke-opacity:1;enable-background:accumulate;stop-color:#000000;stop-opacity:1"
     id="path284" />
  <path
     d="m 43.808177,36.648486 -0.0661,0.01137 -0.0605,0.04134 -0.0413,0.06253 -0.0134,0.06615 v 1.209228 l 0.0134,0.06821 0.0413,0.06046 0.0605,0.04082 0.0661,0.01395 h 0.28526 l 0.0682,-0.01395 0.061,-0.04082 0.0408,-0.06046 0.0134,-0.06821 v -1.209228 l -0.0134,-0.06615 -0.0408,-0.06253 -0.061,-0.04134 -0.0682,-0.01137 z m 0.006,0.09922 h 0.002 0.26717 l 0.0393,0.0078 0.0274,0.01757 0.0196,0.02945 0.006,0.03721 v 1.191142 l -0.006,0.03721 -0.0196,0.02739 -0.0274,0.01964 -0.0393,0.0078 h -0.26562 l -0.0367,-0.0078 -0.0274,-0.01964 -0.0196,-0.02739 -0.008,-0.03721 v -1.191142 l 0.008,-0.03721 0.0196,-0.02945 0.0274,-0.01757 z"
     style="baseline-shift:baseline;display:inline;overflow:visible;fill:none;fill-rule:evenodd;stroke:#000000;stroke-width:0.1;stroke-dasharray:none;stroke-opacity:1;enable-background:accumulate;stop-color:#000000;stop-opacity:1"
     id="path283" />
  <path
     d="m 43.013397,36.747705 -0.0331,0.0078 -0.0274,0.01757 -0.0196,0.02945 -0.006,0.03721 v 1.191142 l 0.006,0.03721 0.0196,0.02739 0.0274,0.01964 0.0388,0.0078 h 0.26561 l 0.0372,-0.0078 0.0274,-0.01964 0.0196,-0.02739 0.008,-0.03721 v -1.191142 l -0.008,-0.03721 -0.0196,-0.02945 -0.0274,-0.01757 -0.0372,-0.0078 h -0.26923 z"
     style="baseline-shift:baseline;display:inline;overflow:visible;fill:none;fill-rule:evenodd;stroke:#000000;stroke-width:0.1;stroke-dasharray:none;stroke-opacity:1;enable-background:accumulate;stop-color:#000000;stop-opacity:1"
     id="path282" />
  <path
     d="m 43.009267,36.648486 -0.0682,0.01137 -0.0605,0.04134 -0.0413,0.06253 -0.0134,0.06615 v 1.209228 l 0.0134,0.06821 0.0413,0.06046 0.0605,0.04082 0.0682,0.01395 h 0.28525 l 0.0667,-0.01395 0.0605,-0.04082 0.0408,-0.06046 0.014,-0.06821 v -1.209228 l -0.014,-0.06615 -0.0408,-0.06253 -0.0605,-0.04134 -0.0667,-0.01137 z m 0.004,0.09922 h 0.002 0.26923 l 0.0372,0.0078 0.0274,0.01757 0.0196,0.02945 0.008,0.03721 v 1.191142 l -0.008,0.03721 -0.0196,0.02739 -0.0274,0.01964 -0.0372,0.0078 h -0.26561 l -0.0388,-0.0078 -0.0274,-0.01964 -0.0196,-0.02739 -0.006,-0.03721 v -1.191142 l 0.006,-0.03721 0.0196,-0.02945 0.0274,-0.01757 z"
     style="baseline-shift:baseline;display:inline;overflow:visible;fill:none;fill-rule:evenodd;stroke:#000000;stroke-width:0.1;stroke-dasharray:none;stroke-opacity:1;enable-background:accumulate;stop-color:#000000;stop-opacity:1"
     id="path281" />
  <path
     d="m 42.214477,36.747705 -0.0331,0.0078 -0.0294,0.01757 -0.0176,0.02945 -0.008,0.03721 v 1.191142 l 0.008,0.03721 0.0176,0.02739 0.0294,0.01964 0.0372,0.0078 h 0.26561 l 0.0372,-0.0078 0.0289,-0.01964 0.0176,-0.02739 0.008,-0.03721 v -1.191142 l -0.008,-0.03721 -0.0176,-0.02945 -0.0289,-0.01757 -0.0372,-0.0078 h -0.26768 z"
     style="baseline-shift:baseline;display:inline;overflow:visible;fill:none;fill-rule:evenodd;stroke:#000000;stroke-width:0.1;stroke-dasharray:none;stroke-opacity:1;enable-background:accumulate;stop-color:#000000;stop-opacity:1"
     id="path280" />
  <path
     d="m 42.208797,36.648486 -0.0667,0.01137 -0.0605,0.04134 -0.0408,0.06253 -0.014,0.06615 v 1.209228 l 0.014,0.06821 0.0408,0.06046 0.0605,0.04082 0.0667,0.01395 h 0.28474 l 0.0667,-0.01395 0.0625,-0.04082 0.0408,-0.06046 0.0119,-0.06821 v -1.209228 l -0.0119,-0.06615 -0.0408,-0.06253 -0.0625,-0.04134 -0.0667,-0.01137 z m 0.006,0.09922 h 0.002 0.26768 l 0.0372,0.0078 0.0289,0.01757 0.0176,0.02945 0.008,0.03721 v 1.191142 l -0.008,0.03721 -0.0176,0.02739 -0.0289,0.01964 -0.0372,0.0078 h -0.26561 l -0.0372,-0.0078 -0.0294,-0.01964 -0.0176,-0.02739 -0.008,-0.03721 v -1.191142 l 0.008,-0.03721 0.0176,-0.02945 0.0294,-0.01757 z"
     style="baseline-shift:baseline;display:inline;overflow:visible;fill:none;fill-rule:evenodd;stroke:#000000;stroke-width:0.1;stroke-dasharray:none;stroke-opacity:1;enable-background:accumulate;stop-color:#000000;stop-opacity:1"
     id="path279" />
  <path
     d="m 41.414017,36.747705 -0.0336,0.0078 -0.0269,0.01757 -0.0196,0.02945 -0.008,0.03721 v 1.191142 l 0.008,0.03721 0.0196,0.02739 0.0269,0.01964 0.0393,0.0078 h 0.26355 l 0.0393,-0.0078 0.0274,-0.01964 0.0191,-0.02739 0.008,-0.03721 v -1.191142 l -0.008,-0.03721 -0.0191,-0.02945 -0.0274,-0.01757 -0.0393,-0.0078 h -0.26768 z"
     style="baseline-shift:baseline;display:inline;overflow:visible;fill:none;fill-rule:evenodd;stroke:#000000;stroke-width:0.1;stroke-dasharray:none;stroke-opacity:1;enable-background:accumulate;stop-color:#000000;stop-opacity:1"
     id="path278" />
  <path
     d="m 41.409877,36.648486 -0.0687,0.01137 -0.0605,0.04134 -0.0408,0.06253 -0.014,0.06615 v 1.209228 l 0.014,0.06821 0.0408,0.06046 0.0605,0.04082 0.0687,0.01395 h 0.28319 l 0.0682,-0.01395 0.0605,-0.04082 0.0413,-0.06046 0.0134,-0.06821 v -1.209228 l -0.0134,-0.06615 -0.0413,-0.06253 -0.0605,-0.04134 -0.0682,-0.01137 z m 0.004,0.09922 h 0.002 0.26768 l 0.0393,0.0078 0.0274,0.01757 0.0191,0.02945 0.008,0.03721 v 1.191142 l -0.008,0.03721 -0.0191,0.02739 -0.0274,0.01964 -0.0393,0.0078 h -0.26355 l -0.0393,-0.0078 -0.0269,-0.01964 -0.0196,-0.02739 -0.008,-0.03721 v -1.191142 l 0.008,-0.03721 0.0196,-0.02945 0.0269,-0.01757 z"
     style="baseline-shift:baseline;display:inline;overflow:visible;fill:none;fill-rule:evenodd;stroke:#000000;stroke-width:0.1;stroke-dasharray:none;stroke-opacity:1;enable-background:accumulate;stop-color:#000000;stop-opacity:1"
     id="path277" />
  <path
     d="m 40.615097,36.747705 -0.0331,0.0078 -0.0295,0.01757 -0.0176,0.02945 -0.008,0.03721 v 1.191142 l 0.008,0.03721 0.0176,0.02739 0.0295,0.01964 0.0367,0.0078 h 0.26613 l 0.0367,-0.0078 0.0295,-0.01964 0.0176,-0.02739 0.008,-0.03721 v -1.191142 l -0.008,-0.03721 -0.0176,-0.02945 -0.0295,-0.01757 -0.0367,-0.0078 h -0.26768 z"
     style="baseline-shift:baseline;display:inline;overflow:visible;fill:none;fill-rule:evenodd;stroke:#000000;stroke-width:0.1;stroke-dasharray:none;stroke-opacity:1;enable-background:accumulate;stop-color:#000000;stop-opacity:1"
     id="path276" />
  <path
     d="m 40.608897,36.648486 -0.0662,0.01137 -0.0625,0.04134 -0.0413,0.06253 -0.0114,0.06615 v 1.209228 l 0.0114,0.06821 0.0413,0.06046 0.0625,0.04082 0.0662,0.01395 h 0.28525 l 0.0667,-0.01395 0.0605,-0.04082 0.0429,-0.06046 0.0114,-0.06821 v -1.209228 l -0.0114,-0.06615 -0.0429,-0.06253 -0.0605,-0.04134 -0.0667,-0.01137 z m 0.006,0.09922 h 0.002 0.26768 l 0.0367,0.0078 0.0295,0.01757 0.0176,0.02945 0.008,0.03721 v 1.191142 l -0.008,0.03721 -0.0176,0.02739 -0.0295,0.01964 -0.0367,0.0078 h -0.26613 l -0.0367,-0.0078 -0.0295,-0.01964 -0.0176,-0.02739 -0.008,-0.03721 v -1.191142 l 0.008,-0.03721 0.0176,-0.02945 0.0295,-0.01757 z"
     style="baseline-shift:baseline;display:inline;overflow:visible;fill:none;fill-rule:evenodd;stroke:#000000;stroke-width:0.1;stroke-dasharray:none;stroke-opacity:1;enable-background:accumulate;stop-color:#000000;stop-opacity:1"
     id="path275" />
  <path
     d="m 39.814107,36.747705 -0.0331,0.0078 -0.0274,0.01757 -0.0196,0.02945 -0.008,0.03721 v 1.191142 l 0.008,0.03721 0.0196,0.02739 0.0274,0.01964 0.0372,0.0078 h 0.26561 l 0.0388,-0.0078 0.0274,-0.01964 0.0196,-0.02739 0.008,-0.03721 v -1.191142 l -0.008,-0.03721 -0.0196,-0.02945 -0.0274,-0.01757 -0.0388,-0.0078 h -0.26768 z"
     style="baseline-shift:baseline;display:inline;overflow:visible;fill:none;fill-rule:evenodd;stroke:#000000;stroke-width:0.1;stroke-dasharray:none;stroke-opacity:1;enable-background:accumulate;stop-color:#000000;stop-opacity:1"
     id="path274" />
  <path
     d="m 39.809977,36.648486 -0.0682,0.01137 -0.0605,0.04134 -0.0408,0.06253 -0.0139,0.06615 v 1.209228 l 0.0139,0.06821 0.0408,0.06046 0.0605,0.04082 0.0682,0.01395 h 0.28319 l 0.0687,-0.01395 0.0605,-0.04082 0.0408,-0.06046 0.0139,-0.06821 v -1.209228 l -0.0139,-0.06615 -0.0408,-0.06253 -0.0605,-0.04134 -0.0687,-0.01137 z m 0.004,0.09922 h 0.002 0.26768 l 0.0388,0.0078 0.0274,0.01757 0.0196,0.02945 0.008,0.03721 v 1.191142 l -0.008,0.03721 -0.0196,0.02739 -0.0274,0.01964 -0.0388,0.0078 h -0.26561 l -0.0372,-0.0078 -0.0274,-0.01964 -0.0196,-0.02739 -0.008,-0.03721 v -1.191142 l 0.008,-0.03721 0.0196,-0.02945 0.0274,-0.01757 z"
     style="baseline-shift:baseline;display:inline;overflow:visible;fill:none;fill-rule:evenodd;stroke:#000000;stroke-width:0.1;stroke-dasharray:none;stroke-opacity:1;enable-background:accumulate;stop-color:#000000;stop-opacity:1"
     id="path273" />
  <path
     d="m 39.013647,36.747705 -0.0336,0.0078 -0.0274,0.01757 -0.0191,0.02945 -0.006,0.03721 v 1.191142 l 0.006,0.03721 0.0191,0.02739 0.0274,0.01964 0.0393,0.0078 h 0.26562 l 0.0372,-0.0078 0.0274,-0.01964 0.0191,-0.02739 0.008,-0.03721 v -1.191142 l -0.008,-0.03721 -0.0191,-0.02945 -0.0274,-0.01757 -0.0372,-0.0078 h -0.26975 z"
     style="baseline-shift:baseline;display:inline;overflow:visible;fill:none;fill-rule:evenodd;stroke:#000000;stroke-width:0.1;stroke-dasharray:none;stroke-opacity:1;enable-background:accumulate;stop-color:#000000;stop-opacity:1"
     id="path272" />
  <path
     d="m 39.009507,36.648486 -0.0687,0.01137 -0.0605,0.04134 -0.0408,0.06253 -0.014,0.06615 v 1.209228 l 0.014,0.06821 0.0408,0.06046 0.0605,0.04082 0.0687,0.01395 h 0.28526 l 0.0661,-0.01395 0.0605,-0.04082 0.0413,-0.06046 0.0134,-0.06821 v -1.209228 l -0.0134,-0.06615 -0.0413,-0.06253 -0.0605,-0.04134 -0.0661,-0.01137 z m 0.004,0.09922 h 0.002 0.26975 l 0.0372,0.0078 0.0274,0.01757 0.0191,0.02945 0.008,0.03721 v 1.191142 l -0.008,0.03721 -0.0191,0.02739 -0.0274,0.01964 -0.0372,0.0078 h -0.26562 l -0.0393,-0.0078 -0.0274,-0.01964 -0.0191,-0.02739 -0.006,-0.03721 v -1.191142 l 0.006,-0.03721 0.0191,-0.02945 0.0274,-0.01757 z"
     style="baseline-shift:baseline;display:inline;overflow:visible;fill:none;fill-rule:evenodd;stroke:#000000;stroke-width:0.1;stroke-dasharray:none;stroke-opacity:1;enable-background:accumulate;stop-color:#000000;stop-opacity:1"
     id="path271" />
  <path
     d="m 38.214727,36.747705 -0.0331,0.0078 -0.0295,0.01757 -0.0176,0.02945 -0.008,0.03721 v 1.189592 l 0.008,0.03876 0.0176,0.02739 0.0295,0.01964 0.0367,0.0078 h 0.26561 l 0.0393,-0.0078 0.0274,-0.01964 0.0176,-0.02739 0.008,-0.03876 v -1.189592 l -0.008,-0.03721 -0.0176,-0.02945 -0.0274,-0.01757 -0.0393,-0.0078 h -0.26717 z"
     style="baseline-shift:baseline;display:inline;overflow:visible;fill:none;fill-rule:evenodd;stroke:#000000;stroke-width:0.1;stroke-dasharray:none;stroke-opacity:1;enable-background:accumulate;stop-color:#000000;stop-opacity:1"
     id="path270" />
  <path
     d="m 38.208527,36.648486 -0.0661,0.01137 -0.0625,0.04134 -0.0393,0.06253 -0.0134,0.06615 v 1.210779 l 0.0134,0.06666 0.0393,0.06046 0.0625,0.04082 0.0661,0.01395 h 0.28525 l 0.0682,-0.01395 0.061,-0.04082 0.0408,-0.06046 0.0134,-0.06666 v -1.210779 l -0.0134,-0.06615 -0.0408,-0.06098 -0.061,-0.04289 -0.0682,-0.01137 z m 0.006,0.09922 h 0.002 0.26717 l 0.0393,0.0078 0.0274,0.01757 0.0176,0.02945 0.008,0.03721 v 1.189592 l -0.008,0.03876 -0.0176,0.02739 -0.0274,0.01964 -0.0393,0.0078 h -0.26561 l -0.0367,-0.0078 -0.0295,-0.01964 -0.0176,-0.02739 -0.008,-0.03876 v -1.189592 l 0.008,-0.03721 0.0176,-0.02945 0.0295,-0.01757 z"
     style="baseline-shift:baseline;display:inline;overflow:visible;fill:none;fill-rule:evenodd;stroke:#000000;stroke-width:0.1;stroke-dasharray:none;stroke-opacity:1;enable-background:accumulate;stop-color:#000000;stop-opacity:1"
     id="path269" />
  <path
     d="m 41.632607,34.140629 -0.0858,0.0155 -0.0646,0.04289 -0.0429,0.06666 -0.016,0.0801 v 0.941027 l 0.016,0.0801 0.0429,0.0646 0.0646,0.04289 0.0816,0.0155 h 0.49041 l 0.0801,-0.0155 0.0646,-0.04289 0.0429,-0.0646 0.0176,-0.0801 v -0.941027 l -0.0176,-0.0801 -0.0429,-0.06666 -0.0646,-0.04289 -0.0801,-0.0155 z"
     style="baseline-shift:baseline;display:inline;overflow:visible;fill:none;fill-rule:evenodd;stroke:#000000;stroke-width:0.1;stroke-dasharray:none;stroke-opacity:1;enable-background:accumulate;stop-color:#000000;stop-opacity:1"
     id="path268" />
  <path
     d="m 41.618647,34.040894 -0.1111,0.02119 -0.0977,0.06666 -0.0646,0.09767 -0.0233,0.109554 v 0.960665 l 0.0233,0.109554 0.0646,0.09767 0.0977,0.06408 0.1111,0.0217 h 0.51005 l 0.10904,-0.0217 0.0977,-0.06408 0.0667,-0.09767 0.0217,-0.109554 v -0.960665 l -0.0217,-0.109554 -0.0667,-0.09767 -0.0977,-0.06666 -0.10904,-0.02119 z m 0.014,0.09973 h 0.48627 l 0.0801,0.0155 0.0646,0.04289 0.0429,0.06666 0.0176,0.0801 v 0.941027 l -0.0176,0.0801 -0.0429,0.0646 -0.0646,0.04289 -0.0801,0.0155 h -0.49041 l -0.0816,-0.0155 -0.0646,-0.04289 -0.0429,-0.0646 -0.016,-0.0801 v -0.941027 l 0.016,-0.0801 0.0429,-0.06666 0.0646,-0.04289 z"
     style="baseline-shift:baseline;display:inline;overflow:visible;fill:none;fill-rule:evenodd;stroke:#000000;stroke-width:0.1;stroke-dasharray:none;stroke-opacity:1;enable-background:accumulate;stop-color:#000000;stop-opacity:1"
     id="path267" />
  <path
     d="m 39.731947,34.140629 -0.0858,0.0155 -0.0646,0.04289 -0.0429,0.06459 -0.0155,0.08217 v 0.941027 l 0.0155,0.0801 0.0429,0.0646 0.0646,0.04289 0.0822,0.0155 h 0.48989 l 0.0801,-0.0155 0.0646,-0.04289 0.0429,-0.0646 0.0176,-0.0801 v -0.941027 l -0.0176,-0.0801 -0.0429,-0.06666 -0.0646,-0.04289 -0.0801,-0.0155 z"
     style="baseline-shift:baseline;display:inline;overflow:visible;fill:none;fill-rule:evenodd;stroke:#000000;stroke-width:0.1;stroke-dasharray:none;stroke-opacity:1;enable-background:accumulate;stop-color:#000000;stop-opacity:1"
     id="path266" />
  <path
     d="m 39.718507,34.040894 -0.11162,0.02119 -0.0977,0.06666 -0.0646,0.09767 -0.0212,0.109554 v 0.960665 l 0.0212,0.109554 0.0646,0.09767 0.0977,0.06408 0.11162,0.0217 h 0.50953 l 0.10956,-0.0217 0.0977,-0.06408 0.0661,-0.09767 0.0217,-0.109554 v -0.960665 l -0.0217,-0.109554 -0.0661,-0.09767 -0.0977,-0.06666 -0.10956,-0.02119 z m 0.0134,0.09973 h 0.48627 l 0.0801,0.0155 0.0646,0.04289 0.0429,0.06666 0.0176,0.0801 v 0.941027 l -0.0176,0.0801 -0.0429,0.0646 -0.0646,0.04289 -0.0801,0.0155 h -0.48989 l -0.0822,-0.0155 -0.0646,-0.04289 -0.0429,-0.0646 -0.0155,-0.0801 v -0.941027 l 0.0155,-0.08217 0.0429,-0.06459 0.0646,-0.04289 z"
     style="baseline-shift:baseline;display:inline;overflow:visible;fill:none;fill-rule:evenodd;stroke:#000000;stroke-width:0.1;stroke-dasharray:none;stroke-opacity:1;enable-background:accumulate;stop-color:#000000;stop-opacity:1"
     id="path265" />
  <path
     d="m 35.927527,30.253528 -0.078,0.01602 -0.0646,0.04289 -0.0429,0.06408 -0.0155,0.08217 v 0.515731 l 0.0155,0.0801 0.0429,0.06459 0.0646,0.04289 0.0822,0.0155 h 0.89039 l 0.0801,-0.0155 0.0646,-0.04289 0.0429,-0.06459 0.0176,-0.0801 v -0.515731 l -0.0176,-0.08217 -0.0429,-0.06408 -0.0646,-0.04289 -0.0801,-0.01602 z"
     style="baseline-shift:baseline;display:inline;overflow:visible;fill:none;fill-rule:evenodd;stroke:#000000;stroke-width:0.1;stroke-dasharray:none;stroke-opacity:1;enable-background:accumulate;stop-color:#000000;stop-opacity:1"
     id="path264" />
  <path
     d="m 35.921327,30.154309 -0.11111,0.02119 -0.0977,0.06459 -0.0646,0.09767 -0.0217,0.111104 v 0.535368 l 0.0217,0.109554 0.0646,0.09767 0.0977,0.06615 0.11111,0.01964 h 0.91054 l 0.10903,-0.01964 0.0977,-0.06615 0.0667,-0.09767 0.0212,-0.109554 v -0.535368 l -0.0212,-0.111104 -0.0667,-0.09767 -0.0977,-0.06459 -0.10903,-0.02119 z m 0.006,0.09922 h 0.89452 l 0.0801,0.01602 0.0646,0.04289 0.0429,0.06408 0.0176,0.08217 v 0.515731 l -0.0176,0.0801 -0.0429,0.06459 -0.0646,0.04289 -0.0801,0.0155 h -0.89039 l -0.0822,-0.0155 -0.0646,-0.04289 -0.0429,-0.06459 -0.0155,-0.0801 v -0.515731 l 0.0155,-0.08217 0.0429,-0.06408 0.0646,-0.04289 z"
     style="baseline-shift:baseline;display:inline;overflow:visible;fill:none;fill-rule:evenodd;stroke:#000000;stroke-width:0.1;stroke-dasharray:none;stroke-opacity:1;enable-background:accumulate;stop-color:#000000;stop-opacity:1"
     id="path263" />
  <path
     d="m 33.640327,30.253528 -0.076,0.01602 -0.0646,0.04289 -0.0429,0.06408 -0.0155,0.08217 v 0.515731 l 0.0155,0.0801 0.0429,0.06459 0.0646,0.04289 0.0816,0.0155 h 0.88884 l 0.0822,-0.0155 0.0646,-0.04289 0.0429,-0.06459 0.0155,-0.0801 v -0.515731 l -0.0155,-0.08217 -0.0429,-0.06408 -0.0646,-0.04289 -0.0822,-0.01602 z"
     style="baseline-shift:baseline;display:inline;overflow:visible;fill:none;fill-rule:evenodd;stroke:#000000;stroke-width:0.1;stroke-dasharray:none;stroke-opacity:1;enable-background:accumulate;stop-color:#000000;stop-opacity:1"
     id="path262" />
  <path
     d="m 33.634647,30.154309 -0.10956,0.02119 -0.0977,0.06459 -0.0646,0.09767 -0.0233,0.111104 v 0.535368 l 0.0233,0.109554 0.0646,0.09767 0.0977,0.06615 0.11111,0.01964 h 0.90847 l 0.1111,-0.01964 0.0977,-0.06615 0.0646,-0.09767 0.0217,-0.109554 v -0.535368 l -0.0217,-0.111104 -0.0646,-0.09767 -0.0977,-0.06459 -0.1111,-0.02119 z m 0.006,0.09922 h 0.89452 l 0.0822,0.01602 0.0646,0.04289 0.0429,0.06408 0.0155,0.08217 v 0.515731 l -0.0155,0.0801 -0.0429,0.06459 -0.0646,0.04289 -0.0822,0.0155 h -0.88884 l -0.0816,-0.0155 -0.0646,-0.04289 -0.0429,-0.06459 -0.0155,-0.0801 v -0.515731 l 0.0155,-0.08217 0.0429,-0.06408 0.0646,-0.04289 z"
     style="baseline-shift:baseline;display:inline;overflow:visible;fill:none;fill-rule:evenodd;stroke:#000000;stroke-width:0.1;stroke-dasharray:none;stroke-opacity:1;enable-background:accumulate;stop-color:#000000;stop-opacity:1"
     id="path261" />
  <path
     d="m 30.978477,30.171879 -0.0765,0.0155 -0.0641,0.04289 -0.0434,0.06459 -0.0176,0.0801 v 0.51573 l 0.0176,0.08165 0.0434,0.0646 0.0641,0.04289 0.0801,0.0155 h 0.89091 l 0.0816,-0.0155 0.0646,-0.04289 0.0429,-0.0646 0.016,-0.08165 v -0.51573 l -0.016,-0.0801 -0.0429,-0.06459 -0.0646,-0.04289 -0.0816,-0.0155 z"
     style="baseline-shift:baseline;display:inline;overflow:visible;fill:none;fill-rule:evenodd;stroke:#000000;stroke-width:0.1;stroke-dasharray:none;stroke-opacity:1;enable-background:accumulate;stop-color:#000000;stop-opacity:1"
     id="path260" />
  <path
     d="m 30.972277,30.070077 -0.10956,0.02325 -0.0977,0.0646 -0.0641,0.09767 -0.0238,0.109554 v 0.534851 l 0.0238,0.111621 0.0641,0.09767 0.0977,0.0646 0.10956,0.02119 h 0.91002 l 0.11162,-0.02119 0.0977,-0.0646 0.0641,-0.09767 0.0217,-0.111621 v -0.534851 l -0.0217,-0.109554 -0.0641,-0.09767 -0.0977,-0.0646 -0.11162,-0.02325 z m 0.006,0.101802 h 0.89452 l 0.0816,0.0155 0.0646,0.04289 0.0429,0.06459 0.016,0.0801 v 0.51573 l -0.016,0.08165 -0.0429,0.0646 -0.0646,0.04289 -0.0816,0.0155 h -0.89091 l -0.0801,-0.0155 -0.0641,-0.04289 -0.0434,-0.0646 -0.0176,-0.08165 v -0.51573 l 0.0176,-0.0801 0.0434,-0.06459 0.0641,-0.04289 z"
     style="baseline-shift:baseline;display:inline;overflow:visible;fill:none;fill-rule:evenodd;stroke:#000000;stroke-width:0.1;stroke-dasharray:none;stroke-opacity:1;enable-background:accumulate;stop-color:#000000;stop-opacity:1"
     id="path259" />
  <path
     d="m 28.691277,30.171879 -0.0765,0.0155 -0.0641,0.04289 -0.0429,0.06459 -0.016,0.0801 v 0.51573 l 0.016,0.08165 0.0429,0.0646 0.0641,0.04289 0.0822,0.0155 h 0.8909 l 0.0801,-0.0155 0.0641,-0.04289 0.0434,-0.0646 0.0176,-0.08165 v -0.51573 l -0.0176,-0.0801 -0.0434,-0.06459 -0.0641,-0.04289 -0.0801,-0.0155 z"
     style="baseline-shift:baseline;display:inline;overflow:visible;fill:none;fill-rule:evenodd;stroke:#000000;stroke-width:0.1;stroke-dasharray:none;stroke-opacity:1;enable-background:accumulate;stop-color:#000000;stop-opacity:1"
     id="path258" />
  <path
     d="m 28.687137,30.070077 -0.1111,0.02325 -0.0982,0.0646 -0.0641,0.09767 -0.0217,0.109554 v 0.534851 l 0.0217,0.111621 0.0641,0.09767 0.0982,0.0646 0.1111,0.02119 h 0.91003 l 0.10955,-0.02119 0.0977,-0.0646 0.0661,-0.09767 0.0217,-0.111621 v -0.534851 l -0.0217,-0.109554 -0.0661,-0.09767 -0.0977,-0.0646 -0.10955,-0.02325 z m 0.004,0.101802 h 0.89658 l 0.0801,0.0155 0.0641,0.04289 0.0434,0.06459 0.0176,0.0801 v 0.51573 l -0.0176,0.08165 -0.0434,0.0646 -0.0641,0.04289 -0.0801,0.0155 h -0.8909 l -0.0822,-0.0155 -0.0641,-0.04289 -0.0429,-0.0646 -0.016,-0.08165 v -0.51573 l 0.016,-0.0801 0.0429,-0.06459 0.0641,-0.04289 z"
     style="baseline-shift:baseline;display:inline;overflow:visible;fill:none;fill-rule:evenodd;stroke:#000000;stroke-width:0.1;stroke-dasharray:none;stroke-opacity:1;enable-background:accumulate;stop-color:#000000;stop-opacity:1"
     id="path257" />
  <path
     d="m 45.171407,30.064392 -0.076,0.0155 -0.0646,0.04289 -0.0429,0.0646 -0.0155,0.0801 v 0.51573 l 0.0155,0.08165 0.0429,0.0646 0.0646,0.04289 0.0822,0.0155 h 0.89039 l 0.0801,-0.0155 0.0646,-0.04289 0.0429,-0.0646 0.0155,-0.08165 v -0.51573 l -0.0155,-0.0801 -0.0429,-0.0646 -0.0646,-0.04289 -0.0801,-0.0155 z"
     style="baseline-shift:baseline;display:inline;overflow:visible;fill:none;fill-rule:evenodd;stroke:#000000;stroke-width:0.1;stroke-dasharray:none;stroke-opacity:1;enable-background:accumulate;stop-color:#000000;stop-opacity:1"
     id="path256" />
  <path
     d="m 45.167787,29.964657 -0.11162,0.0217 -0.0977,0.06408 -0.0641,0.09767 -0.0217,0.109554 v 0.535368 l 0.0217,0.111104 0.0641,0.09767 0.0977,0.06459 0.11162,0.02119 h 0.91002 l 0.10956,-0.02119 0.0977,-0.06459 0.0661,-0.09767 0.0217,-0.111104 v -0.535367 l -0.0217,-0.109554 -0.0661,-0.09767 -0.0977,-0.06408 -0.10956,-0.0217 z m 0.004,0.09974 h 0.89659 l 0.0801,0.0155 0.0646,0.04289 0.0429,0.0646 0.0155,0.0801 v 0.51573 l -0.0155,0.08165 -0.0429,0.0646 -0.0646,0.04289 -0.0801,0.0155 h -0.89039 l -0.0822,-0.0155 -0.0646,-0.04289 -0.0429,-0.0646 -0.0155,-0.08165 v -0.51573 l 0.0155,-0.0801 0.0429,-0.0646 0.0646,-0.04289 z"
     style="baseline-shift:baseline;display:inline;overflow:visible;fill:none;fill-rule:evenodd;stroke:#000000;stroke-width:0.1;stroke-dasharray:none;stroke-opacity:1;enable-background:accumulate;stop-color:#000000;stop-opacity:1"
     id="path255" />
  <path
     d="m 42.886277,30.064392 -0.076,0.0155 -0.0646,0.04289 -0.0429,0.0646 -0.0176,0.0801 v 0.51573 l 0.0176,0.08165 0.0429,0.0646 0.0646,0.04289 0.0801,0.0155 h 0.89039 l 0.0822,-0.0155 0.0646,-0.04289 0.0429,-0.0646 0.0155,-0.08165 v -0.51573 l -0.0155,-0.0801 -0.0429,-0.0646 -0.0646,-0.04289 -0.0822,-0.0155 z"
     style="baseline-shift:baseline;display:inline;overflow:visible;fill:none;fill-rule:evenodd;stroke:#000000;stroke-width:0.1;stroke-dasharray:none;stroke-opacity:1;enable-background:accumulate;stop-color:#000000;stop-opacity:1"
     id="path254" />
  <path
     d="m 42.880587,29.964657 -0.10955,0.0217 -0.0977,0.06408 -0.0662,0.09767 -0.0217,0.109554 v 0.535368 l 0.0217,0.111104 0.0662,0.09767 0.0977,0.06459 0.10955,0.02119 h 0.91002 l 0.11163,-0.02119 0.0977,-0.06459 0.0641,-0.09767 0.0217,-0.111104 v -0.535367 l -0.0217,-0.109554 -0.0641,-0.09767 -0.0997,-0.06408 -0.10956,-0.0217 z m 0.006,0.09974 h 0.89452 l 0.0822,0.0155 0.0646,0.04289 0.0429,0.0646 0.0155,0.0801 v 0.51573 l -0.0155,0.08165 -0.0429,0.0646 -0.0646,0.04289 -0.0822,0.0155 h -0.89039 l -0.0801,-0.0155 -0.0646,-0.04289 -0.0429,-0.0646 -0.0176,-0.08165 v -0.51573 l 0.0176,-0.0801 0.0429,-0.0646 0.0646,-0.04289 z"
     style="baseline-shift:baseline;display:inline;overflow:visible;fill:none;fill-rule:evenodd;stroke:#000000;stroke-width:0.1;stroke-dasharray:none;stroke-opacity:1;enable-background:accumulate;stop-color:#000000;stop-opacity:1"
     id="path253" />
  <path
     d="m 35.937347,28.4278 -0.0878,0.01757 -0.0646,0.04289 -0.0429,0.06408 -0.0155,0.0801 v 0.515731 l 0.0155,0.08217 0.0429,0.06459 0.0646,0.04289 0.0816,0.0155 h 0.8909 l 0.0801,-0.0155 0.0646,-0.04289 0.0429,-0.06459 0.0176,-0.08217 V 28.63244 l -0.0176,-0.0801 -0.0429,-0.06408 -0.0646,-0.04289 -0.0801,-0.01757 z"
     style="baseline-shift:baseline;display:inline;overflow:visible;fill:none;fill-rule:evenodd;stroke:#000000;stroke-width:0.1;stroke-dasharray:none;stroke-opacity:1;enable-background:accumulate;stop-color:#000000;stop-opacity:1"
     id="path252" />
  <path
     d="m 35.921327,28.328064 -0.11111,0.02119 -0.0977,0.06666 -0.0646,0.09767 -0.0217,0.109038 v 0.535368 l 0.0217,0.109554 0.0646,0.09922 0.0977,0.0646 0.11111,0.0217 h 0.91054 l 0.10903,-0.0217 0.0977,-0.0646 0.0667,-0.09767 0.0212,-0.111104 v -0.535368 l -0.0212,-0.109038 -0.0667,-0.09767 -0.0977,-0.06666 -0.10903,-0.02119 z m 0.016,0.09974 h 0.8847 l 0.0801,0.01757 0.0646,0.04289 0.0429,0.06408 0.0176,0.0801 v 0.515731 l -0.0176,0.08217 -0.0429,0.06459 -0.0646,0.04289 -0.0801,0.0155 h -0.8909 l -0.0816,-0.0155 -0.0646,-0.04289 -0.0429,-0.06459 -0.0155,-0.08217 v -0.515731 l 0.0155,-0.0801 0.0429,-0.06408 0.0646,-0.04289 z"
     style="baseline-shift:baseline;display:inline;overflow:visible;fill:none;fill-rule:evenodd;stroke:#000000;stroke-width:0.1;stroke-dasharray:none;stroke-opacity:1;enable-background:accumulate;stop-color:#000000;stop-opacity:1"
     id="path251" />
  <path
     d="m 33.650147,28.4278 -0.0863,0.01757 -0.0641,0.04289 -0.0429,0.06408 -0.016,0.0801 v 0.515731 l 0.016,0.08217 0.0429,0.06459 0.0641,0.04289 0.0822,0.0155 h 0.88884 l 0.0822,-0.0155 0.0641,-0.04289 0.0434,-0.06459 0.0155,-0.08217 V 28.63244 l -0.0155,-0.0801 -0.0434,-0.06408 -0.0641,-0.04289 -0.0822,-0.01757 z"
     style="baseline-shift:baseline;display:inline;overflow:visible;fill:none;fill-rule:evenodd;stroke:#000000;stroke-width:0.1;stroke-dasharray:none;stroke-opacity:1;enable-background:accumulate;stop-color:#000000;stop-opacity:1"
     id="path250" />
  <path
     d="m 33.634647,28.328064 -0.10956,0.02119 -0.0977,0.06666 -0.0646,0.09767 -0.0233,0.109038 v 0.535368 l 0.0233,0.111621 0.0646,0.09715 0.0977,0.0646 0.10956,0.0217 h 0.91002 l 0.1111,-0.0217 0.0977,-0.0646 0.0646,-0.09922 0.0217,-0.109554 v -0.535368 l -0.0217,-0.109038 -0.0646,-0.09767 -0.0977,-0.06666 -0.1111,-0.02119 z m 0.0155,0.09974 h 0.8847 l 0.0822,0.01757 0.0641,0.04289 0.0434,0.06408 0.0155,0.0801 v 0.515731 l -0.0155,0.08217 -0.0434,0.06459 -0.0641,0.04289 -0.0822,0.0155 h -0.88884 l -0.0822,-0.0155 -0.0641,-0.04289 -0.0429,-0.06459 -0.016,-0.08217 v -0.515731 l 0.016,-0.0801 0.0429,-0.06408 0.0641,-0.04289 z"
     style="baseline-shift:baseline;display:inline;overflow:visible;fill:none;fill-rule:evenodd;stroke:#000000;stroke-width:0.1;stroke-dasharray:none;stroke-opacity:1;enable-background:accumulate;stop-color:#000000;stop-opacity:1"
     id="path249" />
  <path
     d="m 30.978477,28.345634 -0.0765,0.0155 -0.0641,0.04289 -0.0434,0.06666 -0.0176,0.0801 v 0.515215 l 0.0176,0.0801 0.0434,0.0646 0.0641,0.04289 0.0801,0.01757 h 0.89091 l 0.0816,-0.01757 0.0646,-0.04289 0.0429,-0.0646 0.016,-0.0801 v -0.515215 l -0.016,-0.08217 -0.0429,-0.0646 -0.0646,-0.04289 -0.0816,-0.0155 z"
     style="baseline-shift:baseline;display:inline;overflow:visible;fill:none;fill-rule:evenodd;stroke:#000000;stroke-width:0.1;stroke-dasharray:none;stroke-opacity:1;enable-background:accumulate;stop-color:#000000;stop-opacity:1"
     id="path248" />
  <path
     d="m 30.972277,28.245899 -0.10956,0.0217 -0.0977,0.06615 -0.0641,0.0956 -0.0238,0.111621 v 0.534851 l 0.0238,0.109554 0.0641,0.09767 0.0977,0.06615 0.10956,0.0217 h 0.91002 l 0.11162,-0.0217 0.0977,-0.06615 0.0641,-0.09767 0.0217,-0.109554 V 28.54097 l -0.0217,-0.109554 -0.0641,-0.09767 -0.0977,-0.06615 -0.11162,-0.0217 z m 0.006,0.09973 h 0.89452 l 0.0816,0.0155 0.0646,0.04289 0.0429,0.0646 0.016,0.08217 v 0.515215 l -0.016,0.0801 -0.0429,0.0646 -0.0646,0.04289 -0.0816,0.01757 h -0.89091 l -0.0801,-0.01757 -0.0641,-0.04289 -0.0434,-0.0646 -0.0176,-0.0801 v -0.515215 l 0.0176,-0.0801 0.0434,-0.06666 0.0641,-0.04289 z"
     style="baseline-shift:baseline;display:inline;overflow:visible;fill:none;fill-rule:evenodd;stroke:#000000;stroke-width:0.1;stroke-dasharray:none;stroke-opacity:1;enable-background:accumulate;stop-color:#000000;stop-opacity:1"
     id="path247" />
  <path
     d="m 28.691277,28.345634 -0.0765,0.0155 -0.0641,0.04289 -0.0429,0.06666 -0.016,0.0801 v 0.515215 l 0.016,0.0801 0.0429,0.0646 0.0641,0.04289 0.0822,0.01757 h 0.8909 l 0.0801,-0.01757 0.0641,-0.04289 0.0434,-0.0646 0.0176,-0.0801 v -0.515215 l -0.0176,-0.0801 -0.0434,-0.06666 -0.0641,-0.04289 -0.0801,-0.0155 z"
     style="baseline-shift:baseline;display:inline;overflow:visible;fill:none;fill-rule:evenodd;stroke:#000000;stroke-width:0.1;stroke-dasharray:none;stroke-opacity:1;enable-background:accumulate;stop-color:#000000;stop-opacity:1"
     id="path246" />
  <path
     d="m 28.687137,28.245899 -0.1111,0.0217 -0.0982,0.06615 -0.0641,0.0956 -0.0217,0.111621 v 0.534851 l 0.0217,0.109554 0.0641,0.09767 0.0982,0.06615 0.1111,0.0217 h 0.91003 l 0.10955,-0.0217 0.0977,-0.06615 0.0661,-0.09767 0.0217,-0.109554 V 28.54097 l -0.0217,-0.111621 -0.0661,-0.0956 -0.0977,-0.06615 -0.10955,-0.0217 z m 0.004,0.09973 h 0.89658 l 0.0801,0.0155 0.0641,0.04289 0.0434,0.06666 0.0176,0.0801 v 0.515215 l -0.0176,0.0801 -0.0434,0.0646 -0.0641,0.04289 -0.0801,0.01757 h -0.8909 l -0.0822,-0.01757 -0.0641,-0.04289 -0.0429,-0.0646 -0.016,-0.0801 v -0.515215 l 0.016,-0.0801 0.0429,-0.06666 0.0641,-0.04289 z"
     style="baseline-shift:baseline;display:inline;overflow:visible;fill:none;fill-rule:evenodd;stroke:#000000;stroke-width:0.1;stroke-dasharray:none;stroke-opacity:1;enable-background:accumulate;stop-color:#000000;stop-opacity:1"
     id="path245" />
  <path
     d="m 45.181227,28.238147 -0.0858,0.01757 -0.0646,0.04289 -0.0429,0.06459 -0.0155,0.0801 v 0.51573 l 0.0155,0.0801 0.0429,0.06615 0.0646,0.04289 0.0822,0.0155 h 0.89039 l 0.0801,-0.0155 0.0646,-0.04289 0.0429,-0.06615 0.0155,-0.0801 v -0.51573 l -0.0155,-0.0801 -0.0429,-0.06459 -0.0646,-0.04289 -0.0801,-0.01757 z"
     style="baseline-shift:baseline;display:inline;overflow:visible;fill:none;fill-rule:evenodd;stroke:#000000;stroke-width:0.1;stroke-dasharray:none;stroke-opacity:1;enable-background:accumulate;stop-color:#000000;stop-opacity:1"
     id="path244" />
  <path
     d="m 45.167787,28.138412 -0.11162,0.0217 -0.0977,0.06615 -0.0641,0.09767 -0.0217,0.109554 v 0.534851 l 0.0217,0.109554 0.0641,0.09767 0.0977,0.06666 0.11162,0.02119 h 0.91002 l 0.10956,-0.02119 0.0977,-0.06666 0.0661,-0.09767 0.0217,-0.109554 v -0.534851 l -0.0217,-0.109554 -0.0661,-0.09767 -0.0977,-0.06615 -0.10956,-0.0217 z m 0.0134,0.09974 h 0.88677 l 0.0801,0.01757 0.0646,0.04289 0.0429,0.06459 0.0155,0.0801 v 0.51573 l -0.0155,0.0801 -0.0429,0.06615 -0.0646,0.04289 -0.0801,0.0155 h -0.89039 l -0.0822,-0.0155 -0.0646,-0.04289 -0.0429,-0.06615 -0.0155,-0.0801 v -0.51573 l 0.0155,-0.0801 0.0429,-0.06459 0.0646,-0.04289 z"
     style="baseline-shift:baseline;display:inline;overflow:visible;fill:none;fill-rule:evenodd;stroke:#000000;stroke-width:0.1;stroke-dasharray:none;stroke-opacity:1;enable-background:accumulate;stop-color:#000000;stop-opacity:1"
     id="path243" />
  <path
     d="m 42.896097,28.238147 -0.0858,0.01757 -0.0646,0.04289 -0.0429,0.06459 -0.0176,0.0801 v 0.51573 l 0.0176,0.0801 0.0429,0.06615 0.0646,0.04289 0.0801,0.0155 h 0.89039 l 0.0822,-0.0155 0.0641,-0.04289 0.0434,-0.06615 0.0155,-0.0801 v -0.51573 l -0.0155,-0.0801 -0.0434,-0.06459 -0.0641,-0.04289 -0.0822,-0.01757 z"
     style="baseline-shift:baseline;display:inline;overflow:visible;fill:none;fill-rule:evenodd;stroke:#000000;stroke-width:0.1;stroke-dasharray:none;stroke-opacity:1;enable-background:accumulate;stop-color:#000000;stop-opacity:1"
     id="path242" />
  <path
     d="m 42.880587,28.138412 -0.10955,0.0217 -0.0977,0.06615 -0.0662,0.09767 -0.0217,0.109554 v 0.534851 l 0.0217,0.109554 0.0662,0.09767 0.0977,0.06666 0.10955,0.02119 h 0.91002 l 0.10956,-0.02119 0.0992,-0.06666 0.0646,-0.09767 0.0217,-0.109554 v -0.534851 l -0.0217,-0.109554 -0.0646,-0.09767 -0.0977,-0.06615 -0.11111,-0.0217 z m 0.0155,0.09974 h 0.8847 l 0.0822,0.01757 0.0641,0.04289 0.0434,0.06459 0.0155,0.0801 v 0.51573 l -0.0155,0.0801 -0.0434,0.06615 -0.0641,0.04289 -0.0822,0.0155 h -0.89039 l -0.0801,-0.0155 -0.0646,-0.04289 -0.0429,-0.06615 -0.0176,-0.0801 v -0.51573 l 0.0176,-0.0801 0.0429,-0.06459 0.0646,-0.04289 z"
     style="baseline-shift:baseline;display:inline;overflow:visible;fill:none;fill-rule:evenodd;stroke:#000000;stroke-width:0.1;stroke-dasharray:none;stroke-opacity:1;enable-background:accumulate;stop-color:#000000;stop-opacity:1"
     id="path241" />
  <metadata
     id="metadata131">
    <rdf:RDF>
      <cc:Work
         rdf:about="">
        <dc:title>SVG Image created as ComponentTester-Edge_Cuts.svg date 2025/10/19 18:28:22 </dc:title>
      </cc:Work>
    </rdf:RDF>
  </metadata>
  <path
     d="m 7.4948738,6.2627603 -0.05063,0.06375 V 73.799672 l 0.05063,0.0665 H 58.689717 l 0.0491,-0.0665 V 6.3265113 l -0.0491,-0.06375 z m 0.04857,0.129522 H 58.639097 V 73.736592 H 7.5434368 Z"
     style="baseline-shift:baseline;display:inline;overflow:visible;opacity:1;fill:none;stroke:#000000;stroke-width:0.11394;stroke-linejoin:bevel;stroke-dasharray:none;stroke-opacity:1;enable-background:accumulate;stop-color:#000000;stop-opacity:1"
     id="path240" />
</svg>
