%TF.GenerationSoftware,KiCad,Pcbnew,7.0.2*%
%TF.CreationDate,2024-05-08T22:38:07+07:00*%
%TF.ProjectId,multiport component tester,6d756c74-6970-46f7-9274-20636f6d706f,rev?*%
%TF.SameCoordinates,Original*%
%TF.FileFunction,Drillmap*%
%TF.FilePolarity,Positive*%
%FSLAX45Y45*%
G04 Gerber Fmt 4.5, Leading zero omitted, Abs format (unit mm)*
G04 Created by KiCad (PCBNEW 7.0.2) date 2024-05-08 22:38:07*
%MOMM*%
%LPD*%
G01*
G04 APERTURE LIST*
%ADD10C,0.100000*%
%ADD11C,0.200000*%
%ADD12C,0.071000*%
%ADD13C,0.320000*%
G04 APERTURE END LIST*
D10*
X7367000Y-8729026D02*
X7367000Y-9958974D01*
X6426013Y-10303974D02*
X7022000Y-10303974D01*
X16071000Y-8039000D02*
G75*
G03*
X15726000Y-7694000I-345000J0D01*
G01*
X6426013Y-8384026D02*
X7022000Y-8384026D01*
X7367004Y-8729026D02*
G75*
G03*
X7022000Y-8384026I-345004J-4D01*
G01*
X6426013Y-7694000D02*
X15726000Y-7694000D01*
X15726000Y-10994000D02*
X6426013Y-10994000D01*
X6426013Y-10303974D02*
G75*
G03*
X6426013Y-10994000I0J-345013D01*
G01*
X15726000Y-10994000D02*
G75*
G03*
X16071000Y-10649000I0J345000D01*
G01*
X7022000Y-10303974D02*
G75*
G03*
X7367000Y-9958974I0J345000D01*
G01*
X6426013Y-7694000D02*
G75*
G03*
X6426013Y-8384026I0J-345013D01*
G01*
X16071000Y-8039000D02*
X16071000Y-10649000D01*
D11*
D12*
X15827000Y-8983000D02*
X15898000Y-9054000D01*
X15898000Y-8983000D02*
X15827000Y-9054000D01*
X15827000Y-9634000D02*
X15898000Y-9705000D01*
X15898000Y-9634000D02*
X15827000Y-9705000D01*
D13*
X15888500Y-8036500D02*
G75*
G03*
X15888500Y-8036500I-160000J0D01*
G01*
X15888500Y-10651500D02*
G75*
G03*
X15888500Y-10651500I-160000J0D01*
G01*
D11*
X6323619Y-11311524D02*
X6323619Y-11111524D01*
X6323619Y-11111524D02*
X6371238Y-11111524D01*
X6371238Y-11111524D02*
X6399809Y-11121048D01*
X6399809Y-11121048D02*
X6418857Y-11140095D01*
X6418857Y-11140095D02*
X6428381Y-11159143D01*
X6428381Y-11159143D02*
X6437905Y-11197238D01*
X6437905Y-11197238D02*
X6437905Y-11225809D01*
X6437905Y-11225809D02*
X6428381Y-11263905D01*
X6428381Y-11263905D02*
X6418857Y-11282952D01*
X6418857Y-11282952D02*
X6399809Y-11302000D01*
X6399809Y-11302000D02*
X6371238Y-11311524D01*
X6371238Y-11311524D02*
X6323619Y-11311524D01*
X6523619Y-11311524D02*
X6523619Y-11178190D01*
X6523619Y-11216286D02*
X6533143Y-11197238D01*
X6533143Y-11197238D02*
X6542667Y-11187714D01*
X6542667Y-11187714D02*
X6561714Y-11178190D01*
X6561714Y-11178190D02*
X6580762Y-11178190D01*
X6647428Y-11311524D02*
X6647428Y-11178190D01*
X6647428Y-11111524D02*
X6637905Y-11121048D01*
X6637905Y-11121048D02*
X6647428Y-11130571D01*
X6647428Y-11130571D02*
X6656952Y-11121048D01*
X6656952Y-11121048D02*
X6647428Y-11111524D01*
X6647428Y-11111524D02*
X6647428Y-11130571D01*
X6771238Y-11311524D02*
X6752190Y-11302000D01*
X6752190Y-11302000D02*
X6742667Y-11282952D01*
X6742667Y-11282952D02*
X6742667Y-11111524D01*
X6876000Y-11311524D02*
X6856952Y-11302000D01*
X6856952Y-11302000D02*
X6847428Y-11282952D01*
X6847428Y-11282952D02*
X6847428Y-11111524D01*
X7104571Y-11311524D02*
X7104571Y-11111524D01*
X7104571Y-11111524D02*
X7171238Y-11254381D01*
X7171238Y-11254381D02*
X7237905Y-11111524D01*
X7237905Y-11111524D02*
X7237905Y-11311524D01*
X7418857Y-11311524D02*
X7418857Y-11206762D01*
X7418857Y-11206762D02*
X7409333Y-11187714D01*
X7409333Y-11187714D02*
X7390286Y-11178190D01*
X7390286Y-11178190D02*
X7352190Y-11178190D01*
X7352190Y-11178190D02*
X7333143Y-11187714D01*
X7418857Y-11302000D02*
X7399809Y-11311524D01*
X7399809Y-11311524D02*
X7352190Y-11311524D01*
X7352190Y-11311524D02*
X7333143Y-11302000D01*
X7333143Y-11302000D02*
X7323619Y-11282952D01*
X7323619Y-11282952D02*
X7323619Y-11263905D01*
X7323619Y-11263905D02*
X7333143Y-11244857D01*
X7333143Y-11244857D02*
X7352190Y-11235333D01*
X7352190Y-11235333D02*
X7399809Y-11235333D01*
X7399809Y-11235333D02*
X7418857Y-11225809D01*
X7514095Y-11178190D02*
X7514095Y-11378190D01*
X7514095Y-11187714D02*
X7533143Y-11178190D01*
X7533143Y-11178190D02*
X7571238Y-11178190D01*
X7571238Y-11178190D02*
X7590286Y-11187714D01*
X7590286Y-11187714D02*
X7599809Y-11197238D01*
X7599809Y-11197238D02*
X7609333Y-11216286D01*
X7609333Y-11216286D02*
X7609333Y-11273428D01*
X7609333Y-11273428D02*
X7599809Y-11292476D01*
X7599809Y-11292476D02*
X7590286Y-11302000D01*
X7590286Y-11302000D02*
X7571238Y-11311524D01*
X7571238Y-11311524D02*
X7533143Y-11311524D01*
X7533143Y-11311524D02*
X7514095Y-11302000D01*
X7695048Y-11292476D02*
X7704571Y-11302000D01*
X7704571Y-11302000D02*
X7695048Y-11311524D01*
X7695048Y-11311524D02*
X7685524Y-11302000D01*
X7685524Y-11302000D02*
X7695048Y-11292476D01*
X7695048Y-11292476D02*
X7695048Y-11311524D01*
X7695048Y-11187714D02*
X7704571Y-11197238D01*
X7704571Y-11197238D02*
X7695048Y-11206762D01*
X7695048Y-11206762D02*
X7685524Y-11197238D01*
X7685524Y-11197238D02*
X7695048Y-11187714D01*
X7695048Y-11187714D02*
X7695048Y-11206762D01*
D12*
X6005000Y-11603500D02*
X6076000Y-11674500D01*
X6076000Y-11603500D02*
X6005000Y-11674500D01*
D11*
X6361714Y-11531524D02*
X6380762Y-11531524D01*
X6380762Y-11531524D02*
X6399809Y-11541048D01*
X6399809Y-11541048D02*
X6409333Y-11550571D01*
X6409333Y-11550571D02*
X6418857Y-11569619D01*
X6418857Y-11569619D02*
X6428381Y-11607714D01*
X6428381Y-11607714D02*
X6428381Y-11655333D01*
X6428381Y-11655333D02*
X6418857Y-11693428D01*
X6418857Y-11693428D02*
X6409333Y-11712476D01*
X6409333Y-11712476D02*
X6399809Y-11722000D01*
X6399809Y-11722000D02*
X6380762Y-11731524D01*
X6380762Y-11731524D02*
X6361714Y-11731524D01*
X6361714Y-11731524D02*
X6342667Y-11722000D01*
X6342667Y-11722000D02*
X6333143Y-11712476D01*
X6333143Y-11712476D02*
X6323619Y-11693428D01*
X6323619Y-11693428D02*
X6314095Y-11655333D01*
X6314095Y-11655333D02*
X6314095Y-11607714D01*
X6314095Y-11607714D02*
X6323619Y-11569619D01*
X6323619Y-11569619D02*
X6333143Y-11550571D01*
X6333143Y-11550571D02*
X6342667Y-11541048D01*
X6342667Y-11541048D02*
X6361714Y-11531524D01*
X6514095Y-11712476D02*
X6523619Y-11722000D01*
X6523619Y-11722000D02*
X6514095Y-11731524D01*
X6514095Y-11731524D02*
X6504571Y-11722000D01*
X6504571Y-11722000D02*
X6514095Y-11712476D01*
X6514095Y-11712476D02*
X6514095Y-11731524D01*
X6590286Y-11531524D02*
X6723619Y-11531524D01*
X6723619Y-11531524D02*
X6637905Y-11731524D01*
X6904571Y-11731524D02*
X6790286Y-11731524D01*
X6847428Y-11731524D02*
X6847428Y-11531524D01*
X6847428Y-11531524D02*
X6828381Y-11560095D01*
X6828381Y-11560095D02*
X6809333Y-11579143D01*
X6809333Y-11579143D02*
X6790286Y-11588667D01*
X7028381Y-11531524D02*
X7047429Y-11531524D01*
X7047429Y-11531524D02*
X7066476Y-11541048D01*
X7066476Y-11541048D02*
X7076000Y-11550571D01*
X7076000Y-11550571D02*
X7085524Y-11569619D01*
X7085524Y-11569619D02*
X7095048Y-11607714D01*
X7095048Y-11607714D02*
X7095048Y-11655333D01*
X7095048Y-11655333D02*
X7085524Y-11693428D01*
X7085524Y-11693428D02*
X7076000Y-11712476D01*
X7076000Y-11712476D02*
X7066476Y-11722000D01*
X7066476Y-11722000D02*
X7047429Y-11731524D01*
X7047429Y-11731524D02*
X7028381Y-11731524D01*
X7028381Y-11731524D02*
X7009333Y-11722000D01*
X7009333Y-11722000D02*
X6999809Y-11712476D01*
X6999809Y-11712476D02*
X6990286Y-11693428D01*
X6990286Y-11693428D02*
X6980762Y-11655333D01*
X6980762Y-11655333D02*
X6980762Y-11607714D01*
X6980762Y-11607714D02*
X6990286Y-11569619D01*
X6990286Y-11569619D02*
X6999809Y-11550571D01*
X6999809Y-11550571D02*
X7009333Y-11541048D01*
X7009333Y-11541048D02*
X7028381Y-11531524D01*
X7180762Y-11731524D02*
X7180762Y-11598190D01*
X7180762Y-11617238D02*
X7190286Y-11607714D01*
X7190286Y-11607714D02*
X7209333Y-11598190D01*
X7209333Y-11598190D02*
X7237905Y-11598190D01*
X7237905Y-11598190D02*
X7256952Y-11607714D01*
X7256952Y-11607714D02*
X7266476Y-11626762D01*
X7266476Y-11626762D02*
X7266476Y-11731524D01*
X7266476Y-11626762D02*
X7276000Y-11607714D01*
X7276000Y-11607714D02*
X7295048Y-11598190D01*
X7295048Y-11598190D02*
X7323619Y-11598190D01*
X7323619Y-11598190D02*
X7342667Y-11607714D01*
X7342667Y-11607714D02*
X7352190Y-11626762D01*
X7352190Y-11626762D02*
X7352190Y-11731524D01*
X7447429Y-11731524D02*
X7447429Y-11598190D01*
X7447429Y-11617238D02*
X7456952Y-11607714D01*
X7456952Y-11607714D02*
X7476000Y-11598190D01*
X7476000Y-11598190D02*
X7504571Y-11598190D01*
X7504571Y-11598190D02*
X7523619Y-11607714D01*
X7523619Y-11607714D02*
X7533143Y-11626762D01*
X7533143Y-11626762D02*
X7533143Y-11731524D01*
X7533143Y-11626762D02*
X7542667Y-11607714D01*
X7542667Y-11607714D02*
X7561714Y-11598190D01*
X7561714Y-11598190D02*
X7590286Y-11598190D01*
X7590286Y-11598190D02*
X7609333Y-11607714D01*
X7609333Y-11607714D02*
X7618857Y-11626762D01*
X7618857Y-11626762D02*
X7618857Y-11731524D01*
X8009333Y-11522000D02*
X7837905Y-11779143D01*
X8266476Y-11531524D02*
X8285524Y-11531524D01*
X8285524Y-11531524D02*
X8304572Y-11541048D01*
X8304572Y-11541048D02*
X8314095Y-11550571D01*
X8314095Y-11550571D02*
X8323619Y-11569619D01*
X8323619Y-11569619D02*
X8333143Y-11607714D01*
X8333143Y-11607714D02*
X8333143Y-11655333D01*
X8333143Y-11655333D02*
X8323619Y-11693428D01*
X8323619Y-11693428D02*
X8314095Y-11712476D01*
X8314095Y-11712476D02*
X8304572Y-11722000D01*
X8304572Y-11722000D02*
X8285524Y-11731524D01*
X8285524Y-11731524D02*
X8266476Y-11731524D01*
X8266476Y-11731524D02*
X8247429Y-11722000D01*
X8247429Y-11722000D02*
X8237905Y-11712476D01*
X8237905Y-11712476D02*
X8228381Y-11693428D01*
X8228381Y-11693428D02*
X8218857Y-11655333D01*
X8218857Y-11655333D02*
X8218857Y-11607714D01*
X8218857Y-11607714D02*
X8228381Y-11569619D01*
X8228381Y-11569619D02*
X8237905Y-11550571D01*
X8237905Y-11550571D02*
X8247429Y-11541048D01*
X8247429Y-11541048D02*
X8266476Y-11531524D01*
X8418857Y-11712476D02*
X8428381Y-11722000D01*
X8428381Y-11722000D02*
X8418857Y-11731524D01*
X8418857Y-11731524D02*
X8409334Y-11722000D01*
X8409334Y-11722000D02*
X8418857Y-11712476D01*
X8418857Y-11712476D02*
X8418857Y-11731524D01*
X8552191Y-11531524D02*
X8571238Y-11531524D01*
X8571238Y-11531524D02*
X8590286Y-11541048D01*
X8590286Y-11541048D02*
X8599810Y-11550571D01*
X8599810Y-11550571D02*
X8609334Y-11569619D01*
X8609334Y-11569619D02*
X8618857Y-11607714D01*
X8618857Y-11607714D02*
X8618857Y-11655333D01*
X8618857Y-11655333D02*
X8609334Y-11693428D01*
X8609334Y-11693428D02*
X8599810Y-11712476D01*
X8599810Y-11712476D02*
X8590286Y-11722000D01*
X8590286Y-11722000D02*
X8571238Y-11731524D01*
X8571238Y-11731524D02*
X8552191Y-11731524D01*
X8552191Y-11731524D02*
X8533143Y-11722000D01*
X8533143Y-11722000D02*
X8523619Y-11712476D01*
X8523619Y-11712476D02*
X8514095Y-11693428D01*
X8514095Y-11693428D02*
X8504572Y-11655333D01*
X8504572Y-11655333D02*
X8504572Y-11607714D01*
X8504572Y-11607714D02*
X8514095Y-11569619D01*
X8514095Y-11569619D02*
X8523619Y-11550571D01*
X8523619Y-11550571D02*
X8533143Y-11541048D01*
X8533143Y-11541048D02*
X8552191Y-11531524D01*
X8695048Y-11550571D02*
X8704572Y-11541048D01*
X8704572Y-11541048D02*
X8723619Y-11531524D01*
X8723619Y-11531524D02*
X8771238Y-11531524D01*
X8771238Y-11531524D02*
X8790286Y-11541048D01*
X8790286Y-11541048D02*
X8799810Y-11550571D01*
X8799810Y-11550571D02*
X8809334Y-11569619D01*
X8809334Y-11569619D02*
X8809334Y-11588667D01*
X8809334Y-11588667D02*
X8799810Y-11617238D01*
X8799810Y-11617238D02*
X8685524Y-11731524D01*
X8685524Y-11731524D02*
X8809334Y-11731524D01*
X8923619Y-11617238D02*
X8904572Y-11607714D01*
X8904572Y-11607714D02*
X8895048Y-11598190D01*
X8895048Y-11598190D02*
X8885524Y-11579143D01*
X8885524Y-11579143D02*
X8885524Y-11569619D01*
X8885524Y-11569619D02*
X8895048Y-11550571D01*
X8895048Y-11550571D02*
X8904572Y-11541048D01*
X8904572Y-11541048D02*
X8923619Y-11531524D01*
X8923619Y-11531524D02*
X8961715Y-11531524D01*
X8961715Y-11531524D02*
X8980762Y-11541048D01*
X8980762Y-11541048D02*
X8990286Y-11550571D01*
X8990286Y-11550571D02*
X8999810Y-11569619D01*
X8999810Y-11569619D02*
X8999810Y-11579143D01*
X8999810Y-11579143D02*
X8990286Y-11598190D01*
X8990286Y-11598190D02*
X8980762Y-11607714D01*
X8980762Y-11607714D02*
X8961715Y-11617238D01*
X8961715Y-11617238D02*
X8923619Y-11617238D01*
X8923619Y-11617238D02*
X8904572Y-11626762D01*
X8904572Y-11626762D02*
X8895048Y-11636286D01*
X8895048Y-11636286D02*
X8885524Y-11655333D01*
X8885524Y-11655333D02*
X8885524Y-11693428D01*
X8885524Y-11693428D02*
X8895048Y-11712476D01*
X8895048Y-11712476D02*
X8904572Y-11722000D01*
X8904572Y-11722000D02*
X8923619Y-11731524D01*
X8923619Y-11731524D02*
X8961715Y-11731524D01*
X8961715Y-11731524D02*
X8980762Y-11722000D01*
X8980762Y-11722000D02*
X8990286Y-11712476D01*
X8990286Y-11712476D02*
X8999810Y-11693428D01*
X8999810Y-11693428D02*
X8999810Y-11655333D01*
X8999810Y-11655333D02*
X8990286Y-11636286D01*
X8990286Y-11636286D02*
X8980762Y-11626762D01*
X8980762Y-11626762D02*
X8961715Y-11617238D01*
X9123619Y-11531524D02*
X9142667Y-11531524D01*
X9142667Y-11531524D02*
X9161715Y-11541048D01*
X9161715Y-11541048D02*
X9171238Y-11550571D01*
X9171238Y-11550571D02*
X9180762Y-11569619D01*
X9180762Y-11569619D02*
X9190286Y-11607714D01*
X9190286Y-11607714D02*
X9190286Y-11655333D01*
X9190286Y-11655333D02*
X9180762Y-11693428D01*
X9180762Y-11693428D02*
X9171238Y-11712476D01*
X9171238Y-11712476D02*
X9161715Y-11722000D01*
X9161715Y-11722000D02*
X9142667Y-11731524D01*
X9142667Y-11731524D02*
X9123619Y-11731524D01*
X9123619Y-11731524D02*
X9104572Y-11722000D01*
X9104572Y-11722000D02*
X9095048Y-11712476D01*
X9095048Y-11712476D02*
X9085524Y-11693428D01*
X9085524Y-11693428D02*
X9076000Y-11655333D01*
X9076000Y-11655333D02*
X9076000Y-11607714D01*
X9076000Y-11607714D02*
X9085524Y-11569619D01*
X9085524Y-11569619D02*
X9095048Y-11550571D01*
X9095048Y-11550571D02*
X9104572Y-11541048D01*
X9104572Y-11541048D02*
X9123619Y-11531524D01*
X9266476Y-11531524D02*
X9266476Y-11569619D01*
X9342667Y-11531524D02*
X9342667Y-11569619D01*
X9637905Y-11807714D02*
X9628381Y-11798190D01*
X9628381Y-11798190D02*
X9609334Y-11769619D01*
X9609334Y-11769619D02*
X9599810Y-11750571D01*
X9599810Y-11750571D02*
X9590286Y-11722000D01*
X9590286Y-11722000D02*
X9580762Y-11674381D01*
X9580762Y-11674381D02*
X9580762Y-11636286D01*
X9580762Y-11636286D02*
X9590286Y-11588667D01*
X9590286Y-11588667D02*
X9599810Y-11560095D01*
X9599810Y-11560095D02*
X9609334Y-11541048D01*
X9609334Y-11541048D02*
X9628381Y-11512476D01*
X9628381Y-11512476D02*
X9637905Y-11502952D01*
X9704572Y-11550571D02*
X9714096Y-11541048D01*
X9714096Y-11541048D02*
X9733143Y-11531524D01*
X9733143Y-11531524D02*
X9780762Y-11531524D01*
X9780762Y-11531524D02*
X9799810Y-11541048D01*
X9799810Y-11541048D02*
X9809334Y-11550571D01*
X9809334Y-11550571D02*
X9818857Y-11569619D01*
X9818857Y-11569619D02*
X9818857Y-11588667D01*
X9818857Y-11588667D02*
X9809334Y-11617238D01*
X9809334Y-11617238D02*
X9695048Y-11731524D01*
X9695048Y-11731524D02*
X9818857Y-11731524D01*
X10056953Y-11731524D02*
X10056953Y-11531524D01*
X10142667Y-11731524D02*
X10142667Y-11626762D01*
X10142667Y-11626762D02*
X10133143Y-11607714D01*
X10133143Y-11607714D02*
X10114096Y-11598190D01*
X10114096Y-11598190D02*
X10085524Y-11598190D01*
X10085524Y-11598190D02*
X10066477Y-11607714D01*
X10066477Y-11607714D02*
X10056953Y-11617238D01*
X10266477Y-11731524D02*
X10247429Y-11722000D01*
X10247429Y-11722000D02*
X10237905Y-11712476D01*
X10237905Y-11712476D02*
X10228381Y-11693428D01*
X10228381Y-11693428D02*
X10228381Y-11636286D01*
X10228381Y-11636286D02*
X10237905Y-11617238D01*
X10237905Y-11617238D02*
X10247429Y-11607714D01*
X10247429Y-11607714D02*
X10266477Y-11598190D01*
X10266477Y-11598190D02*
X10295048Y-11598190D01*
X10295048Y-11598190D02*
X10314096Y-11607714D01*
X10314096Y-11607714D02*
X10323619Y-11617238D01*
X10323619Y-11617238D02*
X10333143Y-11636286D01*
X10333143Y-11636286D02*
X10333143Y-11693428D01*
X10333143Y-11693428D02*
X10323619Y-11712476D01*
X10323619Y-11712476D02*
X10314096Y-11722000D01*
X10314096Y-11722000D02*
X10295048Y-11731524D01*
X10295048Y-11731524D02*
X10266477Y-11731524D01*
X10447429Y-11731524D02*
X10428381Y-11722000D01*
X10428381Y-11722000D02*
X10418858Y-11702952D01*
X10418858Y-11702952D02*
X10418858Y-11531524D01*
X10599810Y-11722000D02*
X10580762Y-11731524D01*
X10580762Y-11731524D02*
X10542667Y-11731524D01*
X10542667Y-11731524D02*
X10523619Y-11722000D01*
X10523619Y-11722000D02*
X10514096Y-11702952D01*
X10514096Y-11702952D02*
X10514096Y-11626762D01*
X10514096Y-11626762D02*
X10523619Y-11607714D01*
X10523619Y-11607714D02*
X10542667Y-11598190D01*
X10542667Y-11598190D02*
X10580762Y-11598190D01*
X10580762Y-11598190D02*
X10599810Y-11607714D01*
X10599810Y-11607714D02*
X10609334Y-11626762D01*
X10609334Y-11626762D02*
X10609334Y-11645809D01*
X10609334Y-11645809D02*
X10514096Y-11664857D01*
X10685524Y-11722000D02*
X10704572Y-11731524D01*
X10704572Y-11731524D02*
X10742667Y-11731524D01*
X10742667Y-11731524D02*
X10761715Y-11722000D01*
X10761715Y-11722000D02*
X10771239Y-11702952D01*
X10771239Y-11702952D02*
X10771239Y-11693428D01*
X10771239Y-11693428D02*
X10761715Y-11674381D01*
X10761715Y-11674381D02*
X10742667Y-11664857D01*
X10742667Y-11664857D02*
X10714096Y-11664857D01*
X10714096Y-11664857D02*
X10695048Y-11655333D01*
X10695048Y-11655333D02*
X10685524Y-11636286D01*
X10685524Y-11636286D02*
X10685524Y-11626762D01*
X10685524Y-11626762D02*
X10695048Y-11607714D01*
X10695048Y-11607714D02*
X10714096Y-11598190D01*
X10714096Y-11598190D02*
X10742667Y-11598190D01*
X10742667Y-11598190D02*
X10761715Y-11607714D01*
X10837905Y-11807714D02*
X10847429Y-11798190D01*
X10847429Y-11798190D02*
X10866477Y-11769619D01*
X10866477Y-11769619D02*
X10876000Y-11750571D01*
X10876000Y-11750571D02*
X10885524Y-11722000D01*
X10885524Y-11722000D02*
X10895048Y-11674381D01*
X10895048Y-11674381D02*
X10895048Y-11636286D01*
X10895048Y-11636286D02*
X10885524Y-11588667D01*
X10885524Y-11588667D02*
X10876000Y-11560095D01*
X10876000Y-11560095D02*
X10866477Y-11541048D01*
X10866477Y-11541048D02*
X10847429Y-11512476D01*
X10847429Y-11512476D02*
X10837905Y-11502952D01*
X11199810Y-11807714D02*
X11190286Y-11798190D01*
X11190286Y-11798190D02*
X11171239Y-11769619D01*
X11171239Y-11769619D02*
X11161715Y-11750571D01*
X11161715Y-11750571D02*
X11152191Y-11722000D01*
X11152191Y-11722000D02*
X11142667Y-11674381D01*
X11142667Y-11674381D02*
X11142667Y-11636286D01*
X11142667Y-11636286D02*
X11152191Y-11588667D01*
X11152191Y-11588667D02*
X11161715Y-11560095D01*
X11161715Y-11560095D02*
X11171239Y-11541048D01*
X11171239Y-11541048D02*
X11190286Y-11512476D01*
X11190286Y-11512476D02*
X11199810Y-11502952D01*
X11276000Y-11598190D02*
X11276000Y-11731524D01*
X11276000Y-11617238D02*
X11285524Y-11607714D01*
X11285524Y-11607714D02*
X11304572Y-11598190D01*
X11304572Y-11598190D02*
X11333143Y-11598190D01*
X11333143Y-11598190D02*
X11352191Y-11607714D01*
X11352191Y-11607714D02*
X11361715Y-11626762D01*
X11361715Y-11626762D02*
X11361715Y-11731524D01*
X11485524Y-11731524D02*
X11466477Y-11722000D01*
X11466477Y-11722000D02*
X11456953Y-11712476D01*
X11456953Y-11712476D02*
X11447429Y-11693428D01*
X11447429Y-11693428D02*
X11447429Y-11636286D01*
X11447429Y-11636286D02*
X11456953Y-11617238D01*
X11456953Y-11617238D02*
X11466477Y-11607714D01*
X11466477Y-11607714D02*
X11485524Y-11598190D01*
X11485524Y-11598190D02*
X11514096Y-11598190D01*
X11514096Y-11598190D02*
X11533143Y-11607714D01*
X11533143Y-11607714D02*
X11542667Y-11617238D01*
X11542667Y-11617238D02*
X11552191Y-11636286D01*
X11552191Y-11636286D02*
X11552191Y-11693428D01*
X11552191Y-11693428D02*
X11542667Y-11712476D01*
X11542667Y-11712476D02*
X11533143Y-11722000D01*
X11533143Y-11722000D02*
X11514096Y-11731524D01*
X11514096Y-11731524D02*
X11485524Y-11731524D01*
X11609334Y-11598190D02*
X11685524Y-11598190D01*
X11637905Y-11531524D02*
X11637905Y-11702952D01*
X11637905Y-11702952D02*
X11647429Y-11722000D01*
X11647429Y-11722000D02*
X11666477Y-11731524D01*
X11666477Y-11731524D02*
X11685524Y-11731524D01*
X11904572Y-11598190D02*
X11904572Y-11798190D01*
X11904572Y-11607714D02*
X11923619Y-11598190D01*
X11923619Y-11598190D02*
X11961715Y-11598190D01*
X11961715Y-11598190D02*
X11980762Y-11607714D01*
X11980762Y-11607714D02*
X11990286Y-11617238D01*
X11990286Y-11617238D02*
X11999810Y-11636286D01*
X11999810Y-11636286D02*
X11999810Y-11693428D01*
X11999810Y-11693428D02*
X11990286Y-11712476D01*
X11990286Y-11712476D02*
X11980762Y-11722000D01*
X11980762Y-11722000D02*
X11961715Y-11731524D01*
X11961715Y-11731524D02*
X11923619Y-11731524D01*
X11923619Y-11731524D02*
X11904572Y-11722000D01*
X12114096Y-11731524D02*
X12095048Y-11722000D01*
X12095048Y-11722000D02*
X12085524Y-11702952D01*
X12085524Y-11702952D02*
X12085524Y-11531524D01*
X12276000Y-11731524D02*
X12276000Y-11626762D01*
X12276000Y-11626762D02*
X12266477Y-11607714D01*
X12266477Y-11607714D02*
X12247429Y-11598190D01*
X12247429Y-11598190D02*
X12209334Y-11598190D01*
X12209334Y-11598190D02*
X12190286Y-11607714D01*
X12276000Y-11722000D02*
X12256953Y-11731524D01*
X12256953Y-11731524D02*
X12209334Y-11731524D01*
X12209334Y-11731524D02*
X12190286Y-11722000D01*
X12190286Y-11722000D02*
X12180762Y-11702952D01*
X12180762Y-11702952D02*
X12180762Y-11683905D01*
X12180762Y-11683905D02*
X12190286Y-11664857D01*
X12190286Y-11664857D02*
X12209334Y-11655333D01*
X12209334Y-11655333D02*
X12256953Y-11655333D01*
X12256953Y-11655333D02*
X12276000Y-11645809D01*
X12342667Y-11598190D02*
X12418858Y-11598190D01*
X12371239Y-11531524D02*
X12371239Y-11702952D01*
X12371239Y-11702952D02*
X12380762Y-11722000D01*
X12380762Y-11722000D02*
X12399810Y-11731524D01*
X12399810Y-11731524D02*
X12418858Y-11731524D01*
X12561715Y-11722000D02*
X12542667Y-11731524D01*
X12542667Y-11731524D02*
X12504572Y-11731524D01*
X12504572Y-11731524D02*
X12485524Y-11722000D01*
X12485524Y-11722000D02*
X12476000Y-11702952D01*
X12476000Y-11702952D02*
X12476000Y-11626762D01*
X12476000Y-11626762D02*
X12485524Y-11607714D01*
X12485524Y-11607714D02*
X12504572Y-11598190D01*
X12504572Y-11598190D02*
X12542667Y-11598190D01*
X12542667Y-11598190D02*
X12561715Y-11607714D01*
X12561715Y-11607714D02*
X12571239Y-11626762D01*
X12571239Y-11626762D02*
X12571239Y-11645809D01*
X12571239Y-11645809D02*
X12476000Y-11664857D01*
X12742667Y-11731524D02*
X12742667Y-11531524D01*
X12742667Y-11722000D02*
X12723620Y-11731524D01*
X12723620Y-11731524D02*
X12685524Y-11731524D01*
X12685524Y-11731524D02*
X12666477Y-11722000D01*
X12666477Y-11722000D02*
X12656953Y-11712476D01*
X12656953Y-11712476D02*
X12647429Y-11693428D01*
X12647429Y-11693428D02*
X12647429Y-11636286D01*
X12647429Y-11636286D02*
X12656953Y-11617238D01*
X12656953Y-11617238D02*
X12666477Y-11607714D01*
X12666477Y-11607714D02*
X12685524Y-11598190D01*
X12685524Y-11598190D02*
X12723620Y-11598190D01*
X12723620Y-11598190D02*
X12742667Y-11607714D01*
X12818858Y-11807714D02*
X12828381Y-11798190D01*
X12828381Y-11798190D02*
X12847429Y-11769619D01*
X12847429Y-11769619D02*
X12856953Y-11750571D01*
X12856953Y-11750571D02*
X12866477Y-11722000D01*
X12866477Y-11722000D02*
X12876000Y-11674381D01*
X12876000Y-11674381D02*
X12876000Y-11636286D01*
X12876000Y-11636286D02*
X12866477Y-11588667D01*
X12866477Y-11588667D02*
X12856953Y-11560095D01*
X12856953Y-11560095D02*
X12847429Y-11541048D01*
X12847429Y-11541048D02*
X12828381Y-11512476D01*
X12828381Y-11512476D02*
X12818858Y-11502952D01*
X6076000Y-11903000D02*
G75*
G03*
X6076000Y-11903000I-100000J0D01*
G01*
X6304571Y-11795524D02*
X6428381Y-11795524D01*
X6428381Y-11795524D02*
X6361714Y-11871714D01*
X6361714Y-11871714D02*
X6390286Y-11871714D01*
X6390286Y-11871714D02*
X6409333Y-11881238D01*
X6409333Y-11881238D02*
X6418857Y-11890762D01*
X6418857Y-11890762D02*
X6428381Y-11909809D01*
X6428381Y-11909809D02*
X6428381Y-11957428D01*
X6428381Y-11957428D02*
X6418857Y-11976476D01*
X6418857Y-11976476D02*
X6409333Y-11986000D01*
X6409333Y-11986000D02*
X6390286Y-11995524D01*
X6390286Y-11995524D02*
X6333143Y-11995524D01*
X6333143Y-11995524D02*
X6314095Y-11986000D01*
X6314095Y-11986000D02*
X6304571Y-11976476D01*
X6514095Y-11976476D02*
X6523619Y-11986000D01*
X6523619Y-11986000D02*
X6514095Y-11995524D01*
X6514095Y-11995524D02*
X6504571Y-11986000D01*
X6504571Y-11986000D02*
X6514095Y-11976476D01*
X6514095Y-11976476D02*
X6514095Y-11995524D01*
X6599809Y-11814571D02*
X6609333Y-11805048D01*
X6609333Y-11805048D02*
X6628381Y-11795524D01*
X6628381Y-11795524D02*
X6676000Y-11795524D01*
X6676000Y-11795524D02*
X6695048Y-11805048D01*
X6695048Y-11805048D02*
X6704571Y-11814571D01*
X6704571Y-11814571D02*
X6714095Y-11833619D01*
X6714095Y-11833619D02*
X6714095Y-11852667D01*
X6714095Y-11852667D02*
X6704571Y-11881238D01*
X6704571Y-11881238D02*
X6590286Y-11995524D01*
X6590286Y-11995524D02*
X6714095Y-11995524D01*
X6837905Y-11795524D02*
X6856952Y-11795524D01*
X6856952Y-11795524D02*
X6876000Y-11805048D01*
X6876000Y-11805048D02*
X6885524Y-11814571D01*
X6885524Y-11814571D02*
X6895048Y-11833619D01*
X6895048Y-11833619D02*
X6904571Y-11871714D01*
X6904571Y-11871714D02*
X6904571Y-11919333D01*
X6904571Y-11919333D02*
X6895048Y-11957428D01*
X6895048Y-11957428D02*
X6885524Y-11976476D01*
X6885524Y-11976476D02*
X6876000Y-11986000D01*
X6876000Y-11986000D02*
X6856952Y-11995524D01*
X6856952Y-11995524D02*
X6837905Y-11995524D01*
X6837905Y-11995524D02*
X6818857Y-11986000D01*
X6818857Y-11986000D02*
X6809333Y-11976476D01*
X6809333Y-11976476D02*
X6799809Y-11957428D01*
X6799809Y-11957428D02*
X6790286Y-11919333D01*
X6790286Y-11919333D02*
X6790286Y-11871714D01*
X6790286Y-11871714D02*
X6799809Y-11833619D01*
X6799809Y-11833619D02*
X6809333Y-11814571D01*
X6809333Y-11814571D02*
X6818857Y-11805048D01*
X6818857Y-11805048D02*
X6837905Y-11795524D01*
X7028381Y-11795524D02*
X7047429Y-11795524D01*
X7047429Y-11795524D02*
X7066476Y-11805048D01*
X7066476Y-11805048D02*
X7076000Y-11814571D01*
X7076000Y-11814571D02*
X7085524Y-11833619D01*
X7085524Y-11833619D02*
X7095048Y-11871714D01*
X7095048Y-11871714D02*
X7095048Y-11919333D01*
X7095048Y-11919333D02*
X7085524Y-11957428D01*
X7085524Y-11957428D02*
X7076000Y-11976476D01*
X7076000Y-11976476D02*
X7066476Y-11986000D01*
X7066476Y-11986000D02*
X7047429Y-11995524D01*
X7047429Y-11995524D02*
X7028381Y-11995524D01*
X7028381Y-11995524D02*
X7009333Y-11986000D01*
X7009333Y-11986000D02*
X6999809Y-11976476D01*
X6999809Y-11976476D02*
X6990286Y-11957428D01*
X6990286Y-11957428D02*
X6980762Y-11919333D01*
X6980762Y-11919333D02*
X6980762Y-11871714D01*
X6980762Y-11871714D02*
X6990286Y-11833619D01*
X6990286Y-11833619D02*
X6999809Y-11814571D01*
X6999809Y-11814571D02*
X7009333Y-11805048D01*
X7009333Y-11805048D02*
X7028381Y-11795524D01*
X7180762Y-11995524D02*
X7180762Y-11862190D01*
X7180762Y-11881238D02*
X7190286Y-11871714D01*
X7190286Y-11871714D02*
X7209333Y-11862190D01*
X7209333Y-11862190D02*
X7237905Y-11862190D01*
X7237905Y-11862190D02*
X7256952Y-11871714D01*
X7256952Y-11871714D02*
X7266476Y-11890762D01*
X7266476Y-11890762D02*
X7266476Y-11995524D01*
X7266476Y-11890762D02*
X7276000Y-11871714D01*
X7276000Y-11871714D02*
X7295048Y-11862190D01*
X7295048Y-11862190D02*
X7323619Y-11862190D01*
X7323619Y-11862190D02*
X7342667Y-11871714D01*
X7342667Y-11871714D02*
X7352190Y-11890762D01*
X7352190Y-11890762D02*
X7352190Y-11995524D01*
X7447429Y-11995524D02*
X7447429Y-11862190D01*
X7447429Y-11881238D02*
X7456952Y-11871714D01*
X7456952Y-11871714D02*
X7476000Y-11862190D01*
X7476000Y-11862190D02*
X7504571Y-11862190D01*
X7504571Y-11862190D02*
X7523619Y-11871714D01*
X7523619Y-11871714D02*
X7533143Y-11890762D01*
X7533143Y-11890762D02*
X7533143Y-11995524D01*
X7533143Y-11890762D02*
X7542667Y-11871714D01*
X7542667Y-11871714D02*
X7561714Y-11862190D01*
X7561714Y-11862190D02*
X7590286Y-11862190D01*
X7590286Y-11862190D02*
X7609333Y-11871714D01*
X7609333Y-11871714D02*
X7618857Y-11890762D01*
X7618857Y-11890762D02*
X7618857Y-11995524D01*
X8009333Y-11786000D02*
X7837905Y-12043143D01*
X8266476Y-11795524D02*
X8285524Y-11795524D01*
X8285524Y-11795524D02*
X8304572Y-11805048D01*
X8304572Y-11805048D02*
X8314095Y-11814571D01*
X8314095Y-11814571D02*
X8323619Y-11833619D01*
X8323619Y-11833619D02*
X8333143Y-11871714D01*
X8333143Y-11871714D02*
X8333143Y-11919333D01*
X8333143Y-11919333D02*
X8323619Y-11957428D01*
X8323619Y-11957428D02*
X8314095Y-11976476D01*
X8314095Y-11976476D02*
X8304572Y-11986000D01*
X8304572Y-11986000D02*
X8285524Y-11995524D01*
X8285524Y-11995524D02*
X8266476Y-11995524D01*
X8266476Y-11995524D02*
X8247429Y-11986000D01*
X8247429Y-11986000D02*
X8237905Y-11976476D01*
X8237905Y-11976476D02*
X8228381Y-11957428D01*
X8228381Y-11957428D02*
X8218857Y-11919333D01*
X8218857Y-11919333D02*
X8218857Y-11871714D01*
X8218857Y-11871714D02*
X8228381Y-11833619D01*
X8228381Y-11833619D02*
X8237905Y-11814571D01*
X8237905Y-11814571D02*
X8247429Y-11805048D01*
X8247429Y-11805048D02*
X8266476Y-11795524D01*
X8418857Y-11976476D02*
X8428381Y-11986000D01*
X8428381Y-11986000D02*
X8418857Y-11995524D01*
X8418857Y-11995524D02*
X8409334Y-11986000D01*
X8409334Y-11986000D02*
X8418857Y-11976476D01*
X8418857Y-11976476D02*
X8418857Y-11995524D01*
X8618857Y-11995524D02*
X8504572Y-11995524D01*
X8561714Y-11995524D02*
X8561714Y-11795524D01*
X8561714Y-11795524D02*
X8542667Y-11824095D01*
X8542667Y-11824095D02*
X8523619Y-11843143D01*
X8523619Y-11843143D02*
X8504572Y-11852667D01*
X8695048Y-11814571D02*
X8704572Y-11805048D01*
X8704572Y-11805048D02*
X8723619Y-11795524D01*
X8723619Y-11795524D02*
X8771238Y-11795524D01*
X8771238Y-11795524D02*
X8790286Y-11805048D01*
X8790286Y-11805048D02*
X8799810Y-11814571D01*
X8799810Y-11814571D02*
X8809334Y-11833619D01*
X8809334Y-11833619D02*
X8809334Y-11852667D01*
X8809334Y-11852667D02*
X8799810Y-11881238D01*
X8799810Y-11881238D02*
X8685524Y-11995524D01*
X8685524Y-11995524D02*
X8809334Y-11995524D01*
X8980762Y-11795524D02*
X8942667Y-11795524D01*
X8942667Y-11795524D02*
X8923619Y-11805048D01*
X8923619Y-11805048D02*
X8914095Y-11814571D01*
X8914095Y-11814571D02*
X8895048Y-11843143D01*
X8895048Y-11843143D02*
X8885524Y-11881238D01*
X8885524Y-11881238D02*
X8885524Y-11957428D01*
X8885524Y-11957428D02*
X8895048Y-11976476D01*
X8895048Y-11976476D02*
X8904572Y-11986000D01*
X8904572Y-11986000D02*
X8923619Y-11995524D01*
X8923619Y-11995524D02*
X8961715Y-11995524D01*
X8961715Y-11995524D02*
X8980762Y-11986000D01*
X8980762Y-11986000D02*
X8990286Y-11976476D01*
X8990286Y-11976476D02*
X8999810Y-11957428D01*
X8999810Y-11957428D02*
X8999810Y-11909809D01*
X8999810Y-11909809D02*
X8990286Y-11890762D01*
X8990286Y-11890762D02*
X8980762Y-11881238D01*
X8980762Y-11881238D02*
X8961715Y-11871714D01*
X8961715Y-11871714D02*
X8923619Y-11871714D01*
X8923619Y-11871714D02*
X8904572Y-11881238D01*
X8904572Y-11881238D02*
X8895048Y-11890762D01*
X8895048Y-11890762D02*
X8885524Y-11909809D01*
X9123619Y-11795524D02*
X9142667Y-11795524D01*
X9142667Y-11795524D02*
X9161715Y-11805048D01*
X9161715Y-11805048D02*
X9171238Y-11814571D01*
X9171238Y-11814571D02*
X9180762Y-11833619D01*
X9180762Y-11833619D02*
X9190286Y-11871714D01*
X9190286Y-11871714D02*
X9190286Y-11919333D01*
X9190286Y-11919333D02*
X9180762Y-11957428D01*
X9180762Y-11957428D02*
X9171238Y-11976476D01*
X9171238Y-11976476D02*
X9161715Y-11986000D01*
X9161715Y-11986000D02*
X9142667Y-11995524D01*
X9142667Y-11995524D02*
X9123619Y-11995524D01*
X9123619Y-11995524D02*
X9104572Y-11986000D01*
X9104572Y-11986000D02*
X9095048Y-11976476D01*
X9095048Y-11976476D02*
X9085524Y-11957428D01*
X9085524Y-11957428D02*
X9076000Y-11919333D01*
X9076000Y-11919333D02*
X9076000Y-11871714D01*
X9076000Y-11871714D02*
X9085524Y-11833619D01*
X9085524Y-11833619D02*
X9095048Y-11814571D01*
X9095048Y-11814571D02*
X9104572Y-11805048D01*
X9104572Y-11805048D02*
X9123619Y-11795524D01*
X9266476Y-11795524D02*
X9266476Y-11833619D01*
X9342667Y-11795524D02*
X9342667Y-11833619D01*
X9637905Y-12071714D02*
X9628381Y-12062190D01*
X9628381Y-12062190D02*
X9609334Y-12033619D01*
X9609334Y-12033619D02*
X9599810Y-12014571D01*
X9599810Y-12014571D02*
X9590286Y-11986000D01*
X9590286Y-11986000D02*
X9580762Y-11938381D01*
X9580762Y-11938381D02*
X9580762Y-11900286D01*
X9580762Y-11900286D02*
X9590286Y-11852667D01*
X9590286Y-11852667D02*
X9599810Y-11824095D01*
X9599810Y-11824095D02*
X9609334Y-11805048D01*
X9609334Y-11805048D02*
X9628381Y-11776476D01*
X9628381Y-11776476D02*
X9637905Y-11766952D01*
X9704572Y-11814571D02*
X9714096Y-11805048D01*
X9714096Y-11805048D02*
X9733143Y-11795524D01*
X9733143Y-11795524D02*
X9780762Y-11795524D01*
X9780762Y-11795524D02*
X9799810Y-11805048D01*
X9799810Y-11805048D02*
X9809334Y-11814571D01*
X9809334Y-11814571D02*
X9818857Y-11833619D01*
X9818857Y-11833619D02*
X9818857Y-11852667D01*
X9818857Y-11852667D02*
X9809334Y-11881238D01*
X9809334Y-11881238D02*
X9695048Y-11995524D01*
X9695048Y-11995524D02*
X9818857Y-11995524D01*
X10056953Y-11995524D02*
X10056953Y-11795524D01*
X10142667Y-11995524D02*
X10142667Y-11890762D01*
X10142667Y-11890762D02*
X10133143Y-11871714D01*
X10133143Y-11871714D02*
X10114096Y-11862190D01*
X10114096Y-11862190D02*
X10085524Y-11862190D01*
X10085524Y-11862190D02*
X10066477Y-11871714D01*
X10066477Y-11871714D02*
X10056953Y-11881238D01*
X10266477Y-11995524D02*
X10247429Y-11986000D01*
X10247429Y-11986000D02*
X10237905Y-11976476D01*
X10237905Y-11976476D02*
X10228381Y-11957428D01*
X10228381Y-11957428D02*
X10228381Y-11900286D01*
X10228381Y-11900286D02*
X10237905Y-11881238D01*
X10237905Y-11881238D02*
X10247429Y-11871714D01*
X10247429Y-11871714D02*
X10266477Y-11862190D01*
X10266477Y-11862190D02*
X10295048Y-11862190D01*
X10295048Y-11862190D02*
X10314096Y-11871714D01*
X10314096Y-11871714D02*
X10323619Y-11881238D01*
X10323619Y-11881238D02*
X10333143Y-11900286D01*
X10333143Y-11900286D02*
X10333143Y-11957428D01*
X10333143Y-11957428D02*
X10323619Y-11976476D01*
X10323619Y-11976476D02*
X10314096Y-11986000D01*
X10314096Y-11986000D02*
X10295048Y-11995524D01*
X10295048Y-11995524D02*
X10266477Y-11995524D01*
X10447429Y-11995524D02*
X10428381Y-11986000D01*
X10428381Y-11986000D02*
X10418858Y-11966952D01*
X10418858Y-11966952D02*
X10418858Y-11795524D01*
X10599810Y-11986000D02*
X10580762Y-11995524D01*
X10580762Y-11995524D02*
X10542667Y-11995524D01*
X10542667Y-11995524D02*
X10523619Y-11986000D01*
X10523619Y-11986000D02*
X10514096Y-11966952D01*
X10514096Y-11966952D02*
X10514096Y-11890762D01*
X10514096Y-11890762D02*
X10523619Y-11871714D01*
X10523619Y-11871714D02*
X10542667Y-11862190D01*
X10542667Y-11862190D02*
X10580762Y-11862190D01*
X10580762Y-11862190D02*
X10599810Y-11871714D01*
X10599810Y-11871714D02*
X10609334Y-11890762D01*
X10609334Y-11890762D02*
X10609334Y-11909809D01*
X10609334Y-11909809D02*
X10514096Y-11928857D01*
X10685524Y-11986000D02*
X10704572Y-11995524D01*
X10704572Y-11995524D02*
X10742667Y-11995524D01*
X10742667Y-11995524D02*
X10761715Y-11986000D01*
X10761715Y-11986000D02*
X10771239Y-11966952D01*
X10771239Y-11966952D02*
X10771239Y-11957428D01*
X10771239Y-11957428D02*
X10761715Y-11938381D01*
X10761715Y-11938381D02*
X10742667Y-11928857D01*
X10742667Y-11928857D02*
X10714096Y-11928857D01*
X10714096Y-11928857D02*
X10695048Y-11919333D01*
X10695048Y-11919333D02*
X10685524Y-11900286D01*
X10685524Y-11900286D02*
X10685524Y-11890762D01*
X10685524Y-11890762D02*
X10695048Y-11871714D01*
X10695048Y-11871714D02*
X10714096Y-11862190D01*
X10714096Y-11862190D02*
X10742667Y-11862190D01*
X10742667Y-11862190D02*
X10761715Y-11871714D01*
X10837905Y-12071714D02*
X10847429Y-12062190D01*
X10847429Y-12062190D02*
X10866477Y-12033619D01*
X10866477Y-12033619D02*
X10876000Y-12014571D01*
X10876000Y-12014571D02*
X10885524Y-11986000D01*
X10885524Y-11986000D02*
X10895048Y-11938381D01*
X10895048Y-11938381D02*
X10895048Y-11900286D01*
X10895048Y-11900286D02*
X10885524Y-11852667D01*
X10885524Y-11852667D02*
X10876000Y-11824095D01*
X10876000Y-11824095D02*
X10866477Y-11805048D01*
X10866477Y-11805048D02*
X10847429Y-11776476D01*
X10847429Y-11776476D02*
X10837905Y-11766952D01*
X11199810Y-12071714D02*
X11190286Y-12062190D01*
X11190286Y-12062190D02*
X11171239Y-12033619D01*
X11171239Y-12033619D02*
X11161715Y-12014571D01*
X11161715Y-12014571D02*
X11152191Y-11986000D01*
X11152191Y-11986000D02*
X11142667Y-11938381D01*
X11142667Y-11938381D02*
X11142667Y-11900286D01*
X11142667Y-11900286D02*
X11152191Y-11852667D01*
X11152191Y-11852667D02*
X11161715Y-11824095D01*
X11161715Y-11824095D02*
X11171239Y-11805048D01*
X11171239Y-11805048D02*
X11190286Y-11776476D01*
X11190286Y-11776476D02*
X11199810Y-11766952D01*
X11276000Y-11862190D02*
X11276000Y-11995524D01*
X11276000Y-11881238D02*
X11285524Y-11871714D01*
X11285524Y-11871714D02*
X11304572Y-11862190D01*
X11304572Y-11862190D02*
X11333143Y-11862190D01*
X11333143Y-11862190D02*
X11352191Y-11871714D01*
X11352191Y-11871714D02*
X11361715Y-11890762D01*
X11361715Y-11890762D02*
X11361715Y-11995524D01*
X11485524Y-11995524D02*
X11466477Y-11986000D01*
X11466477Y-11986000D02*
X11456953Y-11976476D01*
X11456953Y-11976476D02*
X11447429Y-11957428D01*
X11447429Y-11957428D02*
X11447429Y-11900286D01*
X11447429Y-11900286D02*
X11456953Y-11881238D01*
X11456953Y-11881238D02*
X11466477Y-11871714D01*
X11466477Y-11871714D02*
X11485524Y-11862190D01*
X11485524Y-11862190D02*
X11514096Y-11862190D01*
X11514096Y-11862190D02*
X11533143Y-11871714D01*
X11533143Y-11871714D02*
X11542667Y-11881238D01*
X11542667Y-11881238D02*
X11552191Y-11900286D01*
X11552191Y-11900286D02*
X11552191Y-11957428D01*
X11552191Y-11957428D02*
X11542667Y-11976476D01*
X11542667Y-11976476D02*
X11533143Y-11986000D01*
X11533143Y-11986000D02*
X11514096Y-11995524D01*
X11514096Y-11995524D02*
X11485524Y-11995524D01*
X11609334Y-11862190D02*
X11685524Y-11862190D01*
X11637905Y-11795524D02*
X11637905Y-11966952D01*
X11637905Y-11966952D02*
X11647429Y-11986000D01*
X11647429Y-11986000D02*
X11666477Y-11995524D01*
X11666477Y-11995524D02*
X11685524Y-11995524D01*
X11904572Y-11862190D02*
X11904572Y-12062190D01*
X11904572Y-11871714D02*
X11923619Y-11862190D01*
X11923619Y-11862190D02*
X11961715Y-11862190D01*
X11961715Y-11862190D02*
X11980762Y-11871714D01*
X11980762Y-11871714D02*
X11990286Y-11881238D01*
X11990286Y-11881238D02*
X11999810Y-11900286D01*
X11999810Y-11900286D02*
X11999810Y-11957428D01*
X11999810Y-11957428D02*
X11990286Y-11976476D01*
X11990286Y-11976476D02*
X11980762Y-11986000D01*
X11980762Y-11986000D02*
X11961715Y-11995524D01*
X11961715Y-11995524D02*
X11923619Y-11995524D01*
X11923619Y-11995524D02*
X11904572Y-11986000D01*
X12114096Y-11995524D02*
X12095048Y-11986000D01*
X12095048Y-11986000D02*
X12085524Y-11966952D01*
X12085524Y-11966952D02*
X12085524Y-11795524D01*
X12276000Y-11995524D02*
X12276000Y-11890762D01*
X12276000Y-11890762D02*
X12266477Y-11871714D01*
X12266477Y-11871714D02*
X12247429Y-11862190D01*
X12247429Y-11862190D02*
X12209334Y-11862190D01*
X12209334Y-11862190D02*
X12190286Y-11871714D01*
X12276000Y-11986000D02*
X12256953Y-11995524D01*
X12256953Y-11995524D02*
X12209334Y-11995524D01*
X12209334Y-11995524D02*
X12190286Y-11986000D01*
X12190286Y-11986000D02*
X12180762Y-11966952D01*
X12180762Y-11966952D02*
X12180762Y-11947905D01*
X12180762Y-11947905D02*
X12190286Y-11928857D01*
X12190286Y-11928857D02*
X12209334Y-11919333D01*
X12209334Y-11919333D02*
X12256953Y-11919333D01*
X12256953Y-11919333D02*
X12276000Y-11909809D01*
X12342667Y-11862190D02*
X12418858Y-11862190D01*
X12371239Y-11795524D02*
X12371239Y-11966952D01*
X12371239Y-11966952D02*
X12380762Y-11986000D01*
X12380762Y-11986000D02*
X12399810Y-11995524D01*
X12399810Y-11995524D02*
X12418858Y-11995524D01*
X12561715Y-11986000D02*
X12542667Y-11995524D01*
X12542667Y-11995524D02*
X12504572Y-11995524D01*
X12504572Y-11995524D02*
X12485524Y-11986000D01*
X12485524Y-11986000D02*
X12476000Y-11966952D01*
X12476000Y-11966952D02*
X12476000Y-11890762D01*
X12476000Y-11890762D02*
X12485524Y-11871714D01*
X12485524Y-11871714D02*
X12504572Y-11862190D01*
X12504572Y-11862190D02*
X12542667Y-11862190D01*
X12542667Y-11862190D02*
X12561715Y-11871714D01*
X12561715Y-11871714D02*
X12571239Y-11890762D01*
X12571239Y-11890762D02*
X12571239Y-11909809D01*
X12571239Y-11909809D02*
X12476000Y-11928857D01*
X12742667Y-11995524D02*
X12742667Y-11795524D01*
X12742667Y-11986000D02*
X12723620Y-11995524D01*
X12723620Y-11995524D02*
X12685524Y-11995524D01*
X12685524Y-11995524D02*
X12666477Y-11986000D01*
X12666477Y-11986000D02*
X12656953Y-11976476D01*
X12656953Y-11976476D02*
X12647429Y-11957428D01*
X12647429Y-11957428D02*
X12647429Y-11900286D01*
X12647429Y-11900286D02*
X12656953Y-11881238D01*
X12656953Y-11881238D02*
X12666477Y-11871714D01*
X12666477Y-11871714D02*
X12685524Y-11862190D01*
X12685524Y-11862190D02*
X12723620Y-11862190D01*
X12723620Y-11862190D02*
X12742667Y-11871714D01*
X12818858Y-12071714D02*
X12828381Y-12062190D01*
X12828381Y-12062190D02*
X12847429Y-12033619D01*
X12847429Y-12033619D02*
X12856953Y-12014571D01*
X12856953Y-12014571D02*
X12866477Y-11986000D01*
X12866477Y-11986000D02*
X12876000Y-11938381D01*
X12876000Y-11938381D02*
X12876000Y-11900286D01*
X12876000Y-11900286D02*
X12866477Y-11852667D01*
X12866477Y-11852667D02*
X12856953Y-11824095D01*
X12856953Y-11824095D02*
X12847429Y-11805048D01*
X12847429Y-11805048D02*
X12828381Y-11776476D01*
X12828381Y-11776476D02*
X12818858Y-11766952D01*
M02*
