%TF.GenerationSoftware,KiCad,Pcbnew,7.0.2*%
%TF.CreationDate,2024-05-08T22:38:03+07:00*%
%TF.ProjectId,multiport component tester,6d756c74-6970-46f7-9274-20636f6d706f,rev?*%
%TF.SameCoordinates,Original*%
%TF.FileFunction,Soldermask,Bot*%
%TF.FilePolarity,Negative*%
%FSLAX46Y46*%
G04 Gerber Fmt 4.6, Leading zero omitted, Abs format (unit mm)*
G04 Created by KiCad (PCBNEW 7.0.2) date 2024-05-08 22:38:03*
%MOMM*%
%LPD*%
G01*
G04 APERTURE LIST*
G04 Aperture macros list*
%AMRoundRect*
0 Rectangle with rounded corners*
0 $1 Rounding radius*
0 $2 $3 $4 $5 $6 $7 $8 $9 X,Y pos of 4 corners*
0 Add a 4 corners polygon primitive as box body*
4,1,4,$2,$3,$4,$5,$6,$7,$8,$9,$2,$3,0*
0 Add four circle primitives for the rounded corners*
1,1,$1+$1,$2,$3*
1,1,$1+$1,$4,$5*
1,1,$1+$1,$6,$7*
1,1,$1+$1,$8,$9*
0 Add four rect primitives between the rounded corners*
20,1,$1+$1,$2,$3,$4,$5,0*
20,1,$1+$1,$4,$5,$6,$7,0*
20,1,$1+$1,$6,$7,$8,$9,0*
20,1,$1+$1,$8,$9,$2,$3,0*%
%AMRotRect*
0 Rectangle, with rotation*
0 The origin of the aperture is its center*
0 $1 length*
0 $2 width*
0 $3 Rotation angle, in degrees counterclockwise*
0 Add horizontal line*
21,1,$1,$2,0,0,$3*%
G04 Aperture macros list end*
%ADD10RoundRect,0.102000X1.050000X-1.050000X1.050000X1.050000X-1.050000X1.050000X-1.050000X-1.050000X0*%
%ADD11C,2.304000*%
%ADD12R,1.800000X1.800000*%
%ADD13C,1.800000*%
%ADD14R,1.700000X1.700000*%
%ADD15O,1.700000X1.700000*%
%ADD16C,3.200000*%
%ADD17C,5.600000*%
%ADD18RoundRect,0.102000X-0.730000X-0.730000X0.730000X-0.730000X0.730000X0.730000X-0.730000X0.730000X0*%
%ADD19C,1.664000*%
%ADD20O,1.600000X2.000000*%
%ADD21RoundRect,0.250000X-0.097227X0.574524X-0.574524X0.097227X0.097227X-0.574524X0.574524X-0.097227X0*%
%ADD22RoundRect,0.250000X-0.565685X-0.070711X-0.070711X-0.565685X0.565685X0.070711X0.070711X0.565685X0*%
%ADD23RoundRect,0.250000X0.565685X0.070711X0.070711X0.565685X-0.565685X-0.070711X-0.070711X-0.565685X0*%
%ADD24RoundRect,0.190500X0.518309X-0.226274X-0.226274X0.518309X-0.518309X0.226274X0.226274X-0.518309X0*%
%ADD25C,0.710000*%
%ADD26R,1.350000X0.400000*%
%ADD27R,1.400000X1.600000*%
%ADD28R,1.900000X1.900000*%
%ADD29RoundRect,0.250000X-0.337500X-0.475000X0.337500X-0.475000X0.337500X0.475000X-0.337500X0.475000X0*%
%ADD30RoundRect,0.250000X0.097227X-0.574524X0.574524X-0.097227X-0.097227X0.574524X-0.574524X0.097227X0*%
%ADD31RoundRect,0.250000X0.070711X-0.565685X0.565685X-0.070711X-0.070711X0.565685X-0.565685X0.070711X0*%
%ADD32RotRect,1.600000X0.550000X225.000000*%
%ADD33RotRect,1.600000X0.550000X135.000000*%
%ADD34RoundRect,0.250000X-0.450000X0.350000X-0.450000X-0.350000X0.450000X-0.350000X0.450000X0.350000X0*%
%ADD35RoundRect,0.250000X-1.100000X0.412500X-1.100000X-0.412500X1.100000X-0.412500X1.100000X0.412500X0*%
G04 APERTURE END LIST*
%TO.C,MicroUSB1*%
G36*
X158625000Y-89530000D02*
G01*
X159280000Y-89530000D01*
X159311000Y-89531000D01*
X159342000Y-89533000D01*
X159373000Y-89537000D01*
X159404000Y-89543000D01*
X159434000Y-89550000D01*
X159464000Y-89559000D01*
X159493000Y-89570000D01*
X159522000Y-89581000D01*
X159550000Y-89595000D01*
X159577000Y-89610000D01*
X159604000Y-89626000D01*
X159630000Y-89644000D01*
X159654000Y-89663000D01*
X159678000Y-89683000D01*
X159701000Y-89704000D01*
X159722000Y-89727000D01*
X159742000Y-89751000D01*
X159761000Y-89775000D01*
X159779000Y-89801000D01*
X159795000Y-89828000D01*
X159810000Y-89855000D01*
X159824000Y-89883000D01*
X159835000Y-89912000D01*
X159846000Y-89941000D01*
X159855000Y-89971000D01*
X159862000Y-90001000D01*
X159868000Y-90032000D01*
X159872000Y-90063000D01*
X159874000Y-90094000D01*
X159875000Y-90125000D01*
X159875000Y-90185000D01*
X159877000Y-90223000D01*
X159878000Y-90256000D01*
X159876000Y-90289000D01*
X159872000Y-90322000D01*
X159867000Y-90355000D01*
X159860000Y-90387000D01*
X159851000Y-90419000D01*
X159841000Y-90450000D01*
X159828000Y-90481000D01*
X159814000Y-90511000D01*
X159799000Y-90540000D01*
X159781000Y-90568000D01*
X159763000Y-90595000D01*
X159742000Y-90621000D01*
X159721000Y-90646000D01*
X159698000Y-90670000D01*
X159673000Y-90692000D01*
X159648000Y-90713000D01*
X159621000Y-90733000D01*
X159594000Y-90751000D01*
X159565000Y-90768000D01*
X159536000Y-90783000D01*
X159506000Y-90796000D01*
X159475000Y-90807000D01*
X159443000Y-90817000D01*
X159411000Y-90825000D01*
X159379000Y-90832000D01*
X159346000Y-90836000D01*
X159313000Y-90839000D01*
X159280000Y-90840000D01*
X157970000Y-90840000D01*
X157939000Y-90839000D01*
X157908000Y-90837000D01*
X157877000Y-90833000D01*
X157846000Y-90827000D01*
X157816000Y-90820000D01*
X157786000Y-90811000D01*
X157757000Y-90800000D01*
X157728000Y-90789000D01*
X157700000Y-90775000D01*
X157673000Y-90760000D01*
X157646000Y-90744000D01*
X157620000Y-90726000D01*
X157596000Y-90707000D01*
X157572000Y-90687000D01*
X157549000Y-90666000D01*
X157528000Y-90643000D01*
X157508000Y-90619000D01*
X157489000Y-90595000D01*
X157471000Y-90569000D01*
X157455000Y-90543000D01*
X157440000Y-90515000D01*
X157426000Y-90487000D01*
X157415000Y-90458000D01*
X157404000Y-90429000D01*
X157395000Y-90399000D01*
X157388000Y-90369000D01*
X157382000Y-90338000D01*
X157378000Y-90307000D01*
X157376000Y-90276000D01*
X157375000Y-90245000D01*
X157375000Y-90204000D01*
X157675000Y-90204000D01*
X157677000Y-90222000D01*
X157679000Y-90241000D01*
X157683000Y-90259000D01*
X157687000Y-90277000D01*
X157692000Y-90295000D01*
X157699000Y-90312000D01*
X157706000Y-90329000D01*
X157714000Y-90346000D01*
X157723000Y-90363000D01*
X157732000Y-90378000D01*
X157743000Y-90394000D01*
X157754000Y-90408000D01*
X157766000Y-90423000D01*
X157779000Y-90436000D01*
X157792000Y-90449000D01*
X157807000Y-90461000D01*
X157821000Y-90472000D01*
X157837000Y-90483000D01*
X157853000Y-90492000D01*
X157869000Y-90501000D01*
X157886000Y-90509000D01*
X157903000Y-90516000D01*
X157920000Y-90523000D01*
X157938000Y-90528000D01*
X157956000Y-90532000D01*
X157974000Y-90536000D01*
X157993000Y-90538000D01*
X158011000Y-90540000D01*
X158030000Y-90540000D01*
X159220000Y-90540000D01*
X159239000Y-90540000D01*
X159257000Y-90538000D01*
X159276000Y-90536000D01*
X159294000Y-90532000D01*
X159312000Y-90528000D01*
X159330000Y-90523000D01*
X159347000Y-90516000D01*
X159364000Y-90509000D01*
X159381000Y-90501000D01*
X159397000Y-90492000D01*
X159413000Y-90483000D01*
X159429000Y-90472000D01*
X159443000Y-90461000D01*
X159458000Y-90449000D01*
X159471000Y-90436000D01*
X159484000Y-90423000D01*
X159496000Y-90408000D01*
X159507000Y-90394000D01*
X159518000Y-90378000D01*
X159527000Y-90363000D01*
X159536000Y-90346000D01*
X159544000Y-90329000D01*
X159551000Y-90312000D01*
X159558000Y-90295000D01*
X159563000Y-90277000D01*
X159567000Y-90259000D01*
X159571000Y-90241000D01*
X159573000Y-90222000D01*
X159575000Y-90204000D01*
X159575000Y-90185000D01*
X159575000Y-90166000D01*
X159573000Y-90148000D01*
X159571000Y-90129000D01*
X159567000Y-90111000D01*
X159563000Y-90093000D01*
X159558000Y-90075000D01*
X159551000Y-90058000D01*
X159544000Y-90041000D01*
X159536000Y-90024000D01*
X159527000Y-90008000D01*
X159518000Y-89992000D01*
X159507000Y-89976000D01*
X159496000Y-89962000D01*
X159484000Y-89947000D01*
X159471000Y-89934000D01*
X159458000Y-89921000D01*
X159443000Y-89909000D01*
X159429000Y-89898000D01*
X159413000Y-89887000D01*
X159397000Y-89878000D01*
X159381000Y-89869000D01*
X159364000Y-89861000D01*
X159347000Y-89854000D01*
X159330000Y-89847000D01*
X159312000Y-89842000D01*
X159294000Y-89838000D01*
X159276000Y-89834000D01*
X159257000Y-89832000D01*
X159239000Y-89830000D01*
X159220000Y-89830000D01*
X158625000Y-89830000D01*
X158030000Y-89830000D01*
X158011000Y-89830000D01*
X157993000Y-89832000D01*
X157974000Y-89834000D01*
X157956000Y-89838000D01*
X157938000Y-89842000D01*
X157920000Y-89847000D01*
X157903000Y-89854000D01*
X157886000Y-89861000D01*
X157869000Y-89869000D01*
X157853000Y-89878000D01*
X157837000Y-89887000D01*
X157821000Y-89898000D01*
X157807000Y-89909000D01*
X157792000Y-89921000D01*
X157779000Y-89934000D01*
X157766000Y-89947000D01*
X157754000Y-89962000D01*
X157743000Y-89976000D01*
X157732000Y-89992000D01*
X157723000Y-90008000D01*
X157714000Y-90024000D01*
X157706000Y-90041000D01*
X157699000Y-90058000D01*
X157692000Y-90075000D01*
X157687000Y-90093000D01*
X157683000Y-90111000D01*
X157679000Y-90129000D01*
X157677000Y-90148000D01*
X157675000Y-90166000D01*
X157675000Y-90185000D01*
X157675000Y-90204000D01*
X157375000Y-90204000D01*
X157375000Y-90125000D01*
X157376000Y-90094000D01*
X157378000Y-90063000D01*
X157382000Y-90032000D01*
X157388000Y-90001000D01*
X157395000Y-89971000D01*
X157404000Y-89941000D01*
X157415000Y-89912000D01*
X157426000Y-89883000D01*
X157440000Y-89855000D01*
X157455000Y-89828000D01*
X157471000Y-89801000D01*
X157489000Y-89775000D01*
X157508000Y-89751000D01*
X157528000Y-89727000D01*
X157549000Y-89704000D01*
X157572000Y-89683000D01*
X157596000Y-89663000D01*
X157620000Y-89644000D01*
X157646000Y-89626000D01*
X157673000Y-89610000D01*
X157700000Y-89595000D01*
X157728000Y-89581000D01*
X157757000Y-89570000D01*
X157786000Y-89559000D01*
X157816000Y-89550000D01*
X157846000Y-89543000D01*
X157877000Y-89537000D01*
X157908000Y-89533000D01*
X157939000Y-89531000D01*
X157970000Y-89530000D01*
X158625000Y-89530000D01*
G37*
G36*
X158625000Y-96040000D02*
G01*
X159280000Y-96040000D01*
X159311000Y-96041000D01*
X159342000Y-96043000D01*
X159373000Y-96047000D01*
X159404000Y-96053000D01*
X159434000Y-96060000D01*
X159464000Y-96069000D01*
X159493000Y-96080000D01*
X159522000Y-96091000D01*
X159550000Y-96105000D01*
X159577000Y-96120000D01*
X159604000Y-96136000D01*
X159630000Y-96154000D01*
X159654000Y-96173000D01*
X159678000Y-96193000D01*
X159701000Y-96214000D01*
X159722000Y-96237000D01*
X159742000Y-96261000D01*
X159761000Y-96285000D01*
X159779000Y-96311000D01*
X159795000Y-96337000D01*
X159810000Y-96365000D01*
X159824000Y-96393000D01*
X159835000Y-96422000D01*
X159846000Y-96451000D01*
X159855000Y-96481000D01*
X159862000Y-96511000D01*
X159868000Y-96542000D01*
X159872000Y-96573000D01*
X159874000Y-96604000D01*
X159875000Y-96635000D01*
X159875000Y-96695000D01*
X159877000Y-96733000D01*
X159878000Y-96766000D01*
X159876000Y-96799000D01*
X159872000Y-96832000D01*
X159867000Y-96865000D01*
X159860000Y-96897000D01*
X159851000Y-96929000D01*
X159841000Y-96960000D01*
X159828000Y-96991000D01*
X159814000Y-97021000D01*
X159799000Y-97050000D01*
X159781000Y-97078000D01*
X159763000Y-97105000D01*
X159742000Y-97131000D01*
X159721000Y-97156000D01*
X159698000Y-97180000D01*
X159673000Y-97202000D01*
X159648000Y-97223000D01*
X159621000Y-97243000D01*
X159594000Y-97261000D01*
X159565000Y-97278000D01*
X159536000Y-97293000D01*
X159506000Y-97306000D01*
X159475000Y-97317000D01*
X159443000Y-97327000D01*
X159411000Y-97335000D01*
X159379000Y-97342000D01*
X159346000Y-97346000D01*
X159313000Y-97349000D01*
X159280000Y-97350000D01*
X157970000Y-97350000D01*
X157939000Y-97349000D01*
X157908000Y-97347000D01*
X157877000Y-97343000D01*
X157846000Y-97337000D01*
X157816000Y-97330000D01*
X157786000Y-97321000D01*
X157757000Y-97310000D01*
X157728000Y-97299000D01*
X157700000Y-97285000D01*
X157673000Y-97270000D01*
X157646000Y-97254000D01*
X157620000Y-97236000D01*
X157596000Y-97217000D01*
X157572000Y-97197000D01*
X157549000Y-97176000D01*
X157528000Y-97153000D01*
X157508000Y-97129000D01*
X157489000Y-97105000D01*
X157471000Y-97079000D01*
X157455000Y-97053000D01*
X157440000Y-97025000D01*
X157426000Y-96997000D01*
X157415000Y-96968000D01*
X157404000Y-96939000D01*
X157395000Y-96909000D01*
X157388000Y-96879000D01*
X157382000Y-96848000D01*
X157378000Y-96817000D01*
X157376000Y-96786000D01*
X157375000Y-96755000D01*
X157375000Y-96714000D01*
X157675000Y-96714000D01*
X157677000Y-96732000D01*
X157679000Y-96751000D01*
X157683000Y-96769000D01*
X157687000Y-96787000D01*
X157692000Y-96805000D01*
X157699000Y-96822000D01*
X157706000Y-96839000D01*
X157714000Y-96856000D01*
X157723000Y-96873000D01*
X157732000Y-96888000D01*
X157743000Y-96904000D01*
X157754000Y-96918000D01*
X157766000Y-96933000D01*
X157779000Y-96946000D01*
X157792000Y-96959000D01*
X157807000Y-96971000D01*
X157821000Y-96982000D01*
X157837000Y-96993000D01*
X157853000Y-97002000D01*
X157869000Y-97011000D01*
X157886000Y-97019000D01*
X157903000Y-97026000D01*
X157920000Y-97033000D01*
X157938000Y-97038000D01*
X157956000Y-97042000D01*
X157974000Y-97046000D01*
X157993000Y-97048000D01*
X158011000Y-97050000D01*
X158030000Y-97050000D01*
X159220000Y-97050000D01*
X159239000Y-97050000D01*
X159257000Y-97048000D01*
X159276000Y-97046000D01*
X159294000Y-97042000D01*
X159312000Y-97038000D01*
X159330000Y-97033000D01*
X159347000Y-97026000D01*
X159364000Y-97019000D01*
X159381000Y-97011000D01*
X159397000Y-97002000D01*
X159413000Y-96993000D01*
X159429000Y-96982000D01*
X159443000Y-96971000D01*
X159458000Y-96959000D01*
X159471000Y-96946000D01*
X159484000Y-96933000D01*
X159496000Y-96918000D01*
X159507000Y-96904000D01*
X159518000Y-96888000D01*
X159527000Y-96873000D01*
X159536000Y-96856000D01*
X159544000Y-96839000D01*
X159551000Y-96822000D01*
X159558000Y-96805000D01*
X159563000Y-96787000D01*
X159567000Y-96769000D01*
X159571000Y-96751000D01*
X159573000Y-96732000D01*
X159575000Y-96714000D01*
X159575000Y-96695000D01*
X159575000Y-96676000D01*
X159573000Y-96658000D01*
X159571000Y-96639000D01*
X159567000Y-96621000D01*
X159563000Y-96603000D01*
X159558000Y-96585000D01*
X159551000Y-96568000D01*
X159544000Y-96551000D01*
X159536000Y-96534000D01*
X159527000Y-96518000D01*
X159518000Y-96502000D01*
X159507000Y-96486000D01*
X159496000Y-96472000D01*
X159484000Y-96457000D01*
X159471000Y-96444000D01*
X159458000Y-96431000D01*
X159443000Y-96419000D01*
X159429000Y-96408000D01*
X159413000Y-96397000D01*
X159397000Y-96388000D01*
X159381000Y-96379000D01*
X159364000Y-96371000D01*
X159347000Y-96364000D01*
X159330000Y-96357000D01*
X159312000Y-96352000D01*
X159294000Y-96348000D01*
X159276000Y-96344000D01*
X159257000Y-96342000D01*
X159239000Y-96340000D01*
X159220000Y-96340000D01*
X158625000Y-96340000D01*
X158030000Y-96340000D01*
X158011000Y-96340000D01*
X157993000Y-96342000D01*
X157974000Y-96344000D01*
X157956000Y-96348000D01*
X157938000Y-96352000D01*
X157920000Y-96357000D01*
X157903000Y-96364000D01*
X157886000Y-96371000D01*
X157869000Y-96379000D01*
X157853000Y-96388000D01*
X157837000Y-96397000D01*
X157821000Y-96408000D01*
X157807000Y-96419000D01*
X157792000Y-96431000D01*
X157779000Y-96444000D01*
X157766000Y-96457000D01*
X157754000Y-96472000D01*
X157743000Y-96486000D01*
X157732000Y-96502000D01*
X157723000Y-96518000D01*
X157714000Y-96534000D01*
X157706000Y-96551000D01*
X157699000Y-96568000D01*
X157692000Y-96585000D01*
X157687000Y-96603000D01*
X157683000Y-96621000D01*
X157679000Y-96639000D01*
X157677000Y-96658000D01*
X157675000Y-96676000D01*
X157675000Y-96695000D01*
X157675000Y-96714000D01*
X157375000Y-96714000D01*
X157375000Y-96635000D01*
X157376000Y-96604000D01*
X157378000Y-96573000D01*
X157382000Y-96542000D01*
X157388000Y-96511000D01*
X157395000Y-96481000D01*
X157404000Y-96451000D01*
X157415000Y-96422000D01*
X157426000Y-96393000D01*
X157440000Y-96365000D01*
X157455000Y-96337000D01*
X157471000Y-96311000D01*
X157489000Y-96285000D01*
X157508000Y-96261000D01*
X157528000Y-96237000D01*
X157549000Y-96214000D01*
X157572000Y-96193000D01*
X157596000Y-96173000D01*
X157620000Y-96154000D01*
X157646000Y-96136000D01*
X157673000Y-96120000D01*
X157700000Y-96105000D01*
X157728000Y-96091000D01*
X157757000Y-96080000D01*
X157786000Y-96069000D01*
X157816000Y-96060000D01*
X157846000Y-96053000D01*
X157877000Y-96047000D01*
X157908000Y-96043000D01*
X157939000Y-96041000D01*
X157970000Y-96040000D01*
X158625000Y-96040000D01*
G37*
%TD*%
D10*
%TO.C,S2*%
X146540000Y-99690000D03*
D11*
X146540000Y-87190000D03*
X151540000Y-99690000D03*
X151540000Y-87190000D03*
%TD*%
D12*
%TO.C,J2*%
X97280000Y-103820000D03*
D13*
X99820000Y-103820000D03*
X102360000Y-103820000D03*
X104900000Y-103820000D03*
X107440000Y-103820000D03*
%TD*%
D14*
%TO.C,J1*%
X97280000Y-96230000D03*
D15*
X97280000Y-98770000D03*
X99820000Y-96230000D03*
X99820000Y-98770000D03*
X102360000Y-96230000D03*
X102360000Y-98770000D03*
X104900000Y-96230000D03*
X104900000Y-98770000D03*
X107440000Y-96230000D03*
X107440000Y-98770000D03*
%TD*%
D16*
%TO.C,H1*%
X157285000Y-80365000D03*
%TD*%
D17*
%TO.C,J3*%
X64260000Y-80390000D03*
%TD*%
%TO.C,J4*%
X64260000Y-106490000D03*
%TD*%
D16*
%TO.C,H2*%
X157285000Y-106515000D03*
%TD*%
D18*
%TO.C,Zif1*%
X84800000Y-90820000D03*
D19*
X87340000Y-90820000D03*
X89880000Y-90820000D03*
X92420000Y-90820000D03*
X94960000Y-90820000D03*
X97500000Y-90820000D03*
X100040000Y-90820000D03*
X100040000Y-83200000D03*
X97500000Y-83200000D03*
X94960000Y-83200000D03*
X92420000Y-83200000D03*
X89880000Y-83200000D03*
X87340000Y-83200000D03*
X84800000Y-83200000D03*
%TD*%
D20*
%TO.C,OLED1*%
X119340000Y-81490000D03*
X121880000Y-81490000D03*
X124420000Y-81490000D03*
X126960000Y-81490000D03*
%TD*%
D21*
%TO.C,C3*%
X117220000Y-99350000D03*
X115752754Y-100817246D03*
%TD*%
D22*
%TO.C,R3*%
X115355786Y-86555786D03*
X116770000Y-87970000D03*
%TD*%
D23*
%TO.C,R6*%
X130714214Y-100764214D03*
X129300000Y-99350000D03*
%TD*%
D24*
%TO.C,U2*%
X115290000Y-89420000D03*
X113946497Y-90763503D03*
X113119182Y-88592685D03*
%TD*%
D25*
%TO.C,MicroUSB1*%
X158625000Y-90185000D03*
X158625000Y-96695000D03*
D26*
X155950000Y-92140000D03*
X155950000Y-92790000D03*
X155950000Y-93440000D03*
X155950000Y-94090000D03*
X155950000Y-94740000D03*
D27*
X156175000Y-96640000D03*
X156175000Y-90240000D03*
D28*
X158625000Y-92240000D03*
X158625000Y-94640000D03*
%TD*%
D23*
%TO.C,R5*%
X132274214Y-99204214D03*
X130860000Y-97790000D03*
%TD*%
D29*
%TO.C,C6*%
X135802500Y-96370000D03*
X137877500Y-96370000D03*
%TD*%
%TO.C,C5*%
X135802500Y-93970000D03*
X137877500Y-93970000D03*
%TD*%
D23*
%TO.C,R8*%
X127574214Y-103904214D03*
X126160000Y-102490000D03*
%TD*%
D30*
%TO.C,C1*%
X128650000Y-86960000D03*
X130117246Y-85492754D03*
%TD*%
D31*
%TO.C,R2*%
X131850000Y-90110000D03*
X133264214Y-88695786D03*
%TD*%
D32*
%TO.C,U1*%
X124285305Y-88454897D03*
X124850990Y-89020583D03*
X125416676Y-89586268D03*
X125982361Y-90151953D03*
X126548047Y-90717639D03*
X127113732Y-91283324D03*
X127679417Y-91849010D03*
X128245103Y-92414695D03*
D33*
X128245103Y-94465305D03*
X127679417Y-95030990D03*
X127113732Y-95596676D03*
X126548047Y-96162361D03*
X125982361Y-96728047D03*
X125416676Y-97293732D03*
X124850990Y-97859417D03*
X124285305Y-98425103D03*
D32*
X122234695Y-98425103D03*
X121669010Y-97859417D03*
X121103324Y-97293732D03*
X120537639Y-96728047D03*
X119971953Y-96162361D03*
X119406268Y-95596676D03*
X118840583Y-95030990D03*
X118274897Y-94465305D03*
D33*
X118274897Y-92414695D03*
X118840583Y-91849010D03*
X119406268Y-91283324D03*
X119971953Y-90717639D03*
X120537639Y-90151953D03*
X121103324Y-89586268D03*
X121669010Y-89020583D03*
X122234695Y-88454897D03*
%TD*%
D23*
%TO.C,R7*%
X129154214Y-102334214D03*
X127740000Y-100920000D03*
%TD*%
D31*
%TO.C,R10*%
X117375786Y-102354214D03*
X118790000Y-100940000D03*
%TD*%
D14*
%TO.C,ICSP1*%
X143750000Y-105735000D03*
D15*
X143750000Y-103195000D03*
X141210000Y-105735000D03*
X141210000Y-103195000D03*
X138670000Y-105735000D03*
X138670000Y-103195000D03*
%TD*%
D31*
%TO.C,R9*%
X118925786Y-103914214D03*
X120340000Y-102500000D03*
%TD*%
D22*
%TO.C,R1*%
X116905786Y-85005786D03*
X118320000Y-86420000D03*
%TD*%
D34*
%TO.C,R4*%
X146540000Y-92440000D03*
X146540000Y-94440000D03*
%TD*%
D35*
%TO.C,C4*%
X151540000Y-91877500D03*
X151540000Y-95002500D03*
%TD*%
D30*
%TO.C,C2*%
X130246377Y-88573623D03*
X131713623Y-87106377D03*
%TD*%
M02*
