%TF.GenerationSoftware,KiCad,Pcbnew,7.0.2*%
%TF.CreationDate,2024-05-08T22:38:03+07:00*%
%TF.ProjectId,multiport component tester,6d756c74-6970-46f7-9274-20636f6d706f,rev?*%
%TF.SameCoordinates,Original*%
%TF.FileFunction,Paste,Top*%
%TF.FilePolarity,Positive*%
%FSLAX46Y46*%
G04 Gerber Fmt 4.6, Leading zero omitted, Abs format (unit mm)*
G04 Created by KiCad (PCBNEW 7.0.2) date 2024-05-08 22:38:03*
%MOMM*%
%LPD*%
G01*
G04 APERTURE LIST*
G04 Aperture macros list*
%AMRoundRect*
0 Rectangle with rounded corners*
0 $1 Rounding radius*
0 $2 $3 $4 $5 $6 $7 $8 $9 X,Y pos of 4 corners*
0 Add a 4 corners polygon primitive as box body*
4,1,4,$2,$3,$4,$5,$6,$7,$8,$9,$2,$3,0*
0 Add four circle primitives for the rounded corners*
1,1,$1+$1,$2,$3*
1,1,$1+$1,$4,$5*
1,1,$1+$1,$6,$7*
1,1,$1+$1,$8,$9*
0 Add four rect primitives between the rounded corners*
20,1,$1+$1,$2,$3,$4,$5,0*
20,1,$1+$1,$4,$5,$6,$7,0*
20,1,$1+$1,$6,$7,$8,$9,0*
20,1,$1+$1,$8,$9,$2,$3,0*%
%AMFreePoly0*
4,1,57,2.353549,2.201653,2.542938,2.144203,2.717479,2.050909,2.870466,1.925356,2.996019,1.772369,3.089313,1.597828,3.146763,1.408439,3.166162,1.211482,3.166162,-1.211482,3.158809,-1.286136,3.158809,-1.962069,3.158915,-1.962215,3.158915,-2.024019,3.158809,-2.024164,3.158809,-2.813117,3.153915,-2.828179,3.153915,-2.844019,3.144605,-2.856832,3.139711,-2.871896,3.126897,-2.881205,
3.117588,-2.894019,3.102524,-2.898913,3.089711,-2.908223,3.073872,-2.908223,3.058809,-2.913117,0.828809,-2.913117,0.813746,-2.908223,0.797907,-2.908223,0.785093,-2.898913,0.770030,-2.894019,0.760720,-2.881205,0.747907,-2.871896,0.743012,-2.856832,0.733703,-2.844019,0.733703,-2.828179,0.728809,-2.813117,0.728809,-2.221052,-2.156592,-2.221052,-2.353549,-2.201653,-2.542938,-2.144203,
-2.717479,-2.050909,-2.870466,-1.925356,-2.996019,-1.772369,-3.089313,-1.597828,-3.146763,-1.408439,-3.166162,-1.211482,-3.166162,1.211482,-3.146763,1.408439,-3.089313,1.597828,-2.996019,1.772369,-2.870466,1.925356,-2.717479,2.050909,-2.542938,2.144203,-2.353549,2.201653,-2.156592,2.221052,2.156592,2.221052,2.353549,2.201653,2.353549,2.201653,$1*%
%AMFreePoly1*
4,1,66,3.080057,2.911312,3.095896,2.911312,3.108709,2.902002,3.123773,2.897108,3.133082,2.884294,3.145896,2.874985,3.150790,2.859921,3.160100,2.847108,3.160100,2.831268,3.164994,2.816206,3.164994,1.236206,3.162953,1.229926,3.164993,1.206987,3.164994,-1.206988,3.149218,-1.384435,3.093231,-1.580098,2.999005,-1.760486,2.870395,-1.918214,2.712667,-2.046824,2.532279,-2.141050,
2.336616,-2.197037,2.159168,-2.212812,0.000007,-2.212812,0.000000,-2.212813,-0.000007,-2.212812,-2.159169,-2.212813,-2.336616,-2.197037,-2.532279,-2.141050,-2.712667,-2.046824,-2.870395,-1.918214,-2.999005,-1.760486,-3.093231,-1.580098,-3.149218,-1.384435,-3.164993,-1.206987,-3.164994,1.206988,-3.149218,1.384435,-3.093231,1.580098,-2.999005,1.760486,-2.961725,1.806206,2.961725,1.806206,
2.964994,1.802197,2.964994,1.806206,2.961725,1.806206,-2.961725,1.806206,-2.870395,1.918214,-2.712667,2.046824,-2.532279,2.141050,-2.336616,2.197037,-2.159168,2.212812,-0.000015,2.212812,0.000000,2.212813,0.000015,2.212812,0.734994,2.212812,0.734994,2.816206,0.739888,2.831268,0.739888,2.847108,0.749197,2.859921,0.754092,2.874985,0.766905,2.884294,0.776215,2.897108,
0.791278,2.902002,0.804092,2.911312,0.819931,2.911312,0.834994,2.916206,3.064994,2.916206,3.080057,2.911312,3.080057,2.911312,$1*%
G04 Aperture macros list end*
%ADD10R,2.000000X4.500000*%
%ADD11RoundRect,0.250000X0.325000X0.450000X-0.325000X0.450000X-0.325000X-0.450000X0.325000X-0.450000X0*%
%ADD12FreePoly0,180.000000*%
%ADD13RoundRect,0.250000X1.500000X0.300000X-1.500000X0.300000X-1.500000X-0.300000X1.500000X-0.300000X0*%
%ADD14RoundRect,0.250000X2.025000X2.375000X-2.025000X2.375000X-2.025000X-2.375000X2.025000X-2.375000X0*%
%ADD15FreePoly1,180.000000*%
G04 APERTURE END LIST*
%TO.C,MicroUSB1*%
G36*
X158625000Y-89530000D02*
G01*
X159280000Y-89530000D01*
X159311000Y-89531000D01*
X159342000Y-89533000D01*
X159373000Y-89537000D01*
X159404000Y-89543000D01*
X159434000Y-89550000D01*
X159464000Y-89559000D01*
X159493000Y-89570000D01*
X159522000Y-89581000D01*
X159550000Y-89595000D01*
X159577000Y-89610000D01*
X159604000Y-89626000D01*
X159630000Y-89644000D01*
X159654000Y-89663000D01*
X159678000Y-89683000D01*
X159701000Y-89704000D01*
X159722000Y-89727000D01*
X159742000Y-89751000D01*
X159761000Y-89775000D01*
X159779000Y-89801000D01*
X159795000Y-89828000D01*
X159810000Y-89855000D01*
X159824000Y-89883000D01*
X159835000Y-89912000D01*
X159846000Y-89941000D01*
X159855000Y-89971000D01*
X159862000Y-90001000D01*
X159868000Y-90032000D01*
X159872000Y-90063000D01*
X159874000Y-90094000D01*
X159875000Y-90125000D01*
X159875000Y-90185000D01*
X159877000Y-90223000D01*
X159878000Y-90256000D01*
X159876000Y-90289000D01*
X159872000Y-90322000D01*
X159867000Y-90355000D01*
X159860000Y-90387000D01*
X159851000Y-90419000D01*
X159841000Y-90450000D01*
X159828000Y-90481000D01*
X159814000Y-90511000D01*
X159799000Y-90540000D01*
X159781000Y-90568000D01*
X159763000Y-90595000D01*
X159742000Y-90621000D01*
X159721000Y-90646000D01*
X159698000Y-90670000D01*
X159673000Y-90692000D01*
X159648000Y-90713000D01*
X159621000Y-90733000D01*
X159594000Y-90751000D01*
X159565000Y-90768000D01*
X159536000Y-90783000D01*
X159506000Y-90796000D01*
X159475000Y-90807000D01*
X159443000Y-90817000D01*
X159411000Y-90825000D01*
X159379000Y-90832000D01*
X159346000Y-90836000D01*
X159313000Y-90839000D01*
X159280000Y-90840000D01*
X157970000Y-90840000D01*
X157939000Y-90839000D01*
X157908000Y-90837000D01*
X157877000Y-90833000D01*
X157846000Y-90827000D01*
X157816000Y-90820000D01*
X157786000Y-90811000D01*
X157757000Y-90800000D01*
X157728000Y-90789000D01*
X157700000Y-90775000D01*
X157673000Y-90760000D01*
X157646000Y-90744000D01*
X157620000Y-90726000D01*
X157596000Y-90707000D01*
X157572000Y-90687000D01*
X157549000Y-90666000D01*
X157528000Y-90643000D01*
X157508000Y-90619000D01*
X157489000Y-90595000D01*
X157471000Y-90569000D01*
X157455000Y-90543000D01*
X157440000Y-90515000D01*
X157426000Y-90487000D01*
X157415000Y-90458000D01*
X157404000Y-90429000D01*
X157395000Y-90399000D01*
X157388000Y-90369000D01*
X157382000Y-90338000D01*
X157378000Y-90307000D01*
X157376000Y-90276000D01*
X157375000Y-90245000D01*
X157375000Y-90204000D01*
X157675000Y-90204000D01*
X157677000Y-90222000D01*
X157679000Y-90241000D01*
X157683000Y-90259000D01*
X157687000Y-90277000D01*
X157692000Y-90295000D01*
X157699000Y-90312000D01*
X157706000Y-90329000D01*
X157714000Y-90346000D01*
X157723000Y-90363000D01*
X157732000Y-90378000D01*
X157743000Y-90394000D01*
X157754000Y-90408000D01*
X157766000Y-90423000D01*
X157779000Y-90436000D01*
X157792000Y-90449000D01*
X157807000Y-90461000D01*
X157821000Y-90472000D01*
X157837000Y-90483000D01*
X157853000Y-90492000D01*
X157869000Y-90501000D01*
X157886000Y-90509000D01*
X157903000Y-90516000D01*
X157920000Y-90523000D01*
X157938000Y-90528000D01*
X157956000Y-90532000D01*
X157974000Y-90536000D01*
X157993000Y-90538000D01*
X158011000Y-90540000D01*
X158030000Y-90540000D01*
X159220000Y-90540000D01*
X159239000Y-90540000D01*
X159257000Y-90538000D01*
X159276000Y-90536000D01*
X159294000Y-90532000D01*
X159312000Y-90528000D01*
X159330000Y-90523000D01*
X159347000Y-90516000D01*
X159364000Y-90509000D01*
X159381000Y-90501000D01*
X159397000Y-90492000D01*
X159413000Y-90483000D01*
X159429000Y-90472000D01*
X159443000Y-90461000D01*
X159458000Y-90449000D01*
X159471000Y-90436000D01*
X159484000Y-90423000D01*
X159496000Y-90408000D01*
X159507000Y-90394000D01*
X159518000Y-90378000D01*
X159527000Y-90363000D01*
X159536000Y-90346000D01*
X159544000Y-90329000D01*
X159551000Y-90312000D01*
X159558000Y-90295000D01*
X159563000Y-90277000D01*
X159567000Y-90259000D01*
X159571000Y-90241000D01*
X159573000Y-90222000D01*
X159575000Y-90204000D01*
X159575000Y-90185000D01*
X159575000Y-90166000D01*
X159573000Y-90148000D01*
X159571000Y-90129000D01*
X159567000Y-90111000D01*
X159563000Y-90093000D01*
X159558000Y-90075000D01*
X159551000Y-90058000D01*
X159544000Y-90041000D01*
X159536000Y-90024000D01*
X159527000Y-90008000D01*
X159518000Y-89992000D01*
X159507000Y-89976000D01*
X159496000Y-89962000D01*
X159484000Y-89947000D01*
X159471000Y-89934000D01*
X159458000Y-89921000D01*
X159443000Y-89909000D01*
X159429000Y-89898000D01*
X159413000Y-89887000D01*
X159397000Y-89878000D01*
X159381000Y-89869000D01*
X159364000Y-89861000D01*
X159347000Y-89854000D01*
X159330000Y-89847000D01*
X159312000Y-89842000D01*
X159294000Y-89838000D01*
X159276000Y-89834000D01*
X159257000Y-89832000D01*
X159239000Y-89830000D01*
X159220000Y-89830000D01*
X158625000Y-89830000D01*
X158030000Y-89830000D01*
X158011000Y-89830000D01*
X157993000Y-89832000D01*
X157974000Y-89834000D01*
X157956000Y-89838000D01*
X157938000Y-89842000D01*
X157920000Y-89847000D01*
X157903000Y-89854000D01*
X157886000Y-89861000D01*
X157869000Y-89869000D01*
X157853000Y-89878000D01*
X157837000Y-89887000D01*
X157821000Y-89898000D01*
X157807000Y-89909000D01*
X157792000Y-89921000D01*
X157779000Y-89934000D01*
X157766000Y-89947000D01*
X157754000Y-89962000D01*
X157743000Y-89976000D01*
X157732000Y-89992000D01*
X157723000Y-90008000D01*
X157714000Y-90024000D01*
X157706000Y-90041000D01*
X157699000Y-90058000D01*
X157692000Y-90075000D01*
X157687000Y-90093000D01*
X157683000Y-90111000D01*
X157679000Y-90129000D01*
X157677000Y-90148000D01*
X157675000Y-90166000D01*
X157675000Y-90185000D01*
X157675000Y-90204000D01*
X157375000Y-90204000D01*
X157375000Y-90125000D01*
X157376000Y-90094000D01*
X157378000Y-90063000D01*
X157382000Y-90032000D01*
X157388000Y-90001000D01*
X157395000Y-89971000D01*
X157404000Y-89941000D01*
X157415000Y-89912000D01*
X157426000Y-89883000D01*
X157440000Y-89855000D01*
X157455000Y-89828000D01*
X157471000Y-89801000D01*
X157489000Y-89775000D01*
X157508000Y-89751000D01*
X157528000Y-89727000D01*
X157549000Y-89704000D01*
X157572000Y-89683000D01*
X157596000Y-89663000D01*
X157620000Y-89644000D01*
X157646000Y-89626000D01*
X157673000Y-89610000D01*
X157700000Y-89595000D01*
X157728000Y-89581000D01*
X157757000Y-89570000D01*
X157786000Y-89559000D01*
X157816000Y-89550000D01*
X157846000Y-89543000D01*
X157877000Y-89537000D01*
X157908000Y-89533000D01*
X157939000Y-89531000D01*
X157970000Y-89530000D01*
X158625000Y-89530000D01*
G37*
G36*
X158625000Y-96040000D02*
G01*
X159280000Y-96040000D01*
X159311000Y-96041000D01*
X159342000Y-96043000D01*
X159373000Y-96047000D01*
X159404000Y-96053000D01*
X159434000Y-96060000D01*
X159464000Y-96069000D01*
X159493000Y-96080000D01*
X159522000Y-96091000D01*
X159550000Y-96105000D01*
X159577000Y-96120000D01*
X159604000Y-96136000D01*
X159630000Y-96154000D01*
X159654000Y-96173000D01*
X159678000Y-96193000D01*
X159701000Y-96214000D01*
X159722000Y-96237000D01*
X159742000Y-96261000D01*
X159761000Y-96285000D01*
X159779000Y-96311000D01*
X159795000Y-96337000D01*
X159810000Y-96365000D01*
X159824000Y-96393000D01*
X159835000Y-96422000D01*
X159846000Y-96451000D01*
X159855000Y-96481000D01*
X159862000Y-96511000D01*
X159868000Y-96542000D01*
X159872000Y-96573000D01*
X159874000Y-96604000D01*
X159875000Y-96635000D01*
X159875000Y-96695000D01*
X159877000Y-96733000D01*
X159878000Y-96766000D01*
X159876000Y-96799000D01*
X159872000Y-96832000D01*
X159867000Y-96865000D01*
X159860000Y-96897000D01*
X159851000Y-96929000D01*
X159841000Y-96960000D01*
X159828000Y-96991000D01*
X159814000Y-97021000D01*
X159799000Y-97050000D01*
X159781000Y-97078000D01*
X159763000Y-97105000D01*
X159742000Y-97131000D01*
X159721000Y-97156000D01*
X159698000Y-97180000D01*
X159673000Y-97202000D01*
X159648000Y-97223000D01*
X159621000Y-97243000D01*
X159594000Y-97261000D01*
X159565000Y-97278000D01*
X159536000Y-97293000D01*
X159506000Y-97306000D01*
X159475000Y-97317000D01*
X159443000Y-97327000D01*
X159411000Y-97335000D01*
X159379000Y-97342000D01*
X159346000Y-97346000D01*
X159313000Y-97349000D01*
X159280000Y-97350000D01*
X157970000Y-97350000D01*
X157939000Y-97349000D01*
X157908000Y-97347000D01*
X157877000Y-97343000D01*
X157846000Y-97337000D01*
X157816000Y-97330000D01*
X157786000Y-97321000D01*
X157757000Y-97310000D01*
X157728000Y-97299000D01*
X157700000Y-97285000D01*
X157673000Y-97270000D01*
X157646000Y-97254000D01*
X157620000Y-97236000D01*
X157596000Y-97217000D01*
X157572000Y-97197000D01*
X157549000Y-97176000D01*
X157528000Y-97153000D01*
X157508000Y-97129000D01*
X157489000Y-97105000D01*
X157471000Y-97079000D01*
X157455000Y-97053000D01*
X157440000Y-97025000D01*
X157426000Y-96997000D01*
X157415000Y-96968000D01*
X157404000Y-96939000D01*
X157395000Y-96909000D01*
X157388000Y-96879000D01*
X157382000Y-96848000D01*
X157378000Y-96817000D01*
X157376000Y-96786000D01*
X157375000Y-96755000D01*
X157375000Y-96714000D01*
X157675000Y-96714000D01*
X157677000Y-96732000D01*
X157679000Y-96751000D01*
X157683000Y-96769000D01*
X157687000Y-96787000D01*
X157692000Y-96805000D01*
X157699000Y-96822000D01*
X157706000Y-96839000D01*
X157714000Y-96856000D01*
X157723000Y-96873000D01*
X157732000Y-96888000D01*
X157743000Y-96904000D01*
X157754000Y-96918000D01*
X157766000Y-96933000D01*
X157779000Y-96946000D01*
X157792000Y-96959000D01*
X157807000Y-96971000D01*
X157821000Y-96982000D01*
X157837000Y-96993000D01*
X157853000Y-97002000D01*
X157869000Y-97011000D01*
X157886000Y-97019000D01*
X157903000Y-97026000D01*
X157920000Y-97033000D01*
X157938000Y-97038000D01*
X157956000Y-97042000D01*
X157974000Y-97046000D01*
X157993000Y-97048000D01*
X158011000Y-97050000D01*
X158030000Y-97050000D01*
X159220000Y-97050000D01*
X159239000Y-97050000D01*
X159257000Y-97048000D01*
X159276000Y-97046000D01*
X159294000Y-97042000D01*
X159312000Y-97038000D01*
X159330000Y-97033000D01*
X159347000Y-97026000D01*
X159364000Y-97019000D01*
X159381000Y-97011000D01*
X159397000Y-97002000D01*
X159413000Y-96993000D01*
X159429000Y-96982000D01*
X159443000Y-96971000D01*
X159458000Y-96959000D01*
X159471000Y-96946000D01*
X159484000Y-96933000D01*
X159496000Y-96918000D01*
X159507000Y-96904000D01*
X159518000Y-96888000D01*
X159527000Y-96873000D01*
X159536000Y-96856000D01*
X159544000Y-96839000D01*
X159551000Y-96822000D01*
X159558000Y-96805000D01*
X159563000Y-96787000D01*
X159567000Y-96769000D01*
X159571000Y-96751000D01*
X159573000Y-96732000D01*
X159575000Y-96714000D01*
X159575000Y-96695000D01*
X159575000Y-96676000D01*
X159573000Y-96658000D01*
X159571000Y-96639000D01*
X159567000Y-96621000D01*
X159563000Y-96603000D01*
X159558000Y-96585000D01*
X159551000Y-96568000D01*
X159544000Y-96551000D01*
X159536000Y-96534000D01*
X159527000Y-96518000D01*
X159518000Y-96502000D01*
X159507000Y-96486000D01*
X159496000Y-96472000D01*
X159484000Y-96457000D01*
X159471000Y-96444000D01*
X159458000Y-96431000D01*
X159443000Y-96419000D01*
X159429000Y-96408000D01*
X159413000Y-96397000D01*
X159397000Y-96388000D01*
X159381000Y-96379000D01*
X159364000Y-96371000D01*
X159347000Y-96364000D01*
X159330000Y-96357000D01*
X159312000Y-96352000D01*
X159294000Y-96348000D01*
X159276000Y-96344000D01*
X159257000Y-96342000D01*
X159239000Y-96340000D01*
X159220000Y-96340000D01*
X158625000Y-96340000D01*
X158030000Y-96340000D01*
X158011000Y-96340000D01*
X157993000Y-96342000D01*
X157974000Y-96344000D01*
X157956000Y-96348000D01*
X157938000Y-96352000D01*
X157920000Y-96357000D01*
X157903000Y-96364000D01*
X157886000Y-96371000D01*
X157869000Y-96379000D01*
X157853000Y-96388000D01*
X157837000Y-96397000D01*
X157821000Y-96408000D01*
X157807000Y-96419000D01*
X157792000Y-96431000D01*
X157779000Y-96444000D01*
X157766000Y-96457000D01*
X157754000Y-96472000D01*
X157743000Y-96486000D01*
X157732000Y-96502000D01*
X157723000Y-96518000D01*
X157714000Y-96534000D01*
X157706000Y-96551000D01*
X157699000Y-96568000D01*
X157692000Y-96585000D01*
X157687000Y-96603000D01*
X157683000Y-96621000D01*
X157679000Y-96639000D01*
X157677000Y-96658000D01*
X157675000Y-96676000D01*
X157675000Y-96695000D01*
X157675000Y-96714000D01*
X157375000Y-96714000D01*
X157375000Y-96635000D01*
X157376000Y-96604000D01*
X157378000Y-96573000D01*
X157382000Y-96542000D01*
X157388000Y-96511000D01*
X157395000Y-96481000D01*
X157404000Y-96451000D01*
X157415000Y-96422000D01*
X157426000Y-96393000D01*
X157440000Y-96365000D01*
X157455000Y-96337000D01*
X157471000Y-96311000D01*
X157489000Y-96285000D01*
X157508000Y-96261000D01*
X157528000Y-96237000D01*
X157549000Y-96214000D01*
X157572000Y-96193000D01*
X157596000Y-96173000D01*
X157620000Y-96154000D01*
X157646000Y-96136000D01*
X157673000Y-96120000D01*
X157700000Y-96105000D01*
X157728000Y-96091000D01*
X157757000Y-96080000D01*
X157786000Y-96069000D01*
X157816000Y-96060000D01*
X157846000Y-96053000D01*
X157877000Y-96047000D01*
X157908000Y-96043000D01*
X157939000Y-96041000D01*
X157970000Y-96040000D01*
X158625000Y-96040000D01*
G37*
%TD*%
D10*
%TO.C,X1*%
X139900000Y-97690000D03*
X139900000Y-89190000D03*
%TD*%
D11*
%TO.C,D1*%
X140902500Y-80750000D03*
X138852500Y-80750000D03*
%TD*%
D12*
%TO.C,PADS1*%
X89078809Y-104638117D03*
D13*
X90495000Y-101445000D03*
D14*
X83220000Y-104220000D03*
X83220000Y-98670000D03*
X78370000Y-104220000D03*
X78370000Y-98670000D03*
D15*
X89079994Y-98258794D03*
%TD*%
M02*
