%TF.GenerationSoftware,KiCad,Pcbnew,7.0.2*%
%TF.CreationDate,2024-05-08T22:38:03+07:00*%
%TF.ProjectId,multiport component tester,6d756c74-6970-46f7-9274-20636f6d706f,rev?*%
%TF.SameCoordinates,Original*%
%TF.FileFunction,Legend,Bot*%
%TF.FilePolarity,Positive*%
%FSLAX46Y46*%
G04 Gerber Fmt 4.6, Leading zero omitted, Abs format (unit mm)*
G04 Created by KiCad (PCBNEW 7.0.2) date 2024-05-08 22:38:03*
%MOMM*%
%LPD*%
G01*
G04 APERTURE LIST*
%ADD10C,0.220000*%
%ADD11C,0.200000*%
%ADD12C,0.450000*%
%ADD13C,0.150000*%
%ADD14C,0.320000*%
%ADD15C,0.140000*%
%ADD16C,0.180000*%
%ADD17C,0.120000*%
%ADD18C,0.127000*%
%ADD19C,0.100000*%
G04 APERTURE END LIST*
D10*
X125341421Y-87500000D02*
G75*
G03*
X125341421Y-87500000I-141421J0D01*
G01*
D11*
X123800000Y-90360000D02*
G75*
G03*
X123800000Y-90360000I-551543J0D01*
G01*
D12*
X152026190Y-78940476D02*
X152216666Y-78845238D01*
X152216666Y-78845238D02*
X152502380Y-78845238D01*
X152502380Y-78845238D02*
X152788095Y-78940476D01*
X152788095Y-78940476D02*
X152978571Y-79130952D01*
X152978571Y-79130952D02*
X153073809Y-79321428D01*
X153073809Y-79321428D02*
X153169047Y-79702380D01*
X153169047Y-79702380D02*
X153169047Y-79988095D01*
X153169047Y-79988095D02*
X153073809Y-80369047D01*
X153073809Y-80369047D02*
X152978571Y-80559523D01*
X152978571Y-80559523D02*
X152788095Y-80750000D01*
X152788095Y-80750000D02*
X152502380Y-80845238D01*
X152502380Y-80845238D02*
X152311904Y-80845238D01*
X152311904Y-80845238D02*
X152026190Y-80750000D01*
X152026190Y-80750000D02*
X151930952Y-80654761D01*
X151930952Y-80654761D02*
X151930952Y-79988095D01*
X151930952Y-79988095D02*
X152311904Y-79988095D01*
X151169047Y-80273809D02*
X150216666Y-80273809D01*
X151359523Y-80845238D02*
X150692857Y-78845238D01*
X150692857Y-78845238D02*
X150026190Y-80845238D01*
X148407142Y-80845238D02*
X149359523Y-80845238D01*
X149359523Y-80845238D02*
X149359523Y-78845238D01*
X147835713Y-80750000D02*
X147549999Y-80845238D01*
X147549999Y-80845238D02*
X147073808Y-80845238D01*
X147073808Y-80845238D02*
X146883332Y-80750000D01*
X146883332Y-80750000D02*
X146788094Y-80654761D01*
X146788094Y-80654761D02*
X146692856Y-80464285D01*
X146692856Y-80464285D02*
X146692856Y-80273809D01*
X146692856Y-80273809D02*
X146788094Y-80083333D01*
X146788094Y-80083333D02*
X146883332Y-79988095D01*
X146883332Y-79988095D02*
X147073808Y-79892857D01*
X147073808Y-79892857D02*
X147454761Y-79797619D01*
X147454761Y-79797619D02*
X147645237Y-79702380D01*
X147645237Y-79702380D02*
X147740475Y-79607142D01*
X147740475Y-79607142D02*
X147835713Y-79416666D01*
X147835713Y-79416666D02*
X147835713Y-79226190D01*
X147835713Y-79226190D02*
X147740475Y-79035714D01*
X147740475Y-79035714D02*
X147645237Y-78940476D01*
X147645237Y-78940476D02*
X147454761Y-78845238D01*
X147454761Y-78845238D02*
X146978570Y-78845238D01*
X146978570Y-78845238D02*
X146692856Y-78940476D01*
X145930951Y-80273809D02*
X144978570Y-80273809D01*
X146121427Y-80845238D02*
X145454761Y-78845238D01*
X145454761Y-78845238D02*
X144788094Y-80845238D01*
X144121427Y-79797619D02*
X143454760Y-79797619D01*
X143169046Y-80845238D02*
X144121427Y-80845238D01*
X144121427Y-80845238D02*
X144121427Y-78845238D01*
X144121427Y-78845238D02*
X143169046Y-78845238D01*
X141169046Y-80845238D02*
X141835713Y-79892857D01*
X142311903Y-80845238D02*
X142311903Y-78845238D01*
X142311903Y-78845238D02*
X141549998Y-78845238D01*
X141549998Y-78845238D02*
X141359522Y-78940476D01*
X141359522Y-78940476D02*
X141264284Y-79035714D01*
X141264284Y-79035714D02*
X141169046Y-79226190D01*
X141169046Y-79226190D02*
X141169046Y-79511904D01*
X141169046Y-79511904D02*
X141264284Y-79702380D01*
X141264284Y-79702380D02*
X141359522Y-79797619D01*
X141359522Y-79797619D02*
X141549998Y-79892857D01*
X141549998Y-79892857D02*
X142311903Y-79892857D01*
D13*
X114791612Y-85339013D02*
X114791612Y-85271669D01*
X114791612Y-85271669D02*
X114757940Y-85170654D01*
X114757940Y-85170654D02*
X114589582Y-85002295D01*
X114589582Y-85002295D02*
X114488566Y-84968624D01*
X114488566Y-84968624D02*
X114421223Y-84968624D01*
X114421223Y-84968624D02*
X114320208Y-85002295D01*
X114320208Y-85002295D02*
X114252864Y-85069639D01*
X114252864Y-85069639D02*
X114185521Y-85204326D01*
X114185521Y-85204326D02*
X114185521Y-86012448D01*
X114185521Y-86012448D02*
X113747788Y-85574715D01*
X113444742Y-85271669D02*
X114151849Y-84564562D01*
X113040681Y-84867608D02*
X113747788Y-84766593D01*
X113747788Y-84160501D02*
X113747788Y-84968624D01*
X113411070Y-83958471D02*
X113411070Y-83891127D01*
X113411070Y-83891127D02*
X113377399Y-83790112D01*
X113377399Y-83790112D02*
X113209040Y-83621753D01*
X113209040Y-83621753D02*
X113108025Y-83588082D01*
X113108025Y-83588082D02*
X113040681Y-83588082D01*
X113040681Y-83588082D02*
X112939666Y-83621753D01*
X112939666Y-83621753D02*
X112872322Y-83689097D01*
X112872322Y-83689097D02*
X112804979Y-83823784D01*
X112804979Y-83823784D02*
X112804979Y-84631906D01*
X112804979Y-84631906D02*
X112367246Y-84194173D01*
X111581460Y-87708387D02*
X111918177Y-88045104D01*
X111918177Y-88045104D02*
X112625284Y-87337998D01*
X111345757Y-87472684D02*
X112052864Y-86765578D01*
X112052864Y-86765578D02*
X111312085Y-87034952D01*
X111312085Y-87034952D02*
X111581459Y-86294173D01*
X111581459Y-86294173D02*
X110874353Y-87001280D01*
X110705994Y-85890112D02*
X110234590Y-86361517D01*
X111143727Y-85789097D02*
X110807009Y-86462532D01*
X110807009Y-86462532D02*
X110369277Y-86024799D01*
X110436620Y-85149334D02*
X110369277Y-85081990D01*
X110369277Y-85081990D02*
X110268261Y-85048318D01*
X110268261Y-85048318D02*
X110200918Y-85048318D01*
X110200918Y-85048318D02*
X110099902Y-85081990D01*
X110099902Y-85081990D02*
X109931544Y-85183005D01*
X109931544Y-85183005D02*
X109763185Y-85351364D01*
X109763185Y-85351364D02*
X109662170Y-85519723D01*
X109662170Y-85519723D02*
X109628498Y-85620738D01*
X109628498Y-85620738D02*
X109628498Y-85688082D01*
X109628498Y-85688082D02*
X109662170Y-85789097D01*
X109662170Y-85789097D02*
X109729513Y-85856440D01*
X109729513Y-85856440D02*
X109830528Y-85890112D01*
X109830528Y-85890112D02*
X109897872Y-85890112D01*
X109897872Y-85890112D02*
X109998887Y-85856440D01*
X109998887Y-85856440D02*
X110167246Y-85755425D01*
X110167246Y-85755425D02*
X110335605Y-85587066D01*
X110335605Y-85587066D02*
X110436620Y-85418708D01*
X110436620Y-85418708D02*
X110470292Y-85317692D01*
X110470292Y-85317692D02*
X110470292Y-85250349D01*
X110470292Y-85250349D02*
X110436620Y-85149334D01*
X109359124Y-84543242D02*
X108887719Y-85014647D01*
X109796857Y-84442227D02*
X109460139Y-85115662D01*
X109460139Y-85115662D02*
X109022406Y-84677929D01*
X109089750Y-83802464D02*
X109022406Y-83735120D01*
X109022406Y-83735120D02*
X108921391Y-83701448D01*
X108921391Y-83701448D02*
X108854048Y-83701448D01*
X108854048Y-83701448D02*
X108753032Y-83735120D01*
X108753032Y-83735120D02*
X108584674Y-83836135D01*
X108584674Y-83836135D02*
X108416315Y-84004494D01*
X108416315Y-84004494D02*
X108315300Y-84172853D01*
X108315300Y-84172853D02*
X108281628Y-84273868D01*
X108281628Y-84273868D02*
X108281628Y-84341212D01*
X108281628Y-84341212D02*
X108315300Y-84442227D01*
X108315300Y-84442227D02*
X108382643Y-84509570D01*
X108382643Y-84509570D02*
X108483658Y-84543242D01*
X108483658Y-84543242D02*
X108551002Y-84543242D01*
X108551002Y-84543242D02*
X108652017Y-84509570D01*
X108652017Y-84509570D02*
X108820376Y-84408555D01*
X108820376Y-84408555D02*
X108988735Y-84240196D01*
X108988735Y-84240196D02*
X109089750Y-84071838D01*
X109089750Y-84071838D02*
X109123422Y-83970822D01*
X109123422Y-83970822D02*
X109123422Y-83903479D01*
X109123422Y-83903479D02*
X109089750Y-83802464D01*
X141409523Y-93572857D02*
X141361904Y-93525238D01*
X141361904Y-93525238D02*
X141266666Y-93477619D01*
X141266666Y-93477619D02*
X141028571Y-93477619D01*
X141028571Y-93477619D02*
X140933333Y-93525238D01*
X140933333Y-93525238D02*
X140885714Y-93572857D01*
X140885714Y-93572857D02*
X140838095Y-93668095D01*
X140838095Y-93668095D02*
X140838095Y-93763333D01*
X140838095Y-93763333D02*
X140885714Y-93906190D01*
X140885714Y-93906190D02*
X141457142Y-94477619D01*
X141457142Y-94477619D02*
X140838095Y-94477619D01*
X140457142Y-93572857D02*
X140409523Y-93525238D01*
X140409523Y-93525238D02*
X140314285Y-93477619D01*
X140314285Y-93477619D02*
X140076190Y-93477619D01*
X140076190Y-93477619D02*
X139980952Y-93525238D01*
X139980952Y-93525238D02*
X139933333Y-93572857D01*
X139933333Y-93572857D02*
X139885714Y-93668095D01*
X139885714Y-93668095D02*
X139885714Y-93763333D01*
X139885714Y-93763333D02*
X139933333Y-93906190D01*
X139933333Y-93906190D02*
X140504761Y-94477619D01*
X140504761Y-94477619D02*
X139885714Y-94477619D01*
X139457142Y-93810952D02*
X139457142Y-94810952D01*
X139457142Y-93858571D02*
X139361904Y-93810952D01*
X139361904Y-93810952D02*
X139171428Y-93810952D01*
X139171428Y-93810952D02*
X139076190Y-93858571D01*
X139076190Y-93858571D02*
X139028571Y-93906190D01*
X139028571Y-93906190D02*
X138980952Y-94001428D01*
X138980952Y-94001428D02*
X138980952Y-94287142D01*
X138980952Y-94287142D02*
X139028571Y-94382380D01*
X139028571Y-94382380D02*
X139076190Y-94430000D01*
X139076190Y-94430000D02*
X139171428Y-94477619D01*
X139171428Y-94477619D02*
X139361904Y-94477619D01*
X139361904Y-94477619D02*
X139457142Y-94430000D01*
X133074715Y-83152211D02*
X133478776Y-82748150D01*
X133276746Y-82950181D02*
X132569639Y-82243074D01*
X132569639Y-82243074D02*
X132737998Y-82276746D01*
X132737998Y-82276746D02*
X132872685Y-82276746D01*
X132872685Y-82276746D02*
X132973700Y-82243074D01*
X131929875Y-82882837D02*
X131862532Y-82950181D01*
X131862532Y-82950181D02*
X131828860Y-83051196D01*
X131828860Y-83051196D02*
X131828860Y-83118539D01*
X131828860Y-83118539D02*
X131862532Y-83219555D01*
X131862532Y-83219555D02*
X131963547Y-83387913D01*
X131963547Y-83387913D02*
X132131906Y-83556272D01*
X132131906Y-83556272D02*
X132300265Y-83657287D01*
X132300265Y-83657287D02*
X132401280Y-83690959D01*
X132401280Y-83690959D02*
X132468624Y-83690959D01*
X132468624Y-83690959D02*
X132569639Y-83657287D01*
X132569639Y-83657287D02*
X132636982Y-83589944D01*
X132636982Y-83589944D02*
X132670654Y-83488929D01*
X132670654Y-83488929D02*
X132670654Y-83421585D01*
X132670654Y-83421585D02*
X132636982Y-83320570D01*
X132636982Y-83320570D02*
X132535967Y-83152211D01*
X132535967Y-83152211D02*
X132367608Y-82983852D01*
X132367608Y-82983852D02*
X132199250Y-82882837D01*
X132199250Y-82882837D02*
X132098234Y-82849165D01*
X132098234Y-82849165D02*
X132030891Y-82849165D01*
X132030891Y-82849165D02*
X131929875Y-82882837D01*
X131256440Y-83556272D02*
X131189097Y-83623616D01*
X131189097Y-83623616D02*
X131155425Y-83724631D01*
X131155425Y-83724631D02*
X131155425Y-83791974D01*
X131155425Y-83791974D02*
X131189097Y-83892990D01*
X131189097Y-83892990D02*
X131290112Y-84061348D01*
X131290112Y-84061348D02*
X131458471Y-84229707D01*
X131458471Y-84229707D02*
X131626830Y-84330722D01*
X131626830Y-84330722D02*
X131727845Y-84364394D01*
X131727845Y-84364394D02*
X131795188Y-84364394D01*
X131795188Y-84364394D02*
X131896204Y-84330722D01*
X131896204Y-84330722D02*
X131963547Y-84263379D01*
X131963547Y-84263379D02*
X131997219Y-84162364D01*
X131997219Y-84162364D02*
X131997219Y-84095020D01*
X131997219Y-84095020D02*
X131963547Y-83994005D01*
X131963547Y-83994005D02*
X131862532Y-83825646D01*
X131862532Y-83825646D02*
X131694173Y-83657287D01*
X131694173Y-83657287D02*
X131525814Y-83556272D01*
X131525814Y-83556272D02*
X131424799Y-83522600D01*
X131424799Y-83522600D02*
X131357456Y-83522600D01*
X131357456Y-83522600D02*
X131256440Y-83556272D01*
X130953395Y-84330723D02*
X131424799Y-84802127D01*
X131020738Y-84398066D02*
X130953395Y-84398066D01*
X130953395Y-84398066D02*
X130852379Y-84431738D01*
X130852379Y-84431738D02*
X130751364Y-84532753D01*
X130751364Y-84532753D02*
X130717692Y-84633768D01*
X130717692Y-84633768D02*
X130751364Y-84734784D01*
X130751364Y-84734784D02*
X131121753Y-85105173D01*
X130686536Y-106770654D02*
X130215131Y-107242059D01*
X131124269Y-106669639D02*
X130787551Y-107343074D01*
X130787551Y-107343074D02*
X130349818Y-106905341D01*
X130619192Y-106231906D02*
X130147788Y-105760501D01*
X130147788Y-105760501D02*
X129743727Y-106770654D01*
X129743727Y-105356440D02*
X129676383Y-105289097D01*
X129676383Y-105289097D02*
X129575368Y-105255425D01*
X129575368Y-105255425D02*
X129508025Y-105255425D01*
X129508025Y-105255425D02*
X129407009Y-105289097D01*
X129407009Y-105289097D02*
X129238651Y-105390112D01*
X129238651Y-105390112D02*
X129070292Y-105558471D01*
X129070292Y-105558471D02*
X128969277Y-105726830D01*
X128969277Y-105726830D02*
X128935605Y-105827845D01*
X128935605Y-105827845D02*
X128935605Y-105895188D01*
X128935605Y-105895188D02*
X128969277Y-105996204D01*
X128969277Y-105996204D02*
X129036620Y-106063547D01*
X129036620Y-106063547D02*
X129137635Y-106097219D01*
X129137635Y-106097219D02*
X129204979Y-106097219D01*
X129204979Y-106097219D02*
X129305994Y-106063547D01*
X129305994Y-106063547D02*
X129474353Y-105962532D01*
X129474353Y-105962532D02*
X129642712Y-105794173D01*
X129642712Y-105794173D02*
X129743727Y-105625814D01*
X129743727Y-105625814D02*
X129777399Y-105524799D01*
X129777399Y-105524799D02*
X129777399Y-105457456D01*
X129777399Y-105457456D02*
X129743727Y-105356440D01*
X128497872Y-105524799D02*
X129204979Y-104817692D01*
X128093811Y-105120738D02*
X128800918Y-105019723D01*
X128800918Y-104413631D02*
X128800918Y-105221753D01*
X147809523Y-95672857D02*
X147761904Y-95625238D01*
X147761904Y-95625238D02*
X147666666Y-95577619D01*
X147666666Y-95577619D02*
X147428571Y-95577619D01*
X147428571Y-95577619D02*
X147333333Y-95625238D01*
X147333333Y-95625238D02*
X147285714Y-95672857D01*
X147285714Y-95672857D02*
X147238095Y-95768095D01*
X147238095Y-95768095D02*
X147238095Y-95863333D01*
X147238095Y-95863333D02*
X147285714Y-96006190D01*
X147285714Y-96006190D02*
X147857142Y-96577619D01*
X147857142Y-96577619D02*
X147238095Y-96577619D01*
X146904761Y-95577619D02*
X146238095Y-95577619D01*
X146238095Y-95577619D02*
X146666666Y-96577619D01*
X145857142Y-96577619D02*
X145857142Y-95577619D01*
X145285714Y-96577619D02*
X145714285Y-96006190D01*
X145285714Y-95577619D02*
X145857142Y-96149047D01*
X135724715Y-86982211D02*
X136128776Y-86578150D01*
X135926746Y-86780181D02*
X135219639Y-86073074D01*
X135219639Y-86073074D02*
X135387998Y-86106746D01*
X135387998Y-86106746D02*
X135522685Y-86106746D01*
X135522685Y-86106746D02*
X135623700Y-86073074D01*
X135421669Y-87285257D02*
X134714562Y-86578150D01*
X135017608Y-87689318D02*
X134916593Y-86982211D01*
X134310501Y-86982211D02*
X135118624Y-86982211D01*
X133670738Y-87621974D02*
X134007456Y-87285257D01*
X134007456Y-87285257D02*
X134377845Y-87588303D01*
X134377845Y-87588303D02*
X134310501Y-87588303D01*
X134310501Y-87588303D02*
X134209486Y-87621974D01*
X134209486Y-87621974D02*
X134041127Y-87790333D01*
X134041127Y-87790333D02*
X134007456Y-87891348D01*
X134007456Y-87891348D02*
X134007456Y-87958692D01*
X134007456Y-87958692D02*
X134041127Y-88059707D01*
X134041127Y-88059707D02*
X134209486Y-88228066D01*
X134209486Y-88228066D02*
X134310501Y-88261738D01*
X134310501Y-88261738D02*
X134377845Y-88261738D01*
X134377845Y-88261738D02*
X134478860Y-88228066D01*
X134478860Y-88228066D02*
X134647219Y-88059707D01*
X134647219Y-88059707D02*
X134680891Y-87958692D01*
X134680891Y-87958692D02*
X134680891Y-87891348D01*
X141409523Y-95972857D02*
X141361904Y-95925238D01*
X141361904Y-95925238D02*
X141266666Y-95877619D01*
X141266666Y-95877619D02*
X141028571Y-95877619D01*
X141028571Y-95877619D02*
X140933333Y-95925238D01*
X140933333Y-95925238D02*
X140885714Y-95972857D01*
X140885714Y-95972857D02*
X140838095Y-96068095D01*
X140838095Y-96068095D02*
X140838095Y-96163333D01*
X140838095Y-96163333D02*
X140885714Y-96306190D01*
X140885714Y-96306190D02*
X141457142Y-96877619D01*
X141457142Y-96877619D02*
X140838095Y-96877619D01*
X140457142Y-95972857D02*
X140409523Y-95925238D01*
X140409523Y-95925238D02*
X140314285Y-95877619D01*
X140314285Y-95877619D02*
X140076190Y-95877619D01*
X140076190Y-95877619D02*
X139980952Y-95925238D01*
X139980952Y-95925238D02*
X139933333Y-95972857D01*
X139933333Y-95972857D02*
X139885714Y-96068095D01*
X139885714Y-96068095D02*
X139885714Y-96163333D01*
X139885714Y-96163333D02*
X139933333Y-96306190D01*
X139933333Y-96306190D02*
X140504761Y-96877619D01*
X140504761Y-96877619D02*
X139885714Y-96877619D01*
X139457142Y-96210952D02*
X139457142Y-97210952D01*
X139457142Y-96258571D02*
X139361904Y-96210952D01*
X139361904Y-96210952D02*
X139171428Y-96210952D01*
X139171428Y-96210952D02*
X139076190Y-96258571D01*
X139076190Y-96258571D02*
X139028571Y-96306190D01*
X139028571Y-96306190D02*
X138980952Y-96401428D01*
X138980952Y-96401428D02*
X138980952Y-96687142D01*
X138980952Y-96687142D02*
X139028571Y-96782380D01*
X139028571Y-96782380D02*
X139076190Y-96830000D01*
X139076190Y-96830000D02*
X139171428Y-96877619D01*
X139171428Y-96877619D02*
X139361904Y-96877619D01*
X139361904Y-96877619D02*
X139457142Y-96830000D01*
X114774715Y-102352211D02*
X115178776Y-101948150D01*
X114976746Y-102150181D02*
X114269639Y-101443074D01*
X114269639Y-101443074D02*
X114437998Y-101476746D01*
X114437998Y-101476746D02*
X114572685Y-101476746D01*
X114572685Y-101476746D02*
X114673700Y-101443074D01*
X114000265Y-102183852D02*
X114471669Y-102655257D01*
X114067608Y-102251196D02*
X114000265Y-102251196D01*
X114000265Y-102251196D02*
X113899250Y-102284868D01*
X113899250Y-102284868D02*
X113798234Y-102385883D01*
X113798234Y-102385883D02*
X113764562Y-102486898D01*
X113764562Y-102486898D02*
X113798234Y-102587913D01*
X113798234Y-102587913D02*
X114168624Y-102958303D01*
X113225814Y-103160333D02*
X113461517Y-102924631D01*
X113831906Y-103295020D02*
X113124799Y-102587913D01*
X113124799Y-102587913D02*
X112788082Y-102924631D01*
X143468095Y-108367619D02*
X144039523Y-108367619D01*
X143753809Y-108367619D02*
X143753809Y-107367619D01*
X143753809Y-107367619D02*
X143849047Y-107510476D01*
X143849047Y-107510476D02*
X143944285Y-107605714D01*
X143944285Y-107605714D02*
X144039523Y-107653333D01*
X107490476Y-106562380D02*
X107538095Y-106610000D01*
X107538095Y-106610000D02*
X107680952Y-106657619D01*
X107680952Y-106657619D02*
X107776190Y-106657619D01*
X107776190Y-106657619D02*
X107919047Y-106610000D01*
X107919047Y-106610000D02*
X108014285Y-106514761D01*
X108014285Y-106514761D02*
X108061904Y-106419523D01*
X108061904Y-106419523D02*
X108109523Y-106229047D01*
X108109523Y-106229047D02*
X108109523Y-106086190D01*
X108109523Y-106086190D02*
X108061904Y-105895714D01*
X108061904Y-105895714D02*
X108014285Y-105800476D01*
X108014285Y-105800476D02*
X107919047Y-105705238D01*
X107919047Y-105705238D02*
X107776190Y-105657619D01*
X107776190Y-105657619D02*
X107680952Y-105657619D01*
X107680952Y-105657619D02*
X107538095Y-105705238D01*
X107538095Y-105705238D02*
X107490476Y-105752857D01*
X106919047Y-106657619D02*
X107014285Y-106610000D01*
X107014285Y-106610000D02*
X107061904Y-106562380D01*
X107061904Y-106562380D02*
X107109523Y-106467142D01*
X107109523Y-106467142D02*
X107109523Y-106181428D01*
X107109523Y-106181428D02*
X107061904Y-106086190D01*
X107061904Y-106086190D02*
X107014285Y-106038571D01*
X107014285Y-106038571D02*
X106919047Y-105990952D01*
X106919047Y-105990952D02*
X106776190Y-105990952D01*
X106776190Y-105990952D02*
X106680952Y-106038571D01*
X106680952Y-106038571D02*
X106633333Y-106086190D01*
X106633333Y-106086190D02*
X106585714Y-106181428D01*
X106585714Y-106181428D02*
X106585714Y-106467142D01*
X106585714Y-106467142D02*
X106633333Y-106562380D01*
X106633333Y-106562380D02*
X106680952Y-106610000D01*
X106680952Y-106610000D02*
X106776190Y-106657619D01*
X106776190Y-106657619D02*
X106919047Y-106657619D01*
X106157142Y-106657619D02*
X106157142Y-105990952D01*
X106157142Y-106086190D02*
X106109523Y-106038571D01*
X106109523Y-106038571D02*
X106014285Y-105990952D01*
X106014285Y-105990952D02*
X105871428Y-105990952D01*
X105871428Y-105990952D02*
X105776190Y-106038571D01*
X105776190Y-106038571D02*
X105728571Y-106133809D01*
X105728571Y-106133809D02*
X105728571Y-106657619D01*
X105728571Y-106133809D02*
X105680952Y-106038571D01*
X105680952Y-106038571D02*
X105585714Y-105990952D01*
X105585714Y-105990952D02*
X105442857Y-105990952D01*
X105442857Y-105990952D02*
X105347618Y-106038571D01*
X105347618Y-106038571D02*
X105299999Y-106133809D01*
X105299999Y-106133809D02*
X105299999Y-106657619D01*
X104823809Y-105990952D02*
X104823809Y-106990952D01*
X104823809Y-106038571D02*
X104728571Y-105990952D01*
X104728571Y-105990952D02*
X104538095Y-105990952D01*
X104538095Y-105990952D02*
X104442857Y-106038571D01*
X104442857Y-106038571D02*
X104395238Y-106086190D01*
X104395238Y-106086190D02*
X104347619Y-106181428D01*
X104347619Y-106181428D02*
X104347619Y-106467142D01*
X104347619Y-106467142D02*
X104395238Y-106562380D01*
X104395238Y-106562380D02*
X104442857Y-106610000D01*
X104442857Y-106610000D02*
X104538095Y-106657619D01*
X104538095Y-106657619D02*
X104728571Y-106657619D01*
X104728571Y-106657619D02*
X104823809Y-106610000D01*
X103776190Y-106657619D02*
X103871428Y-106610000D01*
X103871428Y-106610000D02*
X103919047Y-106562380D01*
X103919047Y-106562380D02*
X103966666Y-106467142D01*
X103966666Y-106467142D02*
X103966666Y-106181428D01*
X103966666Y-106181428D02*
X103919047Y-106086190D01*
X103919047Y-106086190D02*
X103871428Y-106038571D01*
X103871428Y-106038571D02*
X103776190Y-105990952D01*
X103776190Y-105990952D02*
X103633333Y-105990952D01*
X103633333Y-105990952D02*
X103538095Y-106038571D01*
X103538095Y-106038571D02*
X103490476Y-106086190D01*
X103490476Y-106086190D02*
X103442857Y-106181428D01*
X103442857Y-106181428D02*
X103442857Y-106467142D01*
X103442857Y-106467142D02*
X103490476Y-106562380D01*
X103490476Y-106562380D02*
X103538095Y-106610000D01*
X103538095Y-106610000D02*
X103633333Y-106657619D01*
X103633333Y-106657619D02*
X103776190Y-106657619D01*
X103014285Y-105990952D02*
X103014285Y-106657619D01*
X103014285Y-106086190D02*
X102966666Y-106038571D01*
X102966666Y-106038571D02*
X102871428Y-105990952D01*
X102871428Y-105990952D02*
X102728571Y-105990952D01*
X102728571Y-105990952D02*
X102633333Y-106038571D01*
X102633333Y-106038571D02*
X102585714Y-106133809D01*
X102585714Y-106133809D02*
X102585714Y-106657619D01*
X101728571Y-106610000D02*
X101823809Y-106657619D01*
X101823809Y-106657619D02*
X102014285Y-106657619D01*
X102014285Y-106657619D02*
X102109523Y-106610000D01*
X102109523Y-106610000D02*
X102157142Y-106514761D01*
X102157142Y-106514761D02*
X102157142Y-106133809D01*
X102157142Y-106133809D02*
X102109523Y-106038571D01*
X102109523Y-106038571D02*
X102014285Y-105990952D01*
X102014285Y-105990952D02*
X101823809Y-105990952D01*
X101823809Y-105990952D02*
X101728571Y-106038571D01*
X101728571Y-106038571D02*
X101680952Y-106133809D01*
X101680952Y-106133809D02*
X101680952Y-106229047D01*
X101680952Y-106229047D02*
X102157142Y-106324285D01*
X101252380Y-105990952D02*
X101252380Y-106657619D01*
X101252380Y-106086190D02*
X101204761Y-106038571D01*
X101204761Y-106038571D02*
X101109523Y-105990952D01*
X101109523Y-105990952D02*
X100966666Y-105990952D01*
X100966666Y-105990952D02*
X100871428Y-106038571D01*
X100871428Y-106038571D02*
X100823809Y-106133809D01*
X100823809Y-106133809D02*
X100823809Y-106657619D01*
X100490475Y-105990952D02*
X100109523Y-105990952D01*
X100347618Y-105657619D02*
X100347618Y-106514761D01*
X100347618Y-106514761D02*
X100299999Y-106610000D01*
X100299999Y-106610000D02*
X100204761Y-106657619D01*
X100204761Y-106657619D02*
X100109523Y-106657619D01*
X99157141Y-105657619D02*
X98585713Y-105657619D01*
X98871427Y-106657619D02*
X98871427Y-105657619D01*
X97871427Y-106610000D02*
X97966665Y-106657619D01*
X97966665Y-106657619D02*
X98157141Y-106657619D01*
X98157141Y-106657619D02*
X98252379Y-106610000D01*
X98252379Y-106610000D02*
X98299998Y-106514761D01*
X98299998Y-106514761D02*
X98299998Y-106133809D01*
X98299998Y-106133809D02*
X98252379Y-106038571D01*
X98252379Y-106038571D02*
X98157141Y-105990952D01*
X98157141Y-105990952D02*
X97966665Y-105990952D01*
X97966665Y-105990952D02*
X97871427Y-106038571D01*
X97871427Y-106038571D02*
X97823808Y-106133809D01*
X97823808Y-106133809D02*
X97823808Y-106229047D01*
X97823808Y-106229047D02*
X98299998Y-106324285D01*
X97442855Y-106610000D02*
X97347617Y-106657619D01*
X97347617Y-106657619D02*
X97157141Y-106657619D01*
X97157141Y-106657619D02*
X97061903Y-106610000D01*
X97061903Y-106610000D02*
X97014284Y-106514761D01*
X97014284Y-106514761D02*
X97014284Y-106467142D01*
X97014284Y-106467142D02*
X97061903Y-106371904D01*
X97061903Y-106371904D02*
X97157141Y-106324285D01*
X97157141Y-106324285D02*
X97299998Y-106324285D01*
X97299998Y-106324285D02*
X97395236Y-106276666D01*
X97395236Y-106276666D02*
X97442855Y-106181428D01*
X97442855Y-106181428D02*
X97442855Y-106133809D01*
X97442855Y-106133809D02*
X97395236Y-106038571D01*
X97395236Y-106038571D02*
X97299998Y-105990952D01*
X97299998Y-105990952D02*
X97157141Y-105990952D01*
X97157141Y-105990952D02*
X97061903Y-106038571D01*
X96728569Y-105990952D02*
X96347617Y-105990952D01*
X96585712Y-105657619D02*
X96585712Y-106514761D01*
X96585712Y-106514761D02*
X96538093Y-106610000D01*
X96538093Y-106610000D02*
X96442855Y-106657619D01*
X96442855Y-106657619D02*
X96347617Y-106657619D01*
X95633331Y-106610000D02*
X95728569Y-106657619D01*
X95728569Y-106657619D02*
X95919045Y-106657619D01*
X95919045Y-106657619D02*
X96014283Y-106610000D01*
X96014283Y-106610000D02*
X96061902Y-106514761D01*
X96061902Y-106514761D02*
X96061902Y-106133809D01*
X96061902Y-106133809D02*
X96014283Y-106038571D01*
X96014283Y-106038571D02*
X95919045Y-105990952D01*
X95919045Y-105990952D02*
X95728569Y-105990952D01*
X95728569Y-105990952D02*
X95633331Y-106038571D01*
X95633331Y-106038571D02*
X95585712Y-106133809D01*
X95585712Y-106133809D02*
X95585712Y-106229047D01*
X95585712Y-106229047D02*
X96061902Y-106324285D01*
X95157140Y-106657619D02*
X95157140Y-105990952D01*
X95157140Y-106181428D02*
X95109521Y-106086190D01*
X95109521Y-106086190D02*
X95061902Y-106038571D01*
X95061902Y-106038571D02*
X94966664Y-105990952D01*
X94966664Y-105990952D02*
X94871426Y-105990952D01*
X93776187Y-106657619D02*
X93776187Y-105657619D01*
X93776187Y-106038571D02*
X93680949Y-105990952D01*
X93680949Y-105990952D02*
X93490473Y-105990952D01*
X93490473Y-105990952D02*
X93395235Y-106038571D01*
X93395235Y-106038571D02*
X93347616Y-106086190D01*
X93347616Y-106086190D02*
X93299997Y-106181428D01*
X93299997Y-106181428D02*
X93299997Y-106467142D01*
X93299997Y-106467142D02*
X93347616Y-106562380D01*
X93347616Y-106562380D02*
X93395235Y-106610000D01*
X93395235Y-106610000D02*
X93490473Y-106657619D01*
X93490473Y-106657619D02*
X93680949Y-106657619D01*
X93680949Y-106657619D02*
X93776187Y-106610000D01*
X92442854Y-106657619D02*
X92442854Y-106133809D01*
X92442854Y-106133809D02*
X92490473Y-106038571D01*
X92490473Y-106038571D02*
X92585711Y-105990952D01*
X92585711Y-105990952D02*
X92776187Y-105990952D01*
X92776187Y-105990952D02*
X92871425Y-106038571D01*
X92442854Y-106610000D02*
X92538092Y-106657619D01*
X92538092Y-106657619D02*
X92776187Y-106657619D01*
X92776187Y-106657619D02*
X92871425Y-106610000D01*
X92871425Y-106610000D02*
X92919044Y-106514761D01*
X92919044Y-106514761D02*
X92919044Y-106419523D01*
X92919044Y-106419523D02*
X92871425Y-106324285D01*
X92871425Y-106324285D02*
X92776187Y-106276666D01*
X92776187Y-106276666D02*
X92538092Y-106276666D01*
X92538092Y-106276666D02*
X92442854Y-106229047D01*
X92014282Y-106610000D02*
X91919044Y-106657619D01*
X91919044Y-106657619D02*
X91728568Y-106657619D01*
X91728568Y-106657619D02*
X91633330Y-106610000D01*
X91633330Y-106610000D02*
X91585711Y-106514761D01*
X91585711Y-106514761D02*
X91585711Y-106467142D01*
X91585711Y-106467142D02*
X91633330Y-106371904D01*
X91633330Y-106371904D02*
X91728568Y-106324285D01*
X91728568Y-106324285D02*
X91871425Y-106324285D01*
X91871425Y-106324285D02*
X91966663Y-106276666D01*
X91966663Y-106276666D02*
X92014282Y-106181428D01*
X92014282Y-106181428D02*
X92014282Y-106133809D01*
X92014282Y-106133809D02*
X91966663Y-106038571D01*
X91966663Y-106038571D02*
X91871425Y-105990952D01*
X91871425Y-105990952D02*
X91728568Y-105990952D01*
X91728568Y-105990952D02*
X91633330Y-106038571D01*
X90776187Y-106610000D02*
X90871425Y-106657619D01*
X90871425Y-106657619D02*
X91061901Y-106657619D01*
X91061901Y-106657619D02*
X91157139Y-106610000D01*
X91157139Y-106610000D02*
X91204758Y-106514761D01*
X91204758Y-106514761D02*
X91204758Y-106133809D01*
X91204758Y-106133809D02*
X91157139Y-106038571D01*
X91157139Y-106038571D02*
X91061901Y-105990952D01*
X91061901Y-105990952D02*
X90871425Y-105990952D01*
X90871425Y-105990952D02*
X90776187Y-106038571D01*
X90776187Y-106038571D02*
X90728568Y-106133809D01*
X90728568Y-106133809D02*
X90728568Y-106229047D01*
X90728568Y-106229047D02*
X91204758Y-106324285D01*
X89871425Y-106657619D02*
X89871425Y-105657619D01*
X89871425Y-106610000D02*
X89966663Y-106657619D01*
X89966663Y-106657619D02*
X90157139Y-106657619D01*
X90157139Y-106657619D02*
X90252377Y-106610000D01*
X90252377Y-106610000D02*
X90299996Y-106562380D01*
X90299996Y-106562380D02*
X90347615Y-106467142D01*
X90347615Y-106467142D02*
X90347615Y-106181428D01*
X90347615Y-106181428D02*
X90299996Y-106086190D01*
X90299996Y-106086190D02*
X90252377Y-106038571D01*
X90252377Y-106038571D02*
X90157139Y-105990952D01*
X90157139Y-105990952D02*
X89966663Y-105990952D01*
X89966663Y-105990952D02*
X89871425Y-106038571D01*
X88490472Y-106657619D02*
X88585710Y-106610000D01*
X88585710Y-106610000D02*
X88633329Y-106562380D01*
X88633329Y-106562380D02*
X88680948Y-106467142D01*
X88680948Y-106467142D02*
X88680948Y-106181428D01*
X88680948Y-106181428D02*
X88633329Y-106086190D01*
X88633329Y-106086190D02*
X88585710Y-106038571D01*
X88585710Y-106038571D02*
X88490472Y-105990952D01*
X88490472Y-105990952D02*
X88347615Y-105990952D01*
X88347615Y-105990952D02*
X88252377Y-106038571D01*
X88252377Y-106038571D02*
X88204758Y-106086190D01*
X88204758Y-106086190D02*
X88157139Y-106181428D01*
X88157139Y-106181428D02*
X88157139Y-106467142D01*
X88157139Y-106467142D02*
X88204758Y-106562380D01*
X88204758Y-106562380D02*
X88252377Y-106610000D01*
X88252377Y-106610000D02*
X88347615Y-106657619D01*
X88347615Y-106657619D02*
X88490472Y-106657619D01*
X87728567Y-105990952D02*
X87728567Y-106657619D01*
X87728567Y-106086190D02*
X87680948Y-106038571D01*
X87680948Y-106038571D02*
X87585710Y-105990952D01*
X87585710Y-105990952D02*
X87442853Y-105990952D01*
X87442853Y-105990952D02*
X87347615Y-106038571D01*
X87347615Y-106038571D02*
X87299996Y-106133809D01*
X87299996Y-106133809D02*
X87299996Y-106657619D01*
X86109519Y-106371904D02*
X85633329Y-106371904D01*
X86204757Y-106657619D02*
X85871424Y-105657619D01*
X85871424Y-105657619D02*
X85538091Y-106657619D01*
X85347614Y-105657619D02*
X85014281Y-106657619D01*
X85014281Y-106657619D02*
X84680948Y-105657619D01*
X83776186Y-106657619D02*
X84109519Y-106181428D01*
X84347614Y-106657619D02*
X84347614Y-105657619D01*
X84347614Y-105657619D02*
X83966662Y-105657619D01*
X83966662Y-105657619D02*
X83871424Y-105705238D01*
X83871424Y-105705238D02*
X83823805Y-105752857D01*
X83823805Y-105752857D02*
X83776186Y-105848095D01*
X83776186Y-105848095D02*
X83776186Y-105990952D01*
X83776186Y-105990952D02*
X83823805Y-106086190D01*
X83823805Y-106086190D02*
X83871424Y-106133809D01*
X83871424Y-106133809D02*
X83966662Y-106181428D01*
X83966662Y-106181428D02*
X84347614Y-106181428D01*
X82728566Y-105657619D02*
X82157138Y-105657619D01*
X82442852Y-106657619D02*
X82442852Y-105657619D01*
X81823804Y-106657619D02*
X81823804Y-105990952D01*
X81823804Y-106181428D02*
X81776185Y-106086190D01*
X81776185Y-106086190D02*
X81728566Y-106038571D01*
X81728566Y-106038571D02*
X81633328Y-105990952D01*
X81633328Y-105990952D02*
X81538090Y-105990952D01*
X80776185Y-106657619D02*
X80776185Y-106133809D01*
X80776185Y-106133809D02*
X80823804Y-106038571D01*
X80823804Y-106038571D02*
X80919042Y-105990952D01*
X80919042Y-105990952D02*
X81109518Y-105990952D01*
X81109518Y-105990952D02*
X81204756Y-106038571D01*
X80776185Y-106610000D02*
X80871423Y-106657619D01*
X80871423Y-106657619D02*
X81109518Y-106657619D01*
X81109518Y-106657619D02*
X81204756Y-106610000D01*
X81204756Y-106610000D02*
X81252375Y-106514761D01*
X81252375Y-106514761D02*
X81252375Y-106419523D01*
X81252375Y-106419523D02*
X81204756Y-106324285D01*
X81204756Y-106324285D02*
X81109518Y-106276666D01*
X81109518Y-106276666D02*
X80871423Y-106276666D01*
X80871423Y-106276666D02*
X80776185Y-106229047D01*
X80299994Y-105990952D02*
X80299994Y-106657619D01*
X80299994Y-106086190D02*
X80252375Y-106038571D01*
X80252375Y-106038571D02*
X80157137Y-105990952D01*
X80157137Y-105990952D02*
X80014280Y-105990952D01*
X80014280Y-105990952D02*
X79919042Y-106038571D01*
X79919042Y-106038571D02*
X79871423Y-106133809D01*
X79871423Y-106133809D02*
X79871423Y-106657619D01*
X79442851Y-106610000D02*
X79347613Y-106657619D01*
X79347613Y-106657619D02*
X79157137Y-106657619D01*
X79157137Y-106657619D02*
X79061899Y-106610000D01*
X79061899Y-106610000D02*
X79014280Y-106514761D01*
X79014280Y-106514761D02*
X79014280Y-106467142D01*
X79014280Y-106467142D02*
X79061899Y-106371904D01*
X79061899Y-106371904D02*
X79157137Y-106324285D01*
X79157137Y-106324285D02*
X79299994Y-106324285D01*
X79299994Y-106324285D02*
X79395232Y-106276666D01*
X79395232Y-106276666D02*
X79442851Y-106181428D01*
X79442851Y-106181428D02*
X79442851Y-106133809D01*
X79442851Y-106133809D02*
X79395232Y-106038571D01*
X79395232Y-106038571D02*
X79299994Y-105990952D01*
X79299994Y-105990952D02*
X79157137Y-105990952D01*
X79157137Y-105990952D02*
X79061899Y-106038571D01*
X78585708Y-106657619D02*
X78585708Y-105990952D01*
X78585708Y-105657619D02*
X78633327Y-105705238D01*
X78633327Y-105705238D02*
X78585708Y-105752857D01*
X78585708Y-105752857D02*
X78538089Y-105705238D01*
X78538089Y-105705238D02*
X78585708Y-105657619D01*
X78585708Y-105657619D02*
X78585708Y-105752857D01*
X78157137Y-106610000D02*
X78061899Y-106657619D01*
X78061899Y-106657619D02*
X77871423Y-106657619D01*
X77871423Y-106657619D02*
X77776185Y-106610000D01*
X77776185Y-106610000D02*
X77728566Y-106514761D01*
X77728566Y-106514761D02*
X77728566Y-106467142D01*
X77728566Y-106467142D02*
X77776185Y-106371904D01*
X77776185Y-106371904D02*
X77871423Y-106324285D01*
X77871423Y-106324285D02*
X78014280Y-106324285D01*
X78014280Y-106324285D02*
X78109518Y-106276666D01*
X78109518Y-106276666D02*
X78157137Y-106181428D01*
X78157137Y-106181428D02*
X78157137Y-106133809D01*
X78157137Y-106133809D02*
X78109518Y-106038571D01*
X78109518Y-106038571D02*
X78014280Y-105990952D01*
X78014280Y-105990952D02*
X77871423Y-105990952D01*
X77871423Y-105990952D02*
X77776185Y-106038571D01*
X77442851Y-105990952D02*
X77061899Y-105990952D01*
X77299994Y-105657619D02*
X77299994Y-106514761D01*
X77299994Y-106514761D02*
X77252375Y-106610000D01*
X77252375Y-106610000D02*
X77157137Y-106657619D01*
X77157137Y-106657619D02*
X77061899Y-106657619D01*
X76585708Y-106657619D02*
X76680946Y-106610000D01*
X76680946Y-106610000D02*
X76728565Y-106562380D01*
X76728565Y-106562380D02*
X76776184Y-106467142D01*
X76776184Y-106467142D02*
X76776184Y-106181428D01*
X76776184Y-106181428D02*
X76728565Y-106086190D01*
X76728565Y-106086190D02*
X76680946Y-106038571D01*
X76680946Y-106038571D02*
X76585708Y-105990952D01*
X76585708Y-105990952D02*
X76442851Y-105990952D01*
X76442851Y-105990952D02*
X76347613Y-106038571D01*
X76347613Y-106038571D02*
X76299994Y-106086190D01*
X76299994Y-106086190D02*
X76252375Y-106181428D01*
X76252375Y-106181428D02*
X76252375Y-106467142D01*
X76252375Y-106467142D02*
X76299994Y-106562380D01*
X76299994Y-106562380D02*
X76347613Y-106610000D01*
X76347613Y-106610000D02*
X76442851Y-106657619D01*
X76442851Y-106657619D02*
X76585708Y-106657619D01*
X75823803Y-106657619D02*
X75823803Y-105990952D01*
X75823803Y-106181428D02*
X75776184Y-106086190D01*
X75776184Y-106086190D02*
X75728565Y-106038571D01*
X75728565Y-106038571D02*
X75633327Y-105990952D01*
X75633327Y-105990952D02*
X75538089Y-105990952D01*
X74585707Y-105657619D02*
X74014279Y-105657619D01*
X74299993Y-106657619D02*
X74299993Y-105657619D01*
X73299993Y-106610000D02*
X73395231Y-106657619D01*
X73395231Y-106657619D02*
X73585707Y-106657619D01*
X73585707Y-106657619D02*
X73680945Y-106610000D01*
X73680945Y-106610000D02*
X73728564Y-106514761D01*
X73728564Y-106514761D02*
X73728564Y-106133809D01*
X73728564Y-106133809D02*
X73680945Y-106038571D01*
X73680945Y-106038571D02*
X73585707Y-105990952D01*
X73585707Y-105990952D02*
X73395231Y-105990952D01*
X73395231Y-105990952D02*
X73299993Y-106038571D01*
X73299993Y-106038571D02*
X73252374Y-106133809D01*
X73252374Y-106133809D02*
X73252374Y-106229047D01*
X73252374Y-106229047D02*
X73728564Y-106324285D01*
X72871421Y-106610000D02*
X72776183Y-106657619D01*
X72776183Y-106657619D02*
X72585707Y-106657619D01*
X72585707Y-106657619D02*
X72490469Y-106610000D01*
X72490469Y-106610000D02*
X72442850Y-106514761D01*
X72442850Y-106514761D02*
X72442850Y-106467142D01*
X72442850Y-106467142D02*
X72490469Y-106371904D01*
X72490469Y-106371904D02*
X72585707Y-106324285D01*
X72585707Y-106324285D02*
X72728564Y-106324285D01*
X72728564Y-106324285D02*
X72823802Y-106276666D01*
X72823802Y-106276666D02*
X72871421Y-106181428D01*
X72871421Y-106181428D02*
X72871421Y-106133809D01*
X72871421Y-106133809D02*
X72823802Y-106038571D01*
X72823802Y-106038571D02*
X72728564Y-105990952D01*
X72728564Y-105990952D02*
X72585707Y-105990952D01*
X72585707Y-105990952D02*
X72490469Y-106038571D01*
X72157135Y-105990952D02*
X71776183Y-105990952D01*
X72014278Y-105657619D02*
X72014278Y-106514761D01*
X72014278Y-106514761D02*
X71966659Y-106610000D01*
X71966659Y-106610000D02*
X71871421Y-106657619D01*
X71871421Y-106657619D02*
X71776183Y-106657619D01*
X71061897Y-106610000D02*
X71157135Y-106657619D01*
X71157135Y-106657619D02*
X71347611Y-106657619D01*
X71347611Y-106657619D02*
X71442849Y-106610000D01*
X71442849Y-106610000D02*
X71490468Y-106514761D01*
X71490468Y-106514761D02*
X71490468Y-106133809D01*
X71490468Y-106133809D02*
X71442849Y-106038571D01*
X71442849Y-106038571D02*
X71347611Y-105990952D01*
X71347611Y-105990952D02*
X71157135Y-105990952D01*
X71157135Y-105990952D02*
X71061897Y-106038571D01*
X71061897Y-106038571D02*
X71014278Y-106133809D01*
X71014278Y-106133809D02*
X71014278Y-106229047D01*
X71014278Y-106229047D02*
X71490468Y-106324285D01*
X70585706Y-106657619D02*
X70585706Y-105990952D01*
X70585706Y-106181428D02*
X70538087Y-106086190D01*
X70538087Y-106086190D02*
X70490468Y-106038571D01*
X70490468Y-106038571D02*
X70395230Y-105990952D01*
X70395230Y-105990952D02*
X70299992Y-105990952D01*
X108061904Y-108277619D02*
X108061904Y-107277619D01*
X108061904Y-107658571D02*
X107966666Y-107610952D01*
X107966666Y-107610952D02*
X107776190Y-107610952D01*
X107776190Y-107610952D02*
X107680952Y-107658571D01*
X107680952Y-107658571D02*
X107633333Y-107706190D01*
X107633333Y-107706190D02*
X107585714Y-107801428D01*
X107585714Y-107801428D02*
X107585714Y-108087142D01*
X107585714Y-108087142D02*
X107633333Y-108182380D01*
X107633333Y-108182380D02*
X107680952Y-108230000D01*
X107680952Y-108230000D02*
X107776190Y-108277619D01*
X107776190Y-108277619D02*
X107966666Y-108277619D01*
X107966666Y-108277619D02*
X108061904Y-108230000D01*
X107252380Y-107610952D02*
X107014285Y-108277619D01*
X106776190Y-107610952D02*
X107014285Y-108277619D01*
X107014285Y-108277619D02*
X107109523Y-108515714D01*
X107109523Y-108515714D02*
X107157142Y-108563333D01*
X107157142Y-108563333D02*
X107252380Y-108610952D01*
X105633332Y-108277619D02*
X105633332Y-107277619D01*
X105633332Y-107277619D02*
X105299999Y-107991904D01*
X105299999Y-107991904D02*
X104966666Y-107277619D01*
X104966666Y-107277619D02*
X104966666Y-108277619D01*
X104061904Y-108277619D02*
X104061904Y-107753809D01*
X104061904Y-107753809D02*
X104109523Y-107658571D01*
X104109523Y-107658571D02*
X104204761Y-107610952D01*
X104204761Y-107610952D02*
X104395237Y-107610952D01*
X104395237Y-107610952D02*
X104490475Y-107658571D01*
X104061904Y-108230000D02*
X104157142Y-108277619D01*
X104157142Y-108277619D02*
X104395237Y-108277619D01*
X104395237Y-108277619D02*
X104490475Y-108230000D01*
X104490475Y-108230000D02*
X104538094Y-108134761D01*
X104538094Y-108134761D02*
X104538094Y-108039523D01*
X104538094Y-108039523D02*
X104490475Y-107944285D01*
X104490475Y-107944285D02*
X104395237Y-107896666D01*
X104395237Y-107896666D02*
X104157142Y-107896666D01*
X104157142Y-107896666D02*
X104061904Y-107849047D01*
X103585713Y-108277619D02*
X103585713Y-107610952D01*
X103585713Y-107801428D02*
X103538094Y-107706190D01*
X103538094Y-107706190D02*
X103490475Y-107658571D01*
X103490475Y-107658571D02*
X103395237Y-107610952D01*
X103395237Y-107610952D02*
X103299999Y-107610952D01*
X102966665Y-108277619D02*
X102966665Y-107277619D01*
X102871427Y-107896666D02*
X102585713Y-108277619D01*
X102585713Y-107610952D02*
X102966665Y-107991904D01*
X101728570Y-107610952D02*
X101728570Y-108277619D01*
X102157141Y-107610952D02*
X102157141Y-108134761D01*
X102157141Y-108134761D02*
X102109522Y-108230000D01*
X102109522Y-108230000D02*
X102014284Y-108277619D01*
X102014284Y-108277619D02*
X101871427Y-108277619D01*
X101871427Y-108277619D02*
X101776189Y-108230000D01*
X101776189Y-108230000D02*
X101728570Y-108182380D01*
X101299998Y-108230000D02*
X101204760Y-108277619D01*
X101204760Y-108277619D02*
X101014284Y-108277619D01*
X101014284Y-108277619D02*
X100919046Y-108230000D01*
X100919046Y-108230000D02*
X100871427Y-108134761D01*
X100871427Y-108134761D02*
X100871427Y-108087142D01*
X100871427Y-108087142D02*
X100919046Y-107991904D01*
X100919046Y-107991904D02*
X101014284Y-107944285D01*
X101014284Y-107944285D02*
X101157141Y-107944285D01*
X101157141Y-107944285D02*
X101252379Y-107896666D01*
X101252379Y-107896666D02*
X101299998Y-107801428D01*
X101299998Y-107801428D02*
X101299998Y-107753809D01*
X101299998Y-107753809D02*
X101252379Y-107658571D01*
X101252379Y-107658571D02*
X101157141Y-107610952D01*
X101157141Y-107610952D02*
X101014284Y-107610952D01*
X101014284Y-107610952D02*
X100919046Y-107658571D01*
X99347617Y-107753809D02*
X99680950Y-107753809D01*
X99680950Y-108277619D02*
X99680950Y-107277619D01*
X99680950Y-107277619D02*
X99204760Y-107277619D01*
X98823807Y-108182380D02*
X98776188Y-108230000D01*
X98776188Y-108230000D02*
X98823807Y-108277619D01*
X98823807Y-108277619D02*
X98871426Y-108230000D01*
X98871426Y-108230000D02*
X98823807Y-108182380D01*
X98823807Y-108182380D02*
X98823807Y-108277619D01*
X97157141Y-108277619D02*
X97157141Y-107753809D01*
X97157141Y-107753809D02*
X97204760Y-107658571D01*
X97204760Y-107658571D02*
X97299998Y-107610952D01*
X97299998Y-107610952D02*
X97490474Y-107610952D01*
X97490474Y-107610952D02*
X97585712Y-107658571D01*
X97157141Y-108230000D02*
X97252379Y-108277619D01*
X97252379Y-108277619D02*
X97490474Y-108277619D01*
X97490474Y-108277619D02*
X97585712Y-108230000D01*
X97585712Y-108230000D02*
X97633331Y-108134761D01*
X97633331Y-108134761D02*
X97633331Y-108039523D01*
X97633331Y-108039523D02*
X97585712Y-107944285D01*
X97585712Y-107944285D02*
X97490474Y-107896666D01*
X97490474Y-107896666D02*
X97252379Y-107896666D01*
X97252379Y-107896666D02*
X97157141Y-107849047D01*
X96680950Y-107610952D02*
X96680950Y-108277619D01*
X96680950Y-107706190D02*
X96633331Y-107658571D01*
X96633331Y-107658571D02*
X96538093Y-107610952D01*
X96538093Y-107610952D02*
X96395236Y-107610952D01*
X96395236Y-107610952D02*
X96299998Y-107658571D01*
X96299998Y-107658571D02*
X96252379Y-107753809D01*
X96252379Y-107753809D02*
X96252379Y-108277619D01*
X95347617Y-108277619D02*
X95347617Y-107277619D01*
X95347617Y-108230000D02*
X95442855Y-108277619D01*
X95442855Y-108277619D02*
X95633331Y-108277619D01*
X95633331Y-108277619D02*
X95728569Y-108230000D01*
X95728569Y-108230000D02*
X95776188Y-108182380D01*
X95776188Y-108182380D02*
X95823807Y-108087142D01*
X95823807Y-108087142D02*
X95823807Y-107801428D01*
X95823807Y-107801428D02*
X95776188Y-107706190D01*
X95776188Y-107706190D02*
X95728569Y-107658571D01*
X95728569Y-107658571D02*
X95633331Y-107610952D01*
X95633331Y-107610952D02*
X95442855Y-107610952D01*
X95442855Y-107610952D02*
X95347617Y-107658571D01*
X94109521Y-108277619D02*
X94109521Y-107277619D01*
X93538093Y-108277619D02*
X93966664Y-107706190D01*
X93538093Y-107277619D02*
X94109521Y-107849047D01*
X92680950Y-108277619D02*
X92680950Y-107753809D01*
X92680950Y-107753809D02*
X92728569Y-107658571D01*
X92728569Y-107658571D02*
X92823807Y-107610952D01*
X92823807Y-107610952D02*
X93014283Y-107610952D01*
X93014283Y-107610952D02*
X93109521Y-107658571D01*
X92680950Y-108230000D02*
X92776188Y-108277619D01*
X92776188Y-108277619D02*
X93014283Y-108277619D01*
X93014283Y-108277619D02*
X93109521Y-108230000D01*
X93109521Y-108230000D02*
X93157140Y-108134761D01*
X93157140Y-108134761D02*
X93157140Y-108039523D01*
X93157140Y-108039523D02*
X93109521Y-107944285D01*
X93109521Y-107944285D02*
X93014283Y-107896666D01*
X93014283Y-107896666D02*
X92776188Y-107896666D01*
X92776188Y-107896666D02*
X92680950Y-107849047D01*
X92204759Y-108277619D02*
X92204759Y-107610952D01*
X92204759Y-107801428D02*
X92157140Y-107706190D01*
X92157140Y-107706190D02*
X92109521Y-107658571D01*
X92109521Y-107658571D02*
X92014283Y-107610952D01*
X92014283Y-107610952D02*
X91919045Y-107610952D01*
X91442854Y-108277619D02*
X91538092Y-108230000D01*
X91538092Y-108230000D02*
X91585711Y-108134761D01*
X91585711Y-108134761D02*
X91585711Y-107277619D01*
X91061901Y-107896666D02*
X90299997Y-107896666D01*
X89823806Y-108277619D02*
X89823806Y-107277619D01*
X89823806Y-107753809D02*
X89252378Y-107753809D01*
X89252378Y-108277619D02*
X89252378Y-107277619D01*
X88395235Y-108230000D02*
X88490473Y-108277619D01*
X88490473Y-108277619D02*
X88680949Y-108277619D01*
X88680949Y-108277619D02*
X88776187Y-108230000D01*
X88776187Y-108230000D02*
X88823806Y-108134761D01*
X88823806Y-108134761D02*
X88823806Y-107753809D01*
X88823806Y-107753809D02*
X88776187Y-107658571D01*
X88776187Y-107658571D02*
X88680949Y-107610952D01*
X88680949Y-107610952D02*
X88490473Y-107610952D01*
X88490473Y-107610952D02*
X88395235Y-107658571D01*
X88395235Y-107658571D02*
X88347616Y-107753809D01*
X88347616Y-107753809D02*
X88347616Y-107849047D01*
X88347616Y-107849047D02*
X88823806Y-107944285D01*
X87919044Y-108277619D02*
X87919044Y-107610952D01*
X87919044Y-107277619D02*
X87966663Y-107325238D01*
X87966663Y-107325238D02*
X87919044Y-107372857D01*
X87919044Y-107372857D02*
X87871425Y-107325238D01*
X87871425Y-107325238D02*
X87919044Y-107277619D01*
X87919044Y-107277619D02*
X87919044Y-107372857D01*
X87442854Y-107610952D02*
X87442854Y-108277619D01*
X87442854Y-107706190D02*
X87395235Y-107658571D01*
X87395235Y-107658571D02*
X87299997Y-107610952D01*
X87299997Y-107610952D02*
X87157140Y-107610952D01*
X87157140Y-107610952D02*
X87061902Y-107658571D01*
X87061902Y-107658571D02*
X87014283Y-107753809D01*
X87014283Y-107753809D02*
X87014283Y-108277619D01*
X86633330Y-107610952D02*
X86109521Y-107610952D01*
X86109521Y-107610952D02*
X86633330Y-108277619D01*
X86633330Y-108277619D02*
X86109521Y-108277619D01*
X84966663Y-108277619D02*
X84966663Y-107277619D01*
X84395235Y-108277619D02*
X84823806Y-107706190D01*
X84395235Y-107277619D02*
X84966663Y-107849047D01*
X83538092Y-107610952D02*
X83538092Y-108277619D01*
X83966663Y-107610952D02*
X83966663Y-108134761D01*
X83966663Y-108134761D02*
X83919044Y-108230000D01*
X83919044Y-108230000D02*
X83823806Y-108277619D01*
X83823806Y-108277619D02*
X83680949Y-108277619D01*
X83680949Y-108277619D02*
X83585711Y-108230000D01*
X83585711Y-108230000D02*
X83538092Y-108182380D01*
X83919044Y-107277619D02*
X83871425Y-107325238D01*
X83871425Y-107325238D02*
X83919044Y-107372857D01*
X83919044Y-107372857D02*
X83966663Y-107325238D01*
X83966663Y-107325238D02*
X83919044Y-107277619D01*
X83919044Y-107277619D02*
X83919044Y-107372857D01*
X83538092Y-107277619D02*
X83490473Y-107325238D01*
X83490473Y-107325238D02*
X83538092Y-107372857D01*
X83538092Y-107372857D02*
X83585711Y-107325238D01*
X83585711Y-107325238D02*
X83538092Y-107277619D01*
X83538092Y-107277619D02*
X83538092Y-107372857D01*
X83061901Y-108277619D02*
X83061901Y-107277619D01*
X83061901Y-107658571D02*
X82966663Y-107610952D01*
X82966663Y-107610952D02*
X82776187Y-107610952D01*
X82776187Y-107610952D02*
X82680949Y-107658571D01*
X82680949Y-107658571D02*
X82633330Y-107706190D01*
X82633330Y-107706190D02*
X82585711Y-107801428D01*
X82585711Y-107801428D02*
X82585711Y-108087142D01*
X82585711Y-108087142D02*
X82633330Y-108182380D01*
X82633330Y-108182380D02*
X82680949Y-108230000D01*
X82680949Y-108230000D02*
X82776187Y-108277619D01*
X82776187Y-108277619D02*
X82966663Y-108277619D01*
X82966663Y-108277619D02*
X83061901Y-108230000D01*
X82157139Y-108277619D02*
X82157139Y-107277619D01*
X82157139Y-107658571D02*
X82061901Y-107610952D01*
X82061901Y-107610952D02*
X81871425Y-107610952D01*
X81871425Y-107610952D02*
X81776187Y-107658571D01*
X81776187Y-107658571D02*
X81728568Y-107706190D01*
X81728568Y-107706190D02*
X81680949Y-107801428D01*
X81680949Y-107801428D02*
X81680949Y-108087142D01*
X81680949Y-108087142D02*
X81728568Y-108182380D01*
X81728568Y-108182380D02*
X81776187Y-108230000D01*
X81776187Y-108230000D02*
X81871425Y-108277619D01*
X81871425Y-108277619D02*
X82061901Y-108277619D01*
X82061901Y-108277619D02*
X82157139Y-108230000D01*
X80871425Y-108230000D02*
X80966663Y-108277619D01*
X80966663Y-108277619D02*
X81157139Y-108277619D01*
X81157139Y-108277619D02*
X81252377Y-108230000D01*
X81252377Y-108230000D02*
X81299996Y-108134761D01*
X81299996Y-108134761D02*
X81299996Y-107753809D01*
X81299996Y-107753809D02*
X81252377Y-107658571D01*
X81252377Y-107658571D02*
X81157139Y-107610952D01*
X81157139Y-107610952D02*
X80966663Y-107610952D01*
X80966663Y-107610952D02*
X80871425Y-107658571D01*
X80871425Y-107658571D02*
X80823806Y-107753809D01*
X80823806Y-107753809D02*
X80823806Y-107849047D01*
X80823806Y-107849047D02*
X81299996Y-107944285D01*
X80252377Y-108277619D02*
X80347615Y-108230000D01*
X80347615Y-108230000D02*
X80395234Y-108134761D01*
X80395234Y-108134761D02*
X80395234Y-107277619D01*
X79490472Y-108230000D02*
X79585710Y-108277619D01*
X79585710Y-108277619D02*
X79776186Y-108277619D01*
X79776186Y-108277619D02*
X79871424Y-108230000D01*
X79871424Y-108230000D02*
X79919043Y-108134761D01*
X79919043Y-108134761D02*
X79919043Y-107753809D01*
X79919043Y-107753809D02*
X79871424Y-107658571D01*
X79871424Y-107658571D02*
X79776186Y-107610952D01*
X79776186Y-107610952D02*
X79585710Y-107610952D01*
X79585710Y-107610952D02*
X79490472Y-107658571D01*
X79490472Y-107658571D02*
X79442853Y-107753809D01*
X79442853Y-107753809D02*
X79442853Y-107849047D01*
X79442853Y-107849047D02*
X79919043Y-107944285D01*
X79014281Y-108277619D02*
X79014281Y-107610952D01*
X79014281Y-107801428D02*
X78966662Y-107706190D01*
X78966662Y-107706190D02*
X78919043Y-107658571D01*
X78919043Y-107658571D02*
X78823805Y-107610952D01*
X78823805Y-107610952D02*
X78728567Y-107610952D01*
X117334952Y-104777761D02*
X117469639Y-104643074D01*
X117469639Y-104643074D02*
X117570654Y-104609402D01*
X117570654Y-104609402D02*
X117637998Y-104609402D01*
X117637998Y-104609402D02*
X117806356Y-104643074D01*
X117806356Y-104643074D02*
X117974715Y-104744089D01*
X117974715Y-104744089D02*
X118244089Y-105013463D01*
X118244089Y-105013463D02*
X118277761Y-105114478D01*
X118277761Y-105114478D02*
X118277761Y-105181822D01*
X118277761Y-105181822D02*
X118244089Y-105282837D01*
X118244089Y-105282837D02*
X118109402Y-105417524D01*
X118109402Y-105417524D02*
X118008387Y-105451196D01*
X118008387Y-105451196D02*
X117941043Y-105451196D01*
X117941043Y-105451196D02*
X117840028Y-105417524D01*
X117840028Y-105417524D02*
X117671669Y-105249165D01*
X117671669Y-105249165D02*
X117637998Y-105148150D01*
X117637998Y-105148150D02*
X117637998Y-105080807D01*
X117637998Y-105080807D02*
X117671669Y-104979791D01*
X117671669Y-104979791D02*
X117806356Y-104845104D01*
X117806356Y-104845104D02*
X117907372Y-104811433D01*
X117907372Y-104811433D02*
X117974715Y-104811433D01*
X117974715Y-104811433D02*
X118075730Y-104845104D01*
X117166593Y-105552211D02*
X117200265Y-105451196D01*
X117200265Y-105451196D02*
X117200265Y-105383852D01*
X117200265Y-105383852D02*
X117166593Y-105282837D01*
X117166593Y-105282837D02*
X117132921Y-105249165D01*
X117132921Y-105249165D02*
X117031906Y-105215494D01*
X117031906Y-105215494D02*
X116964562Y-105215494D01*
X116964562Y-105215494D02*
X116863547Y-105249165D01*
X116863547Y-105249165D02*
X116728860Y-105383852D01*
X116728860Y-105383852D02*
X116695188Y-105484868D01*
X116695188Y-105484868D02*
X116695188Y-105552211D01*
X116695188Y-105552211D02*
X116728860Y-105653226D01*
X116728860Y-105653226D02*
X116762532Y-105686898D01*
X116762532Y-105686898D02*
X116863547Y-105720570D01*
X116863547Y-105720570D02*
X116930891Y-105720570D01*
X116930891Y-105720570D02*
X117031906Y-105686898D01*
X117031906Y-105686898D02*
X117166593Y-105552211D01*
X117166593Y-105552211D02*
X117267608Y-105518539D01*
X117267608Y-105518539D02*
X117334952Y-105518539D01*
X117334952Y-105518539D02*
X117435967Y-105552211D01*
X117435967Y-105552211D02*
X117570654Y-105686898D01*
X117570654Y-105686898D02*
X117604326Y-105787913D01*
X117604326Y-105787913D02*
X117604326Y-105855257D01*
X117604326Y-105855257D02*
X117570654Y-105956272D01*
X117570654Y-105956272D02*
X117435967Y-106090959D01*
X117435967Y-106090959D02*
X117334952Y-106124631D01*
X117334952Y-106124631D02*
X117267608Y-106124631D01*
X117267608Y-106124631D02*
X117166593Y-106090959D01*
X117166593Y-106090959D02*
X117031906Y-105956272D01*
X117031906Y-105956272D02*
X116998234Y-105855257D01*
X116998234Y-105855257D02*
X116998234Y-105787913D01*
X116998234Y-105787913D02*
X117031906Y-105686898D01*
X116156440Y-105956272D02*
X116089097Y-106023616D01*
X116089097Y-106023616D02*
X116055425Y-106124631D01*
X116055425Y-106124631D02*
X116055425Y-106191974D01*
X116055425Y-106191974D02*
X116089097Y-106292990D01*
X116089097Y-106292990D02*
X116190112Y-106461348D01*
X116190112Y-106461348D02*
X116358471Y-106629707D01*
X116358471Y-106629707D02*
X116526830Y-106730722D01*
X116526830Y-106730722D02*
X116627845Y-106764394D01*
X116627845Y-106764394D02*
X116695188Y-106764394D01*
X116695188Y-106764394D02*
X116796204Y-106730722D01*
X116796204Y-106730722D02*
X116863547Y-106663379D01*
X116863547Y-106663379D02*
X116897219Y-106562364D01*
X116897219Y-106562364D02*
X116897219Y-106495020D01*
X116897219Y-106495020D02*
X116863547Y-106394005D01*
X116863547Y-106394005D02*
X116762532Y-106225646D01*
X116762532Y-106225646D02*
X116594173Y-106057287D01*
X116594173Y-106057287D02*
X116425814Y-105956272D01*
X116425814Y-105956272D02*
X116324799Y-105922600D01*
X116324799Y-105922600D02*
X116257456Y-105922600D01*
X116257456Y-105922600D02*
X116156440Y-105956272D01*
X115920738Y-107606188D02*
X115819723Y-107033768D01*
X116324799Y-107202127D02*
X115617692Y-106495020D01*
X115617692Y-106495020D02*
X115348318Y-106764394D01*
X115348318Y-106764394D02*
X115314647Y-106865410D01*
X115314647Y-106865410D02*
X115314647Y-106932753D01*
X115314647Y-106932753D02*
X115348318Y-107033768D01*
X115348318Y-107033768D02*
X115449334Y-107134784D01*
X115449334Y-107134784D02*
X115550349Y-107168455D01*
X115550349Y-107168455D02*
X115617692Y-107168455D01*
X115617692Y-107168455D02*
X115718708Y-107134784D01*
X115718708Y-107134784D02*
X115988082Y-106865410D01*
X135622238Y-101834952D02*
X135756925Y-101969639D01*
X135756925Y-101969639D02*
X135790597Y-102070654D01*
X135790597Y-102070654D02*
X135790597Y-102137998D01*
X135790597Y-102137998D02*
X135756925Y-102306356D01*
X135756925Y-102306356D02*
X135655910Y-102474715D01*
X135655910Y-102474715D02*
X135386536Y-102744089D01*
X135386536Y-102744089D02*
X135285521Y-102777761D01*
X135285521Y-102777761D02*
X135218177Y-102777761D01*
X135218177Y-102777761D02*
X135117162Y-102744089D01*
X135117162Y-102744089D02*
X134982475Y-102609402D01*
X134982475Y-102609402D02*
X134948803Y-102508387D01*
X134948803Y-102508387D02*
X134948803Y-102441043D01*
X134948803Y-102441043D02*
X134982475Y-102340028D01*
X134982475Y-102340028D02*
X135150834Y-102171669D01*
X135150834Y-102171669D02*
X135251849Y-102137998D01*
X135251849Y-102137998D02*
X135319192Y-102137998D01*
X135319192Y-102137998D02*
X135420208Y-102171669D01*
X135420208Y-102171669D02*
X135554895Y-102306356D01*
X135554895Y-102306356D02*
X135588566Y-102407372D01*
X135588566Y-102407372D02*
X135588566Y-102474715D01*
X135588566Y-102474715D02*
X135554895Y-102575730D01*
X134847788Y-101666593D02*
X134948803Y-101700265D01*
X134948803Y-101700265D02*
X135016147Y-101700265D01*
X135016147Y-101700265D02*
X135117162Y-101666593D01*
X135117162Y-101666593D02*
X135150834Y-101632921D01*
X135150834Y-101632921D02*
X135184505Y-101531906D01*
X135184505Y-101531906D02*
X135184505Y-101464562D01*
X135184505Y-101464562D02*
X135150834Y-101363547D01*
X135150834Y-101363547D02*
X135016147Y-101228860D01*
X135016147Y-101228860D02*
X134915131Y-101195188D01*
X134915131Y-101195188D02*
X134847788Y-101195188D01*
X134847788Y-101195188D02*
X134746773Y-101228860D01*
X134746773Y-101228860D02*
X134713101Y-101262532D01*
X134713101Y-101262532D02*
X134679429Y-101363547D01*
X134679429Y-101363547D02*
X134679429Y-101430891D01*
X134679429Y-101430891D02*
X134713101Y-101531906D01*
X134713101Y-101531906D02*
X134847788Y-101666593D01*
X134847788Y-101666593D02*
X134881460Y-101767608D01*
X134881460Y-101767608D02*
X134881460Y-101834952D01*
X134881460Y-101834952D02*
X134847788Y-101935967D01*
X134847788Y-101935967D02*
X134713101Y-102070654D01*
X134713101Y-102070654D02*
X134612086Y-102104326D01*
X134612086Y-102104326D02*
X134544742Y-102104326D01*
X134544742Y-102104326D02*
X134443727Y-102070654D01*
X134443727Y-102070654D02*
X134309040Y-101935967D01*
X134309040Y-101935967D02*
X134275368Y-101834952D01*
X134275368Y-101834952D02*
X134275368Y-101767608D01*
X134275368Y-101767608D02*
X134309040Y-101666593D01*
X134309040Y-101666593D02*
X134443727Y-101531906D01*
X134443727Y-101531906D02*
X134544742Y-101498234D01*
X134544742Y-101498234D02*
X134612086Y-101498234D01*
X134612086Y-101498234D02*
X134713101Y-101531906D01*
X134443727Y-100656440D02*
X134376383Y-100589097D01*
X134376383Y-100589097D02*
X134275368Y-100555425D01*
X134275368Y-100555425D02*
X134208025Y-100555425D01*
X134208025Y-100555425D02*
X134107009Y-100589097D01*
X134107009Y-100589097D02*
X133938651Y-100690112D01*
X133938651Y-100690112D02*
X133770292Y-100858471D01*
X133770292Y-100858471D02*
X133669277Y-101026830D01*
X133669277Y-101026830D02*
X133635605Y-101127845D01*
X133635605Y-101127845D02*
X133635605Y-101195188D01*
X133635605Y-101195188D02*
X133669277Y-101296204D01*
X133669277Y-101296204D02*
X133736620Y-101363547D01*
X133736620Y-101363547D02*
X133837635Y-101397219D01*
X133837635Y-101397219D02*
X133904979Y-101397219D01*
X133904979Y-101397219D02*
X134005994Y-101363547D01*
X134005994Y-101363547D02*
X134174353Y-101262532D01*
X134174353Y-101262532D02*
X134342712Y-101094173D01*
X134342712Y-101094173D02*
X134443727Y-100925814D01*
X134443727Y-100925814D02*
X134477399Y-100824799D01*
X134477399Y-100824799D02*
X134477399Y-100757456D01*
X134477399Y-100757456D02*
X134443727Y-100656440D01*
X132793811Y-100420738D02*
X133366231Y-100319723D01*
X133197872Y-100824799D02*
X133904979Y-100117692D01*
X133904979Y-100117692D02*
X133635605Y-99848318D01*
X133635605Y-99848318D02*
X133534589Y-99814647D01*
X133534589Y-99814647D02*
X133467246Y-99814647D01*
X133467246Y-99814647D02*
X133366231Y-99848318D01*
X133366231Y-99848318D02*
X133265215Y-99949334D01*
X133265215Y-99949334D02*
X133231544Y-100050349D01*
X133231544Y-100050349D02*
X133231544Y-100117692D01*
X133231544Y-100117692D02*
X133265215Y-100218708D01*
X133265215Y-100218708D02*
X133534589Y-100488082D01*
X132522238Y-105034952D02*
X132656925Y-105169639D01*
X132656925Y-105169639D02*
X132690597Y-105270654D01*
X132690597Y-105270654D02*
X132690597Y-105337998D01*
X132690597Y-105337998D02*
X132656925Y-105506356D01*
X132656925Y-105506356D02*
X132555910Y-105674715D01*
X132555910Y-105674715D02*
X132286536Y-105944089D01*
X132286536Y-105944089D02*
X132185521Y-105977761D01*
X132185521Y-105977761D02*
X132118177Y-105977761D01*
X132118177Y-105977761D02*
X132017162Y-105944089D01*
X132017162Y-105944089D02*
X131882475Y-105809402D01*
X131882475Y-105809402D02*
X131848803Y-105708387D01*
X131848803Y-105708387D02*
X131848803Y-105641043D01*
X131848803Y-105641043D02*
X131882475Y-105540028D01*
X131882475Y-105540028D02*
X132050834Y-105371669D01*
X132050834Y-105371669D02*
X132151849Y-105337998D01*
X132151849Y-105337998D02*
X132219192Y-105337998D01*
X132219192Y-105337998D02*
X132320208Y-105371669D01*
X132320208Y-105371669D02*
X132454895Y-105506356D01*
X132454895Y-105506356D02*
X132488566Y-105607372D01*
X132488566Y-105607372D02*
X132488566Y-105674715D01*
X132488566Y-105674715D02*
X132454895Y-105775730D01*
X131747788Y-104866593D02*
X131848803Y-104900265D01*
X131848803Y-104900265D02*
X131916147Y-104900265D01*
X131916147Y-104900265D02*
X132017162Y-104866593D01*
X132017162Y-104866593D02*
X132050834Y-104832921D01*
X132050834Y-104832921D02*
X132084505Y-104731906D01*
X132084505Y-104731906D02*
X132084505Y-104664562D01*
X132084505Y-104664562D02*
X132050834Y-104563547D01*
X132050834Y-104563547D02*
X131916147Y-104428860D01*
X131916147Y-104428860D02*
X131815131Y-104395188D01*
X131815131Y-104395188D02*
X131747788Y-104395188D01*
X131747788Y-104395188D02*
X131646773Y-104428860D01*
X131646773Y-104428860D02*
X131613101Y-104462532D01*
X131613101Y-104462532D02*
X131579429Y-104563547D01*
X131579429Y-104563547D02*
X131579429Y-104630891D01*
X131579429Y-104630891D02*
X131613101Y-104731906D01*
X131613101Y-104731906D02*
X131747788Y-104866593D01*
X131747788Y-104866593D02*
X131781460Y-104967608D01*
X131781460Y-104967608D02*
X131781460Y-105034952D01*
X131781460Y-105034952D02*
X131747788Y-105135967D01*
X131747788Y-105135967D02*
X131613101Y-105270654D01*
X131613101Y-105270654D02*
X131512086Y-105304326D01*
X131512086Y-105304326D02*
X131444742Y-105304326D01*
X131444742Y-105304326D02*
X131343727Y-105270654D01*
X131343727Y-105270654D02*
X131209040Y-105135967D01*
X131209040Y-105135967D02*
X131175368Y-105034952D01*
X131175368Y-105034952D02*
X131175368Y-104967608D01*
X131175368Y-104967608D02*
X131209040Y-104866593D01*
X131209040Y-104866593D02*
X131343727Y-104731906D01*
X131343727Y-104731906D02*
X131444742Y-104698234D01*
X131444742Y-104698234D02*
X131512086Y-104698234D01*
X131512086Y-104698234D02*
X131613101Y-104731906D01*
X131343727Y-103856440D02*
X131276383Y-103789097D01*
X131276383Y-103789097D02*
X131175368Y-103755425D01*
X131175368Y-103755425D02*
X131108025Y-103755425D01*
X131108025Y-103755425D02*
X131007009Y-103789097D01*
X131007009Y-103789097D02*
X130838651Y-103890112D01*
X130838651Y-103890112D02*
X130670292Y-104058471D01*
X130670292Y-104058471D02*
X130569277Y-104226830D01*
X130569277Y-104226830D02*
X130535605Y-104327845D01*
X130535605Y-104327845D02*
X130535605Y-104395188D01*
X130535605Y-104395188D02*
X130569277Y-104496204D01*
X130569277Y-104496204D02*
X130636620Y-104563547D01*
X130636620Y-104563547D02*
X130737635Y-104597219D01*
X130737635Y-104597219D02*
X130804979Y-104597219D01*
X130804979Y-104597219D02*
X130905994Y-104563547D01*
X130905994Y-104563547D02*
X131074353Y-104462532D01*
X131074353Y-104462532D02*
X131242712Y-104294173D01*
X131242712Y-104294173D02*
X131343727Y-104125814D01*
X131343727Y-104125814D02*
X131377399Y-104024799D01*
X131377399Y-104024799D02*
X131377399Y-103957456D01*
X131377399Y-103957456D02*
X131343727Y-103856440D01*
X129693811Y-103620738D02*
X130266231Y-103519723D01*
X130097872Y-104024799D02*
X130804979Y-103317692D01*
X130804979Y-103317692D02*
X130535605Y-103048318D01*
X130535605Y-103048318D02*
X130434589Y-103014647D01*
X130434589Y-103014647D02*
X130367246Y-103014647D01*
X130367246Y-103014647D02*
X130266231Y-103048318D01*
X130266231Y-103048318D02*
X130165215Y-103149334D01*
X130165215Y-103149334D02*
X130131544Y-103250349D01*
X130131544Y-103250349D02*
X130131544Y-103317692D01*
X130131544Y-103317692D02*
X130165215Y-103418708D01*
X130165215Y-103418708D02*
X130434589Y-103688082D01*
D14*
X108042857Y-79916166D02*
X108042857Y-78516166D01*
X108042857Y-78516166D02*
X107542857Y-79516166D01*
X107542857Y-79516166D02*
X107042857Y-78516166D01*
X107042857Y-78516166D02*
X107042857Y-79916166D01*
X106328571Y-78516166D02*
X106328571Y-79649500D01*
X106328571Y-79649500D02*
X106257142Y-79782833D01*
X106257142Y-79782833D02*
X106185714Y-79849500D01*
X106185714Y-79849500D02*
X106042856Y-79916166D01*
X106042856Y-79916166D02*
X105757142Y-79916166D01*
X105757142Y-79916166D02*
X105614285Y-79849500D01*
X105614285Y-79849500D02*
X105542856Y-79782833D01*
X105542856Y-79782833D02*
X105471428Y-79649500D01*
X105471428Y-79649500D02*
X105471428Y-78516166D01*
X104042856Y-79916166D02*
X104757142Y-79916166D01*
X104757142Y-79916166D02*
X104757142Y-78516166D01*
X103757141Y-78516166D02*
X102899999Y-78516166D01*
X103328570Y-79916166D02*
X103328570Y-78516166D01*
X102399999Y-79916166D02*
X102399999Y-78516166D01*
X101685713Y-79916166D02*
X101685713Y-78516166D01*
X101685713Y-78516166D02*
X101114284Y-78516166D01*
X101114284Y-78516166D02*
X100971427Y-78582833D01*
X100971427Y-78582833D02*
X100899998Y-78649500D01*
X100899998Y-78649500D02*
X100828570Y-78782833D01*
X100828570Y-78782833D02*
X100828570Y-78982833D01*
X100828570Y-78982833D02*
X100899998Y-79116166D01*
X100899998Y-79116166D02*
X100971427Y-79182833D01*
X100971427Y-79182833D02*
X101114284Y-79249500D01*
X101114284Y-79249500D02*
X101685713Y-79249500D01*
X99899998Y-78516166D02*
X99614284Y-78516166D01*
X99614284Y-78516166D02*
X99471427Y-78582833D01*
X99471427Y-78582833D02*
X99328570Y-78716166D01*
X99328570Y-78716166D02*
X99257141Y-78982833D01*
X99257141Y-78982833D02*
X99257141Y-79449500D01*
X99257141Y-79449500D02*
X99328570Y-79716166D01*
X99328570Y-79716166D02*
X99471427Y-79849500D01*
X99471427Y-79849500D02*
X99614284Y-79916166D01*
X99614284Y-79916166D02*
X99899998Y-79916166D01*
X99899998Y-79916166D02*
X100042856Y-79849500D01*
X100042856Y-79849500D02*
X100185713Y-79716166D01*
X100185713Y-79716166D02*
X100257141Y-79449500D01*
X100257141Y-79449500D02*
X100257141Y-78982833D01*
X100257141Y-78982833D02*
X100185713Y-78716166D01*
X100185713Y-78716166D02*
X100042856Y-78582833D01*
X100042856Y-78582833D02*
X99899998Y-78516166D01*
X97757141Y-79916166D02*
X98257141Y-79249500D01*
X98614284Y-79916166D02*
X98614284Y-78516166D01*
X98614284Y-78516166D02*
X98042855Y-78516166D01*
X98042855Y-78516166D02*
X97899998Y-78582833D01*
X97899998Y-78582833D02*
X97828569Y-78649500D01*
X97828569Y-78649500D02*
X97757141Y-78782833D01*
X97757141Y-78782833D02*
X97757141Y-78982833D01*
X97757141Y-78982833D02*
X97828569Y-79116166D01*
X97828569Y-79116166D02*
X97899998Y-79182833D01*
X97899998Y-79182833D02*
X98042855Y-79249500D01*
X98042855Y-79249500D02*
X98614284Y-79249500D01*
X97328569Y-78516166D02*
X96471427Y-78516166D01*
X96899998Y-79916166D02*
X96899998Y-78516166D01*
X93971427Y-79782833D02*
X94042855Y-79849500D01*
X94042855Y-79849500D02*
X94257141Y-79916166D01*
X94257141Y-79916166D02*
X94399998Y-79916166D01*
X94399998Y-79916166D02*
X94614284Y-79849500D01*
X94614284Y-79849500D02*
X94757141Y-79716166D01*
X94757141Y-79716166D02*
X94828570Y-79582833D01*
X94828570Y-79582833D02*
X94899998Y-79316166D01*
X94899998Y-79316166D02*
X94899998Y-79116166D01*
X94899998Y-79116166D02*
X94828570Y-78849500D01*
X94828570Y-78849500D02*
X94757141Y-78716166D01*
X94757141Y-78716166D02*
X94614284Y-78582833D01*
X94614284Y-78582833D02*
X94399998Y-78516166D01*
X94399998Y-78516166D02*
X94257141Y-78516166D01*
X94257141Y-78516166D02*
X94042855Y-78582833D01*
X94042855Y-78582833D02*
X93971427Y-78649500D01*
X93042855Y-78516166D02*
X92757141Y-78516166D01*
X92757141Y-78516166D02*
X92614284Y-78582833D01*
X92614284Y-78582833D02*
X92471427Y-78716166D01*
X92471427Y-78716166D02*
X92399998Y-78982833D01*
X92399998Y-78982833D02*
X92399998Y-79449500D01*
X92399998Y-79449500D02*
X92471427Y-79716166D01*
X92471427Y-79716166D02*
X92614284Y-79849500D01*
X92614284Y-79849500D02*
X92757141Y-79916166D01*
X92757141Y-79916166D02*
X93042855Y-79916166D01*
X93042855Y-79916166D02*
X93185713Y-79849500D01*
X93185713Y-79849500D02*
X93328570Y-79716166D01*
X93328570Y-79716166D02*
X93399998Y-79449500D01*
X93399998Y-79449500D02*
X93399998Y-78982833D01*
X93399998Y-78982833D02*
X93328570Y-78716166D01*
X93328570Y-78716166D02*
X93185713Y-78582833D01*
X93185713Y-78582833D02*
X93042855Y-78516166D01*
X91757141Y-79916166D02*
X91757141Y-78516166D01*
X91757141Y-78516166D02*
X91257141Y-79516166D01*
X91257141Y-79516166D02*
X90757141Y-78516166D01*
X90757141Y-78516166D02*
X90757141Y-79916166D01*
X90042855Y-79916166D02*
X90042855Y-78516166D01*
X90042855Y-78516166D02*
X89471426Y-78516166D01*
X89471426Y-78516166D02*
X89328569Y-78582833D01*
X89328569Y-78582833D02*
X89257140Y-78649500D01*
X89257140Y-78649500D02*
X89185712Y-78782833D01*
X89185712Y-78782833D02*
X89185712Y-78982833D01*
X89185712Y-78982833D02*
X89257140Y-79116166D01*
X89257140Y-79116166D02*
X89328569Y-79182833D01*
X89328569Y-79182833D02*
X89471426Y-79249500D01*
X89471426Y-79249500D02*
X90042855Y-79249500D01*
X88257140Y-78516166D02*
X87971426Y-78516166D01*
X87971426Y-78516166D02*
X87828569Y-78582833D01*
X87828569Y-78582833D02*
X87685712Y-78716166D01*
X87685712Y-78716166D02*
X87614283Y-78982833D01*
X87614283Y-78982833D02*
X87614283Y-79449500D01*
X87614283Y-79449500D02*
X87685712Y-79716166D01*
X87685712Y-79716166D02*
X87828569Y-79849500D01*
X87828569Y-79849500D02*
X87971426Y-79916166D01*
X87971426Y-79916166D02*
X88257140Y-79916166D01*
X88257140Y-79916166D02*
X88399998Y-79849500D01*
X88399998Y-79849500D02*
X88542855Y-79716166D01*
X88542855Y-79716166D02*
X88614283Y-79449500D01*
X88614283Y-79449500D02*
X88614283Y-78982833D01*
X88614283Y-78982833D02*
X88542855Y-78716166D01*
X88542855Y-78716166D02*
X88399998Y-78582833D01*
X88399998Y-78582833D02*
X88257140Y-78516166D01*
X86971426Y-79916166D02*
X86971426Y-78516166D01*
X86971426Y-78516166D02*
X86114283Y-79916166D01*
X86114283Y-79916166D02*
X86114283Y-78516166D01*
X85399997Y-79182833D02*
X84899997Y-79182833D01*
X84685711Y-79916166D02*
X85399997Y-79916166D01*
X85399997Y-79916166D02*
X85399997Y-78516166D01*
X85399997Y-78516166D02*
X84685711Y-78516166D01*
X84042854Y-79916166D02*
X84042854Y-78516166D01*
X84042854Y-78516166D02*
X83185711Y-79916166D01*
X83185711Y-79916166D02*
X83185711Y-78516166D01*
X82685710Y-78516166D02*
X81828568Y-78516166D01*
X82257139Y-79916166D02*
X82257139Y-78516166D01*
X80399996Y-78516166D02*
X79542854Y-78516166D01*
X79971425Y-79916166D02*
X79971425Y-78516166D01*
X79042854Y-79182833D02*
X78542854Y-79182833D01*
X78328568Y-79916166D02*
X79042854Y-79916166D01*
X79042854Y-79916166D02*
X79042854Y-78516166D01*
X79042854Y-78516166D02*
X78328568Y-78516166D01*
X77757139Y-79849500D02*
X77542854Y-79916166D01*
X77542854Y-79916166D02*
X77185711Y-79916166D01*
X77185711Y-79916166D02*
X77042854Y-79849500D01*
X77042854Y-79849500D02*
X76971425Y-79782833D01*
X76971425Y-79782833D02*
X76899996Y-79649500D01*
X76899996Y-79649500D02*
X76899996Y-79516166D01*
X76899996Y-79516166D02*
X76971425Y-79382833D01*
X76971425Y-79382833D02*
X77042854Y-79316166D01*
X77042854Y-79316166D02*
X77185711Y-79249500D01*
X77185711Y-79249500D02*
X77471425Y-79182833D01*
X77471425Y-79182833D02*
X77614282Y-79116166D01*
X77614282Y-79116166D02*
X77685711Y-79049500D01*
X77685711Y-79049500D02*
X77757139Y-78916166D01*
X77757139Y-78916166D02*
X77757139Y-78782833D01*
X77757139Y-78782833D02*
X77685711Y-78649500D01*
X77685711Y-78649500D02*
X77614282Y-78582833D01*
X77614282Y-78582833D02*
X77471425Y-78516166D01*
X77471425Y-78516166D02*
X77114282Y-78516166D01*
X77114282Y-78516166D02*
X76899996Y-78582833D01*
X76471425Y-78516166D02*
X75614283Y-78516166D01*
X76042854Y-79916166D02*
X76042854Y-78516166D01*
X75114283Y-79182833D02*
X74614283Y-79182833D01*
X74399997Y-79916166D02*
X75114283Y-79916166D01*
X75114283Y-79916166D02*
X75114283Y-78516166D01*
X75114283Y-78516166D02*
X74399997Y-78516166D01*
X72899997Y-79916166D02*
X73399997Y-79249500D01*
X73757140Y-79916166D02*
X73757140Y-78516166D01*
X73757140Y-78516166D02*
X73185711Y-78516166D01*
X73185711Y-78516166D02*
X73042854Y-78582833D01*
X73042854Y-78582833D02*
X72971425Y-78649500D01*
X72971425Y-78649500D02*
X72899997Y-78782833D01*
X72899997Y-78782833D02*
X72899997Y-78982833D01*
X72899997Y-78982833D02*
X72971425Y-79116166D01*
X72971425Y-79116166D02*
X73042854Y-79182833D01*
X73042854Y-79182833D02*
X73185711Y-79249500D01*
X73185711Y-79249500D02*
X73757140Y-79249500D01*
D13*
X115247788Y-84074715D02*
X115651849Y-84478776D01*
X115449818Y-84276746D02*
X116156925Y-83569639D01*
X116156925Y-83569639D02*
X116123253Y-83737998D01*
X116123253Y-83737998D02*
X116123253Y-83872685D01*
X116123253Y-83872685D02*
X116156925Y-83973700D01*
X115517162Y-82929875D02*
X115449818Y-82862532D01*
X115449818Y-82862532D02*
X115348803Y-82828860D01*
X115348803Y-82828860D02*
X115281460Y-82828860D01*
X115281460Y-82828860D02*
X115180444Y-82862532D01*
X115180444Y-82862532D02*
X115012086Y-82963547D01*
X115012086Y-82963547D02*
X114843727Y-83131906D01*
X114843727Y-83131906D02*
X114742712Y-83300265D01*
X114742712Y-83300265D02*
X114709040Y-83401280D01*
X114709040Y-83401280D02*
X114709040Y-83468624D01*
X114709040Y-83468624D02*
X114742712Y-83569639D01*
X114742712Y-83569639D02*
X114810055Y-83636982D01*
X114810055Y-83636982D02*
X114911070Y-83670654D01*
X114911070Y-83670654D02*
X114978414Y-83670654D01*
X114978414Y-83670654D02*
X115079429Y-83636982D01*
X115079429Y-83636982D02*
X115247788Y-83535967D01*
X115247788Y-83535967D02*
X115416147Y-83367608D01*
X115416147Y-83367608D02*
X115517162Y-83199250D01*
X115517162Y-83199250D02*
X115550834Y-83098234D01*
X115550834Y-83098234D02*
X115550834Y-83030891D01*
X115550834Y-83030891D02*
X115517162Y-82929875D01*
X114271307Y-83098234D02*
X114978414Y-82391127D01*
X113867246Y-82694173D02*
X114574353Y-82593158D01*
X114574353Y-81987066D02*
X114574353Y-82795188D01*
X142681904Y-101477619D02*
X142681904Y-100477619D01*
X141634286Y-101382380D02*
X141681905Y-101430000D01*
X141681905Y-101430000D02*
X141824762Y-101477619D01*
X141824762Y-101477619D02*
X141920000Y-101477619D01*
X141920000Y-101477619D02*
X142062857Y-101430000D01*
X142062857Y-101430000D02*
X142158095Y-101334761D01*
X142158095Y-101334761D02*
X142205714Y-101239523D01*
X142205714Y-101239523D02*
X142253333Y-101049047D01*
X142253333Y-101049047D02*
X142253333Y-100906190D01*
X142253333Y-100906190D02*
X142205714Y-100715714D01*
X142205714Y-100715714D02*
X142158095Y-100620476D01*
X142158095Y-100620476D02*
X142062857Y-100525238D01*
X142062857Y-100525238D02*
X141920000Y-100477619D01*
X141920000Y-100477619D02*
X141824762Y-100477619D01*
X141824762Y-100477619D02*
X141681905Y-100525238D01*
X141681905Y-100525238D02*
X141634286Y-100572857D01*
X141253333Y-101430000D02*
X141110476Y-101477619D01*
X141110476Y-101477619D02*
X140872381Y-101477619D01*
X140872381Y-101477619D02*
X140777143Y-101430000D01*
X140777143Y-101430000D02*
X140729524Y-101382380D01*
X140729524Y-101382380D02*
X140681905Y-101287142D01*
X140681905Y-101287142D02*
X140681905Y-101191904D01*
X140681905Y-101191904D02*
X140729524Y-101096666D01*
X140729524Y-101096666D02*
X140777143Y-101049047D01*
X140777143Y-101049047D02*
X140872381Y-101001428D01*
X140872381Y-101001428D02*
X141062857Y-100953809D01*
X141062857Y-100953809D02*
X141158095Y-100906190D01*
X141158095Y-100906190D02*
X141205714Y-100858571D01*
X141205714Y-100858571D02*
X141253333Y-100763333D01*
X141253333Y-100763333D02*
X141253333Y-100668095D01*
X141253333Y-100668095D02*
X141205714Y-100572857D01*
X141205714Y-100572857D02*
X141158095Y-100525238D01*
X141158095Y-100525238D02*
X141062857Y-100477619D01*
X141062857Y-100477619D02*
X140824762Y-100477619D01*
X140824762Y-100477619D02*
X140681905Y-100525238D01*
X140253333Y-101477619D02*
X140253333Y-100477619D01*
X140253333Y-100477619D02*
X139872381Y-100477619D01*
X139872381Y-100477619D02*
X139777143Y-100525238D01*
X139777143Y-100525238D02*
X139729524Y-100572857D01*
X139729524Y-100572857D02*
X139681905Y-100668095D01*
X139681905Y-100668095D02*
X139681905Y-100810952D01*
X139681905Y-100810952D02*
X139729524Y-100906190D01*
X139729524Y-100906190D02*
X139777143Y-100953809D01*
X139777143Y-100953809D02*
X139872381Y-101001428D01*
X139872381Y-101001428D02*
X140253333Y-101001428D01*
D15*
X108009523Y-81391904D02*
X107533333Y-81391904D01*
X108104761Y-81677619D02*
X107771428Y-80677619D01*
X107771428Y-80677619D02*
X107438095Y-81677619D01*
X107247618Y-80677619D02*
X106676190Y-80677619D01*
X106961904Y-81677619D02*
X106961904Y-80677619D01*
X106342856Y-81677619D02*
X106342856Y-80677619D01*
X106342856Y-80677619D02*
X106009523Y-81391904D01*
X106009523Y-81391904D02*
X105676190Y-80677619D01*
X105676190Y-80677619D02*
X105676190Y-81677619D01*
X105199999Y-81153809D02*
X104866666Y-81153809D01*
X104723809Y-81677619D02*
X105199999Y-81677619D01*
X105199999Y-81677619D02*
X105199999Y-80677619D01*
X105199999Y-80677619D02*
X104723809Y-80677619D01*
X103771428Y-80725238D02*
X103866666Y-80677619D01*
X103866666Y-80677619D02*
X104009523Y-80677619D01*
X104009523Y-80677619D02*
X104152380Y-80725238D01*
X104152380Y-80725238D02*
X104247618Y-80820476D01*
X104247618Y-80820476D02*
X104295237Y-80915714D01*
X104295237Y-80915714D02*
X104342856Y-81106190D01*
X104342856Y-81106190D02*
X104342856Y-81249047D01*
X104342856Y-81249047D02*
X104295237Y-81439523D01*
X104295237Y-81439523D02*
X104247618Y-81534761D01*
X104247618Y-81534761D02*
X104152380Y-81630000D01*
X104152380Y-81630000D02*
X104009523Y-81677619D01*
X104009523Y-81677619D02*
X103914285Y-81677619D01*
X103914285Y-81677619D02*
X103771428Y-81630000D01*
X103771428Y-81630000D02*
X103723809Y-81582380D01*
X103723809Y-81582380D02*
X103723809Y-81249047D01*
X103723809Y-81249047D02*
X103914285Y-81249047D01*
X103342856Y-81391904D02*
X102866666Y-81391904D01*
X103438094Y-81677619D02*
X103104761Y-80677619D01*
X103104761Y-80677619D02*
X102771428Y-81677619D01*
X102533332Y-80677619D02*
X101914285Y-80677619D01*
X101914285Y-80677619D02*
X102247618Y-81058571D01*
X102247618Y-81058571D02*
X102104761Y-81058571D01*
X102104761Y-81058571D02*
X102009523Y-81106190D01*
X102009523Y-81106190D02*
X101961904Y-81153809D01*
X101961904Y-81153809D02*
X101914285Y-81249047D01*
X101914285Y-81249047D02*
X101914285Y-81487142D01*
X101914285Y-81487142D02*
X101961904Y-81582380D01*
X101961904Y-81582380D02*
X102009523Y-81630000D01*
X102009523Y-81630000D02*
X102104761Y-81677619D01*
X102104761Y-81677619D02*
X102390475Y-81677619D01*
X102390475Y-81677619D02*
X102485713Y-81630000D01*
X102485713Y-81630000D02*
X102533332Y-81582380D01*
X101533332Y-80772857D02*
X101485713Y-80725238D01*
X101485713Y-80725238D02*
X101390475Y-80677619D01*
X101390475Y-80677619D02*
X101152380Y-80677619D01*
X101152380Y-80677619D02*
X101057142Y-80725238D01*
X101057142Y-80725238D02*
X101009523Y-80772857D01*
X101009523Y-80772857D02*
X100961904Y-80868095D01*
X100961904Y-80868095D02*
X100961904Y-80963333D01*
X100961904Y-80963333D02*
X101009523Y-81106190D01*
X101009523Y-81106190D02*
X101580951Y-81677619D01*
X101580951Y-81677619D02*
X100961904Y-81677619D01*
X100390475Y-81106190D02*
X100485713Y-81058571D01*
X100485713Y-81058571D02*
X100533332Y-81010952D01*
X100533332Y-81010952D02*
X100580951Y-80915714D01*
X100580951Y-80915714D02*
X100580951Y-80868095D01*
X100580951Y-80868095D02*
X100533332Y-80772857D01*
X100533332Y-80772857D02*
X100485713Y-80725238D01*
X100485713Y-80725238D02*
X100390475Y-80677619D01*
X100390475Y-80677619D02*
X100199999Y-80677619D01*
X100199999Y-80677619D02*
X100104761Y-80725238D01*
X100104761Y-80725238D02*
X100057142Y-80772857D01*
X100057142Y-80772857D02*
X100009523Y-80868095D01*
X100009523Y-80868095D02*
X100009523Y-80915714D01*
X100009523Y-80915714D02*
X100057142Y-81010952D01*
X100057142Y-81010952D02*
X100104761Y-81058571D01*
X100104761Y-81058571D02*
X100199999Y-81106190D01*
X100199999Y-81106190D02*
X100390475Y-81106190D01*
X100390475Y-81106190D02*
X100485713Y-81153809D01*
X100485713Y-81153809D02*
X100533332Y-81201428D01*
X100533332Y-81201428D02*
X100580951Y-81296666D01*
X100580951Y-81296666D02*
X100580951Y-81487142D01*
X100580951Y-81487142D02*
X100533332Y-81582380D01*
X100533332Y-81582380D02*
X100485713Y-81630000D01*
X100485713Y-81630000D02*
X100390475Y-81677619D01*
X100390475Y-81677619D02*
X100199999Y-81677619D01*
X100199999Y-81677619D02*
X100104761Y-81630000D01*
X100104761Y-81630000D02*
X100057142Y-81582380D01*
X100057142Y-81582380D02*
X100009523Y-81487142D01*
X100009523Y-81487142D02*
X100009523Y-81296666D01*
X100009523Y-81296666D02*
X100057142Y-81201428D01*
X100057142Y-81201428D02*
X100104761Y-81153809D01*
X100104761Y-81153809D02*
X100199999Y-81106190D01*
X99580951Y-81677619D02*
X99580951Y-80677619D01*
X99580951Y-80677619D02*
X99199999Y-80677619D01*
X99199999Y-80677619D02*
X99104761Y-80725238D01*
X99104761Y-80725238D02*
X99057142Y-80772857D01*
X99057142Y-80772857D02*
X99009523Y-80868095D01*
X99009523Y-80868095D02*
X99009523Y-81010952D01*
X99009523Y-81010952D02*
X99057142Y-81106190D01*
X99057142Y-81106190D02*
X99104761Y-81153809D01*
X99104761Y-81153809D02*
X99199999Y-81201428D01*
X99199999Y-81201428D02*
X99580951Y-81201428D01*
X98580951Y-81296666D02*
X97819047Y-81296666D01*
X97390475Y-81391904D02*
X96914285Y-81391904D01*
X97485713Y-81677619D02*
X97152380Y-80677619D01*
X97152380Y-80677619D02*
X96819047Y-81677619D01*
X96485713Y-80677619D02*
X96485713Y-81487142D01*
X96485713Y-81487142D02*
X96438094Y-81582380D01*
X96438094Y-81582380D02*
X96390475Y-81630000D01*
X96390475Y-81630000D02*
X96295237Y-81677619D01*
X96295237Y-81677619D02*
X96104761Y-81677619D01*
X96104761Y-81677619D02*
X96009523Y-81630000D01*
X96009523Y-81630000D02*
X95961904Y-81582380D01*
X95961904Y-81582380D02*
X95914285Y-81487142D01*
X95914285Y-81487142D02*
X95914285Y-80677619D01*
X94866666Y-81677619D02*
X95199999Y-81201428D01*
X95438094Y-81677619D02*
X95438094Y-80677619D01*
X95438094Y-80677619D02*
X95057142Y-80677619D01*
X95057142Y-80677619D02*
X94961904Y-80725238D01*
X94961904Y-80725238D02*
X94914285Y-80772857D01*
X94914285Y-80772857D02*
X94866666Y-80868095D01*
X94866666Y-80868095D02*
X94866666Y-81010952D01*
X94866666Y-81010952D02*
X94914285Y-81106190D01*
X94914285Y-81106190D02*
X94961904Y-81153809D01*
X94961904Y-81153809D02*
X95057142Y-81201428D01*
X95057142Y-81201428D02*
X95438094Y-81201428D01*
D13*
X134574715Y-84652211D02*
X134978776Y-84248150D01*
X134776746Y-84450181D02*
X134069639Y-83743074D01*
X134069639Y-83743074D02*
X134237998Y-83776746D01*
X134237998Y-83776746D02*
X134372685Y-83776746D01*
X134372685Y-83776746D02*
X134473700Y-83743074D01*
X133429875Y-84382837D02*
X133362532Y-84450181D01*
X133362532Y-84450181D02*
X133328860Y-84551196D01*
X133328860Y-84551196D02*
X133328860Y-84618539D01*
X133328860Y-84618539D02*
X133362532Y-84719555D01*
X133362532Y-84719555D02*
X133463547Y-84887913D01*
X133463547Y-84887913D02*
X133631906Y-85056272D01*
X133631906Y-85056272D02*
X133800265Y-85157287D01*
X133800265Y-85157287D02*
X133901280Y-85190959D01*
X133901280Y-85190959D02*
X133968624Y-85190959D01*
X133968624Y-85190959D02*
X134069639Y-85157287D01*
X134069639Y-85157287D02*
X134136982Y-85089944D01*
X134136982Y-85089944D02*
X134170654Y-84988929D01*
X134170654Y-84988929D02*
X134170654Y-84921585D01*
X134170654Y-84921585D02*
X134136982Y-84820570D01*
X134136982Y-84820570D02*
X134035967Y-84652211D01*
X134035967Y-84652211D02*
X133867608Y-84483852D01*
X133867608Y-84483852D02*
X133699250Y-84382837D01*
X133699250Y-84382837D02*
X133598234Y-84349165D01*
X133598234Y-84349165D02*
X133530891Y-84349165D01*
X133530891Y-84349165D02*
X133429875Y-84382837D01*
X132756440Y-85056272D02*
X132689097Y-85123616D01*
X132689097Y-85123616D02*
X132655425Y-85224631D01*
X132655425Y-85224631D02*
X132655425Y-85291974D01*
X132655425Y-85291974D02*
X132689097Y-85392990D01*
X132689097Y-85392990D02*
X132790112Y-85561348D01*
X132790112Y-85561348D02*
X132958471Y-85729707D01*
X132958471Y-85729707D02*
X133126830Y-85830722D01*
X133126830Y-85830722D02*
X133227845Y-85864394D01*
X133227845Y-85864394D02*
X133295188Y-85864394D01*
X133295188Y-85864394D02*
X133396204Y-85830722D01*
X133396204Y-85830722D02*
X133463547Y-85763379D01*
X133463547Y-85763379D02*
X133497219Y-85662364D01*
X133497219Y-85662364D02*
X133497219Y-85595020D01*
X133497219Y-85595020D02*
X133463547Y-85494005D01*
X133463547Y-85494005D02*
X133362532Y-85325646D01*
X133362532Y-85325646D02*
X133194173Y-85157287D01*
X133194173Y-85157287D02*
X133025814Y-85056272D01*
X133025814Y-85056272D02*
X132924799Y-85022600D01*
X132924799Y-85022600D02*
X132857456Y-85022600D01*
X132857456Y-85022600D02*
X132756440Y-85056272D01*
X132453395Y-85830723D02*
X132924799Y-86302127D01*
X132520738Y-85898066D02*
X132453395Y-85898066D01*
X132453395Y-85898066D02*
X132352379Y-85931738D01*
X132352379Y-85931738D02*
X132251364Y-86032753D01*
X132251364Y-86032753D02*
X132217692Y-86133768D01*
X132217692Y-86133768D02*
X132251364Y-86234784D01*
X132251364Y-86234784D02*
X132621753Y-86605173D01*
X116070654Y-103313463D02*
X116542059Y-103784868D01*
X115969639Y-102875730D02*
X116643074Y-103212448D01*
X116643074Y-103212448D02*
X116205341Y-103650181D01*
X115531906Y-103380807D02*
X115060501Y-103852211D01*
X115060501Y-103852211D02*
X116070654Y-104256272D01*
X114656440Y-104256272D02*
X114589097Y-104323616D01*
X114589097Y-104323616D02*
X114555425Y-104424631D01*
X114555425Y-104424631D02*
X114555425Y-104491974D01*
X114555425Y-104491974D02*
X114589097Y-104592990D01*
X114589097Y-104592990D02*
X114690112Y-104761348D01*
X114690112Y-104761348D02*
X114858471Y-104929707D01*
X114858471Y-104929707D02*
X115026830Y-105030722D01*
X115026830Y-105030722D02*
X115127845Y-105064394D01*
X115127845Y-105064394D02*
X115195188Y-105064394D01*
X115195188Y-105064394D02*
X115296204Y-105030722D01*
X115296204Y-105030722D02*
X115363547Y-104963379D01*
X115363547Y-104963379D02*
X115397219Y-104862364D01*
X115397219Y-104862364D02*
X115397219Y-104795020D01*
X115397219Y-104795020D02*
X115363547Y-104694005D01*
X115363547Y-104694005D02*
X115262532Y-104525646D01*
X115262532Y-104525646D02*
X115094173Y-104357287D01*
X115094173Y-104357287D02*
X114925814Y-104256272D01*
X114925814Y-104256272D02*
X114824799Y-104222600D01*
X114824799Y-104222600D02*
X114757456Y-104222600D01*
X114757456Y-104222600D02*
X114656440Y-104256272D01*
X114824799Y-105502127D02*
X114117692Y-104795020D01*
X114420738Y-105906188D02*
X114319723Y-105199081D01*
X113713631Y-105199081D02*
X114521753Y-105199081D01*
X151833333Y-96710952D02*
X151833333Y-97377619D01*
X152071428Y-96330000D02*
X152309523Y-97044285D01*
X152309523Y-97044285D02*
X151690476Y-97044285D01*
X151404761Y-96377619D02*
X150738095Y-96377619D01*
X150738095Y-96377619D02*
X151166666Y-97377619D01*
X149928571Y-96710952D02*
X149928571Y-97377619D01*
X150357142Y-96710952D02*
X150357142Y-97234761D01*
X150357142Y-97234761D02*
X150309523Y-97330000D01*
X150309523Y-97330000D02*
X150214285Y-97377619D01*
X150214285Y-97377619D02*
X150071428Y-97377619D01*
X150071428Y-97377619D02*
X149976190Y-97330000D01*
X149976190Y-97330000D02*
X149928571Y-97282380D01*
X133886536Y-103570654D02*
X133415131Y-104042059D01*
X134324269Y-103469639D02*
X133987551Y-104143074D01*
X133987551Y-104143074D02*
X133549818Y-103705341D01*
X133819192Y-103031906D02*
X133347788Y-102560501D01*
X133347788Y-102560501D02*
X132943727Y-103570654D01*
X132943727Y-102156440D02*
X132876383Y-102089097D01*
X132876383Y-102089097D02*
X132775368Y-102055425D01*
X132775368Y-102055425D02*
X132708025Y-102055425D01*
X132708025Y-102055425D02*
X132607009Y-102089097D01*
X132607009Y-102089097D02*
X132438651Y-102190112D01*
X132438651Y-102190112D02*
X132270292Y-102358471D01*
X132270292Y-102358471D02*
X132169277Y-102526830D01*
X132169277Y-102526830D02*
X132135605Y-102627845D01*
X132135605Y-102627845D02*
X132135605Y-102695188D01*
X132135605Y-102695188D02*
X132169277Y-102796204D01*
X132169277Y-102796204D02*
X132236620Y-102863547D01*
X132236620Y-102863547D02*
X132337635Y-102897219D01*
X132337635Y-102897219D02*
X132404979Y-102897219D01*
X132404979Y-102897219D02*
X132505994Y-102863547D01*
X132505994Y-102863547D02*
X132674353Y-102762532D01*
X132674353Y-102762532D02*
X132842712Y-102594173D01*
X132842712Y-102594173D02*
X132943727Y-102425814D01*
X132943727Y-102425814D02*
X132977399Y-102324799D01*
X132977399Y-102324799D02*
X132977399Y-102257456D01*
X132977399Y-102257456D02*
X132943727Y-102156440D01*
X131697872Y-102324799D02*
X132404979Y-101617692D01*
X131293811Y-101920738D02*
X132000918Y-101819723D01*
X132000918Y-101213631D02*
X132000918Y-102021753D01*
D16*
X153209523Y-81862857D02*
X153161904Y-81815238D01*
X153161904Y-81815238D02*
X153066666Y-81767619D01*
X153066666Y-81767619D02*
X152828571Y-81767619D01*
X152828571Y-81767619D02*
X152733333Y-81815238D01*
X152733333Y-81815238D02*
X152685714Y-81862857D01*
X152685714Y-81862857D02*
X152638095Y-81958095D01*
X152638095Y-81958095D02*
X152638095Y-82053333D01*
X152638095Y-82053333D02*
X152685714Y-82196190D01*
X152685714Y-82196190D02*
X153257142Y-82767619D01*
X153257142Y-82767619D02*
X152638095Y-82767619D01*
X152019047Y-81767619D02*
X151923809Y-81767619D01*
X151923809Y-81767619D02*
X151828571Y-81815238D01*
X151828571Y-81815238D02*
X151780952Y-81862857D01*
X151780952Y-81862857D02*
X151733333Y-81958095D01*
X151733333Y-81958095D02*
X151685714Y-82148571D01*
X151685714Y-82148571D02*
X151685714Y-82386666D01*
X151685714Y-82386666D02*
X151733333Y-82577142D01*
X151733333Y-82577142D02*
X151780952Y-82672380D01*
X151780952Y-82672380D02*
X151828571Y-82720000D01*
X151828571Y-82720000D02*
X151923809Y-82767619D01*
X151923809Y-82767619D02*
X152019047Y-82767619D01*
X152019047Y-82767619D02*
X152114285Y-82720000D01*
X152114285Y-82720000D02*
X152161904Y-82672380D01*
X152161904Y-82672380D02*
X152209523Y-82577142D01*
X152209523Y-82577142D02*
X152257142Y-82386666D01*
X152257142Y-82386666D02*
X152257142Y-82148571D01*
X152257142Y-82148571D02*
X152209523Y-81958095D01*
X152209523Y-81958095D02*
X152161904Y-81862857D01*
X152161904Y-81862857D02*
X152114285Y-81815238D01*
X152114285Y-81815238D02*
X152019047Y-81767619D01*
X151304761Y-81862857D02*
X151257142Y-81815238D01*
X151257142Y-81815238D02*
X151161904Y-81767619D01*
X151161904Y-81767619D02*
X150923809Y-81767619D01*
X150923809Y-81767619D02*
X150828571Y-81815238D01*
X150828571Y-81815238D02*
X150780952Y-81862857D01*
X150780952Y-81862857D02*
X150733333Y-81958095D01*
X150733333Y-81958095D02*
X150733333Y-82053333D01*
X150733333Y-82053333D02*
X150780952Y-82196190D01*
X150780952Y-82196190D02*
X151352380Y-82767619D01*
X151352380Y-82767619D02*
X150733333Y-82767619D01*
X150399999Y-81767619D02*
X149780952Y-81767619D01*
X149780952Y-81767619D02*
X150114285Y-82148571D01*
X150114285Y-82148571D02*
X149971428Y-82148571D01*
X149971428Y-82148571D02*
X149876190Y-82196190D01*
X149876190Y-82196190D02*
X149828571Y-82243809D01*
X149828571Y-82243809D02*
X149780952Y-82339047D01*
X149780952Y-82339047D02*
X149780952Y-82577142D01*
X149780952Y-82577142D02*
X149828571Y-82672380D01*
X149828571Y-82672380D02*
X149876190Y-82720000D01*
X149876190Y-82720000D02*
X149971428Y-82767619D01*
X149971428Y-82767619D02*
X150257142Y-82767619D01*
X150257142Y-82767619D02*
X150352380Y-82720000D01*
X150352380Y-82720000D02*
X150399999Y-82672380D01*
D17*
%TO.C,C3*%
X117190834Y-100418613D02*
X116821367Y-100788080D01*
X116151387Y-99379166D02*
X115781920Y-99748633D01*
%TO.C,R3*%
X116422058Y-86582611D02*
X116743175Y-86903728D01*
X115382611Y-87622058D02*
X115703728Y-87943175D01*
%TO.C,R6*%
X129647942Y-100737389D02*
X129326825Y-100416272D01*
X130687389Y-99697942D02*
X130366272Y-99376825D01*
D18*
%TO.C,U2*%
X113260603Y-90940279D02*
X112270654Y-89950330D01*
X115466776Y-88734106D02*
X114476827Y-87744157D01*
X112935334Y-89285649D02*
X112270654Y-89950330D01*
X114476827Y-87744157D02*
X113812146Y-88408837D01*
D11*
X116160746Y-90120035D02*
G75*
G03*
X116160746Y-90120035I-100000J0D01*
G01*
D18*
%TO.C,MicroUSB1*%
X160075000Y-89500000D02*
X160075000Y-97560000D01*
X155775000Y-91240000D02*
X155775000Y-91740000D01*
X155775000Y-95140000D02*
X155775000Y-95640000D01*
X161375000Y-97190000D02*
X161375000Y-89690000D01*
D19*
X155100000Y-92140000D02*
G75*
G03*
X155100000Y-92140000I-50000J0D01*
G01*
D17*
%TO.C,R5*%
X131207942Y-99177389D02*
X130886825Y-98856272D01*
X132247389Y-98137942D02*
X131926272Y-97816825D01*
%TO.C,C6*%
X136578748Y-95635000D02*
X137101252Y-95635000D01*
X136578748Y-97105000D02*
X137101252Y-97105000D01*
%TO.C,C5*%
X136578748Y-93235000D02*
X137101252Y-93235000D01*
X136578748Y-94705000D02*
X137101252Y-94705000D01*
%TO.C,R8*%
X126507942Y-103877389D02*
X126186825Y-103556272D01*
X127547389Y-102837942D02*
X127226272Y-102516825D01*
%TO.C,C1*%
X128679166Y-85891387D02*
X129048633Y-85521920D01*
X129718613Y-86930834D02*
X130088080Y-86561367D01*
%TO.C,R2*%
X131876825Y-89043728D02*
X132197942Y-88722611D01*
X132916272Y-90083175D02*
X133237389Y-89762058D01*
D13*
%TO.C,U1*%
X128386524Y-93440000D02*
X128156714Y-93210190D01*
X128386524Y-93440000D02*
X128156714Y-93669810D01*
X123419099Y-88472575D02*
X124426726Y-87464948D01*
X123260000Y-88313476D02*
X123419099Y-88472575D01*
X123260000Y-88313476D02*
X123030190Y-88543286D01*
X123260000Y-98566524D02*
X123489810Y-98336714D01*
X123260000Y-98566524D02*
X123030190Y-98336714D01*
X118133476Y-93440000D02*
X118363286Y-93210190D01*
X118133476Y-93440000D02*
X118363286Y-93669810D01*
D17*
%TO.C,R7*%
X128087942Y-102307389D02*
X127766825Y-101986272D01*
X129127389Y-101267942D02*
X128806272Y-100946825D01*
%TO.C,R10*%
X117402611Y-101287942D02*
X117723728Y-100966825D01*
X118442058Y-102327389D02*
X118763175Y-102006272D01*
%TO.C,ICSP1*%
X137340000Y-107065000D02*
X137340000Y-101865000D01*
X142480000Y-107065000D02*
X137340000Y-107065000D01*
X142480000Y-107065000D02*
X142480000Y-104465000D01*
X143750000Y-107065000D02*
X145080000Y-107065000D01*
X145080000Y-107065000D02*
X145080000Y-105735000D01*
X142480000Y-104465000D02*
X145080000Y-104465000D01*
X145080000Y-104465000D02*
X145080000Y-101865000D01*
X145080000Y-101865000D02*
X137340000Y-101865000D01*
%TO.C,R9*%
X118952611Y-102847942D02*
X119273728Y-102526825D01*
X119992058Y-103887389D02*
X120313175Y-103566272D01*
%TO.C,R1*%
X117972058Y-85032611D02*
X118293175Y-85353728D01*
X116932611Y-86072058D02*
X117253728Y-86393175D01*
%TO.C,R4*%
X147275000Y-93212936D02*
X147275000Y-93667064D01*
X145805000Y-93212936D02*
X145805000Y-93667064D01*
%TO.C,C4*%
X152900000Y-92728748D02*
X152900000Y-94151252D01*
X150180000Y-92728748D02*
X150180000Y-94151252D01*
%TO.C,C2*%
X130275543Y-87505010D02*
X130645010Y-87135543D01*
X131314990Y-88544457D02*
X131684457Y-88174990D01*
%TD*%
M02*
