%TF.GenerationSoftware,KiCad,Pcbnew,7.0.2*%
%TF.CreationDate,2024-05-08T22:38:03+07:00*%
%TF.ProjectId,multiport component tester,6d756c74-6970-46f7-9274-20636f6d706f,rev?*%
%TF.SameCoordinates,Original*%
%TF.FileFunction,Copper,L2,Bot*%
%TF.FilePolarity,Positive*%
%FSLAX46Y46*%
G04 Gerber Fmt 4.6, Leading zero omitted, Abs format (unit mm)*
G04 Created by KiCad (PCBNEW 7.0.2) date 2024-05-08 22:38:03*
%MOMM*%
%LPD*%
G01*
G04 APERTURE LIST*
G04 Aperture macros list*
%AMRoundRect*
0 Rectangle with rounded corners*
0 $1 Rounding radius*
0 $2 $3 $4 $5 $6 $7 $8 $9 X,Y pos of 4 corners*
0 Add a 4 corners polygon primitive as box body*
4,1,4,$2,$3,$4,$5,$6,$7,$8,$9,$2,$3,0*
0 Add four circle primitives for the rounded corners*
1,1,$1+$1,$2,$3*
1,1,$1+$1,$4,$5*
1,1,$1+$1,$6,$7*
1,1,$1+$1,$8,$9*
0 Add four rect primitives between the rounded corners*
20,1,$1+$1,$2,$3,$4,$5,0*
20,1,$1+$1,$4,$5,$6,$7,0*
20,1,$1+$1,$6,$7,$8,$9,0*
20,1,$1+$1,$8,$9,$2,$3,0*%
%AMRotRect*
0 Rectangle, with rotation*
0 The origin of the aperture is its center*
0 $1 length*
0 $2 width*
0 $3 Rotation angle, in degrees counterclockwise*
0 Add horizontal line*
21,1,$1,$2,0,0,$3*%
%AMFreePoly0*
4,1,212,0.609000,1.556000,0.642000,1.552000,0.675000,1.547000,0.707000,1.540000,0.739000,1.531000,0.770000,1.521000,0.801000,1.508000,0.831000,1.494000,0.860000,1.479000,0.888000,1.461000,0.915000,1.443000,0.941000,1.422000,0.966000,1.401000,0.990000,1.378000,1.012000,1.353000,1.033000,1.328000,1.053000,1.301000,1.071000,1.274000,1.088000,1.245000,1.103000,1.216000,
1.116000,1.186000,1.127000,1.155000,1.137000,1.123000,1.145000,1.091000,1.152000,1.059000,1.156000,1.026000,1.159000,0.993000,1.160000,0.960000,1.160000,-0.350000,1.159000,-0.381000,1.157000,-0.412000,1.153000,-0.443000,1.147000,-0.474000,1.140000,-0.504000,1.131000,-0.534000,1.109000,-0.592000,1.095000,-0.620000,1.080000,-0.647000,1.064000,-0.674000,1.046000,-0.700000,
1.027000,-0.724000,1.007000,-0.748000,0.986000,-0.771000,0.963000,-0.792000,0.939000,-0.812000,0.915000,-0.831000,0.889000,-0.849000,0.863000,-0.865000,0.835000,-0.880000,0.807000,-0.894000,0.749000,-0.916000,0.719000,-0.925000,0.689000,-0.932000,0.658000,-0.938000,0.627000,-0.942000,0.596000,-0.944000,0.565000,-0.945000,0.445000,-0.945000,0.414000,-0.944000,0.383000,-0.942000,
0.352000,-0.938000,0.321000,-0.932000,0.291000,-0.925000,0.261000,-0.916000,0.203000,-0.894000,0.175000,-0.880000,0.148000,-0.865000,0.121000,-0.849000,0.095000,-0.831000,0.071000,-0.812000,0.047000,-0.792000,0.024000,-0.771000,0.003000,-0.748000,-0.017000,-0.724000,-0.036000,-0.700000,-0.054000,-0.674000,-0.070000,-0.647000,-0.085000,-0.620000,-0.099000,-0.592000,-0.121000,-0.534000,
-0.130000,-0.504000,-0.137000,-0.474000,-0.143000,-0.443000,-0.147000,-0.412000,-0.149000,-0.381000,-0.150000,-0.350000,-0.150000,-0.309000,0.150000,-0.309000,0.152000,-0.327000,0.154000,-0.346000,0.162000,-0.382000,0.167000,-0.400000,0.181000,-0.434000,0.189000,-0.451000,0.207000,-0.483000,0.218000,-0.499000,0.229000,-0.513000,0.241000,-0.528000,0.267000,-0.554000,0.282000,-0.566000,
0.296000,-0.577000,0.312000,-0.588000,0.344000,-0.606000,0.361000,-0.614000,0.395000,-0.628000,0.413000,-0.633000,0.449000,-0.641000,0.468000,-0.643000,0.486000,-0.645000,0.524000,-0.645000,0.542000,-0.643000,0.561000,-0.641000,0.597000,-0.633000,0.615000,-0.628000,0.649000,-0.614000,0.666000,-0.606000,0.683000,-0.597000,0.698000,-0.588000,0.714000,-0.577000,0.728000,-0.566000,
0.743000,-0.554000,0.769000,-0.528000,0.781000,-0.513000,0.792000,-0.499000,0.803000,-0.483000,0.821000,-0.451000,0.829000,-0.434000,0.843000,-0.400000,0.848000,-0.382000,0.856000,-0.346000,0.858000,-0.327000,0.860000,-0.309000,0.860000,0.919000,0.858000,0.937000,0.856000,0.956000,0.848000,0.992000,0.843000,1.010000,0.829000,1.044000,0.821000,1.061000,0.803000,1.093000,
0.792000,1.109000,0.781000,1.123000,0.769000,1.138000,0.743000,1.164000,0.728000,1.176000,0.714000,1.187000,0.698000,1.198000,0.683000,1.207000,0.666000,1.216000,0.649000,1.224000,0.615000,1.238000,0.597000,1.243000,0.561000,1.251000,0.542000,1.253000,0.524000,1.255000,0.486000,1.255000,0.468000,1.253000,0.449000,1.251000,0.413000,1.243000,0.395000,1.238000,
0.361000,1.224000,0.344000,1.216000,0.312000,1.198000,0.296000,1.187000,0.282000,1.176000,0.267000,1.164000,0.241000,1.138000,0.229000,1.123000,0.218000,1.109000,0.207000,1.093000,0.189000,1.061000,0.181000,1.044000,0.167000,1.010000,0.162000,0.992000,0.154000,0.956000,0.152000,0.937000,0.150000,0.919000,0.150000,-0.309000,-0.150000,-0.309000,-0.150000,0.960000,
-0.149000,0.991000,-0.147000,1.022000,-0.143000,1.053000,-0.137000,1.084000,-0.130000,1.114000,-0.121000,1.144000,-0.099000,1.202000,-0.085000,1.230000,-0.070000,1.257000,-0.054000,1.284000,-0.036000,1.310000,-0.017000,1.334000,0.003000,1.358000,0.024000,1.381000,0.047000,1.402000,0.071000,1.422000,0.095000,1.441000,0.121000,1.459000,0.148000,1.475000,0.175000,1.490000,
0.203000,1.504000,0.261000,1.526000,0.291000,1.535000,0.321000,1.542000,0.352000,1.548000,0.383000,1.552000,0.414000,1.554000,0.445000,1.555000,0.505000,1.555000,0.543000,1.557000,0.576000,1.558000,0.609000,1.556000,0.609000,1.556000,$1*%
%AMFreePoly1*
4,1,212,0.609000,1.396000,0.642000,1.392000,0.675000,1.387000,0.707000,1.380000,0.739000,1.371000,0.770000,1.361000,0.801000,1.348000,0.831000,1.334000,0.860000,1.319000,0.888000,1.301000,0.915000,1.283000,0.941000,1.262000,0.966000,1.241000,0.990000,1.218000,1.012000,1.193000,1.033000,1.168000,1.053000,1.141000,1.071000,1.114000,1.088000,1.085000,1.103000,1.056000,
1.116000,1.026000,1.127000,0.995000,1.137000,0.963000,1.145000,0.931000,1.152000,0.899000,1.156000,0.866000,1.159000,0.833000,1.160000,0.800000,1.160000,-0.510000,1.159000,-0.541000,1.157000,-0.572000,1.153000,-0.603000,1.147000,-0.634000,1.140000,-0.664000,1.131000,-0.694000,1.109000,-0.752000,1.095000,-0.780000,1.080000,-0.807000,1.064000,-0.834000,1.046000,-0.860000,
1.027000,-0.884000,1.007000,-0.908000,0.986000,-0.931000,0.963000,-0.952000,0.939000,-0.972000,0.915000,-0.991000,0.889000,-1.009000,0.863000,-1.025000,0.835000,-1.040000,0.807000,-1.054000,0.749000,-1.076000,0.719000,-1.085000,0.689000,-1.092000,0.658000,-1.098000,0.627000,-1.102000,0.596000,-1.104000,0.565000,-1.105000,0.445000,-1.105000,0.414000,-1.104000,0.383000,-1.102000,
0.352000,-1.098000,0.321000,-1.092000,0.291000,-1.085000,0.261000,-1.076000,0.203000,-1.054000,0.175000,-1.040000,0.147000,-1.025000,0.121000,-1.009000,0.095000,-0.991000,0.071000,-0.972000,0.047000,-0.952000,0.024000,-0.931000,0.003000,-0.908000,-0.017000,-0.884000,-0.036000,-0.860000,-0.054000,-0.834000,-0.070000,-0.807000,-0.085000,-0.780000,-0.099000,-0.752000,-0.121000,-0.694000,
-0.130000,-0.664000,-0.137000,-0.634000,-0.143000,-0.603000,-0.147000,-0.572000,-0.149000,-0.541000,-0.150000,-0.510000,-0.150000,-0.469000,0.150000,-0.469000,0.152000,-0.487000,0.154000,-0.506000,0.162000,-0.542000,0.167000,-0.560000,0.181000,-0.594000,0.189000,-0.611000,0.207000,-0.643000,0.218000,-0.659000,0.229000,-0.673000,0.241000,-0.688000,0.267000,-0.714000,0.282000,-0.726000,
0.296000,-0.737000,0.312000,-0.748000,0.344000,-0.766000,0.361000,-0.774000,0.395000,-0.788000,0.413000,-0.793000,0.449000,-0.801000,0.468000,-0.803000,0.486000,-0.805000,0.524000,-0.805000,0.542000,-0.803000,0.561000,-0.801000,0.597000,-0.793000,0.615000,-0.788000,0.649000,-0.774000,0.666000,-0.766000,0.683000,-0.757000,0.698000,-0.748000,0.714000,-0.737000,0.728000,-0.726000,
0.743000,-0.714000,0.769000,-0.688000,0.781000,-0.673000,0.792000,-0.659000,0.803000,-0.643000,0.821000,-0.611000,0.829000,-0.594000,0.843000,-0.560000,0.848000,-0.542000,0.856000,-0.506000,0.858000,-0.487000,0.860000,-0.469000,0.860000,0.759000,0.858000,0.777000,0.856000,0.796000,0.848000,0.832000,0.843000,0.850000,0.829000,0.884000,0.821000,0.901000,0.803000,0.933000,
0.792000,0.949000,0.781000,0.963000,0.769000,0.978000,0.743000,1.004000,0.728000,1.016000,0.714000,1.027000,0.698000,1.038000,0.683000,1.047000,0.666000,1.056000,0.649000,1.064000,0.615000,1.078000,0.597000,1.083000,0.561000,1.091000,0.542000,1.093000,0.524000,1.095000,0.486000,1.095000,0.468000,1.093000,0.449000,1.091000,0.413000,1.083000,0.395000,1.078000,
0.361000,1.064000,0.344000,1.056000,0.312000,1.038000,0.296000,1.027000,0.282000,1.016000,0.267000,1.004000,0.241000,0.978000,0.229000,0.963000,0.218000,0.949000,0.207000,0.933000,0.189000,0.901000,0.181000,0.884000,0.167000,0.850000,0.162000,0.832000,0.154000,0.796000,0.152000,0.777000,0.150000,0.759000,0.150000,-0.469000,-0.150000,-0.469000,-0.150000,0.800000,
-0.149000,0.831000,-0.147000,0.862000,-0.143000,0.893000,-0.137000,0.924000,-0.130000,0.954000,-0.121000,0.984000,-0.099000,1.042000,-0.085000,1.070000,-0.070000,1.097000,-0.054000,1.124000,-0.036000,1.150000,-0.017000,1.174000,0.003000,1.198000,0.024000,1.221000,0.047000,1.242000,0.071000,1.262000,0.095000,1.281000,0.121000,1.299000,0.147000,1.315000,0.175000,1.330000,
0.203000,1.344000,0.261000,1.366000,0.291000,1.375000,0.321000,1.382000,0.352000,1.388000,0.383000,1.392000,0.414000,1.394000,0.445000,1.395000,0.505000,1.395000,0.543000,1.397000,0.576000,1.398000,0.609000,1.396000,0.609000,1.396000,$1*%
G04 Aperture macros list end*
%TA.AperFunction,ComponentPad*%
%ADD10R,2.100000X2.100000*%
%TD*%
%TA.AperFunction,ComponentPad*%
%ADD11C,2.100000*%
%TD*%
%TA.AperFunction,ComponentPad*%
%ADD12R,1.800000X1.800000*%
%TD*%
%TA.AperFunction,ComponentPad*%
%ADD13C,1.800000*%
%TD*%
%TA.AperFunction,ComponentPad*%
%ADD14R,1.700000X1.700000*%
%TD*%
%TA.AperFunction,ComponentPad*%
%ADD15O,1.700000X1.700000*%
%TD*%
%TA.AperFunction,ComponentPad*%
%ADD16C,5.600000*%
%TD*%
%TA.AperFunction,ComponentPad*%
%ADD17R,1.460000X1.460000*%
%TD*%
%TA.AperFunction,ComponentPad*%
%ADD18C,1.460000*%
%TD*%
%TA.AperFunction,ComponentPad*%
%ADD19O,1.600000X2.000000*%
%TD*%
%TA.AperFunction,SMDPad,CuDef*%
%ADD20RoundRect,0.250000X-0.097227X0.574524X-0.574524X0.097227X0.097227X-0.574524X0.574524X-0.097227X0*%
%TD*%
%TA.AperFunction,SMDPad,CuDef*%
%ADD21RoundRect,0.250000X-0.565685X-0.070711X-0.070711X-0.565685X0.565685X0.070711X0.070711X0.565685X0*%
%TD*%
%TA.AperFunction,SMDPad,CuDef*%
%ADD22RoundRect,0.250000X0.565685X0.070711X0.070711X0.565685X-0.565685X-0.070711X-0.070711X-0.565685X0*%
%TD*%
%TA.AperFunction,SMDPad,CuDef*%
%ADD23RoundRect,0.088500X0.518309X-0.226274X-0.226274X0.518309X-0.518309X0.226274X0.226274X-0.518309X0*%
%TD*%
%TA.AperFunction,SMDPad,CuDef*%
%ADD24R,1.350000X0.400000*%
%TD*%
%TA.AperFunction,SMDPad,CuDef*%
%ADD25R,1.400000X1.600000*%
%TD*%
%TA.AperFunction,SMDPad,CuDef*%
%ADD26R,1.900000X1.900000*%
%TD*%
%TA.AperFunction,SMDPad,CuDef*%
%ADD27FreePoly0,270.000000*%
%TD*%
%TA.AperFunction,SMDPad,CuDef*%
%ADD28FreePoly1,270.000000*%
%TD*%
%TA.AperFunction,SMDPad,CuDef*%
%ADD29RoundRect,0.250000X-0.337500X-0.475000X0.337500X-0.475000X0.337500X0.475000X-0.337500X0.475000X0*%
%TD*%
%TA.AperFunction,SMDPad,CuDef*%
%ADD30RoundRect,0.250000X0.097227X-0.574524X0.574524X-0.097227X-0.097227X0.574524X-0.574524X0.097227X0*%
%TD*%
%TA.AperFunction,SMDPad,CuDef*%
%ADD31RoundRect,0.250000X0.070711X-0.565685X0.565685X-0.070711X-0.070711X0.565685X-0.565685X0.070711X0*%
%TD*%
%TA.AperFunction,SMDPad,CuDef*%
%ADD32RotRect,1.600000X0.550000X225.000000*%
%TD*%
%TA.AperFunction,SMDPad,CuDef*%
%ADD33RotRect,1.600000X0.550000X135.000000*%
%TD*%
%TA.AperFunction,SMDPad,CuDef*%
%ADD34RoundRect,0.250000X-0.450000X0.350000X-0.450000X-0.350000X0.450000X-0.350000X0.450000X0.350000X0*%
%TD*%
%TA.AperFunction,SMDPad,CuDef*%
%ADD35RoundRect,0.250000X-1.100000X0.412500X-1.100000X-0.412500X1.100000X-0.412500X1.100000X0.412500X0*%
%TD*%
%TA.AperFunction,ViaPad*%
%ADD36C,0.800000*%
%TD*%
%TA.AperFunction,Conductor*%
%ADD37C,0.500000*%
%TD*%
%TA.AperFunction,Conductor*%
%ADD38C,0.800000*%
%TD*%
%TA.AperFunction,Conductor*%
%ADD39C,0.400000*%
%TD*%
%TA.AperFunction,Conductor*%
%ADD40C,0.250000*%
%TD*%
%TA.AperFunction,Conductor*%
%ADD41C,0.300000*%
%TD*%
G04 APERTURE END LIST*
D10*
%TO.P,S2,1*%
%TO.N,D7*%
X146540000Y-99690000D03*
D11*
%TO.P,S2,2*%
X146540000Y-87190000D03*
%TO.P,S2,3*%
%TO.N,GND*%
X151540000Y-99690000D03*
%TO.P,S2,4*%
X151540000Y-87190000D03*
%TD*%
D12*
%TO.P,J2,1,Pin_1*%
%TO.N,ADC0*%
X97280000Y-103820000D03*
D13*
%TO.P,J2,2,Pin_2*%
X99820000Y-103820000D03*
%TO.P,J2,3,Pin_3*%
%TO.N,ADC1*%
X102360000Y-103820000D03*
%TO.P,J2,4,Pin_4*%
%TO.N,ADC2*%
X104900000Y-103820000D03*
%TO.P,J2,5,Pin_5*%
X107440000Y-103820000D03*
%TD*%
D14*
%TO.P,J1,1,Pin_1*%
%TO.N,ADC0*%
X97280000Y-96230000D03*
D15*
%TO.P,J1,2,Pin_2*%
X97280000Y-98770000D03*
%TO.P,J1,3,Pin_3*%
X99820000Y-96230000D03*
%TO.P,J1,4,Pin_4*%
X99820000Y-98770000D03*
%TO.P,J1,5,Pin_5*%
%TO.N,ADC1*%
X102360000Y-96230000D03*
%TO.P,J1,6,Pin_6*%
X102360000Y-98770000D03*
%TO.P,J1,7,Pin_7*%
%TO.N,ADC2*%
X104900000Y-96230000D03*
%TO.P,J1,8,Pin_8*%
X104900000Y-98770000D03*
%TO.P,J1,9,Pin_9*%
X107440000Y-96230000D03*
%TO.P,J1,10,Pin_10*%
X107440000Y-98770000D03*
%TD*%
D16*
%TO.P,J3,1,Pin_1*%
%TO.N,ADC0*%
X64260000Y-80390000D03*
%TD*%
%TO.P,J4,1,Pin_1*%
%TO.N,ADC1*%
X64260000Y-106490000D03*
%TD*%
D17*
%TO.P,Zif1,1,1*%
%TO.N,ADC0*%
X84800000Y-90820000D03*
D18*
%TO.P,Zif1,2,2*%
%TO.N,ADC1*%
X87340000Y-90820000D03*
%TO.P,Zif1,3,3*%
%TO.N,ADC2*%
X89880000Y-90820000D03*
%TO.P,Zif1,4,4*%
X92420000Y-90820000D03*
%TO.P,Zif1,5,5*%
X94960000Y-90820000D03*
%TO.P,Zif1,6,6*%
X97500000Y-90820000D03*
%TO.P,Zif1,7,7*%
X100040000Y-90820000D03*
%TO.P,Zif1,8,8*%
X100040000Y-83200000D03*
%TO.P,Zif1,9,9*%
X97500000Y-83200000D03*
%TO.P,Zif1,10,10*%
X94960000Y-83200000D03*
%TO.P,Zif1,11,11*%
X92420000Y-83200000D03*
%TO.P,Zif1,12,12*%
X89880000Y-83200000D03*
%TO.P,Zif1,13,13*%
%TO.N,ADC1*%
X87340000Y-83200000D03*
%TO.P,Zif1,14,14*%
%TO.N,ADC0*%
X84800000Y-83200000D03*
%TD*%
D19*
%TO.P,OLED1,1,GND*%
%TO.N,GND*%
X119340000Y-81490000D03*
%TO.P,OLED1,2,VCC*%
%TO.N,VCC*%
X121880000Y-81490000D03*
%TO.P,OLED1,3,SCL*%
%TO.N,D5*%
X124420000Y-81490000D03*
%TO.P,OLED1,4,SDA*%
%TO.N,D2*%
X126960000Y-81490000D03*
%TD*%
D20*
%TO.P,C3,1*%
%TO.N,AREF*%
X117220000Y-99350000D03*
%TO.P,C3,2*%
%TO.N,GND*%
X115752754Y-100817246D03*
%TD*%
D21*
%TO.P,R3,1*%
%TO.N,VCC*%
X115355786Y-86555786D03*
%TO.P,R3,2*%
%TO.N,SDA*%
X116770000Y-87970000D03*
%TD*%
D22*
%TO.P,R6,1*%
%TO.N,ADC0*%
X130714214Y-100764214D03*
%TO.P,R6,2*%
%TO.N,D9*%
X129300000Y-99350000D03*
%TD*%
D23*
%TO.P,U2,1,+*%
%TO.N,SDA*%
X115290000Y-89420000D03*
%TO.P,U2,2,-*%
%TO.N,GND*%
X113946497Y-90763503D03*
%TO.P,U2,3,NC*%
%TO.N,unconnected-(U2-NC-Pad3)*%
X113119182Y-88592685D03*
%TD*%
D24*
%TO.P,MicroUSB1,1,VBUS*%
%TO.N,VCC*%
X155950000Y-92140000D03*
%TO.P,MicroUSB1,2,D-*%
%TO.N,unconnected-(MicroUSB1-D--Pad2)*%
X155950000Y-92790000D03*
%TO.P,MicroUSB1,3,D+*%
%TO.N,unconnected-(MicroUSB1-D+-Pad3)*%
X155950000Y-93440000D03*
%TO.P,MicroUSB1,4,ID*%
%TO.N,unconnected-(MicroUSB1-ID-Pad4)*%
X155950000Y-94090000D03*
%TO.P,MicroUSB1,5,GND*%
%TO.N,GND*%
X155950000Y-94740000D03*
D25*
%TO.P,MicroUSB1,6,SLD*%
X156175000Y-96640000D03*
%TO.P,MicroUSB1,7,SLD*%
X156175000Y-90240000D03*
D26*
%TO.P,MicroUSB1,8,SLD*%
X158625000Y-92240000D03*
%TO.P,MicroUSB1,9,SLD*%
X158625000Y-94640000D03*
D27*
%TO.P,MicroUSB1,10,SLD*%
X158320000Y-89680000D03*
D28*
%TO.P,MicroUSB1,11,SLD*%
X158480000Y-96190000D03*
%TD*%
D22*
%TO.P,R5,1*%
%TO.N,ADC0*%
X132274214Y-99204214D03*
%TO.P,R5,2*%
%TO.N,D8*%
X130860000Y-97790000D03*
%TD*%
D29*
%TO.P,C6,1*%
%TO.N,XTAL2*%
X135802500Y-96370000D03*
%TO.P,C6,2*%
%TO.N,GND*%
X137877500Y-96370000D03*
%TD*%
%TO.P,C5,1*%
%TO.N,XTAL1*%
X135802500Y-93970000D03*
%TO.P,C5,2*%
%TO.N,GND*%
X137877500Y-93970000D03*
%TD*%
D22*
%TO.P,R8,1*%
%TO.N,ADC1*%
X127574214Y-103904214D03*
%TO.P,R8,2*%
%TO.N,MOSI*%
X126160000Y-102490000D03*
%TD*%
D30*
%TO.P,C1,1*%
%TO.N,VCC*%
X128650000Y-86960000D03*
%TO.P,C1,2*%
%TO.N,GND*%
X130117246Y-85492754D03*
%TD*%
D31*
%TO.P,R2,1*%
%TO.N,VCC*%
X131850000Y-90110000D03*
%TO.P,R2,2*%
%TO.N,Net-(D1-A)*%
X133264214Y-88695786D03*
%TD*%
D32*
%TO.P,U1,1,PD3*%
%TO.N,unconnected-(U1-PD3-Pad1)*%
X124285305Y-88454897D03*
%TO.P,U1,2,PD4*%
%TO.N,unconnected-(U1-PD4-Pad2)*%
X124850990Y-89020583D03*
%TO.P,U1,3,GND*%
%TO.N,GND*%
X125416676Y-89586268D03*
%TO.P,U1,4,VCC*%
%TO.N,VCC*%
X125982361Y-90151953D03*
%TO.P,U1,5,GND*%
%TO.N,GND*%
X126548047Y-90717639D03*
%TO.P,U1,6,VCC*%
%TO.N,VCC*%
X127113732Y-91283324D03*
%TO.P,U1,7,XTAL1/PB6*%
%TO.N,XTAL1*%
X127679417Y-91849010D03*
%TO.P,U1,8,XTAL2/PB7*%
%TO.N,XTAL2*%
X128245103Y-92414695D03*
D33*
%TO.P,U1,9,PD5*%
%TO.N,D5*%
X128245103Y-94465305D03*
%TO.P,U1,10,PD6*%
%TO.N,unconnected-(U1-PD6-Pad10)*%
X127679417Y-95030990D03*
%TO.P,U1,11,PD7*%
%TO.N,D7*%
X127113732Y-95596676D03*
%TO.P,U1,12,PB0*%
%TO.N,D8*%
X126548047Y-96162361D03*
%TO.P,U1,13,PB1*%
%TO.N,D9*%
X125982361Y-96728047D03*
%TO.P,U1,14,PB2*%
%TO.N,D10*%
X125416676Y-97293732D03*
%TO.P,U1,15,PB3*%
%TO.N,MOSI*%
X124850990Y-97859417D03*
%TO.P,U1,16,PB4*%
%TO.N,MISO*%
X124285305Y-98425103D03*
D32*
%TO.P,U1,17,PB5*%
%TO.N,SCK*%
X122234695Y-98425103D03*
%TO.P,U1,18,AVCC*%
%TO.N,VCC*%
X121669010Y-97859417D03*
%TO.P,U1,19,ADC6*%
%TO.N,unconnected-(U1-ADC6-Pad19)*%
X121103324Y-97293732D03*
%TO.P,U1,20,AREF*%
%TO.N,AREF*%
X120537639Y-96728047D03*
%TO.P,U1,21,GND*%
%TO.N,GND*%
X119971953Y-96162361D03*
%TO.P,U1,22,ADC7*%
%TO.N,unconnected-(U1-ADC7-Pad22)*%
X119406268Y-95596676D03*
%TO.P,U1,23,PC0*%
%TO.N,ADC0*%
X118840583Y-95030990D03*
%TO.P,U1,24,PC1*%
%TO.N,ADC1*%
X118274897Y-94465305D03*
D33*
%TO.P,U1,25,PC2*%
%TO.N,ADC2*%
X118274897Y-92414695D03*
%TO.P,U1,26,PC3*%
%TO.N,unconnected-(U1-PC3-Pad26)*%
X118840583Y-91849010D03*
%TO.P,U1,27,PC4*%
%TO.N,SDA*%
X119406268Y-91283324D03*
%TO.P,U1,28,PC5*%
%TO.N,unconnected-(U1-PC5-Pad28)*%
X119971953Y-90717639D03*
%TO.P,U1,29,~{RESET}/PC6*%
%TO.N,RESET*%
X120537639Y-90151953D03*
%TO.P,U1,30,PD0*%
%TO.N,unconnected-(U1-PD0-Pad30)*%
X121103324Y-89586268D03*
%TO.P,U1,31,PD1*%
%TO.N,unconnected-(U1-PD1-Pad31)*%
X121669010Y-89020583D03*
%TO.P,U1,32,PD2*%
%TO.N,D2*%
X122234695Y-88454897D03*
%TD*%
D22*
%TO.P,R7,1*%
%TO.N,ADC1*%
X129154214Y-102334214D03*
%TO.P,R7,2*%
%TO.N,D10*%
X127740000Y-100920000D03*
%TD*%
D31*
%TO.P,R10,1*%
%TO.N,ADC2*%
X117375786Y-102354214D03*
%TO.P,R10,2*%
%TO.N,SCK*%
X118790000Y-100940000D03*
%TD*%
D14*
%TO.P,ICSP1,1,Pin_1*%
%TO.N,MISO*%
X143750000Y-105735000D03*
D15*
%TO.P,ICSP1,2,Pin_2*%
%TO.N,VCC*%
X143750000Y-103195000D03*
%TO.P,ICSP1,3,Pin_3*%
%TO.N,SCK*%
X141210000Y-105735000D03*
%TO.P,ICSP1,4,Pin_4*%
%TO.N,MOSI*%
X141210000Y-103195000D03*
%TO.P,ICSP1,5,Pin_5*%
%TO.N,RESET*%
X138670000Y-105735000D03*
%TO.P,ICSP1,6,Pin_6*%
%TO.N,GND*%
X138670000Y-103195000D03*
%TD*%
D31*
%TO.P,R9,1*%
%TO.N,ADC2*%
X118925786Y-103914214D03*
%TO.P,R9,2*%
%TO.N,MISO*%
X120340000Y-102500000D03*
%TD*%
D21*
%TO.P,R1,1*%
%TO.N,VCC*%
X116905786Y-85005786D03*
%TO.P,R1,2*%
%TO.N,RESET*%
X118320000Y-86420000D03*
%TD*%
D34*
%TO.P,R4,1*%
%TO.N,VCC*%
X146540000Y-92440000D03*
%TO.P,R4,2*%
%TO.N,D7*%
X146540000Y-94440000D03*
%TD*%
D35*
%TO.P,C4,1*%
%TO.N,VCC*%
X151540000Y-91877500D03*
%TO.P,C4,2*%
%TO.N,GND*%
X151540000Y-95002500D03*
%TD*%
D30*
%TO.P,C2,1*%
%TO.N,VCC*%
X130246377Y-88573623D03*
%TO.P,C2,2*%
%TO.N,GND*%
X131713623Y-87106377D03*
%TD*%
D36*
%TO.N,GND*%
X114130000Y-98720000D03*
X110600000Y-88100000D03*
X110600000Y-89460000D03*
X110600000Y-95600000D03*
X110600000Y-105900000D03*
X122020000Y-93670000D03*
X143600000Y-95840000D03*
X143600000Y-93440000D03*
X110600000Y-107300000D03*
X115170000Y-98720000D03*
X122990000Y-104210000D03*
X132770000Y-104340000D03*
X122890000Y-94570000D03*
%TO.N,XTAL1*%
X134540000Y-93440000D03*
%TO.N,XTAL2*%
X134540000Y-95840000D03*
%TO.N,Net-(D1-A)*%
X138852500Y-80750000D03*
%TO.N,MISO*%
X123550000Y-99170000D03*
%TO.N,D5*%
X129380000Y-95330000D03*
%TO.N,RESET*%
X119120000Y-87520000D03*
%TO.N,ADC0*%
X131010000Y-101840000D03*
X120240000Y-93630000D03*
%TO.N,ADC1*%
X93900000Y-101440000D03*
X126680000Y-105050000D03*
X76860000Y-101440000D03*
X117540000Y-93630000D03*
X92720000Y-101440000D03*
X78040000Y-101440000D03*
%TO.N,ADC2*%
X89880000Y-96500000D03*
X89900000Y-97600000D03*
%TO.N,D2*%
X125690000Y-86790000D03*
%TD*%
D37*
%TO.N,VCC*%
X121669010Y-97859417D02*
X125483528Y-94044898D01*
D38*
X115355786Y-86555786D02*
X116905786Y-85005786D01*
X117035786Y-84600000D02*
X121840000Y-84600000D01*
D39*
X146640000Y-103200000D02*
X148540000Y-101300000D01*
D38*
X125590000Y-84710000D02*
X126175000Y-85295000D01*
X132945000Y-92065000D02*
X142540000Y-92065000D01*
D39*
X144980000Y-103200000D02*
X146640000Y-103200000D01*
D37*
X127113732Y-91283324D02*
X129582056Y-88815000D01*
D39*
X144980000Y-103200000D02*
X144975000Y-103195000D01*
D38*
X126175000Y-85295000D02*
X131230000Y-90350000D01*
X131230000Y-90350000D02*
X132945000Y-92065000D01*
X151840000Y-92065000D02*
X148980000Y-92065000D01*
D39*
X148540000Y-101300000D02*
X148540000Y-92165000D01*
D38*
X146540000Y-92065000D02*
X142540000Y-92065000D01*
X121880000Y-81490000D02*
X121880000Y-84560000D01*
D37*
X125483528Y-94044898D02*
X125483528Y-92913528D01*
D38*
X121840000Y-84600000D02*
X125480000Y-84600000D01*
X125480000Y-84600000D02*
X126175000Y-85295000D01*
D39*
X144975000Y-103195000D02*
X143750000Y-103195000D01*
D40*
X131230000Y-90100000D02*
X131230000Y-90350000D01*
D39*
X155497500Y-92140000D02*
X152310000Y-92140000D01*
D37*
X125982361Y-90151953D02*
X128494314Y-87640000D01*
D38*
X146650000Y-92065000D02*
X148440000Y-92065000D01*
D37*
X125483528Y-92913528D02*
X127113732Y-91283324D01*
D38*
X148440000Y-92065000D02*
X148850000Y-92065000D01*
D39*
%TO.N,GND*%
X126112361Y-91137639D02*
X124650000Y-92600000D01*
D40*
X152402500Y-94740000D02*
X152320000Y-94822500D01*
D39*
X125416676Y-89586268D02*
X123960000Y-91042944D01*
D40*
X156175000Y-90240000D02*
X156625000Y-90240000D01*
D39*
X121802361Y-94327639D02*
X120340000Y-95790000D01*
D40*
X158625000Y-92240000D02*
X158625000Y-94640000D01*
D39*
X155950000Y-94740000D02*
X152402500Y-94740000D01*
D40*
X156625000Y-96640000D02*
X158625000Y-94640000D01*
X156175000Y-96640000D02*
X156625000Y-96640000D01*
X156625000Y-90240000D02*
X158625000Y-92240000D01*
D39*
%TO.N,AREF*%
X119165686Y-98100000D02*
X118470000Y-98100000D01*
X120537639Y-96728047D02*
X119165686Y-98100000D01*
X118470000Y-98100000D02*
X117220000Y-99350000D01*
%TO.N,XTAL1*%
X129600000Y-90770000D02*
X128758427Y-90770000D01*
X128758427Y-90770000D02*
X127679417Y-91849010D01*
X135802500Y-93440000D02*
X132270000Y-93440000D01*
X132270000Y-93440000D02*
X129600000Y-90770000D01*
%TO.N,XTAL2*%
X134540000Y-95840000D02*
X133330000Y-94630000D01*
X133330000Y-94630000D02*
X131300000Y-94630000D01*
X134692500Y-95840000D02*
X135430000Y-95840000D01*
X128657347Y-91987347D02*
X131300000Y-94630000D01*
D40*
%TO.N,Net-(D1-A)*%
X133264214Y-88695786D02*
X138852500Y-83107500D01*
X138852500Y-83107500D02*
X138852500Y-80750000D01*
D39*
%TO.N,MISO*%
X120340000Y-102370408D02*
X124285305Y-98425103D01*
%TO.N,D5*%
X128137652Y-94357652D02*
X129362347Y-95582347D01*
%TO.N,MOSI*%
X124850990Y-97859417D02*
X125630000Y-98638427D01*
D41*
X138590000Y-104470000D02*
X136080000Y-104470000D01*
X136080000Y-104470000D02*
X134460000Y-106090000D01*
D39*
X125630000Y-101080000D02*
X125630000Y-105420000D01*
D41*
X139935000Y-104470000D02*
X141210000Y-103195000D01*
D39*
X125630000Y-101080000D02*
X125630000Y-101930000D01*
X125630000Y-105420000D02*
X126300000Y-106090000D01*
X126300000Y-106090000D02*
X134460000Y-106090000D01*
X125630000Y-101930000D02*
X126082893Y-102382893D01*
X125630000Y-98638427D02*
X125630000Y-101080000D01*
D41*
X138590000Y-104470000D02*
X139935000Y-104470000D01*
D39*
%TO.N,RESET*%
X120537639Y-90137639D02*
X119545000Y-89145000D01*
X119545000Y-89145000D02*
X119120000Y-88720000D01*
X119120000Y-88720000D02*
X119120000Y-87520000D01*
X119030000Y-87440000D02*
X118167107Y-86577107D01*
%TO.N,ADC0*%
X130714214Y-100764214D02*
X130714214Y-101544214D01*
X97280000Y-103500000D02*
X97280000Y-98770000D01*
X118840583Y-95029417D02*
X120240000Y-93630000D01*
X99820000Y-103500000D02*
X99820000Y-98770000D01*
D41*
X108520000Y-97490000D02*
X101080000Y-97490000D01*
X101080000Y-97490000D02*
X99820000Y-96230000D01*
D39*
X118840583Y-95030990D02*
X116381572Y-97490000D01*
X116381572Y-97490000D02*
X108520000Y-97490000D01*
X130714214Y-101544214D02*
X131010000Y-101840000D01*
X130714214Y-100764214D02*
X132274214Y-99204214D01*
D40*
X118840583Y-95030990D02*
X118840583Y-95029417D01*
D39*
%TO.N,ADC1*%
X92720000Y-101440000D02*
X78040000Y-101440000D01*
X129144214Y-102334214D02*
X127584214Y-103894214D01*
D37*
X117540000Y-93632551D02*
X118274897Y-94367448D01*
D39*
X127752893Y-103977107D02*
X126727107Y-105002893D01*
X104960000Y-93630000D02*
X117540000Y-93630000D01*
X78040000Y-101440000D02*
X76860000Y-101440000D01*
X102360000Y-103500000D02*
X102360000Y-98770000D01*
X102360000Y-96230000D02*
X104960000Y-93630000D01*
X93900000Y-101440000D02*
X92720000Y-101440000D01*
%TO.N,ADC2*%
X116505000Y-103225000D02*
X117375786Y-102354214D01*
X107440000Y-103500000D02*
X107440000Y-98770000D01*
X118925786Y-103904214D02*
X117375786Y-102354214D01*
D40*
X118925786Y-103914214D02*
X118925786Y-103904214D01*
D39*
X104900000Y-103500000D02*
X104900000Y-98770000D01*
X101500000Y-92280000D02*
X100040000Y-90820000D01*
X116505000Y-103225000D02*
X115910000Y-103820000D01*
X118120000Y-92280000D02*
X101500000Y-92280000D01*
X89880000Y-90820000D02*
X89880000Y-97580000D01*
X115910000Y-103820000D02*
X107440000Y-103820000D01*
%TO.N,D2*%
X121915103Y-88154897D02*
X123280000Y-86790000D01*
X125690000Y-86790000D02*
X123280000Y-86790000D01*
%TO.N,D7*%
X135870000Y-99690000D02*
X146540000Y-99690000D01*
X133810000Y-97630000D02*
X135870000Y-99690000D01*
X132145000Y-95965000D02*
X133810000Y-97630000D01*
X146540000Y-99690000D02*
X146540000Y-94760000D01*
X129760000Y-96440000D02*
X130235000Y-95965000D01*
X127113732Y-95596676D02*
X127957056Y-96440000D01*
X130235000Y-95965000D02*
X132145000Y-95965000D01*
X127957056Y-96440000D02*
X129760000Y-96440000D01*
%TO.N,D8*%
X126548047Y-96162361D02*
X128035686Y-97650000D01*
X128035686Y-97650000D02*
X130720000Y-97650000D01*
%TO.N,D9*%
X126068047Y-96828047D02*
X128690000Y-99450000D01*
%TO.N,D10*%
X125416676Y-97293732D02*
X126900000Y-98777056D01*
X126900000Y-98777056D02*
X126900000Y-100190000D01*
X126900000Y-100190000D02*
X127612893Y-100902893D01*
D40*
%TO.N,SCK*%
X123860000Y-107440000D02*
X118870000Y-102450000D01*
X118870000Y-101020000D02*
X118790000Y-100940000D01*
D39*
X122234695Y-98425103D02*
X120869798Y-99790000D01*
X120869798Y-99790000D02*
X119940000Y-99790000D01*
D40*
X141210000Y-105735000D02*
X139505000Y-107440000D01*
X139505000Y-107440000D02*
X123860000Y-107440000D01*
X118870000Y-102450000D02*
X118870000Y-101020000D01*
D39*
X119940000Y-99790000D02*
X118790000Y-100940000D01*
%TO.N,SDA*%
X117890000Y-89767056D02*
X119406268Y-91283324D01*
D40*
X115320000Y-89420000D02*
X116770000Y-87970000D01*
D39*
X116770000Y-87970000D02*
X117890000Y-89090000D01*
D40*
X115290000Y-89420000D02*
X115320000Y-89420000D01*
D39*
X117890000Y-89090000D02*
X117890000Y-89767056D01*
%TD*%
%TA.AperFunction,Conductor*%
%TO.N,GND*%
G36*
X157264166Y-77740733D02*
G01*
X157548313Y-77756690D01*
X157564883Y-77758557D01*
X157841332Y-77805528D01*
X157857594Y-77809240D01*
X158127046Y-77886868D01*
X158142799Y-77892381D01*
X158367179Y-77985322D01*
X158401847Y-77999682D01*
X158416901Y-78006932D01*
X158662295Y-78142556D01*
X158676438Y-78151442D01*
X158905115Y-78313697D01*
X158918167Y-78324105D01*
X159127253Y-78510957D01*
X159139042Y-78522746D01*
X159325892Y-78731830D01*
X159336302Y-78744884D01*
X159498557Y-78973561D01*
X159507446Y-78987709D01*
X159643067Y-79233098D01*
X159650317Y-79248152D01*
X159757615Y-79507191D01*
X159763134Y-79522962D01*
X159840756Y-79792392D01*
X159844473Y-79808680D01*
X159880187Y-80018876D01*
X159891439Y-80085097D01*
X159893310Y-80101702D01*
X159909266Y-80385832D01*
X159909500Y-80394186D01*
X159909500Y-88993505D01*
X159889538Y-89068005D01*
X159835000Y-89122543D01*
X159760500Y-89142505D01*
X159709539Y-89133519D01*
X159520206Y-89064608D01*
X159321096Y-89029500D01*
X159321093Y-89029500D01*
X159264954Y-89029500D01*
X158114136Y-89029500D01*
X158030000Y-89029500D01*
X157928907Y-89029500D01*
X157928904Y-89029500D01*
X157729793Y-89064608D01*
X157539800Y-89133759D01*
X157381830Y-89224964D01*
X157307330Y-89244926D01*
X157232830Y-89224964D01*
X157201971Y-89201285D01*
X157113045Y-89112359D01*
X157000148Y-89054835D01*
X156906479Y-89040000D01*
X156425000Y-89040000D01*
X156425000Y-90341000D01*
X156405038Y-90415500D01*
X156350500Y-90470038D01*
X156276000Y-90490000D01*
X155075001Y-90490000D01*
X155075001Y-91071478D01*
X155089835Y-91165148D01*
X155147358Y-91278044D01*
X155154455Y-91285141D01*
X155193019Y-91351936D01*
X155193019Y-91429064D01*
X155154455Y-91495859D01*
X155087660Y-91534423D01*
X155049096Y-91539500D01*
X153439154Y-91539500D01*
X153364654Y-91519538D01*
X153310116Y-91465000D01*
X153290339Y-91396581D01*
X153290499Y-91399302D01*
X153287598Y-91362431D01*
X153241744Y-91204602D01*
X153158081Y-91063135D01*
X153041865Y-90946919D01*
X152900398Y-90863256D01*
X152742569Y-90817402D01*
X152708596Y-90814728D01*
X152708586Y-90814727D01*
X152705694Y-90814500D01*
X150374306Y-90814500D01*
X150371414Y-90814727D01*
X150371403Y-90814728D01*
X150337430Y-90817402D01*
X150179602Y-90863256D01*
X150038134Y-90946919D01*
X149921918Y-91063135D01*
X149846096Y-91191346D01*
X149790990Y-91245310D01*
X149717845Y-91264500D01*
X148935046Y-91264500D01*
X148930896Y-91264967D01*
X148926717Y-91265202D01*
X148930536Y-91264880D01*
X148899464Y-91264880D01*
X148903283Y-91265202D01*
X148899103Y-91264967D01*
X148894954Y-91264500D01*
X148484954Y-91264500D01*
X146605046Y-91264500D01*
X146602115Y-91264829D01*
X146587876Y-91264829D01*
X146584954Y-91264500D01*
X146580786Y-91264500D01*
X133338296Y-91264500D01*
X133263796Y-91244538D01*
X133232937Y-91220859D01*
X132869569Y-90857490D01*
X132831005Y-90790695D01*
X132831005Y-90713567D01*
X132869567Y-90646774D01*
X132922111Y-90594231D01*
X132946134Y-90566104D01*
X133025312Y-90422079D01*
X133066185Y-90262888D01*
X133066185Y-90098534D01*
X133064392Y-90091550D01*
X133065200Y-90014429D01*
X133079647Y-89990000D01*
X155075000Y-89990000D01*
X155925000Y-89990000D01*
X155925000Y-89040000D01*
X155443521Y-89040000D01*
X155349851Y-89054835D01*
X155236955Y-89112358D01*
X155147359Y-89201954D01*
X155089835Y-89314851D01*
X155075000Y-89408521D01*
X155075000Y-89990000D01*
X133079647Y-89990000D01*
X133104461Y-89948041D01*
X133171655Y-89910178D01*
X133245765Y-89910178D01*
X133252748Y-89911971D01*
X133252750Y-89911971D01*
X133417101Y-89911971D01*
X133417102Y-89911971D01*
X133576293Y-89871098D01*
X133720318Y-89791920D01*
X133748445Y-89767897D01*
X134336325Y-89180017D01*
X134360348Y-89151890D01*
X134439526Y-89007865D01*
X134480399Y-88848674D01*
X134480399Y-88684320D01*
X134439526Y-88525129D01*
X134400661Y-88454434D01*
X134382265Y-88379533D01*
X134403783Y-88305467D01*
X134425869Y-88277299D01*
X135513168Y-87190000D01*
X145084528Y-87190000D01*
X145104379Y-87429561D01*
X145163390Y-87662592D01*
X145259949Y-87882724D01*
X145259951Y-87882728D01*
X145391429Y-88083969D01*
X145547266Y-88253254D01*
X145554238Y-88260827D01*
X145743933Y-88408472D01*
X145955339Y-88522880D01*
X145955342Y-88522881D01*
X145955344Y-88522882D01*
X145963454Y-88525666D01*
X146182702Y-88600934D01*
X146272425Y-88615906D01*
X146419808Y-88640500D01*
X146419809Y-88640500D01*
X146660191Y-88640500D01*
X146660192Y-88640500D01*
X146897297Y-88600934D01*
X147124656Y-88522882D01*
X147128792Y-88520644D01*
X147204078Y-88479901D01*
X147336067Y-88408472D01*
X147525764Y-88260825D01*
X147688571Y-88083969D01*
X147820049Y-87882728D01*
X147916610Y-87662591D01*
X147975620Y-87429563D01*
X147995471Y-87190000D01*
X150085030Y-87190000D01*
X150104874Y-87429478D01*
X150163865Y-87662429D01*
X150260392Y-87882488D01*
X150352687Y-88023756D01*
X150899858Y-87476584D01*
X150959680Y-87590566D01*
X151072405Y-87717806D01*
X151212305Y-87814371D01*
X151253542Y-87830010D01*
X150705573Y-88377980D01*
X150744204Y-88408049D01*
X150955546Y-88522422D01*
X151182825Y-88600447D01*
X151419851Y-88640000D01*
X151660149Y-88640000D01*
X151897174Y-88600447D01*
X152124455Y-88522421D01*
X152335789Y-88408052D01*
X152374425Y-88377979D01*
X151826457Y-87830010D01*
X151867695Y-87814371D01*
X152007595Y-87717806D01*
X152120320Y-87590566D01*
X152180140Y-87476586D01*
X152727310Y-88023756D01*
X152819608Y-87882485D01*
X152916134Y-87662429D01*
X152975125Y-87429478D01*
X152994969Y-87190000D01*
X152975125Y-86950521D01*
X152916134Y-86717570D01*
X152819608Y-86497514D01*
X152727310Y-86356242D01*
X152180139Y-86903412D01*
X152120320Y-86789434D01*
X152007595Y-86662194D01*
X151867695Y-86565629D01*
X151826455Y-86549988D01*
X152374425Y-86002019D01*
X152335789Y-85971946D01*
X152124458Y-85857579D01*
X151897174Y-85779552D01*
X151660149Y-85740000D01*
X151419851Y-85740000D01*
X151182825Y-85779552D01*
X150955541Y-85857579D01*
X150744210Y-85971946D01*
X150705573Y-86002018D01*
X150705573Y-86002019D01*
X151253543Y-86549989D01*
X151212305Y-86565629D01*
X151072405Y-86662194D01*
X150959680Y-86789434D01*
X150899859Y-86903413D01*
X150352687Y-86356241D01*
X150260392Y-86497511D01*
X150163865Y-86717570D01*
X150104874Y-86950521D01*
X150085030Y-87190000D01*
X147995471Y-87190000D01*
X147975620Y-86950437D01*
X147916610Y-86717409D01*
X147820049Y-86497272D01*
X147688571Y-86296031D01*
X147525764Y-86119175D01*
X147525763Y-86119174D01*
X147525761Y-86119172D01*
X147336066Y-85971527D01*
X147124660Y-85857119D01*
X146897297Y-85779065D01*
X146694098Y-85745158D01*
X146660192Y-85739500D01*
X146419808Y-85739500D01*
X146390143Y-85744450D01*
X146182702Y-85779065D01*
X145955339Y-85857119D01*
X145743933Y-85971527D01*
X145554238Y-86119172D01*
X145391430Y-86296029D01*
X145259949Y-86497275D01*
X145163390Y-86717407D01*
X145104379Y-86950438D01*
X145084528Y-87190000D01*
X135513168Y-87190000D01*
X139215973Y-83487195D01*
X139219605Y-83483687D01*
X139263969Y-83442255D01*
X139283528Y-83410091D01*
X139292110Y-83397481D01*
X139314865Y-83367475D01*
X139320187Y-83353977D01*
X139331494Y-83331213D01*
X139339025Y-83318829D01*
X139339026Y-83318828D01*
X139349183Y-83282573D01*
X139354047Y-83268112D01*
X139367857Y-83233093D01*
X139367859Y-83233089D01*
X139369343Y-83218647D01*
X139374083Y-83193704D01*
X139378000Y-83179728D01*
X139378000Y-83142077D01*
X139378781Y-83126841D01*
X139382631Y-83089388D01*
X139380166Y-83075090D01*
X139378000Y-83049777D01*
X139378000Y-81418296D01*
X139397962Y-81343796D01*
X139421641Y-81312937D01*
X139482316Y-81252262D01*
X139578289Y-81099522D01*
X139637868Y-80929255D01*
X139658065Y-80750000D01*
X139637868Y-80570745D01*
X139590228Y-80434599D01*
X155380687Y-80434599D01*
X155411114Y-80711123D01*
X155481480Y-80980278D01*
X155532154Y-81099522D01*
X155590284Y-81236314D01*
X155655879Y-81343796D01*
X155735205Y-81473777D01*
X155913165Y-81687620D01*
X156120354Y-81873261D01*
X156120356Y-81873262D01*
X156120357Y-81873263D01*
X156352373Y-82026763D01*
X156488134Y-82090405D01*
X156604264Y-82144845D01*
X156604266Y-82144845D01*
X156604267Y-82144846D01*
X156870669Y-82224995D01*
X157042461Y-82250277D01*
X157145900Y-82265500D01*
X157145901Y-82265500D01*
X157351740Y-82265500D01*
X157354463Y-82265500D01*
X157357194Y-82265300D01*
X157357197Y-82265300D01*
X157476859Y-82256541D01*
X157562455Y-82250277D01*
X157833997Y-82189788D01*
X158093838Y-82090408D01*
X158336440Y-81954253D01*
X158556632Y-81784226D01*
X158749722Y-81583951D01*
X158828542Y-81473781D01*
X158911593Y-81357697D01*
X158972105Y-81240000D01*
X159038797Y-81110283D01*
X159100226Y-80930220D01*
X159128619Y-80846993D01*
X159128619Y-80846990D01*
X159128621Y-80846986D01*
X159179152Y-80573416D01*
X159189313Y-80295404D01*
X159158886Y-80018876D01*
X159088520Y-79749724D01*
X158979716Y-79493686D01*
X158834792Y-79256219D01*
X158656837Y-79042383D01*
X158656834Y-79042379D01*
X158449645Y-78856738D01*
X158217627Y-78703237D01*
X157965735Y-78585154D01*
X157816347Y-78540210D01*
X157699331Y-78505005D01*
X157699327Y-78505004D01*
X157699326Y-78505004D01*
X157424100Y-78464500D01*
X157424099Y-78464500D01*
X157215537Y-78464500D01*
X157212834Y-78464697D01*
X157212802Y-78464699D01*
X157007545Y-78479722D01*
X156736007Y-78540210D01*
X156476156Y-78639594D01*
X156233563Y-78775744D01*
X156013365Y-78945776D01*
X155820278Y-79146047D01*
X155658406Y-79372302D01*
X155531201Y-79619720D01*
X155441380Y-79883006D01*
X155404052Y-80085097D01*
X155390848Y-80156584D01*
X155384588Y-80327876D01*
X155380687Y-80434599D01*
X139590228Y-80434599D01*
X139578289Y-80400478D01*
X139482316Y-80247738D01*
X139354762Y-80120184D01*
X139202022Y-80024211D01*
X139031755Y-79964632D01*
X138995449Y-79960541D01*
X138852499Y-79944434D01*
X138689728Y-79962774D01*
X138673245Y-79964632D01*
X138588111Y-79994421D01*
X138502977Y-80024211D01*
X138350237Y-80120184D01*
X138222684Y-80247737D01*
X138126711Y-80400477D01*
X138067132Y-80570746D01*
X138046934Y-80750000D01*
X138063417Y-80896287D01*
X138067132Y-80929255D01*
X138114648Y-81065048D01*
X138126711Y-81099522D01*
X138222684Y-81252262D01*
X138283359Y-81312937D01*
X138321923Y-81379732D01*
X138327000Y-81418296D01*
X138327000Y-82828111D01*
X138307038Y-82902611D01*
X138283359Y-82933470D01*
X133682703Y-87534126D01*
X133615908Y-87572690D01*
X133538780Y-87572690D01*
X133505563Y-87559337D01*
X133434871Y-87520474D01*
X133275680Y-87479601D01*
X133111326Y-87479601D01*
X133092503Y-87479601D01*
X133092503Y-87477978D01*
X133039529Y-87477421D01*
X132973144Y-87438157D01*
X132935284Y-87370960D01*
X132935287Y-87296853D01*
X132938147Y-87285715D01*
X132938147Y-87121489D01*
X132897306Y-86962422D01*
X132818187Y-86818505D01*
X132796086Y-86792629D01*
X132792116Y-86788334D01*
X132588667Y-86584885D01*
X131818981Y-87354570D01*
X131752186Y-87393134D01*
X131675058Y-87393134D01*
X131608263Y-87354570D01*
X130770983Y-86517290D01*
X130770981Y-86517287D01*
X130482251Y-86228558D01*
X130449951Y-86180218D01*
X130449097Y-86178157D01*
X130117246Y-85846307D01*
X129763692Y-85492753D01*
X130470798Y-85492753D01*
X131059886Y-86081840D01*
X131059887Y-86081842D01*
X131348618Y-86370573D01*
X131380917Y-86418912D01*
X131381769Y-86420970D01*
X131713622Y-86752823D01*
X132235113Y-86231332D01*
X132235114Y-86231332D01*
X132031665Y-86027883D01*
X132027370Y-86023913D01*
X132001494Y-86001812D01*
X131857577Y-85922693D01*
X131698511Y-85881853D01*
X131534279Y-85881853D01*
X131514550Y-85886918D01*
X131437427Y-85886108D01*
X131371040Y-85846845D01*
X131333180Y-85779648D01*
X131333182Y-85705541D01*
X131341770Y-85672095D01*
X131341769Y-85507866D01*
X131300929Y-85348799D01*
X131221810Y-85204882D01*
X131199709Y-85179006D01*
X131195739Y-85174711D01*
X130992290Y-84971262D01*
X130470798Y-85492753D01*
X129763692Y-85492753D01*
X129144974Y-84874035D01*
X129038751Y-84980257D01*
X129034788Y-84984545D01*
X129012680Y-85010430D01*
X128933562Y-85154343D01*
X128892722Y-85313412D01*
X128892722Y-85477641D01*
X128918993Y-85579963D01*
X128918185Y-85657087D01*
X128878923Y-85723474D01*
X128811728Y-85761336D01*
X128737620Y-85761336D01*
X128634951Y-85734976D01*
X128634950Y-85734976D01*
X128470596Y-85734976D01*
X128367930Y-85761336D01*
X128311405Y-85775849D01*
X128167377Y-85855028D01*
X128141488Y-85877140D01*
X128141472Y-85877154D01*
X128139253Y-85879050D01*
X128137180Y-85881122D01*
X128137181Y-85881122D01*
X128120543Y-85897759D01*
X128053746Y-85936319D01*
X127976618Y-85936315D01*
X127909831Y-85897753D01*
X126688296Y-84676218D01*
X126688293Y-84676216D01*
X126532558Y-84520481D01*
X129498527Y-84520481D01*
X130117245Y-85139200D01*
X130638737Y-84617708D01*
X130435288Y-84414260D01*
X130430993Y-84410290D01*
X130405117Y-84388189D01*
X130261200Y-84309070D01*
X130102134Y-84268230D01*
X129937904Y-84268230D01*
X129778835Y-84309070D01*
X129634922Y-84388188D01*
X129609037Y-84410296D01*
X129604749Y-84414259D01*
X129498527Y-84520481D01*
X126532558Y-84520481D01*
X126400266Y-84388189D01*
X126124252Y-84112174D01*
X126103295Y-84091217D01*
X126103295Y-84091216D01*
X126103292Y-84091214D01*
X125993295Y-83981216D01*
X125982263Y-83970184D01*
X125951038Y-83950564D01*
X125937412Y-83940896D01*
X125908586Y-83917908D01*
X125875359Y-83901906D01*
X125860741Y-83893826D01*
X125829525Y-83874212D01*
X125824635Y-83872501D01*
X125794712Y-83862030D01*
X125779284Y-83855639D01*
X125746059Y-83839639D01*
X125710102Y-83831431D01*
X125694055Y-83826808D01*
X125659256Y-83814632D01*
X125622609Y-83810502D01*
X125606146Y-83807704D01*
X125570197Y-83799500D01*
X125570194Y-83799500D01*
X125524954Y-83799500D01*
X122829500Y-83799500D01*
X122755000Y-83779538D01*
X122700462Y-83725000D01*
X122680500Y-83650500D01*
X122680500Y-82650510D01*
X122700462Y-82576010D01*
X122729120Y-82540397D01*
X122770981Y-82502236D01*
X122905058Y-82324689D01*
X123004229Y-82125528D01*
X123006687Y-82116887D01*
X123046274Y-82050695D01*
X123113655Y-82013163D01*
X123190774Y-82014349D01*
X123256967Y-82053936D01*
X123293313Y-82116888D01*
X123295772Y-82125532D01*
X123394939Y-82324685D01*
X123394941Y-82324688D01*
X123394942Y-82324689D01*
X123529019Y-82502236D01*
X123693438Y-82652124D01*
X123693440Y-82652125D01*
X123882598Y-82769247D01*
X124034544Y-82828111D01*
X124090060Y-82849618D01*
X124308757Y-82890500D01*
X124531243Y-82890500D01*
X124749940Y-82849618D01*
X124957401Y-82769247D01*
X125146562Y-82652124D01*
X125310981Y-82502236D01*
X125445058Y-82324689D01*
X125544229Y-82125528D01*
X125546687Y-82116887D01*
X125586274Y-82050695D01*
X125653655Y-82013163D01*
X125730774Y-82014349D01*
X125796967Y-82053936D01*
X125833313Y-82116888D01*
X125835772Y-82125532D01*
X125934939Y-82324685D01*
X125934941Y-82324688D01*
X125934942Y-82324689D01*
X126069019Y-82502236D01*
X126233438Y-82652124D01*
X126233440Y-82652125D01*
X126422598Y-82769247D01*
X126574544Y-82828111D01*
X126630060Y-82849618D01*
X126848757Y-82890500D01*
X127071243Y-82890500D01*
X127289940Y-82849618D01*
X127497401Y-82769247D01*
X127686562Y-82652124D01*
X127850981Y-82502236D01*
X127985058Y-82324689D01*
X128084229Y-82125528D01*
X128145115Y-81911536D01*
X128160500Y-81745503D01*
X128160500Y-81234497D01*
X128145115Y-81068464D01*
X128086947Y-80864025D01*
X128084229Y-80854471D01*
X127985060Y-80655314D01*
X127985058Y-80655311D01*
X127850981Y-80477764D01*
X127686562Y-80327876D01*
X127634118Y-80295404D01*
X127497401Y-80210752D01*
X127289942Y-80130382D01*
X127071243Y-80089500D01*
X126848757Y-80089500D01*
X126630057Y-80130382D01*
X126422598Y-80210752D01*
X126233440Y-80327874D01*
X126069021Y-80477761D01*
X125934939Y-80655314D01*
X125835770Y-80854471D01*
X125833312Y-80863112D01*
X125793724Y-80929306D01*
X125726344Y-80966837D01*
X125649225Y-80965649D01*
X125583031Y-80926061D01*
X125546688Y-80863112D01*
X125544229Y-80854471D01*
X125445060Y-80655314D01*
X125445058Y-80655311D01*
X125310981Y-80477764D01*
X125146562Y-80327876D01*
X125094118Y-80295404D01*
X124957401Y-80210752D01*
X124749942Y-80130382D01*
X124531243Y-80089500D01*
X124308757Y-80089500D01*
X124090057Y-80130382D01*
X123882598Y-80210752D01*
X123693440Y-80327874D01*
X123529021Y-80477761D01*
X123394939Y-80655314D01*
X123295770Y-80854471D01*
X123293312Y-80863112D01*
X123253724Y-80929306D01*
X123186344Y-80966837D01*
X123109225Y-80965649D01*
X123043031Y-80926061D01*
X123006688Y-80863112D01*
X123004229Y-80854471D01*
X122905060Y-80655314D01*
X122905058Y-80655311D01*
X122770981Y-80477764D01*
X122606562Y-80327876D01*
X122554118Y-80295404D01*
X122417401Y-80210752D01*
X122209942Y-80130382D01*
X121991243Y-80089500D01*
X121768757Y-80089500D01*
X121550057Y-80130382D01*
X121342598Y-80210752D01*
X121153440Y-80327874D01*
X120989021Y-80477761D01*
X120854939Y-80655314D01*
X120755771Y-80854469D01*
X120753052Y-80864027D01*
X120713463Y-80930220D01*
X120646082Y-80967750D01*
X120568963Y-80966562D01*
X120502770Y-80926973D01*
X120466428Y-80864025D01*
X120463761Y-80854652D01*
X120364632Y-80655574D01*
X120230610Y-80478102D01*
X120066259Y-80328276D01*
X119877176Y-80211200D01*
X119669804Y-80130864D01*
X119590000Y-80115945D01*
X119590000Y-81054498D01*
X119482315Y-81005320D01*
X119375763Y-80990000D01*
X119304237Y-80990000D01*
X119197685Y-81005320D01*
X119090000Y-81054498D01*
X119090000Y-80115946D01*
X119089999Y-80115945D01*
X119010195Y-80130864D01*
X118802823Y-80211200D01*
X118613740Y-80328276D01*
X118449389Y-80478102D01*
X118315367Y-80655574D01*
X118216238Y-80854652D01*
X118155379Y-81068556D01*
X118140318Y-81231081D01*
X118140000Y-81237968D01*
X118140000Y-81240000D01*
X118906314Y-81240000D01*
X118880507Y-81280156D01*
X118840000Y-81418111D01*
X118840000Y-81561889D01*
X118880507Y-81699844D01*
X118906314Y-81740000D01*
X118140000Y-81740000D01*
X118140000Y-81742031D01*
X118140318Y-81748918D01*
X118155379Y-81911443D01*
X118216238Y-82125347D01*
X118315367Y-82324425D01*
X118449389Y-82501897D01*
X118613740Y-82651723D01*
X118802823Y-82768799D01*
X119010196Y-82849135D01*
X119089999Y-82864052D01*
X119090000Y-82864052D01*
X119090000Y-81925501D01*
X119197685Y-81974680D01*
X119304237Y-81990000D01*
X119375763Y-81990000D01*
X119482315Y-81974680D01*
X119590000Y-81925501D01*
X119590000Y-82864052D01*
X119669803Y-82849135D01*
X119877176Y-82768799D01*
X120066259Y-82651723D01*
X120230610Y-82501897D01*
X120364632Y-82324425D01*
X120463759Y-82125351D01*
X120466427Y-82115975D01*
X120506015Y-82049782D01*
X120573395Y-82012250D01*
X120650514Y-82013436D01*
X120716707Y-82053024D01*
X120753052Y-82115974D01*
X120755770Y-82125528D01*
X120854939Y-82324685D01*
X120854941Y-82324688D01*
X120854942Y-82324689D01*
X120989019Y-82502236D01*
X121030880Y-82540397D01*
X121072488Y-82605339D01*
X121079500Y-82650510D01*
X121079500Y-83650500D01*
X121059538Y-83725000D01*
X121005000Y-83779538D01*
X120930500Y-83799500D01*
X117116052Y-83799500D01*
X117078998Y-83794819D01*
X117058675Y-83789601D01*
X117058674Y-83789601D01*
X116894320Y-83789601D01*
X116796830Y-83814632D01*
X116735129Y-83830474D01*
X116591101Y-83909653D01*
X116565201Y-83931774D01*
X116565191Y-83931782D01*
X116562976Y-83933675D01*
X116560922Y-83935728D01*
X116560909Y-83935741D01*
X115835741Y-84660909D01*
X115835728Y-84660922D01*
X115833675Y-84662976D01*
X115831782Y-84665191D01*
X115831774Y-84665201D01*
X115809653Y-84691101D01*
X115730474Y-84835129D01*
X115689601Y-84994320D01*
X115689601Y-85028174D01*
X115669639Y-85102674D01*
X115645960Y-85133533D01*
X115483534Y-85295960D01*
X115416739Y-85334524D01*
X115378175Y-85339601D01*
X115344320Y-85339601D01*
X115185128Y-85380473D01*
X115185129Y-85380474D01*
X115041101Y-85459653D01*
X115015201Y-85481774D01*
X115015191Y-85481782D01*
X115012976Y-85483675D01*
X115010922Y-85485728D01*
X115010909Y-85485741D01*
X114285741Y-86210909D01*
X114285728Y-86210922D01*
X114283675Y-86212976D01*
X114281782Y-86215191D01*
X114281774Y-86215201D01*
X114259653Y-86241101D01*
X114229455Y-86296031D01*
X114180474Y-86385129D01*
X114139601Y-86544320D01*
X114139601Y-86708674D01*
X114180474Y-86867865D01*
X114207354Y-86916760D01*
X114259652Y-87011891D01*
X114277489Y-87032774D01*
X114283675Y-87040017D01*
X114871555Y-87627897D01*
X114873780Y-87629797D01*
X114899680Y-87651919D01*
X114899682Y-87651920D01*
X115043707Y-87731098D01*
X115202898Y-87771971D01*
X115202899Y-87771971D01*
X115367252Y-87771971D01*
X115374231Y-87770179D01*
X115451355Y-87770985D01*
X115517743Y-87810246D01*
X115555606Y-87877440D01*
X115555608Y-87951547D01*
X115553815Y-87958531D01*
X115553815Y-88122888D01*
X115598081Y-88295295D01*
X115597273Y-88372418D01*
X115559122Y-88437706D01*
X115525092Y-88471737D01*
X115458298Y-88510302D01*
X115381170Y-88510304D01*
X115348024Y-88493465D01*
X115347843Y-88493863D01*
X115317270Y-88479901D01*
X115202910Y-88427675D01*
X115202908Y-88427674D01*
X115202907Y-88427674D01*
X115063726Y-88407662D01*
X114924544Y-88427674D01*
X114796633Y-88486088D01*
X114754125Y-88520343D01*
X114754107Y-88520358D01*
X114751021Y-88522846D01*
X114748209Y-88525657D01*
X114748200Y-88525666D01*
X114395665Y-88878201D01*
X114395656Y-88878210D01*
X114392846Y-88881021D01*
X114390352Y-88884115D01*
X114388275Y-88886428D01*
X114323637Y-88928507D01*
X114246619Y-88932630D01*
X114177858Y-88897691D01*
X114135779Y-88833053D01*
X114129952Y-88808057D01*
X114128323Y-88796729D01*
X114111507Y-88679775D01*
X114053094Y-88551867D01*
X114044608Y-88541336D01*
X114018838Y-88509358D01*
X114018832Y-88509351D01*
X114016336Y-88506254D01*
X113205613Y-87695531D01*
X113202516Y-87693035D01*
X113202508Y-87693028D01*
X113160000Y-87658773D01*
X113110876Y-87636339D01*
X113032092Y-87600360D01*
X113032090Y-87600359D01*
X113032089Y-87600359D01*
X112892908Y-87580347D01*
X112753726Y-87600359D01*
X112625815Y-87658773D01*
X112583307Y-87693028D01*
X112583289Y-87693043D01*
X112580203Y-87695531D01*
X112577391Y-87698342D01*
X112577382Y-87698351D01*
X112224848Y-88050885D01*
X112224839Y-88050894D01*
X112222028Y-88053706D01*
X112219540Y-88056792D01*
X112219525Y-88056810D01*
X112185270Y-88099318D01*
X112126856Y-88227229D01*
X112106844Y-88366411D01*
X112126856Y-88505592D01*
X112126856Y-88505593D01*
X112126857Y-88505595D01*
X112157011Y-88571623D01*
X112185270Y-88633503D01*
X112219525Y-88676011D01*
X112219532Y-88676019D01*
X112222028Y-88679116D01*
X113032751Y-89489839D01*
X113035848Y-89492335D01*
X113035855Y-89492341D01*
X113054160Y-89507092D01*
X113078364Y-89526597D01*
X113206272Y-89585010D01*
X113335202Y-89603548D01*
X113406102Y-89633910D01*
X113452322Y-89695654D01*
X113461478Y-89772237D01*
X113431116Y-89843138D01*
X113413569Y-89861874D01*
X113405589Y-89869042D01*
X114194690Y-90658144D01*
X114233254Y-90724939D01*
X114233254Y-90802067D01*
X114194690Y-90868862D01*
X114051856Y-91011697D01*
X113985062Y-91050261D01*
X113907933Y-91050261D01*
X113841138Y-91011697D01*
X113052035Y-90222594D01*
X113047231Y-90227944D01*
X113013011Y-90270408D01*
X112954654Y-90398189D01*
X112934664Y-90537228D01*
X112954654Y-90676268D01*
X113013011Y-90804049D01*
X113047222Y-90846503D01*
X113052550Y-90852434D01*
X113625258Y-91425141D01*
X113663822Y-91491936D01*
X113663822Y-91569064D01*
X113625258Y-91635859D01*
X113558463Y-91674423D01*
X113519899Y-91679500D01*
X109689000Y-91679500D01*
X109614500Y-91659538D01*
X109559962Y-91605000D01*
X109540000Y-91530500D01*
X109540000Y-77889500D01*
X109559962Y-77815000D01*
X109614500Y-77760462D01*
X109689000Y-77740500D01*
X157175864Y-77740500D01*
X157255813Y-77740500D01*
X157264166Y-77740733D01*
G37*
%TD.AperFunction*%
%TA.AperFunction,Conductor*%
G36*
X123365357Y-89232712D02*
G01*
X123653165Y-89520519D01*
X123682435Y-89541785D01*
X123710643Y-89562280D01*
X123743602Y-89595239D01*
X123785367Y-89652723D01*
X123785368Y-89652724D01*
X124218850Y-90086205D01*
X124277639Y-90128919D01*
X124310599Y-90161879D01*
X124351435Y-90218083D01*
X124391370Y-90258019D01*
X124391371Y-90258019D01*
X124424528Y-90224862D01*
X124491323Y-90186299D01*
X124529886Y-90181222D01*
X124543191Y-90181222D01*
X124543192Y-90181222D01*
X124663849Y-90142019D01*
X124663851Y-90142017D01*
X124677662Y-90137530D01*
X124754684Y-90133494D01*
X124823406Y-90168510D01*
X124865413Y-90233195D01*
X124869449Y-90310217D01*
X124865413Y-90325280D01*
X124821722Y-90459750D01*
X124821722Y-90473056D01*
X124801760Y-90547556D01*
X124778081Y-90578415D01*
X124744924Y-90611571D01*
X124784865Y-90651511D01*
X124841067Y-90692347D01*
X124874026Y-90725306D01*
X124916738Y-90784093D01*
X125350221Y-91217575D01*
X125409010Y-91260289D01*
X125441968Y-91293247D01*
X125482806Y-91349454D01*
X125522741Y-91389390D01*
X125522742Y-91389390D01*
X125555900Y-91356232D01*
X125622695Y-91317669D01*
X125661258Y-91312592D01*
X125674562Y-91312592D01*
X125674563Y-91312592D01*
X125795220Y-91273389D01*
X125795221Y-91273387D01*
X125809034Y-91268900D01*
X125886056Y-91264864D01*
X125954778Y-91299880D01*
X125996785Y-91364565D01*
X126000821Y-91441587D01*
X125996766Y-91456708D01*
X125996426Y-91457753D01*
X125960096Y-91517012D01*
X125085961Y-92391147D01*
X125068830Y-92404872D01*
X125017923Y-92459082D01*
X125014672Y-92462437D01*
X124997922Y-92479187D01*
X124997915Y-92479194D01*
X124994617Y-92482493D01*
X124991761Y-92486173D01*
X124988921Y-92489395D01*
X124983523Y-92495715D01*
X124953079Y-92528136D01*
X124943802Y-92545010D01*
X124930970Y-92564544D01*
X124919166Y-92579762D01*
X124901503Y-92620577D01*
X124895331Y-92633177D01*
X124873899Y-92672163D01*
X124869108Y-92690822D01*
X124861539Y-92712930D01*
X124853892Y-92730601D01*
X124846936Y-92774521D01*
X124844090Y-92788263D01*
X124833028Y-92831348D01*
X124833028Y-92850607D01*
X124831193Y-92873917D01*
X124828180Y-92892933D01*
X124832366Y-92937215D01*
X124833027Y-92951235D01*
X124833027Y-93713733D01*
X124813065Y-93788233D01*
X124789386Y-93819092D01*
X122163275Y-96445203D01*
X122096480Y-96483767D01*
X122019352Y-96483767D01*
X121952557Y-96445203D01*
X121735463Y-96228109D01*
X121677982Y-96186344D01*
X121645024Y-96153385D01*
X121603262Y-96095907D01*
X121169779Y-95662425D01*
X121136627Y-95638338D01*
X121110989Y-95619710D01*
X121078030Y-95586751D01*
X121037192Y-95530544D01*
X120997258Y-95490609D01*
X120997257Y-95490609D01*
X120964100Y-95523766D01*
X120897305Y-95562331D01*
X120858740Y-95567408D01*
X120845437Y-95567408D01*
X120710965Y-95611099D01*
X120633943Y-95615135D01*
X120565221Y-95580119D01*
X120523215Y-95515433D01*
X120519179Y-95438411D01*
X120523215Y-95423348D01*
X120527702Y-95409537D01*
X120527704Y-95409535D01*
X120566907Y-95288878D01*
X120566907Y-95275570D01*
X120586866Y-95201073D01*
X120610548Y-95170210D01*
X120643703Y-95137055D01*
X120603763Y-95097117D01*
X120547560Y-95056281D01*
X120514602Y-95023322D01*
X120471891Y-94964536D01*
X120218652Y-94711298D01*
X120180089Y-94644504D01*
X120180089Y-94567376D01*
X120218652Y-94500583D01*
X120252346Y-94466888D01*
X120319140Y-94428323D01*
X120341025Y-94424182D01*
X120364305Y-94421558D01*
X120419255Y-94415368D01*
X120589522Y-94355789D01*
X120742262Y-94259816D01*
X120869816Y-94132262D01*
X120965789Y-93979522D01*
X121025368Y-93809255D01*
X121045565Y-93630000D01*
X121025368Y-93450745D01*
X120965789Y-93280478D01*
X120869816Y-93127738D01*
X120742262Y-93000184D01*
X120589522Y-92904211D01*
X120419255Y-92844632D01*
X120386287Y-92840917D01*
X120240000Y-92824434D01*
X120078897Y-92842586D01*
X120060745Y-92844632D01*
X120010832Y-92862097D01*
X119880070Y-92907852D01*
X119803157Y-92913615D01*
X119733667Y-92880150D01*
X119690220Y-92816424D01*
X119684457Y-92739511D01*
X119717922Y-92670021D01*
X119725481Y-92661873D01*
X119906205Y-92481150D01*
X119947969Y-92423666D01*
X119980927Y-92390708D01*
X120038408Y-92348947D01*
X120471890Y-91915464D01*
X120513652Y-91857984D01*
X120546612Y-91825024D01*
X120604093Y-91783262D01*
X121037575Y-91349779D01*
X121079338Y-91292297D01*
X121112296Y-91259339D01*
X121169779Y-91217576D01*
X121603261Y-90784093D01*
X121645023Y-90726613D01*
X121677983Y-90693653D01*
X121735464Y-90651891D01*
X122168946Y-90218408D01*
X122210710Y-90160924D01*
X122243665Y-90127970D01*
X122301150Y-90086206D01*
X122734632Y-89652723D01*
X122776396Y-89595239D01*
X122809354Y-89562281D01*
X122866835Y-89520520D01*
X123154641Y-89232712D01*
X123221434Y-89194148D01*
X123298562Y-89194148D01*
X123365357Y-89232712D01*
G37*
%TD.AperFunction*%
%TA.AperFunction,Conductor*%
G36*
X154800001Y-92760462D02*
G01*
X154854539Y-92815000D01*
X154874500Y-92889498D01*
X154874501Y-93021518D01*
X154879075Y-93050398D01*
X154885614Y-93091691D01*
X154885614Y-93138304D01*
X154874500Y-93208481D01*
X154874500Y-93671517D01*
X154885614Y-93741691D01*
X154885614Y-93788304D01*
X154874500Y-93858481D01*
X154874500Y-94321518D01*
X154885867Y-94393289D01*
X154885867Y-94439902D01*
X154875000Y-94508519D01*
X154875000Y-94540000D01*
X154896890Y-94540000D01*
X154971390Y-94559962D01*
X155002249Y-94583641D01*
X155036658Y-94618050D01*
X155088577Y-94644504D01*
X155115535Y-94658240D01*
X155172852Y-94709849D01*
X155196686Y-94783202D01*
X155180650Y-94858645D01*
X155129041Y-94915962D01*
X155055688Y-94939796D01*
X155047890Y-94940000D01*
X154875001Y-94940000D01*
X154875001Y-94971478D01*
X154889835Y-95065148D01*
X154947358Y-95178044D01*
X155036954Y-95267640D01*
X155148834Y-95324646D01*
X155206151Y-95376255D01*
X155229985Y-95449608D01*
X155213949Y-95525051D01*
X155186549Y-95562764D01*
X155147359Y-95601953D01*
X155089835Y-95714851D01*
X155075000Y-95808521D01*
X155075000Y-96390000D01*
X156276000Y-96390000D01*
X156350500Y-96409962D01*
X156405038Y-96464500D01*
X156425000Y-96539000D01*
X156425000Y-97839999D01*
X156906478Y-97839999D01*
X157000148Y-97825164D01*
X157113046Y-97767640D01*
X157201971Y-97678715D01*
X157268765Y-97640150D01*
X157345893Y-97640150D01*
X157381827Y-97655033D01*
X157462827Y-97701799D01*
X157539800Y-97746240D01*
X157611546Y-97772353D01*
X157729792Y-97815391D01*
X157779570Y-97824168D01*
X157928904Y-97850500D01*
X157928907Y-97850500D01*
X159321096Y-97850500D01*
X159440561Y-97829434D01*
X159520208Y-97815391D01*
X159709538Y-97746480D01*
X159786373Y-97739758D01*
X159856275Y-97772353D01*
X159900514Y-97835533D01*
X159909500Y-97886494D01*
X159909500Y-106485812D01*
X159909266Y-106494166D01*
X159893310Y-106778297D01*
X159891439Y-106794900D01*
X159880188Y-106861123D01*
X159844474Y-107071317D01*
X159840756Y-107087607D01*
X159763134Y-107357037D01*
X159757615Y-107372808D01*
X159650317Y-107631847D01*
X159643067Y-107646901D01*
X159507446Y-107892290D01*
X159498557Y-107906438D01*
X159336302Y-108135115D01*
X159325884Y-108148177D01*
X159194815Y-108294845D01*
X159139055Y-108357240D01*
X159127244Y-108369050D01*
X159075492Y-108415300D01*
X158918179Y-108555884D01*
X158905115Y-108566302D01*
X158676438Y-108728557D01*
X158662290Y-108737446D01*
X158416901Y-108873067D01*
X158401847Y-108880317D01*
X158142808Y-108987615D01*
X158127037Y-108993134D01*
X157857607Y-109070756D01*
X157841317Y-109074474D01*
X157564902Y-109121439D01*
X157548297Y-109123310D01*
X157264167Y-109139266D01*
X157255813Y-109139500D01*
X109689000Y-109139500D01*
X109614500Y-109119538D01*
X109559962Y-109065000D01*
X109540000Y-108990500D01*
X109540000Y-104569500D01*
X109559962Y-104495000D01*
X109614500Y-104440462D01*
X109689000Y-104420500D01*
X115860875Y-104420500D01*
X115880322Y-104421774D01*
X115910000Y-104425682D01*
X115910000Y-104425681D01*
X115910001Y-104425682D01*
X115962254Y-104418802D01*
X116066762Y-104405044D01*
X116212841Y-104344536D01*
X116231839Y-104329958D01*
X116241566Y-104322495D01*
X116288188Y-104286720D01*
X116338282Y-104248282D01*
X116356513Y-104224521D01*
X116369350Y-104209883D01*
X116957450Y-103621785D01*
X117025736Y-103553498D01*
X117092530Y-103514934D01*
X117169658Y-103514934D01*
X117202877Y-103528288D01*
X117205129Y-103529526D01*
X117364320Y-103570399D01*
X117364321Y-103570399D01*
X117528671Y-103570399D01*
X117528674Y-103570399D01*
X117530819Y-103569848D01*
X117607941Y-103570654D01*
X117674330Y-103609913D01*
X117712194Y-103677107D01*
X117712196Y-103751217D01*
X117709601Y-103761324D01*
X117709601Y-103761325D01*
X117709601Y-103761326D01*
X117709601Y-103925680D01*
X117750474Y-104084871D01*
X117829652Y-104228897D01*
X117853675Y-104257024D01*
X118582976Y-104986325D01*
X118611103Y-105010348D01*
X118755129Y-105089526D01*
X118914320Y-105130399D01*
X118914321Y-105130399D01*
X119078673Y-105130399D01*
X119078674Y-105130399D01*
X119237865Y-105089526D01*
X119381890Y-105010348D01*
X119410017Y-104986325D01*
X119931226Y-104465115D01*
X119998022Y-104426551D01*
X120075150Y-104426551D01*
X120141945Y-104465115D01*
X123480275Y-107803445D01*
X123483811Y-107807104D01*
X123525245Y-107851469D01*
X123543643Y-107862657D01*
X123557409Y-107871028D01*
X123570019Y-107879611D01*
X123600025Y-107902365D01*
X123613534Y-107907692D01*
X123636285Y-107918993D01*
X123648672Y-107926526D01*
X123684917Y-107936681D01*
X123699380Y-107941544D01*
X123734411Y-107955359D01*
X123748850Y-107956843D01*
X123773803Y-107961585D01*
X123787772Y-107965500D01*
X123825413Y-107965500D01*
X123840650Y-107966281D01*
X123843749Y-107966599D01*
X123878110Y-107970132D01*
X123892407Y-107967666D01*
X123917724Y-107965500D01*
X139493476Y-107965500D01*
X139498562Y-107965586D01*
X139559245Y-107967660D01*
X139595836Y-107958742D01*
X139610794Y-107955899D01*
X139648111Y-107950771D01*
X139661420Y-107944989D01*
X139685510Y-107936889D01*
X139687816Y-107936326D01*
X139699594Y-107933457D01*
X139732407Y-107915006D01*
X139746065Y-107908223D01*
X139753384Y-107905043D01*
X139780609Y-107893219D01*
X139791863Y-107884062D01*
X139812867Y-107869767D01*
X139825512Y-107862658D01*
X139852136Y-107836032D01*
X139863464Y-107825810D01*
X139892665Y-107802054D01*
X139901033Y-107790197D01*
X139917392Y-107770776D01*
X140714261Y-106973906D01*
X140781054Y-106935344D01*
X140858181Y-106935344D01*
X140992023Y-106971207D01*
X141210000Y-106990277D01*
X141427977Y-106971207D01*
X141639330Y-106914575D01*
X141837639Y-106822102D01*
X142016877Y-106696598D01*
X142171598Y-106541877D01*
X142228447Y-106460687D01*
X142287529Y-106411112D01*
X142363485Y-106397718D01*
X142435962Y-106424097D01*
X142485539Y-106483180D01*
X142499500Y-106546149D01*
X142499500Y-106616516D01*
X142508730Y-106674795D01*
X142514354Y-106710304D01*
X142571950Y-106823342D01*
X142661658Y-106913050D01*
X142774696Y-106970646D01*
X142868481Y-106985500D01*
X144631518Y-106985499D01*
X144725304Y-106970646D01*
X144838342Y-106913050D01*
X144928050Y-106823342D01*
X144985646Y-106710304D01*
X145000500Y-106616519D01*
X145000500Y-106584599D01*
X155380687Y-106584599D01*
X155395962Y-106723416D01*
X155411114Y-106861124D01*
X155425088Y-106914574D01*
X155481480Y-107130278D01*
X155536725Y-107260279D01*
X155590284Y-107386314D01*
X155664362Y-107507696D01*
X155735205Y-107623777D01*
X155913165Y-107837620D01*
X156120354Y-108023261D01*
X156120356Y-108023262D01*
X156120357Y-108023263D01*
X156352373Y-108176763D01*
X156420501Y-108208700D01*
X156604264Y-108294845D01*
X156604266Y-108294845D01*
X156604267Y-108294846D01*
X156870669Y-108374995D01*
X157042461Y-108400277D01*
X157145900Y-108415500D01*
X157145901Y-108415500D01*
X157351740Y-108415500D01*
X157354463Y-108415500D01*
X157357194Y-108415300D01*
X157357197Y-108415300D01*
X157476859Y-108406541D01*
X157562455Y-108400277D01*
X157833997Y-108339788D01*
X158093838Y-108240408D01*
X158336440Y-108104253D01*
X158556632Y-107934226D01*
X158749722Y-107733951D01*
X158828542Y-107623781D01*
X158911593Y-107507697D01*
X158974000Y-107386313D01*
X159038797Y-107260283D01*
X159100448Y-107079569D01*
X159128619Y-106996993D01*
X159128619Y-106996990D01*
X159128621Y-106996986D01*
X159179152Y-106723416D01*
X159189313Y-106445404D01*
X159158886Y-106168876D01*
X159088520Y-105899724D01*
X158979716Y-105643686D01*
X158855758Y-105440573D01*
X158834794Y-105406222D01*
X158829218Y-105399522D01*
X158727725Y-105277564D01*
X158656834Y-105192379D01*
X158449645Y-105006738D01*
X158217627Y-104853237D01*
X157965735Y-104735154D01*
X157816347Y-104690210D01*
X157699331Y-104655005D01*
X157699327Y-104655004D01*
X157699326Y-104655004D01*
X157424100Y-104614500D01*
X157424099Y-104614500D01*
X157215537Y-104614500D01*
X157212834Y-104614697D01*
X157212802Y-104614699D01*
X157007545Y-104629722D01*
X156736007Y-104690210D01*
X156476156Y-104789594D01*
X156233563Y-104925744D01*
X156013365Y-105095776D01*
X155820278Y-105296047D01*
X155658406Y-105522302D01*
X155531201Y-105769720D01*
X155441380Y-106033006D01*
X155390848Y-106306583D01*
X155390848Y-106306584D01*
X155382249Y-106541874D01*
X155380687Y-106584599D01*
X145000500Y-106584599D01*
X145000499Y-104853482D01*
X144985646Y-104759696D01*
X144928050Y-104646658D01*
X144838342Y-104556950D01*
X144725304Y-104499354D01*
X144631519Y-104484500D01*
X144631517Y-104484500D01*
X144561152Y-104484500D01*
X144486652Y-104464538D01*
X144432114Y-104410000D01*
X144412152Y-104335500D01*
X144432114Y-104261000D01*
X144475687Y-104213447D01*
X144556877Y-104156598D01*
X144711598Y-104001877D01*
X144808174Y-103863951D01*
X144867256Y-103814375D01*
X144943213Y-103800982D01*
X144949676Y-103801690D01*
X144979999Y-103805682D01*
X144979999Y-103805681D01*
X144980000Y-103805682D01*
X145009677Y-103801774D01*
X145029125Y-103800500D01*
X146590875Y-103800500D01*
X146610322Y-103801774D01*
X146640000Y-103805682D01*
X146640000Y-103805681D01*
X146640001Y-103805682D01*
X146717340Y-103795500D01*
X146796762Y-103785044D01*
X146942841Y-103724536D01*
X146946218Y-103721945D01*
X146953725Y-103716185D01*
X147022726Y-103663238D01*
X147068282Y-103628282D01*
X147086513Y-103604521D01*
X147099350Y-103589883D01*
X148929883Y-101759350D01*
X148944521Y-101746513D01*
X148968282Y-101728282D01*
X149064536Y-101602841D01*
X149125044Y-101456762D01*
X149140500Y-101339361D01*
X149145682Y-101300000D01*
X149141775Y-101270322D01*
X149140500Y-101250873D01*
X149140500Y-99689999D01*
X150085030Y-99689999D01*
X150104874Y-99929478D01*
X150163865Y-100162429D01*
X150260392Y-100382488D01*
X150352687Y-100523756D01*
X150899858Y-99976584D01*
X150959680Y-100090566D01*
X151072405Y-100217806D01*
X151212305Y-100314371D01*
X151253542Y-100330010D01*
X150705573Y-100877980D01*
X150744204Y-100908049D01*
X150955546Y-101022422D01*
X151182825Y-101100447D01*
X151419851Y-101140000D01*
X151660149Y-101140000D01*
X151897174Y-101100447D01*
X152124455Y-101022421D01*
X152335789Y-100908052D01*
X152374425Y-100877979D01*
X151826457Y-100330010D01*
X151867695Y-100314371D01*
X152007595Y-100217806D01*
X152120320Y-100090566D01*
X152180140Y-99976586D01*
X152727310Y-100523756D01*
X152819608Y-100382485D01*
X152916134Y-100162429D01*
X152975125Y-99929478D01*
X152994969Y-99689999D01*
X152975125Y-99450521D01*
X152916134Y-99217570D01*
X152819608Y-98997514D01*
X152727310Y-98856242D01*
X152180139Y-99403412D01*
X152120320Y-99289434D01*
X152007595Y-99162194D01*
X151867695Y-99065629D01*
X151826455Y-99049988D01*
X152374425Y-98502019D01*
X152335789Y-98471946D01*
X152124458Y-98357579D01*
X151897174Y-98279552D01*
X151660149Y-98240000D01*
X151419851Y-98240000D01*
X151182825Y-98279552D01*
X150955541Y-98357579D01*
X150744210Y-98471946D01*
X150705573Y-98502018D01*
X150705573Y-98502019D01*
X151253543Y-99049989D01*
X151212305Y-99065629D01*
X151072405Y-99162194D01*
X150959680Y-99289434D01*
X150899859Y-99403413D01*
X150352687Y-98856241D01*
X150260392Y-98997511D01*
X150163865Y-99217570D01*
X150104874Y-99450521D01*
X150085030Y-99689999D01*
X149140500Y-99689999D01*
X149140500Y-96890000D01*
X155075001Y-96890000D01*
X155075001Y-97471478D01*
X155089835Y-97565148D01*
X155147358Y-97678044D01*
X155236954Y-97767640D01*
X155349851Y-97825164D01*
X155443521Y-97839999D01*
X155924999Y-97839999D01*
X155925000Y-97839998D01*
X155925000Y-96890000D01*
X155075001Y-96890000D01*
X149140500Y-96890000D01*
X149140500Y-95252500D01*
X149790000Y-95252500D01*
X149790000Y-95477724D01*
X149790228Y-95483544D01*
X149792900Y-95517490D01*
X149838718Y-95675197D01*
X149922317Y-95816556D01*
X150038443Y-95932682D01*
X150179802Y-96016281D01*
X150337509Y-96062099D01*
X150371455Y-96064771D01*
X150377275Y-96065000D01*
X151290000Y-96065000D01*
X151290000Y-95252500D01*
X151790000Y-95252500D01*
X151790000Y-96065000D01*
X152702725Y-96065000D01*
X152708544Y-96064771D01*
X152742490Y-96062099D01*
X152900197Y-96016281D01*
X153041556Y-95932682D01*
X153157682Y-95816556D01*
X153241281Y-95675197D01*
X153287099Y-95517490D01*
X153289771Y-95483544D01*
X153290000Y-95477724D01*
X153290000Y-95252500D01*
X151790000Y-95252500D01*
X151290000Y-95252500D01*
X149790000Y-95252500D01*
X149140500Y-95252500D01*
X149140500Y-94752500D01*
X149790000Y-94752500D01*
X151290000Y-94752500D01*
X151290000Y-93940000D01*
X151790000Y-93940000D01*
X151790000Y-94752500D01*
X153290000Y-94752500D01*
X153290000Y-94527275D01*
X153289771Y-94521455D01*
X153287099Y-94487509D01*
X153241281Y-94329802D01*
X153157682Y-94188443D01*
X153041556Y-94072317D01*
X152900197Y-93988718D01*
X152742490Y-93942900D01*
X152708544Y-93940228D01*
X152702725Y-93940000D01*
X151790000Y-93940000D01*
X151290000Y-93940000D01*
X150377275Y-93940000D01*
X150371455Y-93940228D01*
X150337509Y-93942900D01*
X150179802Y-93988718D01*
X150038443Y-94072317D01*
X149922317Y-94188443D01*
X149838718Y-94329802D01*
X149792900Y-94487509D01*
X149790228Y-94521455D01*
X149790000Y-94527275D01*
X149790000Y-94752500D01*
X149140500Y-94752500D01*
X149140500Y-93014500D01*
X149160462Y-92940000D01*
X149215000Y-92885462D01*
X149289500Y-92865500D01*
X150094464Y-92865500D01*
X150168964Y-92885462D01*
X150170311Y-92886250D01*
X150179598Y-92891742D01*
X150179599Y-92891742D01*
X150179602Y-92891744D01*
X150337431Y-92937598D01*
X150374306Y-92940500D01*
X150377223Y-92940500D01*
X152702777Y-92940500D01*
X152705694Y-92940500D01*
X152742569Y-92937598D01*
X152900398Y-92891744D01*
X153041865Y-92808081D01*
X153065805Y-92784140D01*
X153132600Y-92745577D01*
X153171164Y-92740500D01*
X154725501Y-92740500D01*
X154800001Y-92760462D01*
G37*
%TD.AperFunction*%
%TA.AperFunction,Conductor*%
G36*
X117022656Y-94250462D02*
G01*
X117027429Y-94253338D01*
X117037736Y-94259814D01*
X117037738Y-94259816D01*
X117161927Y-94337849D01*
X117178827Y-94348468D01*
X117231287Y-94405007D01*
X117248450Y-94480202D01*
X117225716Y-94553903D01*
X117216033Y-94566045D01*
X117216167Y-94566142D01*
X117209276Y-94575625D01*
X117209275Y-94575627D01*
X117189702Y-94602565D01*
X117153461Y-94652445D01*
X117136257Y-94705397D01*
X117114258Y-94773103D01*
X117114258Y-94899969D01*
X117153461Y-95020626D01*
X117209274Y-95097445D01*
X117397590Y-95285760D01*
X117461724Y-95349894D01*
X117500288Y-95416689D01*
X117500288Y-95493817D01*
X117461724Y-95560612D01*
X116176478Y-96845859D01*
X116109683Y-96884423D01*
X116071119Y-96889500D01*
X109689000Y-96889500D01*
X109614500Y-96869538D01*
X109559962Y-96815000D01*
X109540000Y-96740500D01*
X109540000Y-94379500D01*
X109559962Y-94305000D01*
X109614500Y-94250462D01*
X109689000Y-94230500D01*
X116948156Y-94230500D01*
X117022656Y-94250462D01*
G37*
%TD.AperFunction*%
%TA.AperFunction,Conductor*%
G36*
X124446408Y-99528039D02*
G01*
X124454717Y-99533658D01*
X124472446Y-99546539D01*
X124593103Y-99585742D01*
X124593104Y-99585742D01*
X124719968Y-99585742D01*
X124719969Y-99585742D01*
X124834458Y-99548542D01*
X124911478Y-99544507D01*
X124980200Y-99579523D01*
X125022207Y-99644208D01*
X125029499Y-99690251D01*
X125029499Y-101880873D01*
X125028225Y-101900319D01*
X125024317Y-101929999D01*
X125028225Y-101959675D01*
X125029500Y-101979125D01*
X125029500Y-102199573D01*
X125011070Y-102271354D01*
X124984688Y-102319342D01*
X124982802Y-102326689D01*
X124943815Y-102478534D01*
X124943815Y-102642888D01*
X124984688Y-102802079D01*
X125011070Y-102850069D01*
X125029500Y-102921848D01*
X125029500Y-105370873D01*
X125028225Y-105390322D01*
X125024317Y-105419999D01*
X125029500Y-105459359D01*
X125044955Y-105576761D01*
X125072677Y-105643686D01*
X125105464Y-105722841D01*
X125201718Y-105848282D01*
X125225467Y-105866505D01*
X125240121Y-105879356D01*
X125840643Y-106479878D01*
X125853487Y-106494524D01*
X125871718Y-106518282D01*
X125967551Y-106591817D01*
X125997159Y-106614536D01*
X126029283Y-106627842D01*
X126090473Y-106674795D01*
X126119988Y-106746052D01*
X126109921Y-106822520D01*
X126062968Y-106883710D01*
X125991711Y-106913225D01*
X125972263Y-106914500D01*
X124139387Y-106914500D01*
X124064887Y-106894538D01*
X124034028Y-106870859D01*
X120885114Y-103721945D01*
X120846550Y-103655150D01*
X120846550Y-103578022D01*
X120885112Y-103511229D01*
X121412111Y-102984231D01*
X121436134Y-102956104D01*
X121515312Y-102812079D01*
X121556185Y-102652888D01*
X121556185Y-102488534D01*
X121515312Y-102329343D01*
X121468101Y-102243465D01*
X121449705Y-102168568D01*
X121471223Y-102094502D01*
X121493309Y-102066333D01*
X123551540Y-100008101D01*
X123618333Y-99969539D01*
X123640209Y-99965400D01*
X123729255Y-99955368D01*
X123899522Y-99895789D01*
X124052262Y-99799816D01*
X124179816Y-99672262D01*
X124240975Y-99574928D01*
X124297512Y-99522468D01*
X124372706Y-99505305D01*
X124446408Y-99528039D01*
G37*
%TD.AperFunction*%
%TA.AperFunction,Conductor*%
G36*
X131909047Y-96585462D02*
G01*
X131939906Y-96609141D01*
X135410643Y-100079878D01*
X135423487Y-100094524D01*
X135441718Y-100118282D01*
X135482069Y-100149244D01*
X135567159Y-100214536D01*
X135713238Y-100275044D01*
X135765492Y-100281923D01*
X135869998Y-100295682D01*
X135869999Y-100295681D01*
X135870000Y-100295682D01*
X135899677Y-100291774D01*
X135919125Y-100290500D01*
X144940501Y-100290500D01*
X145015001Y-100310462D01*
X145069539Y-100365000D01*
X145089501Y-100439499D01*
X145089501Y-100771518D01*
X145104354Y-100865304D01*
X145161950Y-100978342D01*
X145251658Y-101068050D01*
X145364696Y-101125646D01*
X145458481Y-101140500D01*
X147490547Y-101140499D01*
X147565047Y-101160461D01*
X147619585Y-101214999D01*
X147639547Y-101289499D01*
X147619585Y-101363999D01*
X147595906Y-101394858D01*
X146434906Y-102555859D01*
X146368111Y-102594423D01*
X146329547Y-102599500D01*
X145062103Y-102599500D01*
X145042656Y-102598225D01*
X145014361Y-102594500D01*
X145008392Y-102593714D01*
X144974998Y-102589317D01*
X144952458Y-102592285D01*
X144875990Y-102582218D01*
X144814800Y-102535265D01*
X144810956Y-102530022D01*
X144807349Y-102524871D01*
X144757126Y-102453144D01*
X144711599Y-102388124D01*
X144556874Y-102233399D01*
X144377642Y-102107899D01*
X144179330Y-102015425D01*
X143967976Y-101958792D01*
X143750000Y-101939723D01*
X143532023Y-101958792D01*
X143320669Y-102015424D01*
X143122363Y-102107897D01*
X142943122Y-102233402D01*
X142788402Y-102388122D01*
X142662898Y-102567361D01*
X142615040Y-102669993D01*
X142565463Y-102729076D01*
X142492986Y-102755455D01*
X142417029Y-102742062D01*
X142357946Y-102692485D01*
X142344960Y-102669993D01*
X142333569Y-102645565D01*
X142297102Y-102567362D01*
X142171598Y-102388123D01*
X142016877Y-102233402D01*
X142016877Y-102233401D01*
X142016874Y-102233399D01*
X141837642Y-102107899D01*
X141639330Y-102015425D01*
X141427976Y-101958792D01*
X141210000Y-101939723D01*
X140992023Y-101958792D01*
X140780669Y-102015424D01*
X140582363Y-102107897D01*
X140403122Y-102233402D01*
X140248402Y-102388122D01*
X140122895Y-102567365D01*
X140074762Y-102670585D01*
X140025185Y-102729668D01*
X139952708Y-102756047D01*
X139876752Y-102742653D01*
X139817669Y-102693076D01*
X139804683Y-102670584D01*
X139756667Y-102567613D01*
X139631212Y-102388445D01*
X139476553Y-102233787D01*
X139297387Y-102108332D01*
X139099158Y-102015897D01*
X138920000Y-101967891D01*
X138920000Y-102759498D01*
X138812315Y-102710320D01*
X138705763Y-102695000D01*
X138634237Y-102695000D01*
X138527685Y-102710320D01*
X138420000Y-102759498D01*
X138420000Y-101967892D01*
X138419999Y-101967891D01*
X138240841Y-102015897D01*
X138042614Y-102108332D01*
X137863445Y-102233787D01*
X137708787Y-102388445D01*
X137583332Y-102567614D01*
X137490897Y-102765841D01*
X137442891Y-102944999D01*
X137442892Y-102945000D01*
X138236314Y-102945000D01*
X138210507Y-102985156D01*
X138170000Y-103123111D01*
X138170000Y-103266889D01*
X138210507Y-103404844D01*
X138236314Y-103445000D01*
X137442892Y-103445000D01*
X137490897Y-103624158D01*
X137529774Y-103707530D01*
X137543167Y-103783486D01*
X137516788Y-103855963D01*
X137457704Y-103905540D01*
X137394734Y-103919500D01*
X136091936Y-103919500D01*
X136086850Y-103919413D01*
X136023171Y-103917237D01*
X135984500Y-103926661D01*
X135969515Y-103929509D01*
X135930081Y-103934929D01*
X135915577Y-103941229D01*
X135891497Y-103949326D01*
X135876148Y-103953066D01*
X135841444Y-103972578D01*
X135827790Y-103979359D01*
X135791279Y-103995219D01*
X135779016Y-104005196D01*
X135758017Y-104019488D01*
X135744239Y-104027235D01*
X135716096Y-104055377D01*
X135704776Y-104065594D01*
X135673891Y-104090722D01*
X135664775Y-104103636D01*
X135648410Y-104123063D01*
X134325616Y-105445859D01*
X134258821Y-105484423D01*
X134220257Y-105489500D01*
X127584300Y-105489500D01*
X127509800Y-105469538D01*
X127455262Y-105415000D01*
X127435300Y-105340500D01*
X127443661Y-105291291D01*
X127450716Y-105271125D01*
X127465368Y-105229255D01*
X127465368Y-105229252D01*
X127469001Y-105218870D01*
X127512448Y-105155143D01*
X127572586Y-105123760D01*
X127585677Y-105120399D01*
X127585680Y-105120399D01*
X127744871Y-105079526D01*
X127888897Y-105000348D01*
X127917024Y-104976325D01*
X128646325Y-104247024D01*
X128670348Y-104218897D01*
X128749526Y-104074871D01*
X128790399Y-103915680D01*
X128790399Y-103751326D01*
X128782938Y-103722267D01*
X128783746Y-103645146D01*
X128823007Y-103578758D01*
X128890201Y-103540895D01*
X128964310Y-103540895D01*
X129001326Y-103550399D01*
X129001327Y-103550399D01*
X129165679Y-103550399D01*
X129165680Y-103550399D01*
X129324871Y-103509526D01*
X129468897Y-103430348D01*
X129497024Y-103406325D01*
X130226325Y-102677024D01*
X130250348Y-102648897D01*
X130313509Y-102534005D01*
X130366891Y-102478339D01*
X130440957Y-102456821D01*
X130515859Y-102475218D01*
X130523343Y-102479621D01*
X130660478Y-102565789D01*
X130830745Y-102625368D01*
X131010000Y-102645565D01*
X131189255Y-102625368D01*
X131359522Y-102565789D01*
X131512262Y-102469816D01*
X131639816Y-102342262D01*
X131735789Y-102189522D01*
X131795368Y-102019255D01*
X131815565Y-101840000D01*
X131795368Y-101660745D01*
X131735789Y-101490478D01*
X131735787Y-101490475D01*
X131735787Y-101490474D01*
X131670541Y-101386636D01*
X131647806Y-101312935D01*
X131664968Y-101237741D01*
X131691339Y-101202008D01*
X131786325Y-101107024D01*
X131810348Y-101078897D01*
X131889526Y-100934871D01*
X131930399Y-100775680D01*
X131930399Y-100611326D01*
X131927099Y-100598473D01*
X131927905Y-100521350D01*
X131967166Y-100454962D01*
X132034360Y-100417099D01*
X132108473Y-100417099D01*
X132121326Y-100420399D01*
X132285679Y-100420399D01*
X132285680Y-100420399D01*
X132444871Y-100379526D01*
X132588897Y-100300348D01*
X132617024Y-100276325D01*
X133346325Y-99547024D01*
X133370348Y-99518897D01*
X133449526Y-99374871D01*
X133490399Y-99215680D01*
X133490399Y-99051326D01*
X133449526Y-98892135D01*
X133370348Y-98748110D01*
X133370347Y-98748108D01*
X133348225Y-98722208D01*
X133346325Y-98719983D01*
X132758445Y-98132103D01*
X132750645Y-98125441D01*
X132730319Y-98108080D01*
X132597192Y-98034894D01*
X132586293Y-98028902D01*
X132427102Y-97988029D01*
X132262748Y-97988029D01*
X132262745Y-97988029D01*
X132255761Y-97989822D01*
X132178637Y-97989012D01*
X132112251Y-97949748D01*
X132074391Y-97882552D01*
X132074393Y-97808445D01*
X132076185Y-97801466D01*
X132076185Y-97637112D01*
X132073034Y-97624838D01*
X132035312Y-97477921D01*
X131956134Y-97333896D01*
X131956133Y-97333894D01*
X131934011Y-97307994D01*
X131932111Y-97305769D01*
X131446201Y-96819859D01*
X131407637Y-96753064D01*
X131407637Y-96675936D01*
X131446201Y-96609141D01*
X131512996Y-96570577D01*
X131551560Y-96565500D01*
X131834547Y-96565500D01*
X131909047Y-96585462D01*
G37*
%TD.AperFunction*%
%TA.AperFunction,Conductor*%
G36*
X116599868Y-98087077D02*
G01*
X116661058Y-98134029D01*
X116690574Y-98205286D01*
X116680507Y-98281754D01*
X116648208Y-98330094D01*
X116141116Y-98837186D01*
X116141103Y-98837199D01*
X116139050Y-98839253D01*
X116137157Y-98841468D01*
X116137149Y-98841478D01*
X116115028Y-98867377D01*
X116035849Y-99011405D01*
X115994976Y-99170596D01*
X115994976Y-99334950D01*
X116021336Y-99437620D01*
X116020528Y-99514744D01*
X115981266Y-99581131D01*
X115914071Y-99618993D01*
X115839963Y-99618993D01*
X115737642Y-99592722D01*
X115573412Y-99592722D01*
X115414343Y-99633562D01*
X115270430Y-99712680D01*
X115244545Y-99734788D01*
X115240257Y-99738751D01*
X115134035Y-99844974D01*
X116000947Y-100711886D01*
X116039511Y-100778681D01*
X116039511Y-100855809D01*
X116000947Y-100922604D01*
X115231262Y-101692289D01*
X115231262Y-101692290D01*
X115434711Y-101895739D01*
X115439006Y-101899709D01*
X115464882Y-101921810D01*
X115608799Y-102000929D01*
X115767866Y-102041770D01*
X115932094Y-102041770D01*
X115975485Y-102030629D01*
X116052609Y-102031437D01*
X116118996Y-102070698D01*
X116156859Y-102137893D01*
X116156861Y-102182503D01*
X116159601Y-102182503D01*
X116159601Y-102201326D01*
X116159601Y-102365680D01*
X116165364Y-102388124D01*
X116200474Y-102524871D01*
X116201713Y-102527125D01*
X116220108Y-102602028D01*
X116198588Y-102676093D01*
X116176500Y-102704261D01*
X116064582Y-102816179D01*
X116064573Y-102816192D01*
X115704906Y-103175859D01*
X115638111Y-103214423D01*
X115599547Y-103219500D01*
X109689000Y-103219500D01*
X109614500Y-103199538D01*
X109559962Y-103145000D01*
X109540000Y-103070500D01*
X109540000Y-100802133D01*
X114528230Y-100802133D01*
X114569070Y-100961200D01*
X114648189Y-101105117D01*
X114670290Y-101130993D01*
X114674260Y-101135288D01*
X114877709Y-101338737D01*
X115399201Y-100817245D01*
X114780482Y-100198526D01*
X114674262Y-100304747D01*
X114670287Y-100309047D01*
X114648188Y-100334922D01*
X114569070Y-100478835D01*
X114528230Y-100637904D01*
X114528230Y-100802133D01*
X109540000Y-100802133D01*
X109540000Y-98239500D01*
X109559962Y-98165000D01*
X109614500Y-98110462D01*
X109689000Y-98090500D01*
X116332447Y-98090500D01*
X116351894Y-98091774D01*
X116381572Y-98095682D01*
X116381572Y-98095681D01*
X116381573Y-98095682D01*
X116466567Y-98084492D01*
X116523400Y-98077010D01*
X116599868Y-98087077D01*
G37*
%TD.AperFunction*%
%TA.AperFunction,Conductor*%
G36*
X145397166Y-92885462D02*
G01*
X145451704Y-92940000D01*
X145465747Y-92972924D01*
X145488256Y-93050398D01*
X145526756Y-93115498D01*
X145571919Y-93191865D01*
X145688136Y-93308082D01*
X145694338Y-93311750D01*
X145748302Y-93366857D01*
X145767482Y-93441562D01*
X145746740Y-93515848D01*
X145694338Y-93568250D01*
X145688136Y-93571917D01*
X145571919Y-93688134D01*
X145488256Y-93829602D01*
X145442402Y-93987430D01*
X145439744Y-94021211D01*
X145439500Y-94024306D01*
X145439500Y-94855694D01*
X145442402Y-94892569D01*
X145488256Y-95050398D01*
X145571919Y-95191865D01*
X145688135Y-95308081D01*
X145829602Y-95391744D01*
X145832069Y-95392460D01*
X145898041Y-95432413D01*
X145935199Y-95500001D01*
X145939500Y-95535544D01*
X145939500Y-98090500D01*
X145919538Y-98165000D01*
X145865000Y-98219538D01*
X145790500Y-98239500D01*
X145458482Y-98239500D01*
X145364696Y-98254354D01*
X145251657Y-98311950D01*
X145161950Y-98401657D01*
X145104354Y-98514695D01*
X145089500Y-98608483D01*
X145089500Y-98940500D01*
X145069538Y-99015000D01*
X145015000Y-99069538D01*
X144940500Y-99089500D01*
X136180453Y-99089500D01*
X136105953Y-99069538D01*
X136075094Y-99045859D01*
X132604356Y-95575121D01*
X132591505Y-95560467D01*
X132573282Y-95536718D01*
X132558077Y-95525051D01*
X132522444Y-95497708D01*
X132475492Y-95436520D01*
X132465425Y-95360052D01*
X132494940Y-95288795D01*
X132556130Y-95241842D01*
X132613150Y-95230500D01*
X133019547Y-95230500D01*
X133094047Y-95250462D01*
X133124906Y-95274141D01*
X133703113Y-95852348D01*
X133741677Y-95919143D01*
X133745817Y-95941023D01*
X133754632Y-96019255D01*
X133814211Y-96189522D01*
X133910184Y-96342262D01*
X134037738Y-96469816D01*
X134190478Y-96565789D01*
X134360745Y-96625368D01*
X134523516Y-96643707D01*
X134539999Y-96645565D01*
X134539999Y-96645564D01*
X134540000Y-96645565D01*
X134648818Y-96633304D01*
X134725083Y-96644799D01*
X134785385Y-96692887D01*
X134813563Y-96764684D01*
X134814500Y-96781366D01*
X134814500Y-96910694D01*
X134814727Y-96913586D01*
X134814728Y-96913596D01*
X134816662Y-96938164D01*
X134817402Y-96947569D01*
X134863256Y-97105398D01*
X134946919Y-97246865D01*
X135063135Y-97363081D01*
X135204602Y-97446744D01*
X135362431Y-97492598D01*
X135399306Y-97495500D01*
X135402223Y-97495500D01*
X136202777Y-97495500D01*
X136205694Y-97495500D01*
X136242569Y-97492598D01*
X136400398Y-97446744D01*
X136541865Y-97363081D01*
X136658081Y-97246865D01*
X136712039Y-97155625D01*
X136767144Y-97101662D01*
X136841849Y-97082480D01*
X136916136Y-97103221D01*
X136968541Y-97155625D01*
X137022317Y-97246556D01*
X137138443Y-97362682D01*
X137279802Y-97446281D01*
X137437509Y-97492099D01*
X137471455Y-97494771D01*
X137477275Y-97495000D01*
X137627500Y-97495000D01*
X137627500Y-96620000D01*
X138127500Y-96620000D01*
X138127500Y-97495000D01*
X138277725Y-97495000D01*
X138283544Y-97494771D01*
X138317490Y-97492099D01*
X138475197Y-97446281D01*
X138616556Y-97362682D01*
X138732682Y-97246556D01*
X138816281Y-97105197D01*
X138862099Y-96947490D01*
X138864771Y-96913544D01*
X138865000Y-96907724D01*
X138865000Y-96620000D01*
X138127500Y-96620000D01*
X137627500Y-96620000D01*
X137627500Y-96269000D01*
X137647462Y-96194500D01*
X137702000Y-96139962D01*
X137776500Y-96120000D01*
X138865000Y-96120000D01*
X138865000Y-95832275D01*
X138864771Y-95826455D01*
X138862099Y-95792509D01*
X138816281Y-95634802D01*
X138732682Y-95493443D01*
X138616556Y-95377317D01*
X138482861Y-95298251D01*
X138428897Y-95243145D01*
X138409716Y-95168440D01*
X138430457Y-95094153D01*
X138482861Y-95041749D01*
X138616556Y-94962682D01*
X138732682Y-94846556D01*
X138816281Y-94705197D01*
X138862099Y-94547490D01*
X138864771Y-94513544D01*
X138865000Y-94507724D01*
X138865000Y-94220000D01*
X137776500Y-94220000D01*
X137702000Y-94200038D01*
X137647462Y-94145500D01*
X137627500Y-94071000D01*
X137627500Y-93869000D01*
X137647462Y-93794500D01*
X137702000Y-93739962D01*
X137776500Y-93720000D01*
X138865000Y-93720000D01*
X138865000Y-93432275D01*
X138864771Y-93426455D01*
X138862099Y-93392509D01*
X138816281Y-93234802D01*
X138730851Y-93090347D01*
X138710110Y-93016060D01*
X138729291Y-92941355D01*
X138783255Y-92886249D01*
X138857542Y-92865508D01*
X138859102Y-92865500D01*
X142495046Y-92865500D01*
X145322666Y-92865500D01*
X145397166Y-92885462D01*
G37*
%TD.AperFunction*%
%TA.AperFunction,Conductor*%
G36*
X158800500Y-92009962D02*
G01*
X158855038Y-92064500D01*
X158875000Y-92139000D01*
X158875000Y-94741000D01*
X158855038Y-94815500D01*
X158800500Y-94870038D01*
X158726000Y-94890000D01*
X158524000Y-94890000D01*
X158449500Y-94870038D01*
X158394962Y-94815500D01*
X158375000Y-94741000D01*
X158375000Y-92139000D01*
X158394962Y-92064500D01*
X158449500Y-92009962D01*
X158524000Y-91990000D01*
X158726000Y-91990000D01*
X158800500Y-92009962D01*
G37*
%TD.AperFunction*%
%TD*%
M02*
