%TF.GenerationSoftware,KiCad,Pcbnew,7.0.2*%
%TF.CreationDate,2024-05-08T22:38:03+07:00*%
%TF.ProjectId,multiport component tester,6d756c74-6970-46f7-9274-20636f6d706f,rev?*%
%TF.SameCoordinates,Original*%
%TF.FileFunction,Profile,NP*%
%FSLAX46Y46*%
G04 Gerber Fmt 4.6, Leading zero omitted, Abs format (unit mm)*
G04 Created by KiCad (PCBNEW 7.0.2) date 2024-05-08 22:38:03*
%MOMM*%
%LPD*%
G01*
G04 APERTURE LIST*
%TA.AperFunction,Profile*%
%ADD10C,0.100000*%
%TD*%
%TA.AperFunction,Profile*%
%ADD11C,0.010000*%
%TD*%
G04 APERTURE END LIST*
D10*
X73670000Y-87290260D02*
X73670000Y-99589740D01*
X64260130Y-103039740D02*
X70220000Y-103039740D01*
X160710000Y-80390000D02*
G75*
G03*
X157260000Y-76940000I-3450000J0D01*
G01*
X64260130Y-83840260D02*
X70220000Y-83840260D01*
X73670040Y-87290260D02*
G75*
G03*
X70220000Y-83840260I-3450040J-40D01*
G01*
X64260130Y-76940000D02*
X157260000Y-76940000D01*
X157260000Y-109940000D02*
X64260130Y-109940000D01*
X64260130Y-103039740D02*
G75*
G03*
X64260130Y-109940000I0J-3450130D01*
G01*
X157260000Y-109940000D02*
G75*
G03*
X160710000Y-106490000I0J3450000D01*
G01*
X70220000Y-103039740D02*
G75*
G03*
X73670000Y-99589740I0J3450000D01*
G01*
X64260130Y-76940000D02*
G75*
G03*
X64260130Y-83840260I0J-3450130D01*
G01*
X160710000Y-80390000D02*
X160710000Y-106490000D01*
D11*
%TO.C,MicroUSB1*%
X158030000Y-89830000D02*
X159220000Y-89830000D01*
X159220000Y-90540000D02*
X158030000Y-90540000D01*
X158030000Y-96340000D02*
X159220000Y-96340000D01*
X159220000Y-97050000D02*
X158030000Y-97050000D01*
X159575000Y-90185000D02*
G75*
G03*
X159220000Y-89830000I-355000J0D01*
G01*
X159220000Y-90540000D02*
G75*
G03*
X159575000Y-90185000I0J355000D01*
G01*
X158030000Y-89830000D02*
G75*
G03*
X157675000Y-90185000I0J-355000D01*
G01*
X157675000Y-90185000D02*
G75*
G03*
X158030000Y-90540000I355000J0D01*
G01*
X159575000Y-96695000D02*
G75*
G03*
X159220000Y-96340000I-355000J0D01*
G01*
X159220000Y-97050000D02*
G75*
G03*
X159575000Y-96695000I0J355000D01*
G01*
X158030000Y-96340000D02*
G75*
G03*
X157675000Y-96695000I0J-355000D01*
G01*
X157675000Y-96695000D02*
G75*
G03*
X158030000Y-97050000I355000J0D01*
G01*
%TD*%
M02*
