M48
; DRILL file {KiCad 7.0.2} date Wed May  8 22:38:05 2024
; FORMAT={-:-/ absolute / metric / decimal}
; #@! TF.CreationDate,2024-05-08T22:38:05+07:00
; #@! TF.GenerationSoftware,Kicad,Pcbnew,7.0.2
; #@! TF.FileFunction,Plated,1,2,PTH
FMAT,2
METRIC
; #@! TA.AperFunction,Plated,PTH,ViaDrill
T1C0.400
; #@! TA.AperFunction,Plated,PTH,ComponentDrill
T2C0.970
; #@! TA.AperFunction,Plated,PTH,ComponentDrill
T3C1.000
; #@! TA.AperFunction,Plated,PTH,ComponentDrill
T4C1.200
; #@! TA.AperFunction,Plated,PTH,ComponentDrill
T5C1.400
; #@! TA.AperFunction,Plated,PTH,ComponentDrill
T6C3.200
%
G90
G05
T1
X76.86Y-101.44
X78.04Y-101.44
X89.88Y-96.5
X89.9Y-97.6
X92.72Y-101.44
X93.9Y-101.44
X110.6Y-88.1
X110.6Y-89.46
X110.6Y-95.6
X110.6Y-105.9
X110.6Y-107.3
X114.13Y-98.72
X115.17Y-98.72
X117.54Y-93.63
X119.12Y-87.52
X120.24Y-93.63
X122.02Y-93.67
X122.89Y-94.57
X122.99Y-104.21
X123.55Y-99.17
X125.69Y-86.79
X126.68Y-105.05
X129.38Y-95.33
X131.01Y-101.84
X132.77Y-104.34
X134.54Y-93.44
X134.54Y-95.84
X138.852Y-80.75
X143.6Y-93.44
X143.6Y-95.84
T2
X84.8Y-83.2
X84.8Y-90.82
X87.34Y-83.2
X87.34Y-90.82
X89.88Y-83.2
X89.88Y-90.82
X92.42Y-83.2
X92.42Y-90.82
X94.96Y-83.2
X94.96Y-90.82
X97.5Y-83.2
X97.5Y-90.82
X100.04Y-83.2
X100.04Y-90.82
T3
X97.28Y-96.23
X97.28Y-98.77
X99.82Y-96.23
X99.82Y-98.77
X102.36Y-96.23
X102.36Y-98.77
X104.9Y-96.23
X104.9Y-98.77
X107.44Y-96.23
X107.44Y-98.77
X119.34Y-81.49
X121.88Y-81.49
X124.42Y-81.49
X126.96Y-81.49
X138.67Y-103.195
X138.67Y-105.735
X141.21Y-103.195
X141.21Y-105.735
X143.75Y-103.195
X143.75Y-105.735
T4
X97.28Y-103.82
X99.82Y-103.82
X102.36Y-103.82
X104.9Y-103.82
X107.44Y-103.82
T5
X146.54Y-87.19
X146.54Y-99.69
X151.54Y-87.19
X151.54Y-99.69
T6
X64.26Y-80.39
X64.26Y-106.49
T0
M30
